<svg width="128" height="121" viewBox="0 0 128 121" fill="none" xmlns="http://www.w3.org/2000/svg">
<g clip-path="url(#clip0_190_7640)">
<path d="M123.967 45.6931C121.563 35.8401 106.642 32.7443 100.086 25.8829C93.3211 18.828 90.7239 3.90709 81.3322 1.1536C72.2383 -1.48826 62.0653 9.50337 52.1899 11.9071C42.3146 14.3108 28.2048 9.2057 21.3583 15.7471C14.2885 22.4969 18.8653 36.9415 16.149 46.3108C13.4401 55.3899 1.63734 65.0122 4.04106 74.8652C6.44479 84.7183 21.3657 87.8141 27.922 94.6755C34.6941 101.73 37.2839 116.651 46.6755 119.405C55.8141 122.047 65.9425 111.055 75.8178 108.651C85.6932 106.248 99.8029 111.353 106.657 104.811C113.719 98.0615 107.401 84.8076 110.809 74.0913C114.121 63.6503 126.378 55.5462 123.967 45.6931Z" fill="white"/>
<path d="M127.256 120.558H0.744186C0.546816 120.558 0.357529 120.48 0.217967 120.34C0.0784051 120.201 0 120.011 0 119.814C0 119.617 0.0784051 119.427 0.217967 119.288C0.357529 119.148 0.546816 119.07 0.744186 119.07H127.256C127.453 119.07 127.642 119.148 127.782 119.288C127.922 119.427 128 119.617 128 119.814C128 120.011 127.922 120.201 127.782 120.34C127.642 120.48 127.453 120.558 127.256 120.558Z" fill="#A09CAD"/>
<path d="M100.465 33.4885H15.6279V119.814H100.465V33.4885Z" fill="white"/>
<path d="M66.255 33.4885L40.0225 119.814H64.3722L90.6048 33.4885H66.255Z" fill="#EDEDED"/>
<path d="M22.3257 119.814H28.9787L55.2113 33.4885H48.0522L22.3257 119.814Z" fill="#EDEDED"/>
<path d="M100.465 120.558H15.628C15.4306 120.558 15.2413 120.48 15.1018 120.34C14.9622 120.201 14.8838 120.011 14.8838 119.814V79.628C14.8838 79.4306 14.9622 79.2413 15.1018 79.1018C15.2413 78.9622 15.4306 78.8838 15.628 78.8838C15.8253 78.8838 16.0146 78.9622 16.1542 79.1018C16.2938 79.2413 16.3722 79.4306 16.3722 79.628V119.07H99.721V108.488C99.721 108.29 99.7994 108.101 99.939 107.961C100.079 107.822 100.268 107.743 100.465 107.743C100.663 107.743 100.852 107.822 100.991 107.961C101.131 108.101 101.209 108.29 101.209 108.488V119.814C101.209 120.011 101.131 120.201 100.991 120.34C100.852 120.48 100.663 120.558 100.465 120.558Z" fill="#34234D"/>
<path d="M15.628 75.9072C15.4306 75.9072 15.2413 75.8288 15.1018 75.6892C14.9622 75.5496 14.8838 75.3604 14.8838 75.163V33.4886C14.8838 33.2912 14.9622 33.1019 15.1018 32.9624C15.2413 32.8228 15.4306 32.7444 15.628 32.7444H100.465C100.663 32.7444 100.852 32.8228 100.991 32.9624C101.131 33.1019 101.209 33.2912 101.209 33.4886V44.8151C101.209 45.0125 101.131 45.2017 100.991 45.3413C100.852 45.4809 100.663 45.5593 100.465 45.5593C100.268 45.5593 100.079 45.4809 99.939 45.3413C99.7994 45.2017 99.721 45.0125 99.721 44.8151V34.2328H16.3722V75.163C16.3722 75.3604 16.2938 75.5496 16.1542 75.6892C16.0146 75.8288 15.8253 75.9072 15.628 75.9072Z" fill="#34234D"/>
<path d="M100.465 23.0698H15.6279V33.4884H100.465V23.0698Z" fill="#FF972C"/>
<path d="M93.7674 23.0698H69.4177L66.2549 33.4884H90.6047L93.7674 23.0698Z" fill="#FCE0AE"/>
<path d="M51.1629 23.0698L48.0522 33.4884H55.2113L58.3815 23.0698H51.1629Z" fill="#FCE0AE"/>
<path d="M100.465 34.2327H15.628C15.4306 34.2327 15.2413 34.1543 15.1018 34.0147C14.9622 33.8751 14.8838 33.6858 14.8838 33.4885V23.0699C14.8838 22.8725 14.9622 22.6832 15.1018 22.5437C15.2413 22.4041 15.4306 22.3257 15.628 22.3257H40.9303C41.1277 22.3257 41.317 22.4041 41.4565 22.5437C41.5961 22.6832 41.6745 22.8725 41.6745 23.0699C41.6745 23.2672 41.5961 23.4565 41.4565 23.5961C41.317 23.7357 41.1277 23.8141 40.9303 23.8141H16.3722V32.7443H99.721V23.8141H45.3954C45.198 23.8141 45.0088 23.7357 44.8692 23.5961C44.7296 23.4565 44.6512 23.2672 44.6512 23.0699C44.6512 22.8725 44.7296 22.6832 44.8692 22.5437C45.0088 22.4041 45.198 22.3257 45.3954 22.3257H100.465C100.663 22.3257 100.852 22.4041 100.991 22.5437C101.131 22.6832 101.209 22.8725 101.209 23.0699V33.4885C101.209 33.6858 101.131 33.8751 100.991 34.0147C100.852 34.1543 100.663 34.2327 100.465 34.2327Z" fill="#34234D"/>
<path d="M92.2792 40.1863H23.8141C22.9921 40.1863 22.3257 40.8526 22.3257 41.6747V52.8374C22.3257 53.6594 22.9921 54.3258 23.8141 54.3258H92.2792C93.1012 54.3258 93.7675 53.6594 93.7675 52.8374V41.6747C93.7675 40.8526 93.1012 40.1863 92.2792 40.1863Z" fill="#B8B5C6"/>
<path d="M92.2792 106.419H23.8141C22.9921 106.419 22.3257 107.085 22.3257 107.907V111.628C22.3257 112.45 22.9921 113.116 23.8141 113.116H92.2792C93.1012 113.116 93.7675 112.45 93.7675 111.628V107.907C93.7675 107.085 93.1012 106.419 92.2792 106.419Z" fill="#B8B5C6"/>
<path d="M33.4885 60.2793H23.8141C22.9921 60.2793 22.3257 60.9457 22.3257 61.7677V98.977C22.3257 99.799 22.9921 100.465 23.8141 100.465H33.4885C34.3105 100.465 34.9768 99.799 34.9768 98.977V61.7677C34.9768 60.9457 34.3105 60.2793 33.4885 60.2793Z" fill="#B8B5C6"/>
<path d="M92.279 60.2793H42.4185C41.5965 60.2793 40.9302 60.9457 40.9302 61.7677V98.977C40.9302 99.799 41.5965 100.465 42.4185 100.465H92.279C93.101 100.465 93.7674 99.799 93.7674 98.977V61.7677C93.7674 60.9457 93.101 60.2793 92.279 60.2793Z" fill="#B8B5C6"/>
<path d="M22.3258 29.7675C23.1478 29.7675 23.8141 29.1012 23.8141 28.2791C23.8141 27.4571 23.1478 26.7908 22.3258 26.7908C21.5038 26.7908 20.8374 27.4571 20.8374 28.2791C20.8374 29.1012 21.5038 29.7675 22.3258 29.7675Z" fill="white"/>
<path d="M28.2794 29.7675C29.1014 29.7675 29.7678 29.1012 29.7678 28.2791C29.7678 27.4571 29.1014 26.7908 28.2794 26.7908C27.4574 26.7908 26.791 27.4571 26.791 28.2791C26.791 29.1012 27.4574 29.7675 28.2794 29.7675Z" fill="white"/>
<path d="M34.2325 29.7675C35.0545 29.7675 35.7209 29.1012 35.7209 28.2791C35.7209 27.4571 35.0545 26.7908 34.2325 26.7908C33.4105 26.7908 32.7441 27.4571 32.7441 28.2791C32.7441 29.1012 33.4105 29.7675 34.2325 29.7675Z" fill="white"/>
<path d="M76.6511 112.372C96.3792 112.372 112.372 96.3795 112.372 76.6514C112.372 56.9232 96.3792 40.9304 76.6511 40.9304C56.923 40.9304 40.9302 56.9232 40.9302 76.6514C40.9302 96.3795 56.923 112.372 76.6511 112.372Z" fill="white"/>
<path d="M99.5721 49.2651C105.273 56.1135 108.208 64.8452 107.801 73.7464C107.395 82.6476 103.677 91.0755 97.3762 97.3762C91.0755 103.677 82.6476 107.395 73.7464 107.801C64.8452 108.208 56.1135 105.273 49.2651 99.5721C52.4417 103.388 56.3789 106.5 60.8256 108.71C65.2723 110.919 70.1308 112.177 75.0909 112.403C80.051 112.63 85.0038 111.82 89.6333 110.025C94.2627 108.23 98.4671 105.489 101.978 101.978C105.489 98.4671 108.23 94.2627 110.025 89.6333C111.82 85.0038 112.63 80.051 112.403 75.0909C112.177 70.1308 110.919 65.2723 108.71 60.8256C106.5 56.3789 103.388 52.4417 99.5721 49.2651Z" fill="#EDEDED"/>
<path d="M76.651 56.5582V46.8838C72.7413 46.8781 68.869 47.6458 65.2571 49.1427C61.6452 50.6396 58.3651 52.836 55.6055 55.6057L62.4445 62.4448C64.3071 60.5749 66.5213 59.0921 68.9595 58.0818C71.3978 57.0715 74.0118 56.5537 76.651 56.5582Z" fill="#2FC8F2"/>
<path d="M62.4446 63.1889C62.3467 63.1895 62.2496 63.1707 62.1589 63.1336C62.0683 63.0966 61.9858 63.042 61.9162 62.9731L55.0697 56.1266C55 56.0574 54.9446 55.9751 54.9068 55.8844C54.8691 55.7937 54.8496 55.6964 54.8496 55.5982C54.8496 55.4999 54.8691 55.4027 54.9068 55.312C54.9446 55.2213 55 55.139 55.0697 55.0698C57.8969 52.227 61.2604 49.9738 64.965 48.4408C68.6697 46.9078 72.6418 46.1257 76.6511 46.1396C76.8485 46.1396 77.0378 46.218 77.1774 46.3576C77.3169 46.4971 77.3953 46.6864 77.3953 46.8838V56.5582C77.3953 56.7556 77.3169 56.9448 77.1774 57.0844C77.0378 57.224 76.8485 57.3024 76.6511 57.3024C74.1093 57.2947 71.5912 57.7921 69.2432 58.7655C66.8951 59.739 64.7638 61.1692 62.973 62.9731C62.9035 63.042 62.821 63.0966 62.7303 63.1336C62.6396 63.1707 62.5426 63.1895 62.4446 63.1889ZM56.6623 55.6056L62.4521 61.4028C66.108 57.9654 70.8915 55.9784 75.9069 55.814V47.628C68.7216 47.794 61.8578 50.6394 56.6623 55.6056Z" fill="#34234D"/>
<path d="M62.4448 62.4448L55.6057 55.6057C52.836 58.3653 50.6396 61.6455 49.1427 65.2574C47.6458 68.8692 46.8781 72.7415 46.8838 76.6513H56.5582C56.5537 74.0121 57.0715 71.398 58.0818 68.9598C59.0921 66.5216 60.5749 64.3074 62.4448 62.4448Z" fill="#A09CAD"/>
<path d="M56.5584 77.3955H46.884C46.6866 77.3955 46.4974 77.3171 46.3578 77.1775C46.2182 77.038 46.1398 76.8487 46.1398 76.6513C46.1259 72.642 46.9081 68.6699 48.4411 64.9652C49.974 61.2605 52.2272 57.8971 55.0701 55.0699C55.2095 54.9313 55.3981 54.8535 55.5947 54.8535C55.7913 54.8535 55.9799 54.9313 56.1194 55.0699L62.9659 61.909C63.0356 61.9782 63.091 62.0605 63.1288 62.1512C63.1666 62.2419 63.186 62.3391 63.186 62.4374C63.186 62.5356 63.1666 62.6329 63.1288 62.7236C63.091 62.8142 63.0356 62.8966 62.9659 62.9657C61.1624 64.7581 59.7331 66.8908 58.7609 69.2402C57.7887 71.5896 57.293 74.1087 57.3026 76.6513C57.3026 76.8487 57.2242 77.038 57.0847 77.1775C56.9451 77.3171 56.7558 77.3955 56.5584 77.3955ZM47.6282 75.9071H55.8142C55.9746 70.8937 57.9562 66.1104 61.3882 62.4522L55.591 56.6625C50.6302 61.8602 47.7903 68.7238 47.6282 75.9071Z" fill="#34234D"/>
<path d="M90.8579 62.4448L97.697 55.6057C94.9373 52.836 91.6572 50.6396 88.0453 49.1427C84.4334 47.6458 80.5611 46.8781 76.6514 46.8838V56.5582C79.2906 56.5537 81.9046 57.0715 84.3429 58.0818C86.7811 59.0921 88.9953 60.5749 90.8579 62.4448Z" fill="#17374C"/>
<path d="M90.8579 63.1889C90.76 63.1895 90.6629 63.1707 90.5722 63.1336C90.4816 63.0966 90.3991 63.042 90.3296 62.9731C88.5387 61.1692 86.4074 59.739 84.0594 58.7655C81.7113 57.7921 79.1933 57.2947 76.6514 57.3024C76.454 57.3024 76.2648 57.224 76.1252 57.0844C75.9856 56.9448 75.9072 56.7556 75.9072 56.5582V46.8838C75.9072 46.6864 75.9856 46.4971 76.1252 46.3576C76.2648 46.218 76.454 46.1396 76.6514 46.1396C80.6607 46.1257 84.6329 46.9078 88.3375 48.4408C92.0422 49.9738 95.4056 52.227 98.2328 55.0698C98.3714 55.2093 98.4492 55.3979 98.4492 55.5945C98.4492 55.7911 98.3714 55.9797 98.2328 56.1191L91.3937 62.9656C91.3239 63.0368 91.2405 63.0933 91.1485 63.1317C91.0565 63.17 90.9576 63.1895 90.8579 63.1889ZM77.3956 55.814C82.4091 55.9744 87.1924 57.9559 90.8505 61.388L96.6403 55.5907C91.4425 50.6299 84.5789 47.79 77.3956 47.628V55.814Z" fill="#34234D"/>
<path d="M96.7444 76.6513H106.419C106.425 72.7415 105.657 68.8692 104.16 65.2574C102.663 61.6455 100.467 58.3653 97.697 55.6057L90.8579 62.4448C92.7278 64.3074 94.2106 66.5216 95.2209 68.9598C96.2311 71.398 96.7489 74.0121 96.7444 76.6513Z" fill="#FCE0AE"/>
<path d="M106.419 77.3955H96.7444C96.547 77.3955 96.3577 77.3171 96.2182 77.1776C96.0786 77.038 96.0002 76.8487 96.0002 76.6513C96.0078 74.1095 95.5105 71.5915 94.537 69.2434C93.5636 66.8953 92.1334 64.764 90.3295 62.9732C90.2598 62.904 90.2044 62.8217 90.1666 62.731C90.1288 62.6403 90.1094 62.5431 90.1094 62.4448C90.1094 62.3466 90.1288 62.2493 90.1666 62.1586C90.2044 62.068 90.2598 61.9856 90.3295 61.9165L97.176 55.0774C97.2447 55.0072 97.3266 54.9512 97.417 54.9128C97.5075 54.8744 97.6046 54.8542 97.7028 54.8535C97.8011 54.8528 97.8985 54.8716 97.9894 54.9088C98.0804 54.9459 98.1631 55.0007 98.2328 55.07C101.076 57.8971 103.329 61.2606 104.862 64.9652C106.395 68.6699 107.177 72.6421 107.163 76.6513C107.163 76.8487 107.085 77.038 106.945 77.1776C106.805 77.3171 106.616 77.3955 106.419 77.3955ZM97.4886 75.9072H105.675C105.511 68.7229 102.668 61.8591 97.7044 56.6625L91.9072 62.4523C95.3419 66.1093 97.3262 70.8927 97.4886 75.9072Z" fill="#34234D"/>
<path d="M56.5582 76.6514H46.8838C46.8781 80.5611 47.6458 84.4334 49.1427 88.0453C50.6396 91.6572 52.836 94.9373 55.6057 97.6969L62.4448 90.8579C60.5749 88.9953 59.0921 86.7811 58.0818 84.3429C57.0715 81.9046 56.5537 79.2906 56.5582 76.6514Z" fill="#B8B5C6"/>
<path d="M55.6059 98.4409C55.5072 98.4435 55.409 98.4264 55.317 98.3906C55.225 98.3548 55.1411 98.3011 55.0701 98.2326C52.2272 95.4054 49.974 92.0419 48.4411 88.3373C46.9081 84.6326 46.1259 80.6604 46.1398 76.6512C46.1398 76.4538 46.2182 76.2645 46.3578 76.1249C46.4974 75.9854 46.6866 75.907 46.884 75.907H56.5584C56.7558 75.907 56.9451 75.9854 57.0847 76.1249C57.2242 76.2645 57.3026 76.4538 57.3026 76.6512C57.295 79.193 57.7923 81.7111 58.7658 84.0591C59.7392 86.4072 61.1694 88.5385 62.9733 90.3293C63.0431 90.3985 63.0984 90.4808 63.1362 90.5715C63.174 90.6622 63.1935 90.7594 63.1935 90.8577C63.1935 90.9559 63.174 91.0532 63.1362 91.1439C63.0984 91.2346 63.0431 91.3169 62.9733 91.3861L56.1268 98.2326C55.987 98.3673 55.8001 98.4421 55.6059 98.4409ZM47.6282 77.3954C47.7923 84.5797 50.6349 91.4434 55.5984 96.64L61.3956 90.8502C57.9609 87.1932 55.9767 82.4098 55.8142 77.3954H47.6282Z" fill="#34234D"/>
<path d="M96.7444 76.6514C96.7489 79.2906 96.2311 81.9046 95.2209 84.3429C94.2106 86.7811 92.7278 88.9953 90.8579 90.8579L97.697 97.6969C100.467 94.9373 102.663 91.6572 104.16 88.0453C105.657 84.4334 106.425 80.5611 106.419 76.6514H96.7444Z" fill="#FF972C"/>
<path d="M97.6969 98.4409C97.5017 98.4401 97.3146 98.3626 97.176 98.2251L90.3295 91.3861C90.2598 91.3169 90.2044 91.2346 90.1666 91.1439C90.1288 91.0532 90.1094 90.9559 90.1094 90.8577C90.1094 90.7594 90.1288 90.6622 90.1666 90.5715C90.2044 90.4808 90.2598 90.3985 90.3295 90.3293C92.1334 88.5385 93.5636 86.4072 94.537 84.0591C95.5105 81.7111 96.0078 79.193 96.0002 76.6512C96.0002 76.4538 96.0786 76.2645 96.2182 76.1249C96.3577 75.9854 96.547 75.907 96.7444 75.907H106.419C106.616 75.907 106.805 75.9854 106.945 76.1249C107.085 76.2645 107.163 76.4538 107.163 76.6512C107.177 80.6604 106.395 84.6326 104.862 88.3373C103.329 92.0419 101.076 95.4054 98.2328 98.2326C98.1617 98.3011 98.0778 98.3548 97.9858 98.3906C97.8938 98.4264 97.7956 98.4435 97.6969 98.4409ZM91.8997 90.8502L97.6969 96.64C102.663 91.4445 105.509 84.5807 105.675 77.3954H97.4886C97.3241 82.4108 95.3372 87.1943 91.8997 90.8502Z" fill="#34234D"/>
<path d="M100.465 67.3936C100.465 67.3936 88.6774 69.7675 81.6598 71.1145C80.4115 69.9919 78.8204 69.3244 77.1448 69.2203C75.4692 69.1163 73.8077 69.5818 72.4302 70.5413C71.0526 71.5008 70.04 72.8979 69.5567 74.5057C69.0734 76.1134 69.148 77.8373 69.7682 79.3973C70.3884 80.9573 71.5179 82.2618 72.9731 83.0988C74.4284 83.9358 76.1238 84.2562 77.7842 84.0079C79.4445 83.7596 80.9721 82.9573 82.1188 81.7311C83.2655 80.505 83.964 78.9272 84.1007 77.254C90.1584 73.548 100.465 67.3936 100.465 67.3936Z" fill="#17374C"/>
<path d="M76.651 79.2559C78.0895 79.2559 79.2557 78.0898 79.2557 76.6513C79.2557 75.2128 78.0895 74.0466 76.651 74.0466C75.2125 74.0466 74.0464 75.2128 74.0464 76.6513C74.0464 78.0898 75.2125 79.2559 76.651 79.2559Z" fill="white"/>
<path d="M76.6512 84.8373C75.3394 84.8352 74.0473 84.5178 72.8838 83.9119C71.7203 83.3061 70.7194 82.4295 69.9655 81.3559C69.2116 80.2824 68.7267 79.0434 68.5517 77.7433C68.3767 76.4433 68.5167 75.1202 68.9599 73.8855C69.4031 72.6508 70.1366 71.5407 71.0985 70.6488C72.0604 69.7568 73.2225 69.1091 74.4871 68.7601C75.7516 68.4112 77.0815 68.3713 78.3647 68.6437C79.6479 68.9162 80.8469 69.493 81.8605 70.3257C88.8336 68.9712 100.197 66.694 100.309 66.6643C100.481 66.6297 100.66 66.657 100.814 66.7414C100.968 66.8258 101.087 66.9619 101.15 67.1257C101.213 67.2895 101.217 67.4706 101.16 67.6368C101.102 67.8029 100.988 67.9435 100.837 68.0336C100.741 68.0931 90.8503 73.9871 84.7926 77.708C84.5279 79.6802 83.557 81.4896 82.0599 82.8006C80.5628 84.1115 78.6412 84.8352 76.6512 84.8373ZM76.6512 69.9536C75.351 69.958 74.0802 70.3407 72.9938 71.0552C71.9074 71.7696 71.0525 72.7848 70.5333 73.9769C70.0142 75.169 69.8532 76.4864 70.0701 77.7685C70.287 79.0505 70.8724 80.2417 71.7548 81.1966C72.6372 82.1516 73.7785 82.8291 75.0394 83.1464C76.3003 83.4637 77.6264 83.4071 78.8557 82.9836C80.085 82.56 81.1645 81.7878 81.9623 80.7611C82.7602 79.7345 83.242 78.4978 83.3489 77.2019C83.3591 77.085 83.3967 76.9722 83.4588 76.8726C83.5209 76.773 83.6056 76.6895 83.7061 76.6289C87.4271 74.3443 92.8373 71.1071 96.3573 68.9712C92.2791 69.7824 86.0875 71.0178 81.7638 71.8512C81.6512 71.8741 81.5347 71.8705 81.4237 71.8408C81.3127 71.8111 81.21 71.7561 81.1238 71.6801C79.8993 70.5688 78.3048 69.9533 76.6512 69.9536Z" fill="#34234D"/>
<path d="M76.6512 113.116C69.4391 113.116 62.3889 110.978 56.3922 106.971C50.3956 102.964 45.7218 97.2689 42.9618 90.6058C40.2018 83.9426 39.4797 76.6107 40.8867 69.5372C42.2937 62.4636 45.7667 55.9662 50.8664 50.8664C55.9662 45.7667 62.4636 42.2937 69.5372 40.8867C76.6107 39.4797 83.9426 40.2018 90.6058 42.9618C97.2689 45.7218 102.964 50.3956 106.971 56.3922C110.978 62.3889 113.116 69.4391 113.116 76.6512C113.106 86.3193 109.261 95.5886 102.425 102.425C95.5886 109.261 86.3193 113.106 76.6512 113.116ZM76.6512 41.6744C69.7334 41.6744 62.971 43.7258 57.2191 47.5691C51.4672 51.4124 46.9842 56.875 44.3369 63.2661C41.6896 69.6573 40.9969 76.69 42.3465 83.4748C43.6961 90.2596 47.0273 96.4919 51.9189 101.383C56.8105 106.275 63.0427 109.606 69.8275 110.956C76.6124 112.305 83.645 111.613 90.0362 108.965C96.4274 106.318 101.89 101.835 105.733 96.0832C109.577 90.3313 111.628 83.5689 111.628 76.6512C111.628 67.3748 107.943 58.4783 101.383 51.9189C94.8241 45.3595 85.9276 41.6744 76.6512 41.6744Z" fill="#34234D"/>
<path d="M86.3255 96H66.9767C66.1546 96 65.4883 96.6664 65.4883 97.4884V101.953C65.4883 102.775 66.1546 103.442 66.9767 103.442H86.3255C87.1475 103.442 87.8139 102.775 87.8139 101.953V97.4884C87.8139 96.6664 87.1475 96 86.3255 96Z" fill="#A09CAD"/>
<path d="M86.3255 96H66.9767C66.1546 96 65.4883 96.6664 65.4883 97.4884V98.9767C65.4883 99.7988 66.1546 100.465 66.9767 100.465H86.3255C87.1475 100.465 87.8139 99.7988 87.8139 98.9767V97.4884C87.8139 96.6664 87.1475 96 86.3255 96Z" fill="#B8B5C6"/>
<path d="M86.3255 104.186H66.9767C66.3846 104.186 65.8167 103.951 65.398 103.532C64.9794 103.114 64.7441 102.546 64.7441 101.954V97.4884C64.7441 96.8963 64.9794 96.3284 65.398 95.9098C65.8167 95.4911 66.3846 95.2559 66.9767 95.2559H86.3255C86.9177 95.2559 87.4855 95.4911 87.9042 95.9098C88.3229 96.3284 88.5581 96.8963 88.5581 97.4884V101.954C88.5581 102.546 88.3229 103.114 87.9042 103.532C87.4855 103.951 86.9177 104.186 86.3255 104.186ZM66.9767 96.7442C66.7793 96.7442 66.59 96.8226 66.4505 96.9622C66.3109 97.1018 66.2325 97.291 66.2325 97.4884V101.954C66.2325 102.151 66.3109 102.34 66.4505 102.48C66.59 102.619 66.7793 102.698 66.9767 102.698H86.3255C86.5229 102.698 86.7122 102.619 86.8518 102.48C86.9913 102.34 87.0697 102.151 87.0697 101.954V97.4884C87.0697 97.291 86.9913 97.1018 86.8518 96.9622C86.7122 96.8226 86.5229 96.7442 86.3255 96.7442H66.9767Z" fill="#34234D"/>
<path d="M80.3721 104.186H72.9302C72.7329 104.186 72.5436 104.108 72.404 103.968C72.2644 103.829 72.186 103.639 72.186 103.442V96C72.186 95.8027 72.2644 95.6134 72.404 95.4738C72.5436 95.3343 72.7329 95.2559 72.9302 95.2559H80.3721C80.5694 95.2559 80.7587 95.3343 80.8983 95.4738C81.0379 95.6134 81.1163 95.8027 81.1163 96V103.442C81.1163 103.639 81.0379 103.829 80.8983 103.968C80.7587 104.108 80.5694 104.186 80.3721 104.186ZM73.6744 102.698H79.6279V96.7442H73.6744V102.698Z" fill="#34234D"/>
<path d="M122.047 46.8839C121.948 46.8835 121.851 46.8636 121.76 46.8253C121.669 46.7869 121.587 46.731 121.518 46.6607L119.286 44.4281C119.147 44.2887 119.069 44.1001 119.069 43.9035C119.069 43.7069 119.147 43.5183 119.286 43.3788C119.355 43.3091 119.437 43.2537 119.528 43.2159C119.619 43.1781 119.716 43.1587 119.814 43.1587C119.912 43.1587 120.01 43.1781 120.1 43.2159C120.191 43.2537 120.273 43.3091 120.342 43.3788L122.575 45.6114C122.68 45.7155 122.752 45.8485 122.781 45.9934C122.81 46.1383 122.795 46.2886 122.738 46.4251C122.682 46.5616 122.586 46.6782 122.462 46.7599C122.339 46.8416 122.194 46.8848 122.047 46.8839Z" fill="#A09CAD"/>
<path d="M127.256 52.0932C127.158 52.0928 127.06 52.0728 126.97 52.0345C126.879 51.9962 126.797 51.9402 126.728 51.8699L124.495 49.6373C124.357 49.4979 124.279 49.3093 124.279 49.1127C124.279 48.9161 124.357 48.7275 124.495 48.588C124.564 48.5183 124.647 48.4629 124.737 48.4252C124.828 48.3874 124.925 48.3679 125.024 48.3679C125.122 48.3679 125.219 48.3874 125.31 48.4252C125.4 48.4629 125.483 48.5183 125.552 48.588L127.785 50.8206C127.889 50.9247 127.961 51.0577 127.99 51.2026C128.019 51.3475 128.004 51.4978 127.948 51.6344C127.891 51.7709 127.795 51.8874 127.672 51.9691C127.549 52.0508 127.404 52.094 127.256 52.0932Z" fill="#A09CAD"/>
<path d="M119.814 52.0932C119.666 52.094 119.521 52.0508 119.398 51.9691C119.275 51.8874 119.179 51.7709 119.122 51.6344C119.066 51.4978 119.051 51.3475 119.08 51.2026C119.109 51.0577 119.181 50.9247 119.286 50.8206L121.518 48.588C121.587 48.5183 121.67 48.4629 121.76 48.4252C121.851 48.3874 121.948 48.3679 122.046 48.3679C122.145 48.3679 122.242 48.3874 122.333 48.4252C122.423 48.4629 122.506 48.5183 122.575 48.588C122.713 48.7275 122.791 48.9161 122.791 49.1127C122.791 49.3093 122.713 49.4979 122.575 49.6373L120.342 51.8699C120.273 51.9402 120.191 51.9962 120.101 52.0345C120.01 52.0728 119.912 52.0928 119.814 52.0932Z" fill="#A09CAD"/>
<path d="M125.023 46.8839C124.876 46.8848 124.731 46.8416 124.608 46.7599C124.485 46.6782 124.388 46.5616 124.332 46.4251C124.275 46.2886 124.26 46.1383 124.289 45.9934C124.319 45.8485 124.39 45.7155 124.495 45.6114L126.728 43.3788C126.797 43.3091 126.879 43.2537 126.97 43.2159C127.06 43.1781 127.158 43.1587 127.256 43.1587C127.354 43.1587 127.451 43.1781 127.542 43.2159C127.633 43.2537 127.715 43.3091 127.784 43.3788C127.923 43.5183 128.001 43.7069 128.001 43.9035C128.001 44.1001 127.923 44.2887 127.784 44.4281L125.552 46.6607C125.483 46.731 125.401 46.7869 125.31 46.8253C125.219 46.8636 125.122 46.8835 125.023 46.8839Z" fill="#A09CAD"/>
<path d="M115.349 99.721C115.251 99.7216 115.154 99.7028 115.063 99.6658C114.973 99.6288 114.89 99.5742 114.821 99.5052L112.588 97.2727C112.448 97.1325 112.369 96.9425 112.369 96.7443C112.369 96.5461 112.448 96.3561 112.588 96.2159C112.728 96.0758 112.918 95.9971 113.116 95.9971C113.315 95.9971 113.505 96.0758 113.645 96.2159L115.877 98.4485C115.947 98.5177 116.002 98.6 116.04 98.6907C116.078 98.7813 116.097 98.8786 116.097 98.9769C116.097 99.0751 116.078 99.1724 116.04 99.2631C116.002 99.3537 115.947 99.4361 115.877 99.5052C115.808 99.5742 115.725 99.6288 115.635 99.6658C115.544 99.7028 115.447 99.7216 115.349 99.721Z" fill="#A09CAD"/>
<path d="M120.558 104.93C120.46 104.931 120.363 104.912 120.273 104.875C120.182 104.838 120.1 104.783 120.03 104.714L117.797 102.482C117.657 102.342 117.579 102.152 117.579 101.954C117.579 101.755 117.657 101.565 117.797 101.425C117.938 101.285 118.128 101.206 118.326 101.206C118.524 101.206 118.714 101.285 118.854 101.425L121.087 103.658C121.157 103.727 121.212 103.809 121.25 103.9C121.287 103.991 121.307 104.088 121.307 104.186C121.307 104.284 121.287 104.382 121.25 104.472C121.212 104.563 121.157 104.645 121.087 104.714C121.017 104.783 120.935 104.838 120.844 104.875C120.753 104.912 120.656 104.931 120.558 104.93Z" fill="#A09CAD"/>
<path d="M113.116 104.93C113.018 104.931 112.921 104.912 112.83 104.875C112.74 104.838 112.657 104.783 112.588 104.714C112.518 104.645 112.463 104.563 112.425 104.472C112.387 104.382 112.368 104.284 112.368 104.186C112.368 104.088 112.387 103.991 112.425 103.9C112.463 103.809 112.518 103.727 112.588 103.658L114.82 101.425C114.96 101.285 115.151 101.206 115.349 101.206C115.547 101.206 115.737 101.285 115.877 101.425C116.017 101.565 116.096 101.755 116.096 101.954C116.096 102.152 116.017 102.342 115.877 102.482L113.645 104.714C113.575 104.783 113.493 104.838 113.402 104.875C113.311 104.912 113.214 104.931 113.116 104.93Z" fill="#A09CAD"/>
<path d="M118.326 99.721C118.228 99.7216 118.131 99.7028 118.04 99.6658C117.949 99.6288 117.867 99.5742 117.797 99.5052C117.728 99.4361 117.672 99.3537 117.634 99.2631C117.597 99.1724 117.577 99.0751 117.577 98.9769C117.577 98.8786 117.597 98.7813 117.634 98.6907C117.672 98.6 117.728 98.5177 117.797 98.4485L120.03 96.2159C120.17 96.0758 120.36 95.9971 120.558 95.9971C120.756 95.9971 120.946 96.0758 121.087 96.2159C121.227 96.3561 121.305 96.5461 121.305 96.7443C121.305 96.9425 121.227 97.1325 121.087 97.2727L118.854 99.5052C118.784 99.5742 118.702 99.6288 118.611 99.6658C118.521 99.7028 118.424 99.7216 118.326 99.721Z" fill="#A09CAD"/>
<path d="M39.8143 3.72105C39.7163 3.72161 39.6192 3.70284 39.5286 3.66581C39.4379 3.62877 39.3554 3.5742 39.2859 3.50523L37.0533 1.27267C36.9132 1.13254 36.8345 0.942479 36.8345 0.744301C36.8345 0.546123 36.9132 0.356062 37.0533 0.215929C37.1935 0.0757962 37.3835 -0.00292968 37.5817 -0.00292969C37.7799 -0.00292969 37.9699 0.0757962 38.1101 0.215929L40.3426 2.44849C40.4124 2.51767 40.4677 2.59998 40.5055 2.69066C40.5433 2.78135 40.5628 2.87862 40.5628 2.97686C40.5628 3.0751 40.5433 3.17237 40.5055 3.26306C40.4677 3.35374 40.4124 3.43605 40.3426 3.50523C40.2731 3.5742 40.1906 3.62877 40.1 3.66581C40.0093 3.70284 39.9122 3.72161 39.8143 3.72105Z" fill="#A09CAD"/>
<path d="M45.0232 8.93027C44.9253 8.93084 44.8282 8.91207 44.7376 8.87503C44.6469 8.838 44.5644 8.78343 44.4949 8.71446L42.2623 6.4819C42.1929 6.41252 42.1379 6.33014 42.1003 6.23948C42.0628 6.14882 42.0435 6.05166 42.0435 5.95353C42.0435 5.8554 42.0628 5.75824 42.1003 5.66758C42.1379 5.57692 42.1929 5.49454 42.2623 5.42516C42.3317 5.35577 42.4141 5.30073 42.5047 5.26318C42.5954 5.22563 42.6926 5.2063 42.7907 5.2063C42.8888 5.2063 42.986 5.22563 43.0766 5.26318C43.1673 5.30073 43.2497 5.35577 43.3191 5.42516L45.5516 7.65772C45.6214 7.7269 45.6767 7.80921 45.7145 7.89989C45.7523 7.99058 45.7718 8.08785 45.7718 8.18609C45.7718 8.28433 45.7523 8.3816 45.7145 8.47228C45.6767 8.56297 45.6214 8.64528 45.5516 8.71446C45.4821 8.78343 45.3996 8.838 45.3089 8.87503C45.2183 8.91207 45.1212 8.93084 45.0232 8.93027Z" fill="#A09CAD"/>
<path d="M37.5815 8.93027C37.4836 8.93084 37.3865 8.91207 37.2958 8.87503C37.2051 8.838 37.1227 8.78343 37.0531 8.71446C36.9834 8.64528 36.928 8.56297 36.8902 8.47228C36.8525 8.3816 36.833 8.28433 36.833 8.18609C36.833 8.08785 36.8525 7.99058 36.8902 7.89989C36.928 7.80921 36.9834 7.7269 37.0531 7.65772L39.2857 5.42516C39.3551 5.35577 39.4375 5.30073 39.5281 5.26318C39.6188 5.22563 39.7159 5.2063 39.8141 5.2063C39.9122 5.2063 40.0094 5.22563 40.1 5.26318C40.1907 5.30073 40.2731 5.35577 40.3424 5.42516C40.4118 5.49454 40.4669 5.57692 40.5044 5.66758C40.542 5.75824 40.5613 5.8554 40.5613 5.95353C40.5613 6.05166 40.542 6.14882 40.5044 6.23948C40.4669 6.33014 40.4118 6.41252 40.3424 6.4819L38.1099 8.71446C38.0403 8.78343 37.9579 8.838 37.8672 8.87503C37.7765 8.91207 37.6794 8.93084 37.5815 8.93027Z" fill="#A09CAD"/>
<path d="M42.791 3.72105C42.693 3.72161 42.596 3.70284 42.5053 3.66581C42.4146 3.62877 42.3321 3.5742 42.2626 3.50523C42.1929 3.43605 42.1375 3.35374 42.0997 3.26306C42.0619 3.17237 42.0425 3.0751 42.0425 2.97686C42.0425 2.87862 42.0619 2.78135 42.0997 2.69066C42.1375 2.59998 42.1929 2.51767 42.2626 2.44849L44.4952 0.215929C44.5646 0.146542 44.6469 0.0915018 44.7376 0.0539499C44.8282 0.016398 44.9254 -0.00292968 45.0235 -0.00292969C45.1217 -0.00292969 45.2188 0.016398 45.3095 0.0539499C45.4002 0.0915017 45.4825 0.146542 45.5519 0.215929C45.6213 0.285316 45.6763 0.36769 45.7139 0.458348C45.7514 0.549007 45.7708 0.646173 45.7708 0.744301C45.7708 0.842429 45.7514 0.939596 45.7139 1.03025C45.6763 1.12091 45.6213 1.20329 45.5519 1.27267L43.3194 3.50523C43.2498 3.5742 43.1673 3.62877 43.0767 3.66581C42.986 3.70284 42.8889 3.72161 42.791 3.72105Z" fill="#A09CAD"/>
<path d="M2.97667 80.0223C2.87873 80.0229 2.78165 80.0041 2.69098 79.9671C2.60031 79.93 2.51784 79.8755 2.4483 79.8065L0.215744 77.5739C0.146846 77.5046 0.0922892 77.4223 0.0551888 77.3318C0.0180884 77.2413 -0.000829153 77.1444 -0.000483632 77.0467C-0.000138112 76.9489 0.0194637 76.8521 0.0572025 76.7619C0.0949414 76.6717 0.150078 76.5898 0.219465 76.5209C0.288852 76.452 0.37113 76.3975 0.461601 76.3604C0.552072 76.3233 0.648965 76.3043 0.746747 76.3047C0.84453 76.305 0.941286 76.3246 1.03149 76.3624C1.1217 76.4001 1.20359 76.4553 1.27249 76.5246L3.50505 78.7572C3.64365 78.8966 3.72145 79.0852 3.72145 79.2818C3.72145 79.4785 3.64365 79.6671 3.50505 79.8065C3.43551 79.8755 3.35304 79.93 3.26237 79.9671C3.1717 80.0041 3.07461 80.0229 2.97667 80.0223Z" fill="#A09CAD"/>
<path d="M8.18615 85.2318C8.08821 85.2323 7.99112 85.2136 7.90045 85.1765C7.80978 85.1395 7.72731 85.0849 7.65777 85.016L5.42522 82.7834C5.35632 82.714 5.30176 82.6317 5.26466 82.5413C5.22756 82.4508 5.20864 82.3539 5.20899 82.2561C5.20933 82.1583 5.22894 82.0616 5.26668 81.9714C5.30441 81.8812 5.35955 81.7993 5.42894 81.7304C5.49832 81.6615 5.5806 81.6069 5.67107 81.5698C5.76154 81.5327 5.85844 81.5138 5.95622 81.5142C6.054 81.5145 6.15076 81.5341 6.24097 81.5719C6.33117 81.6096 6.41306 81.6647 6.48196 81.7341L8.71452 83.9667C8.85312 84.1061 8.93092 84.2947 8.93092 84.4913C8.93092 84.6879 8.85312 84.8765 8.71452 85.016C8.64498 85.0849 8.56251 85.1395 8.47184 85.1765C8.38118 85.2136 8.28409 85.2323 8.18615 85.2318Z" fill="#A09CAD"/>
<path d="M0.744288 85.2318C0.646348 85.2323 0.54926 85.2136 0.45859 85.1765C0.36792 85.1395 0.285452 85.0849 0.215916 85.016C0.0773102 84.8765 -0.000488281 84.6879 -0.000488281 84.4913C-0.000488281 84.2947 0.0773102 84.1061 0.215916 83.9667L2.44847 81.7341C2.58762 81.594 2.77673 81.5149 2.97421 81.5142C3.17169 81.5135 3.36136 81.5912 3.5015 81.7304C3.64163 81.8695 3.72075 82.0587 3.72145 82.2561C3.72214 82.4536 3.64436 82.6433 3.50522 82.7834L1.27266 85.016C1.20312 85.0849 1.12066 85.1395 1.02999 85.1765C0.939316 85.2136 0.842228 85.2323 0.744288 85.2318Z" fill="#A09CAD"/>
<path d="M5.95376 80.0223C5.85582 80.0229 5.75873 80.0041 5.66806 79.9671C5.57739 79.93 5.49492 79.8755 5.42539 79.8065C5.28678 79.6671 5.20898 79.4785 5.20898 79.2818C5.20898 79.0852 5.28678 78.8966 5.42539 78.7572L7.65795 76.5246C7.72684 76.4553 7.80873 76.4001 7.89894 76.3624C7.98915 76.3246 8.0859 76.305 8.18369 76.3047C8.28147 76.3043 8.37836 76.3233 8.46883 76.3604C8.5593 76.3975 8.64158 76.452 8.71097 76.5209C8.78036 76.5898 8.83549 76.6717 8.87323 76.7619C8.91097 76.8521 8.93057 76.9489 8.93092 77.0467C8.93126 77.1444 8.91235 77.2413 8.87525 77.3318C8.83814 77.4223 8.78359 77.5046 8.71469 77.5739L6.48213 79.8065C6.4126 79.8755 6.33013 79.93 6.23946 79.9671C6.14879 80.0041 6.0517 80.0229 5.95376 80.0223Z" fill="#A09CAD"/>
<path d="M6.69787 35.3712C6.59993 35.3718 6.50284 35.353 6.41217 35.316C6.3215 35.2789 6.23903 35.2244 6.16949 35.1554L3.93694 32.9228C3.79779 32.7827 3.72001 32.593 3.72071 32.3955C3.72141 32.1981 3.80052 32.0089 3.94066 31.8698C4.08079 31.7307 4.27046 31.6529 4.46794 31.6536C4.66542 31.6543 4.85453 31.7334 4.99368 31.8735L7.22624 34.1061C7.36484 34.2455 7.44264 34.4341 7.44264 34.6307C7.44264 34.8273 7.36484 35.0159 7.22624 35.1554C7.1567 35.2244 7.07423 35.2789 6.98356 35.316C6.89289 35.353 6.79581 35.3718 6.69787 35.3712Z" fill="#A09CAD"/>
<path d="M11.9069 40.5807C11.8089 40.5812 11.7118 40.5625 11.6212 40.5254C11.5305 40.4884 11.448 40.4338 11.3785 40.3649L9.14592 38.1323C9.07702 38.0629 9.02247 37.9806 8.98536 37.8902C8.94826 37.7997 8.92935 37.7028 8.92969 37.605C8.93004 37.5072 8.94964 37.4105 8.98738 37.3203C9.02512 37.2301 9.08025 37.1482 9.14964 37.0793C9.21903 37.0104 9.30131 36.9558 9.39178 36.9187C9.48225 36.8816 9.57914 36.8627 9.67692 36.863C9.77471 36.8634 9.87146 36.883 9.96167 36.9207C10.0519 36.9585 10.1338 37.0136 10.2027 37.083L12.4352 39.3156C12.5738 39.455 12.6516 39.6436 12.6516 39.8402C12.6516 40.0368 12.5738 40.2254 12.4352 40.3649C12.3657 40.4338 12.2832 40.4884 12.1925 40.5254C12.1019 40.5625 12.0048 40.5812 11.9069 40.5807Z" fill="#A09CAD"/>
<path d="M4.46499 40.5807C4.36705 40.5812 4.26996 40.5625 4.17929 40.5254C4.08862 40.4884 4.00616 40.4338 3.93662 40.3649C3.79801 40.2254 3.72021 40.0368 3.72021 39.8402C3.72021 39.6436 3.79801 39.455 3.93662 39.3156L6.16918 37.083C6.23808 37.0136 6.31997 36.9585 6.41017 36.9207C6.50038 36.883 6.59714 36.8634 6.69492 36.863C6.7927 36.8627 6.88959 36.8816 6.98006 36.9187C7.07054 36.9558 7.15281 37.0104 7.2222 37.0793C7.29159 37.1482 7.34672 37.2301 7.38446 37.3203C7.4222 37.4105 7.4418 37.5072 7.44215 37.605C7.44249 37.7028 7.42358 37.7997 7.38648 37.8902C7.34938 37.9806 7.29482 38.0629 7.22592 38.1323L4.99336 40.3649C4.92383 40.4338 4.84136 40.4884 4.75069 40.5254C4.66002 40.5625 4.56293 40.5812 4.46499 40.5807Z" fill="#A09CAD"/>
<path d="M9.67446 35.3712C9.57652 35.3718 9.47944 35.353 9.38877 35.316C9.2981 35.2789 9.21563 35.2244 9.14609 35.1554C9.00749 35.0159 8.92969 34.8273 8.92969 34.6307C8.92969 34.4341 9.00749 34.2455 9.14609 34.1061L11.3786 31.8735C11.4475 31.8041 11.5294 31.749 11.6196 31.7113C11.7099 31.6735 11.8066 31.6539 11.9044 31.6536C12.0022 31.6532 12.0991 31.6721 12.1895 31.7092C12.28 31.7463 12.3623 31.8009 12.4317 31.8698C12.5011 31.9387 12.5562 32.0206 12.5939 32.1108C12.6317 32.201 12.6513 32.2978 12.6516 32.3955C12.652 32.4933 12.633 32.5902 12.5959 32.6807C12.5588 32.7712 12.5043 32.8534 12.4354 32.9228L10.2028 35.1554C10.1333 35.2244 10.0508 35.2789 9.96016 35.316C9.86949 35.353 9.7724 35.3718 9.67446 35.3712Z" fill="#A09CAD"/>
<path d="M80.484 12.9266C80.386 12.9272 80.289 12.9084 80.1983 12.8714C80.1076 12.8343 80.0252 12.7798 79.9556 12.7108L77.7231 10.4782C77.6533 10.409 77.5979 10.3267 77.5602 10.2361C77.5224 10.1454 77.5029 10.0481 77.5029 9.94985C77.5029 9.85161 77.5224 9.75434 77.5602 9.66366C77.5979 9.57297 77.6533 9.49066 77.7231 9.42148C77.8625 9.28288 78.0511 9.20508 78.2477 9.20508C78.4443 9.20508 78.6329 9.28288 78.7724 9.42148L81.0049 11.654C81.1094 11.7577 81.1808 11.89 81.2101 12.0342C81.2395 12.1785 81.2253 12.3281 81.1696 12.4643C81.1138 12.6006 81.0189 12.7172 80.8969 12.7995C80.7749 12.8817 80.6312 12.926 80.484 12.9266Z" fill="#A09CAD"/>
<path d="M85.693 18.1358C85.595 18.1364 85.4979 18.1176 85.4073 18.0806C85.3166 18.0436 85.2341 17.989 85.1646 17.92L82.932 15.6875C82.8623 15.6183 82.8069 15.536 82.7691 15.4453C82.7314 15.3546 82.7119 15.2573 82.7119 15.1591C82.7119 15.0608 82.7314 14.9636 82.7691 14.8729C82.8069 14.7822 82.8623 14.6999 82.932 14.6307C83.0715 14.4921 83.2601 14.4143 83.4567 14.4143C83.6533 14.4143 83.8419 14.4921 83.9813 14.6307L86.2139 16.8633C86.3184 16.9669 86.3898 17.0992 86.4191 17.2434C86.4484 17.3877 86.4343 17.5374 86.3786 17.6736C86.3228 17.8098 86.2279 17.9264 86.1059 18.0087C85.9838 18.091 85.8402 18.1352 85.693 18.1358Z" fill="#A09CAD"/>
<path d="M78.2514 18.1358C78.1036 18.1367 77.9589 18.0935 77.8357 18.0118C77.7126 17.9301 77.6165 17.8135 77.5598 17.677C77.5031 17.5405 77.4884 17.3902 77.5175 17.2453C77.5465 17.1003 77.6181 16.9674 77.7231 16.8633L79.9556 14.6307C80.0951 14.4921 80.2837 14.4143 80.4803 14.4143C80.6769 14.4143 80.8655 14.4921 81.0049 14.6307C81.0747 14.6999 81.13 14.7822 81.1678 14.8729C81.2056 14.9636 81.2251 15.0608 81.2251 15.1591C81.2251 15.2573 81.2056 15.3546 81.1678 15.4453C81.13 15.536 81.0747 15.6183 81.0049 15.6875L78.7724 17.92C78.6338 18.0575 78.4467 18.135 78.2514 18.1358Z" fill="#A09CAD"/>
<path d="M83.4604 12.9266C83.3126 12.9275 83.1679 12.8843 83.0447 12.8026C82.9215 12.7209 82.8255 12.6043 82.7688 12.4678C82.7121 12.3313 82.6974 12.181 82.7265 12.036C82.7555 11.8911 82.8271 11.7581 82.9321 11.654L85.1646 9.42148C85.304 9.28288 85.4927 9.20508 85.6893 9.20508C85.8859 9.20508 86.0745 9.28288 86.2139 9.42148C86.2837 9.49066 86.339 9.57297 86.3768 9.66366C86.4146 9.75434 86.434 9.85161 86.434 9.94985C86.434 10.0481 86.4146 10.1454 86.3768 10.2361C86.339 10.3267 86.2837 10.409 86.2139 10.4782L83.9814 12.7108C83.8427 12.8483 83.6557 12.9258 83.4604 12.9266Z" fill="#A09CAD"/>
</g>
<defs>
<clipPath id="clip0_190_7640">
<rect width="128" height="120.558" fill="white"/>
</clipPath>
</defs>
</svg>
