<svg width="79" height="78" viewBox="0 0 79 78" fill="none" xmlns="http://www.w3.org/2000/svg">
<path d="M63.875 9.75H15.125C12.9708 9.75226 10.9055 10.609 9.38225 12.1323C7.85901 13.6555 7.00226 15.7208 7 17.875V50.375C7.002 52.5293 7.85867 54.5947 9.38197 56.118C10.9053 57.6413 12.9707 58.498 15.125 58.5H31.1617C30.703 60.781 29.3336 63.1187 26.976 65.476C26.7488 65.7033 26.5941 65.9928 26.5314 66.308C26.4687 66.6232 26.5009 66.9499 26.6239 67.2468C26.7468 67.5437 26.9551 67.7975 27.2223 67.9761C27.4895 68.1546 27.8036 68.25 28.125 68.25H50.875C51.1964 68.25 51.5105 68.1546 51.7777 67.9761C52.0449 67.7975 52.2532 67.5437 52.3761 67.2468C52.4991 66.9499 52.5313 66.6232 52.4686 66.308C52.4059 65.9928 52.2512 65.7033 52.024 65.476C49.6666 63.1187 48.297 60.781 47.8383 58.5H63.875C66.0293 58.498 68.0947 57.6413 69.618 56.118C71.1413 54.5947 71.998 52.5293 72 50.375V17.875C71.9977 15.7208 71.141 13.6555 69.6178 12.1323C68.0945 10.609 66.0292 9.75226 63.875 9.75ZM15.125 13H63.875C65.1675 13.0014 66.4066 13.5155 67.3206 14.4294C68.2345 15.3434 68.7486 16.5825 68.75 17.875V48.75H10.25V17.875C10.2514 16.5825 10.7655 15.3434 11.6794 14.4294C12.5934 13.5155 13.8325 13.0014 15.125 13ZM47.3235 65H31.6765C33.1339 63.0986 34.0965 60.8651 34.4778 58.5H44.5222C44.9035 60.8651 45.8661 63.0986 47.3235 65ZM63.875 55.25H15.125C14.1201 55.2469 13.1408 54.9329 12.3215 54.351C11.5022 53.7691 10.8832 52.9478 10.5493 52H68.4507C68.1168 52.9478 67.4978 53.7691 66.6785 54.351C65.8592 54.9329 64.8799 55.2469 63.875 55.25Z" fill="#17374C"/>
<path d="M23.25 40.625C23.4634 40.6251 23.6748 40.5832 23.872 40.5016C24.0692 40.4199 24.2484 40.3003 24.3993 40.1493C24.5503 39.9984 24.6699 39.8192 24.7516 39.622C24.8332 39.4248 24.8751 39.2134 24.875 39V34.125H31.375V39C31.375 39.431 31.5462 39.8443 31.851 40.149C32.1557 40.4538 32.569 40.625 33 40.625C33.431 40.625 33.8443 40.4538 34.149 40.149C34.4538 39.8443 34.625 39.431 34.625 39V27.625C34.625 25.9011 33.9402 24.2478 32.7212 23.0288C31.5022 21.8098 29.8489 21.125 28.125 21.125C26.4011 21.125 24.7478 21.8098 23.5288 23.0288C22.3098 24.2478 21.625 25.9011 21.625 27.625V39C21.6249 39.2134 21.6668 39.4248 21.7484 39.622C21.8301 39.8192 21.9497 39.9984 22.1007 40.1493C22.2516 40.3003 22.4308 40.4199 22.628 40.5016C22.8252 40.5832 23.0366 40.6251 23.25 40.625ZM28.125 24.375C28.9867 24.3759 29.8128 24.7185 30.4221 25.3279C31.0315 25.9372 31.3741 26.7633 31.375 27.625V30.875H24.875V27.625C24.8759 26.7633 25.2185 25.9372 25.8279 25.3279C26.4372 24.7185 27.2633 24.3759 28.125 24.375Z" fill="#FF972C"/>
<path d="M39.5 40.625C39.7134 40.6251 39.9248 40.5832 40.122 40.5016C40.3192 40.4199 40.4984 40.3003 40.6493 40.1493C40.8003 39.9984 40.9199 39.8192 41.0016 39.622C41.0832 39.4248 41.1251 39.2134 41.125 39V34.125H44.375C46.0989 34.125 47.7522 33.4402 48.9712 32.2212C50.1902 31.0022 50.875 29.3489 50.875 27.625C50.875 25.9011 50.1902 24.2478 48.9712 23.0288C47.7522 21.8098 46.0989 21.125 44.375 21.125H39.5C39.2866 21.1249 39.0752 21.1668 38.878 21.2484C38.6808 21.3301 38.5016 21.4497 38.3507 21.6007C38.1997 21.7516 38.0801 21.9308 37.9984 22.128C37.9168 22.3252 37.8749 22.5366 37.875 22.75V39C37.8749 39.2134 37.9168 39.4248 37.9984 39.622C38.0801 39.8192 38.1997 39.9984 38.3507 40.1493C38.5016 40.3003 38.6808 40.4199 38.878 40.5016C39.0752 40.5832 39.2866 40.6251 39.5 40.625ZM41.125 24.375H44.375C45.237 24.375 46.0636 24.7174 46.6731 25.3269C47.2826 25.9364 47.625 26.763 47.625 27.625C47.625 28.487 47.2826 29.3136 46.6731 29.9231C46.0636 30.5326 45.237 30.875 44.375 30.875H41.125V24.375Z" fill="#FF972C"/>
<path d="M55.75 40.625C55.9634 40.6251 56.1748 40.5832 56.372 40.5016C56.5692 40.4199 56.7484 40.3003 56.8993 40.1493C57.0503 39.9984 57.1699 39.8192 57.2516 39.622C57.3332 39.4248 57.3751 39.2134 57.375 39V22.75C57.375 22.319 57.2038 21.9057 56.899 21.601C56.5943 21.2962 56.181 21.125 55.75 21.125C55.319 21.125 54.9057 21.2962 54.601 21.601C54.2962 21.9057 54.125 22.319 54.125 22.75V39C54.1249 39.2134 54.1668 39.4248 54.2484 39.622C54.3301 39.8192 54.4497 39.9984 54.6007 40.1493C54.7516 40.3003 54.9308 40.4199 55.128 40.5016C55.3252 40.5832 55.5366 40.6251 55.75 40.625Z" fill="#FF972C"/>
</svg>
