<svg width="128" height="121" viewBox="0 0 128 121" fill="none" xmlns="http://www.w3.org/2000/svg">
<g clip-path="url(#clip0_190_7771)">
<path d="M123.959 45.6931C121.548 35.8401 106.635 32.7443 100.078 25.8829C93.3136 18.828 90.7164 3.90709 81.3322 1.1536C72.2308 -1.48826 62.0653 9.50337 52.1899 11.9071C42.3146 14.3108 28.2048 9.2057 21.3583 15.7471C14.2885 22.4969 18.8653 36.9415 16.149 46.3108C13.4401 55.3899 1.63734 65.0122 4.04106 74.8652C6.44479 84.7183 21.3657 87.8141 27.922 94.6755C34.6866 101.73 37.2839 116.651 46.668 119.405C55.7694 122.047 65.935 111.055 75.8178 108.651C85.7006 106.248 99.7955 111.353 106.642 104.811C113.712 98.0615 109.135 83.6169 111.851 74.2476C114.56 65.1685 126.363 55.5462 123.959 45.6931Z" fill="white"/>
<path d="M127.256 120.558H0.744186C0.546816 120.558 0.357529 120.48 0.217967 120.34C0.0784051 120.201 0 120.011 0 119.814C0 119.617 0.0784051 119.427 0.217967 119.288C0.357529 119.148 0.546816 119.07 0.744186 119.07H127.256C127.453 119.07 127.642 119.148 127.782 119.288C127.922 119.427 128 119.617 128 119.814C128 120.011 127.922 120.201 127.782 120.34C127.642 120.48 127.453 120.558 127.256 120.558Z" fill="#A09CAD"/>
<path d="M79.6279 109.395H48.3721V119.814H79.6279V109.395Z" fill="#FF972C"/>
<path d="M79.6279 120.558H48.3721C48.1747 120.558 47.9855 120.48 47.8459 120.34C47.7063 120.201 47.6279 120.011 47.6279 119.814V109.395C47.6279 109.198 47.7063 109.009 47.8459 108.869C47.9855 108.73 48.1747 108.651 48.3721 108.651H79.6279C79.8253 108.651 80.0146 108.73 80.1541 108.869C80.2937 109.009 80.3721 109.198 80.3721 109.395V119.814C80.3721 120.011 80.2937 120.201 80.1541 120.34C80.0146 120.48 79.8253 120.558 79.6279 120.558ZM49.1163 119.07H78.8837V110.139H49.1163V119.07Z" fill="#34234D"/>
<path d="M15.6279 98.9768H112.372V105.674C112.372 106.661 111.98 107.608 111.282 108.306C110.584 109.003 109.638 109.395 108.651 109.395H19.3489C18.362 109.395 17.4156 109.003 16.7178 108.306C16.02 107.608 15.6279 106.661 15.6279 105.674V98.9768Z" fill="#FF972C"/>
<path d="M112.372 105.674L15.6279 101.954V98.9768H112.372V105.674Z" fill="#FCE0AE"/>
<path d="M108.651 110.14H95.2559C95.0585 110.14 94.8692 110.061 94.7297 109.922C94.5901 109.782 94.5117 109.593 94.5117 109.395C94.5117 109.198 94.5901 109.009 94.7297 108.869C94.8692 108.73 95.0585 108.651 95.2559 108.651H108.651C109.441 108.651 110.198 108.338 110.756 107.779C111.314 107.221 111.628 106.464 111.628 105.675V99.721H16.3722V105.675C16.3722 106.464 16.6858 107.221 17.244 107.779C17.8023 108.338 18.5594 108.651 19.3489 108.651H90.7908C90.9881 108.651 91.1774 108.73 91.317 108.869C91.4566 109.009 91.535 109.198 91.535 109.395C91.535 109.593 91.4566 109.782 91.317 109.922C91.1774 110.061 90.9881 110.14 90.7908 110.14H19.3489C18.1647 110.14 17.029 109.669 16.1916 108.832C15.3542 107.994 14.8838 106.859 14.8838 105.675V98.9769C14.8838 98.7795 14.9622 98.5902 15.1018 98.4506C15.2413 98.3111 15.4306 98.2327 15.628 98.2327H112.372C112.57 98.2327 112.759 98.3111 112.898 98.4506C113.038 98.5902 113.116 98.7795 113.116 98.9769V105.675C113.116 106.859 112.646 107.994 111.809 108.832C110.971 109.669 109.835 110.14 108.651 110.14Z" fill="#34234D"/>
<path d="M19.3489 43.907H108.651C109.638 43.907 110.584 44.299 111.282 44.9968C111.98 45.6946 112.372 46.6411 112.372 47.6279V98.9767H15.6279V47.6279C15.6279 46.6411 16.02 45.6946 16.7178 44.9968C17.4156 44.299 18.362 43.907 19.3489 43.907Z" fill="#B8B5C6"/>
<path d="M105.675 98.9767H84.0933V43.907H98.977L105.675 98.9767Z" fill="#A09CAD"/>
<path d="M15.628 84.8373C15.4306 84.8373 15.2413 84.7589 15.1018 84.6193C14.9622 84.4797 14.8838 84.2904 14.8838 84.0931V47.628C14.8838 46.4437 15.3542 45.308 16.1916 44.4706C17.029 43.6333 18.1647 43.1628 19.3489 43.1628H108.651C109.835 43.1628 110.971 43.6333 111.809 44.4706C112.646 45.308 113.116 46.4437 113.116 47.628V59.5349C113.116 59.7323 113.038 59.9216 112.898 60.0612C112.759 60.2007 112.57 60.2791 112.372 60.2791C112.175 60.2791 111.986 60.2007 111.846 60.0612C111.706 59.9216 111.628 59.7323 111.628 59.5349V47.628C111.628 46.8385 111.314 46.0813 110.756 45.5231C110.198 44.9648 109.441 44.6512 108.651 44.6512H19.3489C18.5594 44.6512 17.8023 44.9648 17.244 45.5231C16.6858 46.0813 16.3722 46.8385 16.3722 47.628V84.0931C16.3722 84.2904 16.2938 84.4797 16.1542 84.6193C16.0146 84.7589 15.8253 84.8373 15.628 84.8373Z" fill="#34234D"/>
<path d="M112.372 99.721H15.628C15.4306 99.721 15.2413 99.6426 15.1018 99.503C14.9622 99.3634 14.8838 99.1742 14.8838 98.9768V88.5582C14.8838 88.3608 14.9622 88.1715 15.1018 88.032C15.2413 87.8924 15.4306 87.814 15.628 87.814C15.8253 87.814 16.0146 87.8924 16.1542 88.032C16.2938 88.1715 16.3722 88.3608 16.3722 88.5582V98.2326H111.628V64C111.628 63.8027 111.706 63.6134 111.846 63.4738C111.986 63.3343 112.175 63.2559 112.372 63.2559C112.57 63.2559 112.759 63.3343 112.898 63.4738C113.038 63.6134 113.116 63.8027 113.116 64V98.9768C113.116 99.1742 113.038 99.3634 112.898 99.503C112.759 99.6426 112.57 99.721 112.372 99.721Z" fill="#34234D"/>
<path d="M93.0231 120.558H34.9766C34.7792 120.558 34.59 120.48 34.4504 120.34C34.3108 120.201 34.2324 120.011 34.2324 119.814C34.2324 119.617 34.3108 119.427 34.4504 119.288C34.59 119.148 34.7792 119.07 34.9766 119.07H93.0231C93.2205 119.07 93.4098 119.148 93.5493 119.288C93.6889 119.427 93.7673 119.617 93.7673 119.814C93.7673 120.011 93.6889 120.201 93.5493 120.34C93.4098 120.48 93.2205 120.558 93.0231 120.558Z" fill="#34234D"/>
<path d="M68.465 105.674H59.5348C59.14 105.674 58.7614 105.518 58.4823 105.239C58.2032 104.959 58.0464 104.581 58.0464 104.186C58.0464 103.791 58.2032 103.413 58.4823 103.134C58.7614 102.855 59.14 102.698 59.5348 102.698H68.465C68.8597 102.698 69.2383 102.855 69.5174 103.134C69.7966 103.413 69.9534 103.791 69.9534 104.186C69.9534 104.581 69.7966 104.959 69.5174 105.239C69.2383 105.518 68.8597 105.674 68.465 105.674Z" fill="white"/>
<path d="M98.2327 33.4883H29.7676V98.9766H98.2327V33.4883Z" fill="#EDEDED"/>
<path d="M91.535 93.7673L29.7676 95.9999V33.4883H95.256L91.535 93.7673Z" fill="white"/>
<path d="M98.2327 99.7209H29.7676C29.5703 99.7209 29.381 99.6425 29.2414 99.5029C29.1018 99.3633 29.0234 99.1741 29.0234 98.9767V33.4883C29.0234 33.291 29.1018 33.1017 29.2414 32.9621C29.381 32.8225 29.5703 32.7441 29.7676 32.7441H98.2327C98.4301 32.7441 98.6194 32.8225 98.759 32.9621C98.8985 33.1017 98.9769 33.291 98.9769 33.4883V98.9767C98.9769 99.1741 98.8985 99.3633 98.759 99.5029C98.6194 99.6425 98.4301 99.7209 98.2327 99.7209ZM30.5118 98.2325H97.4886V34.2325H30.5118V98.2325Z" fill="#34234D"/>
<path d="M98.2327 23.0698H29.7676V33.4884H98.2327V23.0698Z" fill="#17374C"/>
<path d="M98.2327 31.2559L29.7676 26.0466V23.0698H98.2327V31.2559Z" fill="#2FC8F2"/>
<path d="M98.2327 34.2327H29.7676C29.5703 34.2327 29.381 34.1543 29.2414 34.0147C29.1018 33.8751 29.0234 33.6858 29.0234 33.4885V23.0699C29.0234 22.8725 29.1018 22.6832 29.2414 22.5437C29.381 22.4041 29.5703 22.3257 29.7676 22.3257H98.2327C98.4301 22.3257 98.6194 22.4041 98.759 22.5437C98.8985 22.6832 98.9769 22.8725 98.9769 23.0699V33.4885C98.9769 33.6858 98.8985 33.8751 98.759 34.0147C98.6194 34.1543 98.4301 34.2327 98.2327 34.2327ZM30.5118 32.7443H97.4886V23.8141H30.5118V32.7443Z" fill="#34234D"/>
<path d="M34.9766 29.3954C35.5931 29.3954 36.0929 28.8956 36.0929 28.2791C36.0929 27.6626 35.5931 27.1628 34.9766 27.1628C34.3601 27.1628 33.8604 27.6626 33.8604 28.2791C33.8604 28.8956 34.3601 29.3954 34.9766 29.3954Z" fill="white"/>
<path d="M39.442 29.3954C40.0585 29.3954 40.5582 28.8956 40.5582 28.2791C40.5582 27.6626 40.0585 27.1628 39.442 27.1628C38.8255 27.1628 38.3257 27.6626 38.3257 28.2791C38.3257 28.8956 38.8255 29.3954 39.442 29.3954Z" fill="white"/>
<path d="M43.9068 29.3954C44.5233 29.3954 45.0231 28.8956 45.0231 28.2791C45.0231 27.6626 44.5233 27.1628 43.9068 27.1628C43.2903 27.1628 42.7905 27.6626 42.7905 28.2791C42.7905 28.8956 43.2903 29.3954 43.9068 29.3954Z" fill="white"/>
<path d="M37.2095 5.20932H29.7676C29.5703 5.20932 29.381 5.13091 29.2414 4.99135C29.1018 4.85179 29.0234 4.6625 29.0234 4.46513C29.0234 4.26776 29.1018 4.07848 29.2414 3.93891C29.381 3.79935 29.5703 3.72095 29.7676 3.72095H37.2095C37.4069 3.72095 37.5961 3.79935 37.7357 3.93891C37.8753 4.07848 37.9537 4.26776 37.9537 4.46513C37.9537 4.6625 37.8753 4.85179 37.7357 4.99135C37.5961 5.13091 37.4069 5.20932 37.2095 5.20932Z" fill="#A09CAD"/>
<path d="M33.4883 8.93023C33.291 8.93023 33.1017 8.85183 32.9621 8.71227C32.8225 8.5727 32.7441 8.38342 32.7441 8.18605V0.744186C32.7441 0.546816 32.8225 0.357529 32.9621 0.217967C33.1017 0.0784051 33.291 0 33.4883 0C33.6857 0 33.875 0.0784051 34.0145 0.217967C34.1541 0.357529 34.2325 0.546816 34.2325 0.744186V8.18605C34.2325 8.38342 34.1541 8.5727 34.0145 8.71227C33.875 8.85183 33.6857 8.93023 33.4883 8.93023Z" fill="#A09CAD"/>
<path d="M104.186 11.9071H96.7442C96.5468 11.9071 96.3575 11.8287 96.218 11.6891C96.0784 11.5495 96 11.3603 96 11.1629C96 10.9655 96.0784 10.7762 96.218 10.6367C96.3575 10.4971 96.5468 10.4187 96.7442 10.4187H104.186C104.383 10.4187 104.573 10.4971 104.712 10.6367C104.852 10.7762 104.93 10.9655 104.93 11.1629C104.93 11.3603 104.852 11.5495 104.712 11.6891C104.573 11.8287 104.383 11.9071 104.186 11.9071Z" fill="#A09CAD"/>
<path d="M100.465 15.628C100.268 15.628 100.078 15.5496 99.9387 15.41C99.7991 15.2705 99.7207 15.0812 99.7207 14.8838V7.44194C99.7207 7.24457 99.7991 7.05528 99.9387 6.91572C100.078 6.77616 100.268 6.69775 100.465 6.69775C100.662 6.69775 100.852 6.77616 100.991 6.91572C101.131 7.05528 101.209 7.24457 101.209 7.44194V14.8838C101.209 15.0812 101.131 15.2705 100.991 15.41C100.852 15.5496 100.662 15.628 100.465 15.628Z" fill="#A09CAD"/>
<path d="M11.9071 93.0233H5.95366C5.75629 93.0233 5.567 92.9449 5.42744 92.8053C5.28788 92.6658 5.20947 92.4765 5.20947 92.2791C5.20947 92.0817 5.28788 91.8924 5.42744 91.7529C5.567 91.6133 5.75629 91.5349 5.95366 91.5349H11.9071C12.1045 91.5349 12.2938 91.6133 12.4334 91.7529C12.5729 91.8924 12.6513 92.0817 12.6513 92.2791C12.6513 92.4765 12.5729 92.6658 12.4334 92.8053C12.2938 92.9449 12.1045 93.0233 11.9071 93.0233Z" fill="#A09CAD"/>
<path d="M8.93022 96C8.73285 96 8.54356 95.9216 8.404 95.782C8.26444 95.6424 8.18604 95.4532 8.18604 95.2558V89.3023C8.18604 89.1049 8.26444 88.9156 8.404 88.7761C8.54356 88.6365 8.73285 88.5581 8.93022 88.5581C9.12759 88.5581 9.31688 88.6365 9.45644 88.7761C9.596 88.9156 9.67441 89.1049 9.67441 89.3023V95.2558C9.67441 95.4532 9.596 95.6424 9.45644 95.782C9.31688 95.9216 9.12759 96 8.93022 96Z" fill="#A09CAD"/>
<path d="M66.977 15.628H61.0235C60.8261 15.628 60.6368 15.5496 60.4973 15.4101C60.3577 15.2705 60.2793 15.0812 60.2793 14.8838C60.2793 14.6865 60.3577 14.4972 60.4973 14.3576C60.6368 14.2181 60.8261 14.1396 61.0235 14.1396H66.977C67.1743 14.1396 67.3636 14.2181 67.5032 14.3576C67.6428 14.4972 67.7212 14.6865 67.7212 14.8838C67.7212 15.0812 67.6428 15.2705 67.5032 15.4101C67.3636 15.5496 67.1743 15.628 66.977 15.628Z" fill="#A09CAD"/>
<path d="M64 18.6047C63.8027 18.6047 63.6134 18.5263 63.4738 18.3867C63.3343 18.2472 63.2559 18.0579 63.2559 17.8605V11.907C63.2559 11.7097 63.3343 11.5204 63.4738 11.3808C63.6134 11.2412 63.8027 11.1628 64 11.1628C64.1974 11.1628 64.3867 11.2412 64.5263 11.3808C64.6658 11.5204 64.7442 11.7097 64.7442 11.907V17.8605C64.7442 18.0579 64.6658 18.2472 64.5263 18.3867C64.3867 18.5263 64.1974 18.6047 64 18.6047Z" fill="#A09CAD"/>
<path d="M8.18605 40.9303H0.744186C0.546816 40.9303 0.357529 40.8519 0.217967 40.7123C0.0784051 40.5727 0 40.3835 0 40.1861C0 39.9887 0.0784051 39.7994 0.217967 39.6599C0.357529 39.5203 0.546816 39.4419 0.744186 39.4419H8.18605C8.38342 39.4419 8.5727 39.5203 8.71227 39.6599C8.85183 39.7994 8.93023 39.9887 8.93023 40.1861C8.93023 40.3835 8.85183 40.5727 8.71227 40.7123C8.5727 40.8519 8.38342 40.9303 8.18605 40.9303Z" fill="#A09CAD"/>
<path d="M4.46489 44.6512C4.26752 44.6512 4.07823 44.5728 3.93867 44.4332C3.79911 44.2937 3.7207 44.1044 3.7207 43.907V36.4651C3.7207 36.2678 3.79911 36.0785 3.93867 35.9389C4.07823 35.7994 4.26752 35.7209 4.46489 35.7209C4.66226 35.7209 4.85155 35.7994 4.99111 35.9389C5.13067 36.0785 5.20908 36.2678 5.20908 36.4651V43.907C5.20908 44.1044 5.13067 44.2937 4.99111 44.4332C4.85155 44.5728 4.66226 44.6512 4.46489 44.6512Z" fill="#A09CAD"/>
<path d="M127.256 64.7442H121.302C121.105 64.7442 120.916 64.6658 120.776 64.5263C120.637 64.3867 120.558 64.1974 120.558 64C120.558 63.8027 120.637 63.6134 120.776 63.4738C120.916 63.3343 121.105 63.2559 121.302 63.2559H127.256C127.453 63.2559 127.642 63.3343 127.782 63.4738C127.922 63.6134 128 63.8027 128 64C128 64.1974 127.922 64.3867 127.782 64.5263C127.642 64.6658 127.453 64.7442 127.256 64.7442Z" fill="#A09CAD"/>
<path d="M124.279 67.7209C124.081 67.7209 123.892 67.6425 123.753 67.503C123.613 67.3634 123.535 67.1741 123.535 66.9767V61.0232C123.535 60.8259 123.613 60.6366 123.753 60.497C123.892 60.3575 124.081 60.2791 124.279 60.2791C124.476 60.2791 124.666 60.3575 124.805 60.497C124.945 60.6366 125.023 60.8259 125.023 61.0232V66.9767C125.023 67.1741 124.945 67.3634 124.805 67.503C124.666 67.6425 124.476 67.7209 124.279 67.7209Z" fill="#A09CAD"/>
<path d="M122.046 101.953H116.093C115.895 101.953 115.706 101.875 115.567 101.735C115.427 101.596 115.349 101.407 115.349 101.209C115.349 101.012 115.427 100.823 115.567 100.683C115.706 100.543 115.895 100.465 116.093 100.465H122.046C122.244 100.465 122.433 100.543 122.573 100.683C122.712 100.823 122.79 101.012 122.79 101.209C122.79 101.407 122.712 101.596 122.573 101.735C122.433 101.875 122.244 101.953 122.046 101.953Z" fill="#A09CAD"/>
<path d="M119.07 104.93C118.872 104.93 118.683 104.852 118.544 104.712C118.404 104.573 118.326 104.383 118.326 104.186V98.2325C118.326 98.0351 118.404 97.8458 118.544 97.7062C118.683 97.5667 118.872 97.4883 119.07 97.4883C119.267 97.4883 119.457 97.5667 119.596 97.7062C119.736 97.8458 119.814 98.0351 119.814 98.2325V104.186C119.814 104.383 119.736 104.573 119.596 104.712C119.457 104.852 119.267 104.93 119.07 104.93Z" fill="#A09CAD"/>
<path d="M66.9765 41.3024H44.6509C44.3549 41.3024 44.071 41.1848 43.8616 40.9754C43.6523 40.7661 43.5347 40.4822 43.5347 40.1861C43.5347 39.89 43.6523 39.6061 43.8616 39.3968C44.071 39.1874 44.3549 39.0698 44.6509 39.0698H66.9765C67.2726 39.0698 67.5565 39.1874 67.7659 39.3968C67.9752 39.6061 68.0928 39.89 68.0928 40.1861C68.0928 40.4822 67.9752 40.7661 67.7659 40.9754C67.5565 41.1848 67.2726 41.3024 66.9765 41.3024Z" fill="#FF972C"/>
<path d="M68.4649 65.1163H52.0928C51.7968 65.1163 51.5129 64.9987 51.3035 64.7894C51.0942 64.5801 50.9766 64.2961 50.9766 64.0001C50.9766 63.704 51.0942 63.4201 51.3035 63.2107C51.5129 63.0014 51.7968 62.8838 52.0928 62.8838H68.4649C68.761 62.8838 69.0449 63.0014 69.2543 63.2107C69.4636 63.4201 69.5812 63.704 69.5812 64.0001C69.5812 64.2961 69.4636 64.5801 69.2543 64.7894C69.0449 64.9987 68.761 65.1163 68.4649 65.1163Z" fill="#FF972C"/>
<path d="M52.0928 59.1627H44.6509C44.3549 59.1627 44.071 59.0451 43.8616 58.8358C43.6523 58.6264 43.5347 58.3425 43.5347 58.0465C43.5347 57.7504 43.6523 57.4665 43.8616 57.2571C44.071 57.0478 44.3549 56.9302 44.6509 56.9302H52.0928C52.3889 56.9302 52.6728 57.0478 52.8821 57.2571C53.0915 57.4665 53.2091 57.7504 53.2091 58.0465C53.2091 58.3425 53.0915 58.6264 52.8821 58.8358C52.6728 59.0451 52.3889 59.1627 52.0928 59.1627Z" fill="#FF972C"/>
<path d="M55.8137 77.0233H44.6509C44.3549 77.0233 44.071 76.9057 43.8616 76.6964C43.6523 76.487 43.5347 76.2031 43.5347 75.9071C43.5347 75.611 43.6523 75.3271 43.8616 75.1177C44.071 74.9084 44.3549 74.7908 44.6509 74.7908H55.8137C56.1098 74.7908 56.3937 74.9084 56.6031 75.1177C56.8124 75.3271 56.93 75.611 56.93 75.9071C56.93 76.2031 56.8124 76.487 56.6031 76.6964C56.3937 76.9057 56.1098 77.0233 55.8137 77.0233Z" fill="#FF972C"/>
<path d="M52.0928 82.9767H44.6509C44.3549 82.9767 44.071 82.8591 43.8616 82.6497C43.6523 82.4404 43.5347 82.1565 43.5347 81.8604C43.5347 81.5644 43.6523 81.2804 43.8616 81.0711C44.071 80.8617 44.3549 80.7441 44.6509 80.7441H52.0928C52.3889 80.7441 52.6728 80.8617 52.8821 81.0711C53.0915 81.2804 53.2091 81.5644 53.2091 81.8604C53.2091 82.1565 53.0915 82.4404 52.8821 82.6497C52.6728 82.8591 52.3889 82.9767 52.0928 82.9767Z" fill="#FF972C"/>
<path d="M77.3952 47.2558H52.0928C51.7968 47.2558 51.5129 47.1381 51.3035 46.9288C51.0942 46.7195 50.9766 46.4355 50.9766 46.1395C50.9766 45.8434 51.0942 45.5595 51.3035 45.3501C51.5129 45.1408 51.7968 45.0232 52.0928 45.0232H77.3952C77.6912 45.0232 77.9752 45.1408 78.1845 45.3501C78.3938 45.5595 78.5114 45.8434 78.5114 46.1395C78.5114 46.4355 78.3938 46.7195 78.1845 46.9288C77.9752 47.1381 77.6912 47.2558 77.3952 47.2558Z" fill="#17374C"/>
<path d="M63.9998 71.0697H52.0928C51.7968 71.0697 51.5129 70.9521 51.3035 70.7428C51.0942 70.5334 50.9766 70.2495 50.9766 69.9534C50.9766 69.6574 51.0942 69.3735 51.3035 69.1641C51.5129 68.9548 51.7968 68.8372 52.0928 68.8372H63.9998C64.2959 68.8372 64.5798 68.9548 64.7891 69.1641C64.9985 69.3735 65.1161 69.6574 65.1161 69.9534C65.1161 70.2495 64.9985 70.5334 64.7891 70.7428C64.5798 70.9521 64.2959 71.0697 63.9998 71.0697Z" fill="#17374C"/>
<path d="M72.93 88.9303H52.0928C51.7968 88.9303 51.5129 88.8127 51.3035 88.6034C51.0942 88.394 50.9766 88.1101 50.9766 87.814C50.9766 87.518 51.0942 87.234 51.3035 87.0247C51.5129 86.8154 51.7968 86.6978 52.0928 86.6978H72.93C73.2261 86.6978 73.51 86.8154 73.7194 87.0247C73.9287 87.234 74.0463 87.518 74.0463 87.814C74.0463 88.1101 73.9287 88.394 73.7194 88.6034C73.51 88.8127 73.2261 88.9303 72.93 88.9303Z" fill="#17374C"/>
<path d="M60.2789 94.8837H52.0928C51.7968 94.8837 51.5129 94.7661 51.3035 94.5567C51.0942 94.3474 50.9766 94.0635 50.9766 93.7674C50.9766 93.4713 51.0942 93.1874 51.3035 92.9781C51.5129 92.7687 51.7968 92.6511 52.0928 92.6511H60.2789C60.5749 92.6511 60.8589 92.7687 61.0682 92.9781C61.2776 93.1874 61.3952 93.4713 61.3952 93.7674C61.3952 94.0635 61.2776 94.3474 61.0682 94.5567C60.8589 94.7661 60.5749 94.8837 60.2789 94.8837Z" fill="#FF972C"/>
<path d="M76.6509 77.0233H61.023C60.727 77.0233 60.443 76.9057 60.2337 76.6964C60.0243 76.487 59.9067 76.2031 59.9067 75.9071C59.9067 75.611 60.0243 75.3271 60.2337 75.1177C60.443 74.9084 60.727 74.7908 61.023 74.7908H76.6509C76.947 74.7908 77.2309 74.9084 77.4403 75.1177C77.6496 75.3271 77.7672 75.611 77.7672 75.9071C77.7672 76.2031 77.6496 76.487 77.4403 76.6964C77.2309 76.9057 76.947 77.0233 76.6509 77.0233Z" fill="#17374C"/>
<path d="M66.2325 82.9767H57.3023C57.0063 82.9767 56.7223 82.8591 56.513 82.6497C56.3036 82.4404 56.186 82.1565 56.186 81.8604C56.186 81.5644 56.3036 81.2804 56.513 81.0711C56.7223 80.8617 57.0063 80.7441 57.3023 80.7441H66.2325C66.5286 80.7441 66.8125 80.8617 67.0219 81.0711C67.2312 81.2804 67.3488 81.5644 67.3488 81.8604C67.3488 82.1565 67.2312 82.4404 67.0219 82.6497C66.8125 82.8591 66.5286 82.9767 66.2325 82.9767Z" fill="#17374C"/>
<path d="M77.3953 94.8837H65.4883C65.1923 94.8837 64.9084 94.7661 64.699 94.5567C64.4897 94.3474 64.3721 94.0635 64.3721 93.7674C64.3721 93.4713 64.4897 93.1874 64.699 92.9781C64.9084 92.7687 65.1923 92.6511 65.4883 92.6511H77.3953C77.6914 92.6511 77.9753 92.7687 78.1847 92.9781C78.394 93.1874 78.5116 93.4713 78.5116 93.7674C78.5116 94.0635 78.394 94.3474 78.1847 94.5567C77.9753 94.7661 77.6914 94.8837 77.3953 94.8837Z" fill="#17374C"/>
<path d="M62.5114 53.2094H52.0928C51.7968 53.2094 51.5129 53.0918 51.3035 52.8824C51.0942 52.6731 50.9766 52.3891 50.9766 52.0931C50.9766 51.797 51.0942 51.5131 51.3035 51.3038C51.5129 51.0944 51.7968 50.9768 52.0928 50.9768H62.5114C62.8075 50.9768 63.0914 51.0944 63.3008 51.3038C63.5101 51.5131 63.6277 51.797 63.6277 52.0931C63.6277 52.3891 63.5101 52.6731 63.3008 52.8824C63.0914 53.0918 62.8075 53.2094 62.5114 53.2094Z" fill="#17374C"/>
<path d="M81.8604 65.1163H73.6744C73.3783 65.1163 73.0944 64.9987 72.8851 64.7894C72.6757 64.5801 72.5581 64.2961 72.5581 64.0001C72.5581 63.704 72.6757 63.4201 72.8851 63.2107C73.0944 63.0014 73.3783 62.8838 73.6744 62.8838H81.8604C82.1565 62.8838 82.4404 63.0014 82.6498 63.2107C82.8591 63.4201 82.9767 63.704 82.9767 64.0001C82.9767 64.2961 82.8591 64.5801 82.6498 64.7894C82.4404 64.9987 82.1565 65.1163 81.8604 65.1163Z" fill="#17374C"/>
<path d="M91.5348 47.2558H82.6046C82.3085 47.2558 82.0246 47.1381 81.8152 46.9288C81.6059 46.7195 81.4883 46.4355 81.4883 46.1395C81.4883 45.8434 81.6059 45.5595 81.8152 45.3501C82.0246 45.1408 82.3085 45.0232 82.6046 45.0232H91.5348C91.8308 45.0232 92.1148 45.1408 92.3241 45.3501C92.5335 45.5595 92.6511 45.8434 92.6511 46.1395C92.6511 46.4355 92.5335 46.7195 92.3241 46.9288C92.1148 47.1381 91.8308 47.2558 91.5348 47.2558Z" fill="#B8B5C6"/>
<path d="M75.1626 53.2094H67.7208C67.4247 53.2094 67.1408 53.0918 66.9314 52.8824C66.7221 52.6731 66.6045 52.3891 66.6045 52.0931C66.6045 51.797 66.7221 51.5131 66.9314 51.3038C67.1408 51.0944 67.4247 50.9768 67.7208 50.9768H75.1626C75.4587 50.9768 75.7426 51.0944 75.952 51.3038C76.1613 51.5131 76.2789 51.797 76.2789 52.0931C76.2789 52.3891 76.1613 52.6731 75.952 52.8824C75.7426 53.0918 75.4587 53.2094 75.1626 53.2094Z" fill="#B8B5C6"/>
<path d="M76.6514 71.0697H69.2095C68.9135 71.0697 68.6296 70.9521 68.4202 70.7428C68.2109 70.5334 68.0933 70.2495 68.0933 69.9534C68.0933 69.6574 68.2109 69.3735 68.4202 69.1641C68.6296 68.9548 68.9135 68.8372 69.2095 68.8372H76.6514C76.9475 68.8372 77.2314 68.9548 77.4407 69.1641C77.6501 69.3735 77.7677 69.6574 77.7677 69.9534C77.7677 70.2495 77.6501 70.5334 77.4407 70.7428C77.2314 70.9521 76.9475 71.0697 76.6514 71.0697Z" fill="#B8B5C6"/>
<path d="M85.5816 88.9303H78.1397C77.8437 88.9303 77.5597 88.8127 77.3504 88.6034C77.141 88.394 77.0234 88.1101 77.0234 87.814C77.0234 87.518 77.141 87.234 77.3504 87.0247C77.5597 86.8154 77.8437 86.6978 78.1397 86.6978H85.5816C85.8776 86.6978 86.1616 86.8154 86.3709 87.0247C86.5803 87.234 86.6979 87.518 86.6979 87.814C86.6979 88.1101 86.5803 88.394 86.3709 88.6034C86.1616 88.8127 85.8776 88.9303 85.5816 88.9303Z" fill="#B8B5C6"/>
<path d="M91.5348 94.8837H82.6046C82.3085 94.8837 82.0246 94.7661 81.8152 94.5567C81.6059 94.3474 81.4883 94.0635 81.4883 93.7674C81.4883 93.4713 81.6059 93.1874 81.8152 92.9781C82.0246 92.7687 82.3085 92.6511 82.6046 92.6511H91.5348C91.8308 92.6511 92.1148 92.7687 92.3241 92.9781C92.5335 93.1874 92.6511 93.4713 92.6511 93.7674C92.6511 94.0635 92.5335 94.3474 92.3241 94.5567C92.1148 94.7661 91.8308 94.8837 91.5348 94.8837Z" fill="#B8B5C6"/>
<path d="M88.5582 82.9767H71.442C71.1459 82.9767 70.862 82.8591 70.6526 82.6497C70.4433 82.4404 70.3257 82.1565 70.3257 81.8604C70.3257 81.5644 70.4433 81.2804 70.6526 81.0711C70.862 80.8617 71.1459 80.7441 71.442 80.7441H88.5582C88.8543 80.7441 89.1382 80.8617 89.3476 81.0711C89.5569 81.2804 89.6745 81.5644 89.6745 81.8604C89.6745 82.1565 89.5569 82.4404 89.3476 82.6497C89.1382 82.8591 88.8543 82.9767 88.5582 82.9767Z" fill="#B8B5C6"/>
<path d="M39.4417 41.3024H36.4649C36.1689 41.3024 35.8849 41.1848 35.6756 40.9754C35.4662 40.7661 35.3486 40.4822 35.3486 40.1861C35.3486 39.89 35.4662 39.6061 35.6756 39.3968C35.8849 39.1874 36.1689 39.0698 36.4649 39.0698H39.4417C39.7377 39.0698 40.0216 39.1874 40.231 39.3968C40.4403 39.6061 40.5579 39.89 40.5579 40.1861C40.5579 40.4822 40.4403 40.7661 40.231 40.9754C40.0216 41.1848 39.7377 41.3024 39.4417 41.3024Z" fill="#17374C"/>
<path d="M39.4417 47.2558H36.4649C36.1689 47.2558 35.8849 47.1381 35.6756 46.9288C35.4662 46.7195 35.3486 46.4355 35.3486 46.1395C35.3486 45.8434 35.4662 45.5595 35.6756 45.3501C35.8849 45.1408 36.1689 45.0232 36.4649 45.0232H39.4417C39.7377 45.0232 40.0216 45.1408 40.231 45.3501C40.4403 45.5595 40.5579 45.8434 40.5579 46.1395C40.5579 46.4355 40.4403 46.7195 40.231 46.9288C40.0216 47.1381 39.7377 47.2558 39.4417 47.2558Z" fill="#17374C"/>
<path d="M39.4417 53.2094H36.4649C36.1689 53.2094 35.8849 53.0918 35.6756 52.8824C35.4662 52.6731 35.3486 52.3891 35.3486 52.0931C35.3486 51.797 35.4662 51.5131 35.6756 51.3038C35.8849 51.0944 36.1689 50.9768 36.4649 50.9768H39.4417C39.7377 50.9768 40.0216 51.0944 40.231 51.3038C40.4403 51.5131 40.5579 51.797 40.5579 52.0931C40.5579 52.3891 40.4403 52.6731 40.231 52.8824C40.0216 53.0918 39.7377 53.2094 39.4417 53.2094Z" fill="#17374C"/>
<path d="M39.4417 59.1627H36.4649C36.1689 59.1627 35.8849 59.0451 35.6756 58.8358C35.4662 58.6264 35.3486 58.3425 35.3486 58.0465C35.3486 57.7504 35.4662 57.4665 35.6756 57.2571C35.8849 57.0478 36.1689 56.9302 36.4649 56.9302H39.4417C39.7377 56.9302 40.0216 57.0478 40.231 57.2571C40.4403 57.4665 40.5579 57.7504 40.5579 58.0465C40.5579 58.3425 40.4403 58.6264 40.231 58.8358C40.0216 59.0451 39.7377 59.1627 39.4417 59.1627Z" fill="#17374C"/>
<path d="M39.4417 65.1163H36.4649C36.1689 65.1163 35.8849 64.9987 35.6756 64.7894C35.4662 64.5801 35.3486 64.2961 35.3486 64.0001C35.3486 63.704 35.4662 63.4201 35.6756 63.2107C35.8849 63.0014 36.1689 62.8838 36.4649 62.8838H39.4417C39.7377 62.8838 40.0216 63.0014 40.231 63.2107C40.4403 63.4201 40.5579 63.704 40.5579 64.0001C40.5579 64.2961 40.4403 64.5801 40.231 64.7894C40.0216 64.9987 39.7377 65.1163 39.4417 65.1163Z" fill="#17374C"/>
<path d="M39.4417 71.0697H36.4649C36.1689 71.0697 35.8849 70.9521 35.6756 70.7428C35.4662 70.5334 35.3486 70.2495 35.3486 69.9534C35.3486 69.6574 35.4662 69.3735 35.6756 69.1641C35.8849 68.9548 36.1689 68.8372 36.4649 68.8372H39.4417C39.7377 68.8372 40.0216 68.9548 40.231 69.1641C40.4403 69.3735 40.5579 69.6574 40.5579 69.9534C40.5579 70.2495 40.4403 70.5334 40.231 70.7428C40.0216 70.9521 39.7377 71.0697 39.4417 71.0697Z" fill="#17374C"/>
<path d="M39.4417 77.0233H36.4649C36.1689 77.0233 35.8849 76.9057 35.6756 76.6964C35.4662 76.487 35.3486 76.2031 35.3486 75.9071C35.3486 75.611 35.4662 75.3271 35.6756 75.1177C35.8849 74.9084 36.1689 74.7908 36.4649 74.7908H39.4417C39.7377 74.7908 40.0216 74.9084 40.231 75.1177C40.4403 75.3271 40.5579 75.611 40.5579 75.9071C40.5579 76.2031 40.4403 76.487 40.231 76.6964C40.0216 76.9057 39.7377 77.0233 39.4417 77.0233Z" fill="#17374C"/>
<path d="M39.4417 82.9767H36.4649C36.1689 82.9767 35.8849 82.8591 35.6756 82.6497C35.4662 82.4404 35.3486 82.1565 35.3486 81.8604C35.3486 81.5644 35.4662 81.2804 35.6756 81.0711C35.8849 80.8617 36.1689 80.7441 36.4649 80.7441H39.4417C39.7377 80.7441 40.0216 80.8617 40.231 81.0711C40.4403 81.2804 40.5579 81.5644 40.5579 81.8604C40.5579 82.1565 40.4403 82.4404 40.231 82.6497C40.0216 82.8591 39.7377 82.9767 39.4417 82.9767Z" fill="#17374C"/>
<path d="M39.4417 88.9303H36.4649C36.1689 88.9303 35.8849 88.8127 35.6756 88.6034C35.4662 88.394 35.3486 88.1101 35.3486 87.814C35.3486 87.518 35.4662 87.234 35.6756 87.0247C35.8849 86.8154 36.1689 86.6978 36.4649 86.6978H39.4417C39.7377 86.6978 40.0216 86.8154 40.231 87.0247C40.4403 87.234 40.5579 87.518 40.5579 87.814C40.5579 88.1101 40.4403 88.394 40.231 88.6034C40.0216 88.8127 39.7377 88.9303 39.4417 88.9303Z" fill="#17374C"/>
<path d="M39.4417 94.8837H36.4649C36.1689 94.8837 35.8849 94.7661 35.6756 94.5567C35.4662 94.3474 35.3486 94.0635 35.3486 93.7674C35.3486 93.4713 35.4662 93.1874 35.6756 92.9781C35.8849 92.7687 36.1689 92.6511 36.4649 92.6511H39.4417C39.7377 92.6511 40.0216 92.7687 40.231 92.9781C40.4403 93.1874 40.5579 93.4713 40.5579 93.7674C40.5579 94.0635 40.4403 94.3474 40.231 94.5567C40.0216 94.7661 39.7377 94.8837 39.4417 94.8837Z" fill="#17374C"/>
</g>
<defs>
<clipPath id="clip0_190_7771">
<rect width="128" height="120.558" fill="white"/>
</clipPath>
</defs>
</svg>
