<svg width="206" height="234" viewBox="0 0 206 234" fill="none" xmlns="http://www.w3.org/2000/svg">
<path d="M81.7134 66.3619C91.1742 49.9754 114.826 49.9754 124.287 66.3619L170.266 146.001C179.727 162.387 167.901 182.87 148.98 182.87H57.0207C38.0992 182.87 26.2732 162.387 35.734 146.001L81.7134 66.3619Z" fill="url(#paint0_linear_100_16161)"/>
<path d="M81.7134 167.638C91.1742 184.025 114.826 184.025 124.287 167.638L170.266 87.9994C179.727 71.6128 167.901 51.1297 148.98 51.1297H57.0207C38.0992 51.1297 26.2732 71.6129 35.734 87.9994L81.7134 167.638Z" fill="url(#paint1_linear_100_16161)"/>
<path d="M76.8043 214V203.5H80.7643C81.8543 203.5 82.6793 203.755 83.2393 204.265C83.7993 204.775 84.0793 205.415 84.0793 206.185C84.0793 206.855 83.8993 207.39 83.5393 207.79C83.1793 208.18 82.7443 208.445 82.2343 208.585C82.6343 208.665 82.9893 208.825 83.2993 209.065C83.6193 209.305 83.8693 209.605 84.0493 209.965C84.2293 210.325 84.3193 210.715 84.3193 211.135C84.3193 211.675 84.1843 212.165 83.9143 212.605C83.6543 213.035 83.2693 213.375 82.7593 213.625C82.2493 213.875 81.6243 214 80.8843 214H76.8043ZM78.3943 208H80.5693C81.1793 208 81.6443 207.86 81.9643 207.58C82.2843 207.29 82.4443 206.895 82.4443 206.395C82.4443 205.905 82.2843 205.515 81.9643 205.225C81.6543 204.935 81.1793 204.79 80.5393 204.79H78.3943V208ZM78.3943 212.695H80.6743C81.3143 212.695 81.8093 212.545 82.1593 212.245C82.5193 211.945 82.6993 211.525 82.6993 210.985C82.6993 210.445 82.5143 210.02 82.1443 209.71C81.7743 209.39 81.2743 209.23 80.6443 209.23H78.3943V212.695ZM86.0021 214V203.2H87.5921V214H86.0021ZM93.0856 214.18C92.3556 214.18 91.7056 214.02 91.1356 213.7C90.5756 213.37 90.1356 212.915 89.8156 212.335C89.4956 211.755 89.3356 211.08 89.3356 210.31C89.3356 209.53 89.4906 208.845 89.8006 208.255C90.1206 207.665 90.5606 207.205 91.1206 206.875C91.6906 206.545 92.3506 206.38 93.1006 206.38C93.8306 206.38 94.4656 206.545 95.0056 206.875C95.5456 207.195 95.9656 207.625 96.2656 208.165C96.5656 208.705 96.7156 209.3 96.7156 209.95C96.7156 210.05 96.7106 210.16 96.7006 210.28C96.7006 210.39 96.6956 210.515 96.6856 210.655H90.8956C90.9456 211.375 91.1806 211.925 91.6006 212.305C92.0306 212.675 92.5256 212.86 93.0856 212.86C93.5356 212.86 93.9106 212.76 94.2106 212.56C94.5206 212.35 94.7506 212.07 94.9006 211.72H96.4906C96.2906 212.42 95.8906 213.005 95.2906 213.475C94.7006 213.945 93.9656 214.18 93.0856 214.18ZM93.0856 207.685C92.5556 207.685 92.0856 207.845 91.6756 208.165C91.2656 208.475 91.0156 208.945 90.9256 209.575H95.1256C95.0956 208.995 94.8906 208.535 94.5106 208.195C94.1306 207.855 93.6556 207.685 93.0856 207.685ZM98.3654 214V206.56H99.7754L99.8954 207.865C100.125 207.405 100.46 207.045 100.9 206.785C101.35 206.515 101.865 206.38 102.445 206.38C103.345 206.38 104.05 206.66 104.56 207.22C105.08 207.78 105.34 208.615 105.34 209.725V214H103.765V209.89C103.765 208.45 103.175 207.73 101.995 207.73C101.405 207.73 100.915 207.94 100.525 208.36C100.145 208.78 99.9554 209.38 99.9554 210.16V214H98.3654ZM110.603 214.18C109.883 214.18 109.248 214.01 108.698 213.67C108.148 213.33 107.718 212.865 107.408 212.275C107.098 211.685 106.943 211.015 106.943 210.265C106.943 209.515 107.098 208.85 107.408 208.27C107.718 207.68 108.148 207.22 108.698 206.89C109.258 206.55 109.898 206.38 110.618 206.38C111.208 206.38 111.723 206.495 112.163 206.725C112.613 206.955 112.963 207.28 113.213 207.7V203.2H114.803V214H113.378L113.213 212.845C112.973 213.195 112.643 213.505 112.223 213.775C111.803 214.045 111.263 214.18 110.603 214.18ZM110.888 212.8C111.568 212.8 112.123 212.565 112.553 212.095C112.993 211.625 113.213 211.02 113.213 210.28C113.213 209.53 112.993 208.925 112.553 208.465C112.123 207.995 111.568 207.76 110.888 207.76C110.208 207.76 109.648 207.995 109.208 208.465C108.768 208.925 108.548 209.53 108.548 210.28C108.548 210.77 108.648 211.205 108.848 211.585C109.048 211.965 109.323 212.265 109.673 212.485C110.033 212.695 110.438 212.8 110.888 212.8ZM120.288 214.18C119.558 214.18 118.908 214.02 118.338 213.7C117.778 213.37 117.338 212.915 117.018 212.335C116.698 211.755 116.538 211.08 116.538 210.31C116.538 209.53 116.693 208.845 117.003 208.255C117.323 207.665 117.763 207.205 118.323 206.875C118.893 206.545 119.553 206.38 120.303 206.38C121.033 206.38 121.668 206.545 122.208 206.875C122.748 207.195 123.168 207.625 123.468 208.165C123.768 208.705 123.918 209.3 123.918 209.95C123.918 210.05 123.913 210.16 123.903 210.28C123.903 210.39 123.898 210.515 123.888 210.655H118.098C118.148 211.375 118.383 211.925 118.803 212.305C119.233 212.675 119.728 212.86 120.288 212.86C120.738 212.86 121.113 212.76 121.413 212.56C121.723 212.35 121.953 212.07 122.103 211.72H123.693C123.493 212.42 123.093 213.005 122.493 213.475C121.903 213.945 121.168 214.18 120.288 214.18ZM120.288 207.685C119.758 207.685 119.288 207.845 118.878 208.165C118.468 208.475 118.218 208.945 118.128 209.575H122.328C122.298 208.995 122.093 208.535 121.713 208.195C121.333 207.855 120.858 207.685 120.288 207.685ZM125.568 214V206.56H126.993L127.128 207.97C127.388 207.48 127.748 207.095 128.208 206.815C128.678 206.525 129.243 206.38 129.903 206.38V208.045H129.468C129.028 208.045 128.633 208.12 128.283 208.27C127.943 208.41 127.668 208.655 127.458 209.005C127.258 209.345 127.158 209.82 127.158 210.43V214H125.568Z" fill="#17374C"/>
<path d="M81.3681 117.981C81.4056 117.333 81.7317 116.76 82.2217 116.356C82.7017 115.958 83.3497 115.713 84.0552 115.713C84.7602 115.713 85.4082 115.958 85.8887 116.356C86.3787 116.76 86.7042 117.333 86.7422 117.981C86.7772 118.647 86.5047 119.266 86.0227 119.725C85.5327 120.192 84.8357 120.485 84.0552 120.485C83.2752 120.485 82.5752 120.192 82.0852 119.725C81.6052 119.266 81.3306 118.647 81.3681 117.981Z" fill="#235785"/>
<path d="M77.0911 119.295C77.0971 119.549 77.1801 120.041 77.3026 120.428C77.5738 121.261 78.025 122.024 78.6241 122.663C79.2561 123.346 80.0346 123.895 80.9336 124.286C81.8915 124.697 82.9238 124.906 83.9661 124.901C85.0093 124.903 86.0416 124.689 86.9986 124.274C87.8731 123.897 88.6598 123.342 89.3086 122.645C89.9226 121.977 90.3651 121.221 90.6281 120.407C90.7581 119.995 90.8411 119.577 90.8746 119.157C90.9691 117.927 90.659 116.7 89.9916 115.663C89.5834 115.023 89.0635 114.462 88.4566 114.006H88.4586L82.2436 109.34C82.2376 109.336 82.2336 109.33 82.2276 109.329C81.8186 109.022 81.1331 109.022 80.6846 109.329C80.2321 109.639 80.1811 110.153 80.5841 110.477H80.5821L83.1741 112.54L75.2736 112.547H75.2636C74.6096 112.547 73.9816 112.967 73.8586 113.497C73.7306 114.036 74.1731 114.483 74.8526 114.485V114.489L78.8576 114.481L71.7111 119.845C71.701 119.85 71.6916 119.857 71.6831 119.864C71.0096 120.368 70.7901 121.208 71.2151 121.739C71.6456 122.278 72.5626 122.28 73.2441 121.741L77.1441 118.622C77.1441 118.622 77.0866 119.042 77.0906 119.296L77.0911 119.295ZM87.1131 120.705C86.3091 121.506 85.1851 121.959 83.9661 121.963C82.7471 121.965 81.6231 121.514 80.8191 120.715C80.4417 120.344 80.1486 119.896 79.9596 119.401C79.7854 118.932 79.7186 118.43 79.7641 117.932C79.8062 117.446 79.953 116.974 80.1946 116.549C80.4379 116.121 80.7621 115.743 81.1491 115.438C81.9311 114.815 82.9251 114.477 83.9661 114.477C85.0071 114.475 86.0011 114.809 86.7811 115.43C87.1686 115.734 87.4934 116.11 87.7376 116.538C87.9766 116.961 88.1246 117.428 88.1681 117.92C88.2139 118.418 88.1464 118.92 87.9706 119.387C87.784 119.884 87.4914 120.334 87.1131 120.706V120.705Z" fill="#E87500"/>
<path d="M123.947 117.971C124.008 117.315 124.526 116.901 125.316 116.901C126.106 116.901 126.624 117.315 126.685 117.971H123.947ZM126.604 119.586C126.4 120.073 125.924 120.36 125.274 120.36C124.464 120.36 123.917 119.864 123.895 119.081H128.562V118.85C128.562 116.891 127.384 115.787 125.274 115.787C123.228 115.787 121.989 116.9 121.989 118.645C121.989 120.398 123.247 121.51 125.274 121.51C126.493 121.51 127.436 121.102 128.018 120.385L126.604 119.586ZM103.244 117.973C103.306 117.319 103.823 116.905 104.615 116.905C105.405 116.905 105.921 117.319 105.982 117.973H103.244ZM105.901 119.59C105.7 120.077 105.222 120.364 104.572 120.364C103.762 120.364 103.215 119.868 103.193 119.084H107.858V118.856C107.858 116.893 106.682 115.791 104.572 115.791C102.523 115.791 101.288 116.905 101.288 118.649C101.288 120.403 102.545 121.512 104.572 121.512C105.789 121.512 106.733 121.106 107.318 120.389L105.901 119.59ZM99.1884 114.604H100.87V121.335H99.1884V114.604ZM108.276 116.393H109.967V116.793C110.568 116.168 111.287 115.852 112.097 115.852C113.031 115.852 113.739 116.168 114.104 116.706C114.41 117.151 114.43 117.686 114.43 118.391V121.334H112.735V118.749C112.735 117.674 112.514 117.18 111.552 117.18C110.578 117.18 109.967 117.747 109.967 118.7V121.335H108.276V116.393ZM119.881 118.729C119.881 119.651 119.251 120.254 118.277 120.254C117.303 120.254 116.672 119.67 116.672 118.739C116.672 117.794 117.293 117.211 118.277 117.211C119.251 117.211 119.881 117.805 119.881 118.729ZM119.881 116.616C119.452 116.168 118.834 115.922 117.972 115.922C116.117 115.922 114.849 117.041 114.849 118.719C114.849 120.364 116.107 121.514 117.943 121.514C118.784 121.514 119.401 121.305 119.881 120.838V121.334H121.574V114.176L119.881 114.604V116.616ZM95.3419 117.211C96.3259 117.211 96.9444 117.795 96.9444 118.741C96.9444 119.672 96.3159 120.254 95.3419 120.254C94.3679 120.254 93.7399 119.651 93.7399 118.729C93.7399 117.805 94.3679 117.211 95.3419 117.211ZM93.7399 114.604L92.0469 114.178V121.336H93.7399V120.84C94.2159 121.307 94.8344 121.514 95.6779 121.514C97.5129 121.514 98.7699 120.364 98.7699 118.719C98.7699 117.041 97.5014 115.922 95.6464 115.922C94.7849 115.922 94.1664 116.168 93.7399 116.617V114.604ZM128.978 121.336V116.393H130.672V116.7C131.179 116.102 131.715 115.805 132.325 115.805C132.448 115.805 132.6 115.825 132.801 115.844V117.252C132.639 117.233 132.458 117.233 132.264 117.233C131.28 117.233 130.672 117.868 130.672 118.946V121.336H128.978Z" fill="#235785"/>
<path d="M134.247 115.414H134.31C134.351 115.414 134.383 115.404 134.405 115.383C134.415 115.371 134.424 115.358 134.429 115.343C134.435 115.328 134.437 115.312 134.436 115.297C134.436 115.256 134.424 115.227 134.405 115.211C134.383 115.195 134.349 115.187 134.302 115.187H134.246L134.247 115.414ZM134.602 115.297C134.602 115.391 134.557 115.457 134.468 115.492L134.681 115.829H134.492L134.326 115.539H134.247V115.829H134.081V115.063H134.31C134.409 115.063 134.484 115.084 134.531 115.125C134.579 115.163 134.602 115.219 134.602 115.297ZM133.678 115.445C133.678 115.333 133.708 115.222 133.765 115.125C133.821 115.028 133.903 114.947 134.001 114.89C134.103 114.834 134.217 114.805 134.334 114.805C134.454 114.805 134.565 114.834 134.666 114.891C134.764 114.949 134.844 115.027 134.903 115.125C134.966 115.225 134.997 115.332 134.997 115.445C134.997 115.56 134.968 115.668 134.91 115.765C134.849 115.862 134.765 115.942 134.666 116C134.564 116.059 134.454 116.086 134.334 116.086C134.211 116.086 134.101 116.059 134.001 116C133.901 115.943 133.822 115.865 133.765 115.766C133.706 115.669 133.676 115.558 133.678 115.445ZM133.789 115.445C133.789 115.545 133.812 115.637 133.859 115.719C133.907 115.797 133.972 115.863 134.057 115.914C134.146 115.961 134.239 115.984 134.334 115.984C134.43 115.985 134.526 115.961 134.61 115.914C134.695 115.868 134.765 115.8 134.816 115.719C134.863 115.637 134.887 115.545 134.887 115.445C134.887 115.351 134.859 115.264 134.808 115.18C134.761 115.098 134.693 115.031 134.61 114.985C134.529 114.934 134.435 114.907 134.339 114.905C134.243 114.904 134.148 114.928 134.065 114.976C133.98 115.023 133.91 115.09 133.859 115.172C133.812 115.256 133.789 115.348 133.789 115.445Z" fill="#216191"/>
<defs>
<linearGradient id="paint0_linear_100_16161" x1="103" y1="29.4922" x2="145.523" y2="213.595" gradientUnits="userSpaceOnUse">
<stop offset="0.163095" stop-color="#FCE0AE" stop-opacity="0.11"/>
<stop offset="0.717676" stop-color="#FF972C" stop-opacity="0.11"/>
</linearGradient>
<linearGradient id="paint1_linear_100_16161" x1="103" y1="204.508" x2="145.523" y2="20.4049" gradientUnits="userSpaceOnUse">
<stop offset="0.163095" stop-color="#FCE0AE" stop-opacity="0.11"/>
<stop offset="0.717676" stop-color="#FF972C" stop-opacity="0.11"/>
</linearGradient>
</defs>
</svg>
