<svg width="206" height="234" viewBox="0 0 206 234" fill="none" xmlns="http://www.w3.org/2000/svg">
<path d="M81.7134 66.3619C91.1742 49.9754 114.826 49.9754 124.287 66.3619L170.266 146.001C179.727 162.387 167.901 182.87 148.98 182.87H57.0207C38.0992 182.87 26.2732 162.387 35.734 146.001L81.7134 66.3619Z" fill="url(#paint0_linear_100_16160)"/>
<path d="M81.7134 167.638C91.1742 184.025 114.826 184.025 124.287 167.638L170.266 87.9994C179.727 71.6128 167.901 51.1297 148.98 51.1297H57.0207C38.0992 51.1297 26.2732 71.6129 35.734 87.9994L81.7134 167.638Z" fill="url(#paint1_linear_100_16160)"/>
<path d="M82.1583 214V203.5H86.1183C87.2083 203.5 88.0333 203.755 88.5933 204.265C89.1533 204.775 89.4333 205.415 89.4333 206.185C89.4333 206.855 89.2533 207.39 88.8933 207.79C88.5333 208.18 88.0983 208.445 87.5883 208.585C87.9883 208.665 88.3433 208.825 88.6533 209.065C88.9733 209.305 89.2233 209.605 89.4033 209.965C89.5833 210.325 89.6733 210.715 89.6733 211.135C89.6733 211.675 89.5383 212.165 89.2683 212.605C89.0083 213.035 88.6233 213.375 88.1133 213.625C87.6033 213.875 86.9783 214 86.2383 214H82.1583ZM83.7483 208H85.9233C86.5333 208 86.9983 207.86 87.3183 207.58C87.6383 207.29 87.7983 206.895 87.7983 206.395C87.7983 205.905 87.6383 205.515 87.3183 205.225C87.0083 204.935 86.5333 204.79 85.8933 204.79H83.7483V208ZM83.7483 212.695H86.0283C86.6683 212.695 87.1633 212.545 87.5133 212.245C87.8733 211.945 88.0533 211.525 88.0533 210.985C88.0533 210.445 87.8683 210.02 87.4983 209.71C87.1283 209.39 86.6283 209.23 85.9983 209.23H83.7483V212.695ZM94.8361 214.18C94.1261 214.18 93.4861 214.02 92.9161 213.7C92.3561 213.37 91.9111 212.915 91.5811 212.335C91.2511 211.745 91.0861 211.06 91.0861 210.28C91.0861 209.5 91.2511 208.82 91.5811 208.24C91.9211 207.65 92.3761 207.195 92.9461 206.875C93.5161 206.545 94.1511 206.38 94.8511 206.38C95.5611 206.38 96.1961 206.545 96.7561 206.875C97.3261 207.195 97.7761 207.65 98.1061 208.24C98.4461 208.82 98.6161 209.5 98.6161 210.28C98.6161 211.06 98.4461 211.745 98.1061 212.335C97.7761 212.915 97.3261 213.37 96.7561 213.7C96.1861 214.02 95.5461 214.18 94.8361 214.18ZM94.8361 212.815C95.2161 212.815 95.5661 212.72 95.8861 212.53C96.2161 212.34 96.4811 212.06 96.6811 211.69C96.8811 211.31 96.9811 210.84 96.9811 210.28C96.9811 209.72 96.8811 209.255 96.6811 208.885C96.4911 208.505 96.2311 208.22 95.9011 208.03C95.5811 207.84 95.2311 207.745 94.8511 207.745C94.4711 207.745 94.1161 207.84 93.7861 208.03C93.4661 208.22 93.2061 208.505 93.0061 208.885C92.8061 209.255 92.7061 209.72 92.7061 210.28C92.7061 210.84 92.8061 211.31 93.0061 211.69C93.2061 212.06 93.4661 212.34 93.7861 212.53C94.1061 212.72 94.4561 212.815 94.8361 212.815ZM101.542 214L99.3522 206.56H100.942L102.382 212.17L104.002 206.56H105.772L107.392 212.17L108.832 206.56H110.422L108.232 214H106.597L104.887 208.15L103.177 214H101.542ZM114.934 214.18C114.204 214.18 113.554 214.02 112.984 213.7C112.424 213.37 111.984 212.915 111.664 212.335C111.344 211.755 111.184 211.08 111.184 210.31C111.184 209.53 111.339 208.845 111.649 208.255C111.969 207.665 112.409 207.205 112.969 206.875C113.539 206.545 114.199 206.38 114.949 206.38C115.679 206.38 116.314 206.545 116.854 206.875C117.394 207.195 117.814 207.625 118.114 208.165C118.414 208.705 118.564 209.3 118.564 209.95C118.564 210.05 118.559 210.16 118.549 210.28C118.549 210.39 118.544 210.515 118.534 210.655H112.744C112.794 211.375 113.029 211.925 113.449 212.305C113.879 212.675 114.374 212.86 114.934 212.86C115.384 212.86 115.759 212.76 116.059 212.56C116.369 212.35 116.599 212.07 116.749 211.72H118.339C118.139 212.42 117.739 213.005 117.139 213.475C116.549 213.945 115.814 214.18 114.934 214.18ZM114.934 207.685C114.404 207.685 113.934 207.845 113.524 208.165C113.114 208.475 112.864 208.945 112.774 209.575H116.974C116.944 208.995 116.739 208.535 116.359 208.195C115.979 207.855 115.504 207.685 114.934 207.685ZM120.213 214V206.56H121.638L121.773 207.97C122.033 207.48 122.393 207.095 122.853 206.815C123.323 206.525 123.888 206.38 124.548 206.38V208.045H124.113C123.673 208.045 123.278 208.12 122.928 208.27C122.588 208.41 122.313 208.655 122.103 209.005C121.903 209.345 121.803 209.82 121.803 210.43V214H120.213Z" fill="#17374C"/>
<path d="M81.0145 142.929C81.2595 142.719 81.463 142.46 81.626 142.153C81.7875 141.847 81.8685 141.544 81.8685 141.247C81.8685 141.119 81.858 140.991 81.836 140.862C81.8081 140.713 81.764 140.568 81.7045 140.428C81.6381 140.268 81.5532 140.116 81.4515 139.975C81.3316 139.816 81.1899 139.674 81.0305 139.554C80.8535 139.416 80.65 139.298 80.4225 139.199C80.195 139.101 79.915 139.088 79.5845 139.026C79.254 138.965 78.889 139 78.4905 139H74.998V148H78.2345C78.756 148 79.2345 148.064 79.6705 147.985C80.1065 147.906 80.473 147.856 80.7715 147.731C81.0695 147.607 81.332 147.482 81.56 147.306C81.7875 147.131 81.968 146.969 82.102 146.791C82.236 146.614 82.344 146.433 82.427 146.235C82.5105 146.038 82.566 145.867 82.595 145.715C82.6558 145.397 82.6515 145.069 82.5826 144.752C82.5137 144.435 82.3816 144.135 82.194 143.871C81.9024 143.447 81.492 143.12 81.0145 142.929ZM76.498 140.5H78.116C78.51 140.5 78.843 140.418 79.115 140.492C79.3865 140.566 79.5845 140.607 79.709 140.734C79.8345 140.862 79.921 140.955 79.9695 141.076C80.0175 141.196 80.042 141.311 80.042 141.452L80.035 141.589C79.9735 142.181 79.4435 142.555 78.5325 142.722C78.1555 142.787 77.498 142.828 76.498 142.85V140.5ZM80.86 145.837C80.779 145.979 80.6805 146.097 80.5645 146.189C80.4485 146.281 80.296 146.359 80.1075 146.425C79.919 146.491 79.746 146.54 79.5885 146.573C79.402 146.61 79.2133 146.635 79.0235 146.649C78.8045 146.666 78.632 146.585 78.5075 146.587C78.3825 146.589 78.232 146.499 78.057 146.499H76.498V143.974C77.498 143.925 78.143 143.901 78.178 143.901C79.0235 143.901 79.717 144.03 80.214 144.289C80.7115 144.547 80.971 144.902 80.971 145.353C80.9705 145.534 80.941 145.695 80.86 145.837ZM92.345 139.327C91.6045 138.955 90.759 138.769 89.808 138.769C88.8485 138.769 87.9965 138.963 87.252 139.35C86.507 139.738 85.9245 140.297 85.5035 141.027C85.0825 141.756 84.8725 142.6 84.8725 143.56C84.8725 144.331 85.0075 145.024 85.277 145.637C85.546 146.25 85.91 146.749 86.368 147.132C86.8277 147.517 87.3546 147.813 87.922 148.006C88.5005 148.205 89.112 148.305 89.7555 148.305C90.733 148.305 91.5985 148.102 92.352 147.694C93.0902 147.302 93.6994 146.705 94.1065 145.975C94.523 145.236 94.731 144.39 94.731 143.435C94.731 142.493 94.5185 141.666 94.0935 140.954C93.6808 140.254 93.0733 139.688 92.345 139.327ZM92.7525 145.012C92.564 145.442 92.3145 145.781 92.0035 146.031C91.3948 146.522 90.6363 146.789 89.8545 146.787C88.9165 146.787 88.135 146.481 87.508 145.867C86.8815 145.253 86.5685 144.44 86.5685 143.429C86.5685 143.003 86.6295 142.615 86.7525 142.262C86.875 141.909 87.039 141.612 87.245 141.371C87.4504 141.131 87.6932 140.926 87.964 140.763C88.2385 140.599 88.524 140.479 88.822 140.402C89.12 140.325 89.427 140.287 89.7425 140.287C90.058 140.287 90.368 140.325 90.672 140.402C90.9765 140.478 91.272 140.602 91.5595 140.773C91.8423 140.941 92.0973 141.151 92.3155 141.397C92.5325 141.643 92.706 141.95 92.8375 142.321C92.9695 142.691 93.0355 143.1 93.0355 143.547C93.0355 144.094 92.941 144.583 92.7525 145.012ZM106.884 146.177L104.662 139H103.137L100.436 146.177L98.2865 139H96.5385L99.6205 148H101.205L103.847 140.856L106.095 148H107.678L111.26 139H109.512L106.884 146.177ZM113.498 148H119.998V146.5H114.998V144H119.498V142.5H114.998V140.5H119.998V139H113.498V148ZM129.029 143.855C129.283 143.672 129.499 143.442 129.666 143.178C129.822 142.928 129.936 142.666 130.008 142.396C130.081 142.127 130.117 141.842 130.117 141.543C130.117 141.198 130.075 140.885 129.992 140.606C129.909 140.328 129.803 140.097 129.673 139.916C129.544 139.734 129.382 139.575 129.187 139.439C129.011 139.314 128.821 139.21 128.621 139.13C128.419 139.055 128.21 138.998 127.997 138.962C127.762 138.921 127.563 138.962 127.399 138.95C127.235 138.939 127.054 139 126.857 139H122.998V148H124.498V144.5H126.121L128.736 148H130.892L128.073 144.199C128.441 144.09 128.759 144.052 129.029 143.855ZM127.383 142.926C127.168 142.98 126.96 142.986 126.759 143.004C126.557 143.021 126.325 143 126.062 143H124.498V140.5H126.371C127.715 140.5 128.388 140.879 128.388 141.751C128.388 141.983 128.343 142.155 128.253 142.327C128.163 142.497 128.05 142.607 127.911 142.703C127.773 142.799 127.597 142.871 127.383 142.926ZM95.0375 85.6943H98.319C98.3725 85.7303 98.4215 85.7838 98.48 85.7993C99.565 86.0853 100.706 86.2383 101.727 86.6728C105.154 88.1308 107.257 90.8203 108.473 94.2728C108.533 94.4438 108.64 94.6868 108.776 94.7283C109.52 94.9523 110.28 95.1243 111.034 95.3148L111.106 95.2388C113.18 91.1933 116.517 88.8643 120.943 88.0543C122.1 87.8428 123.27 87.8838 124.456 88.2518L124.21 88.5478C122.719 90.1693 121.55 91.9593 121.219 94.1983C121.11 94.9178 120.986 95.6351 120.85 96.3498C120.48 98.3168 119.811 100.143 118.302 101.549C116.372 103.348 113.992 103.781 111.472 103.746C111.33 103.744 111.138 103.56 111.061 103.413C110.853 103.016 110.695 102.592 110.52 102.188C108.83 102.537 108.334 103.008 108.165 104.414C108.669 104.477 109.173 104.544 109.677 104.603C114.035 105.114 118.376 105.731 122.657 106.709C124.678 107.171 126.684 107.687 128.546 108.648C129.54 109.161 130.125 109.956 130.375 111.027C130.43 111.264 130.514 111.494 130.584 111.726V113.257C130.515 113.434 130.429 113.607 130.379 113.789C130.165 114.567 129.767 115.227 129.136 115.734C128.357 116.36 127.435 116.607 126.432 116.695C126.641 117.948 125.976 118.74 124.996 119.279C124.385 119.616 123.7 119.919 123.019 120.003C122.041 120.125 121.037 120.035 120.058 120.035C119.316 121.409 118.021 121.704 116.643 121.801C115.258 121.898 113.988 121.52 112.858 120.723C112.399 121.424 111.851 121.716 110.939 121.792C109.508 121.911 108.154 121.633 106.867 121.006L106.695 120.937L106.767 121.093C107.643 122.704 108.565 124.292 109.369 125.937C109.632 126.476 109.688 127.167 109.671 127.783C109.639 128.919 109.038 129.65 108.072 129.933C107.974 130.857 107.494 131.555 106.729 132.066C105.816 132.677 104.806 132.891 103.717 132.779C103.527 132.759 103.226 132.706 103.157 132.8C102.602 133.564 101.795 133.885 100.945 134.148H99.7415C99.0005 133.957 98.3275 133.233 97.4745 133.879C97.3455 133.977 97.1255 133.97 96.945 133.981C95.9925 134.044 94.432 133.448 93.9995 132.142C93.5555 130.8 93.0025 129.495 92.4875 128.149L92.3865 128.316C91.1825 130.663 88.6265 131.506 86.2715 130.338C85.0106 129.711 83.8888 128.837 82.973 127.767C76.8785 120.691 74.34 112.553 76.0175 103.301C77.588 94.6378 84.297 87.9008 92.878 86.1043C93.5945 85.9548 94.3175 85.8308 95.0375 85.6943ZM105.429 100.133C106.761 100.225 108.08 100.245 109.343 99.6813C110.512 99.1588 111.742 99.1118 112.984 99.3468C113.809 99.5033 114.628 99.6958 115.449 99.8723C115.076 99.4648 114.662 99.1173 114.226 98.7998C112.129 97.2718 109.843 96.2078 107.215 96.0238C106.985 96.0078 106.635 96.0283 106.528 96.1718C105.707 97.2748 105.22 98.5063 105.284 99.9118C105.162 100.846 105.428 101.702 105.77 102.52L110.141 100.55L110.101 100.122C109.346 100.297 108.63 100.509 107.898 100.619C107.032 100.749 106.155 100.785 105.429 100.133ZM118.865 91.4728L118.944 91.5578C117.21 93.2438 116.034 95.3043 114.968 97.4103L117.831 99.8333C118.68 98.7138 119.029 97.4388 119.325 96.1388C119.846 93.8553 119.956 91.4268 121.702 89.5508C118.428 89.4118 113.551 92.8323 112.485 95.9818L114.169 96.9148C114.261 96.7428 114.335 96.5803 114.43 96.4308C114.974 95.5708 115.473 94.6768 116.082 93.8653C116.827 92.8743 117.7 91.9943 118.865 91.4728ZM112.775 110.21C113.785 110.31 114.794 110.408 115.803 110.511C118.981 110.834 122.159 111.16 125.337 111.483C125.793 111.53 126.249 111.571 126.797 111.624C126.537 110.806 126.197 110.199 125.46 109.947C124.775 109.713 124.067 109.541 123.37 109.342C120.607 108.791 117.857 108.161 115.078 107.71C112.37 107.27 109.631 107.011 106.905 106.688C106.736 106.668 106.5 106.73 106.384 106.844C105.867 107.353 105.382 107.895 104.885 108.425C102.128 110.427 98.9585 110.957 95.653 110.998C96.486 110.702 97.3405 110.465 98.1655 110.152C100.801 109.151 103.124 107.711 104.799 105.367C105.052 105.014 105.1 104.749 104.874 104.344C104.101 102.971 103.707 101.417 103.733 99.8413C103.762 97.9348 104.417 96.2433 105.72 94.8278C105.944 94.5843 105.988 94.3663 105.847 94.0508C104.959 92.0618 103.609 90.4838 101.737 89.3618C99.4385 87.9848 96.9305 87.8668 94.3815 88.2458C88.6585 89.0968 84.24 92.0313 81.1435 96.8858C78.2965 101.349 77.381 106.264 78.122 111.484C78.3495 113.087 78.755 114.658 79.502 116.117C79.666 116.499 79.8 116.898 79.9995 117.261C83.484 123.588 88.809 127.096 96.0295 127.634C100.275 127.951 103.937 125.524 105.257 121.588C105.558 120.693 105.865 119.786 105.399 118.845C106.343 119.672 107.47 120.007 108.696 120.124C109.935 120.243 110.952 119.805 111.488 118.836C111.633 118.888 111.788 118.93 111.933 118.995C112.937 119.446 113.988 119.587 115.079 119.501C116.49 119.389 117.152 118.768 117.296 117.435C117.997 117.5 118.7 117.636 119.398 117.616C121.417 117.559 122.384 116.429 121.95 114.801C122.744 114.763 123.561 114.787 124.357 114.668C125.182 114.546 125.849 114.094 126.392 113.27L118.682 111.75L110.976 110.273L110.986 110.21H112.775ZM111.496 99.8093C111.69 100.58 111.852 101.202 112.001 101.826C112.08 102.155 112.281 102.239 112.599 102.212C113.821 102.11 115.001 101.854 116.096 101.281C116.245 101.202 116.386 101.106 116.678 100.929L113.663 100.124L113.266 100.854L113.177 100.832V100.042L111.496 99.8093Z" fill="#543828"/>
<path fill-rule="evenodd" clip-rule="evenodd" d="M79.5026 116.117C78.7556 114.658 78.3501 113.087 78.1226 111.484C77.3816 106.264 78.2971 101.349 81.1441 96.886C84.2401 92.0315 88.6586 89.097 94.3821 88.246C96.9311 87.867 99.4391 87.9855 101.737 89.362C103.609 90.484 104.959 92.062 105.848 94.051C105.989 94.3665 105.945 94.584 105.72 94.828C104.418 96.2435 103.762 97.935 103.734 99.8415C103.708 101.417 104.102 102.971 104.875 104.344C105.1 104.749 105.052 105.014 104.8 105.367C103.125 107.711 100.802 109.151 98.1661 110.152C97.3411 110.465 96.4866 110.702 95.6536 110.998C98.9591 110.957 102.128 110.427 104.886 108.425C104.304 109.408 103.813 110.459 103.126 111.361C99.8386 115.677 95.3891 117.69 89.7876 116.118C89.2171 115.958 88.7286 115.887 88.2341 116.31C88.0241 116.489 87.7136 116.568 87.4356 116.648C84.7286 117.423 82.0816 117.265 79.5026 116.117ZM96.7621 93.3385C94.0541 93.3425 91.9711 95.447 91.9746 98.175C91.9781 100.796 94.1726 102.976 96.7956 102.963C99.4461 102.95 101.596 100.764 101.591 98.0855C101.587 95.439 99.4456 93.3345 96.7621 93.3385Z" fill="#E95927"/>
<path fill-rule="evenodd" clip-rule="evenodd" d="M79.5024 116.117C82.0814 117.265 84.7284 117.423 87.4354 116.648C87.7134 116.569 88.0239 116.49 88.2339 116.31C88.7284 115.888 89.2174 115.958 89.7874 116.118C95.3889 117.691 99.8384 115.677 103.126 111.361C103.813 110.459 104.303 109.408 104.885 108.426C105.382 107.895 105.867 107.353 106.384 106.845C106.5 106.73 106.736 106.668 106.905 106.688C109.631 107.011 112.37 107.271 115.078 107.71C117.857 108.161 120.607 108.791 123.369 109.343C123.265 109.37 123.163 109.415 123.058 109.423C119.631 109.687 116.203 109.948 112.775 110.21H110.987L110.976 110.273L118.683 111.75C118.585 112.064 118.581 112.485 118.37 112.672C117.946 113.045 117.442 113.426 116.911 113.554C116.286 113.705 115.598 113.591 114.937 113.591L114.918 113.556L114.948 113.584C115.058 114.251 114.969 114.876 114.416 115.317C114.038 115.619 113.621 115.903 113.177 116.082C112.02 116.548 110.856 116.557 109.742 115.898C109.452 117.107 108.519 117.422 107.53 117.598C106.519 117.779 105.553 117.608 104.714 116.921L104.611 117.026L105.4 118.845C105.866 119.786 105.558 120.694 105.258 121.589C103.938 125.524 100.276 127.951 96.0309 127.635C88.8109 127.097 83.4854 123.589 80.0009 117.262C79.7999 116.898 79.6664 116.499 79.5024 116.117ZM104.613 116.793L104.59 116.827L104.623 116.832L104.613 116.793Z" fill="#FBCD00"/>
<path fill-rule="evenodd" clip-rule="evenodd" d="M114.936 113.591C115.597 113.591 116.285 113.705 116.91 113.554C117.441 113.426 117.945 113.046 118.369 112.672C118.58 112.486 118.584 112.064 118.682 111.75L126.391 113.27C125.849 114.094 125.182 114.547 124.357 114.669C123.56 114.787 122.743 114.763 121.949 114.801C122.384 116.429 121.417 117.559 119.397 117.617C118.699 117.636 117.996 117.501 117.295 117.435C117.152 118.769 116.49 119.389 115.078 119.501C113.988 119.587 112.936 119.447 111.932 118.995C111.787 118.93 111.632 118.887 111.488 118.836C110.952 119.805 109.935 120.243 108.695 120.124C107.469 120.007 106.342 119.673 105.399 118.845L104.609 117.026L104.712 116.92C105.552 117.608 106.518 117.779 107.528 117.598C108.517 117.421 109.451 117.107 109.741 115.898C110.855 116.557 112.019 116.548 113.175 116.082C113.62 115.903 114.037 115.618 114.415 115.316C114.967 114.875 115.056 114.25 114.946 113.584L114.936 113.591Z" fill="#3DAF00"/>
<path fill-rule="evenodd" clip-rule="evenodd" d="M118.864 91.473C117.7 91.9945 116.826 92.8745 116.082 93.866C115.473 94.6775 114.974 95.5715 114.43 96.4315C114.335 96.581 114.261 96.7435 114.169 96.9155L112.485 95.9825C113.551 92.833 118.428 89.412 121.702 89.5515C119.956 91.4275 119.846 93.8555 119.325 96.1395C119.029 97.4395 118.68 98.714 117.831 99.834L114.968 97.411C116.034 95.305 117.21 93.2445 118.944 91.5585L119.032 91.411L118.864 91.473Z" fill="#25A7F0"/>
<path fill-rule="evenodd" clip-rule="evenodd" d="M105.283 99.9126C105.219 98.5066 105.706 97.2756 106.527 96.1726C106.634 96.0291 106.984 96.0086 107.214 96.0246C109.842 96.2086 112.128 97.2726 114.225 98.8006C114.661 99.1181 115.075 99.4651 115.448 99.8731C114.627 99.6966 113.809 99.5041 112.983 99.3476C111.741 99.1126 110.511 99.1596 109.342 99.6821C108.079 100.246 106.76 100.226 105.428 100.134L105.283 99.9126Z" fill="#CBCBCA"/>
<path fill-rule="evenodd" clip-rule="evenodd" d="M112.775 110.21C116.203 109.948 119.631 109.687 123.058 109.423C123.163 109.415 123.265 109.37 123.369 109.343C124.067 109.542 124.775 109.714 125.46 109.948C126.197 110.2 126.537 110.806 126.797 111.624C126.249 111.572 125.793 111.53 125.337 111.484C122.159 111.16 118.981 110.834 115.803 110.511C114.794 110.408 113.784 110.31 112.775 110.21Z" fill="#3EAE00"/>
<path fill-rule="evenodd" clip-rule="evenodd" d="M111.496 99.8096L113.177 100.043V100.833L113.266 100.854L113.663 100.124L116.678 100.93C116.386 101.107 116.245 101.203 116.096 101.281C115.001 101.855 113.821 102.11 112.599 102.212C112.281 102.239 112.08 102.155 112.001 101.827C111.852 101.202 111.69 100.581 111.496 99.8096Z" fill="#25A5EC"/>
<path fill-rule="evenodd" clip-rule="evenodd" d="M105.283 99.9126L105.429 100.133C106.154 100.785 107.032 100.749 107.897 100.619C108.629 100.509 109.345 100.297 110.1 100.122L110.141 100.55L105.769 102.521C105.427 101.703 105.161 100.847 105.283 99.9126Z" fill="#C9C8C7"/>
<path fill-rule="evenodd" clip-rule="evenodd" d="M96.7621 93.3384C99.4451 93.3344 101.586 95.4389 101.591 98.0854C101.595 100.764 99.4456 102.95 96.7951 102.963C94.1726 102.976 91.9776 100.796 91.9741 98.1749C91.9711 95.4469 94.0541 93.3424 96.7621 93.3384ZM99.6486 98.1394C99.6501 96.5249 98.3901 95.2429 96.7901 95.2304C95.2146 95.2179 93.9121 96.5174 93.8976 98.1169C93.8934 98.4957 93.9646 98.8716 94.107 99.2227C94.2494 99.5737 94.4601 99.893 94.727 100.162C94.9938 100.431 95.3115 100.644 95.6615 100.789C96.0115 100.934 96.3868 101.008 96.7656 101.007C98.3826 101.01 99.6471 99.7514 99.6486 98.1394Z" fill="#FBCB00"/>
<path fill-rule="evenodd" clip-rule="evenodd" d="M114.946 113.584L114.917 113.556L114.936 113.591L114.946 113.584ZM104.613 116.794L104.624 116.833L104.591 116.828L104.613 116.794Z" fill="#3DAF00"/>
<path fill-rule="evenodd" clip-rule="evenodd" d="M118.864 91.4731L119.032 91.4106L118.943 91.5581L118.864 91.4731Z" fill="#543828"/>
<path fill-rule="evenodd" clip-rule="evenodd" d="M99.6486 98.1396C99.6471 99.7521 98.3826 101.01 96.7656 101.007C96.3868 101.008 96.0114 100.934 95.6614 100.789C95.3114 100.644 94.9937 100.431 94.7268 100.162C94.46 99.8933 94.2492 99.574 94.1069 99.2229C93.9645 98.8718 93.8934 98.4959 93.8976 98.1171C93.9121 96.5176 95.2146 95.2176 96.7901 95.2306C98.3901 95.2431 99.6501 96.5251 99.6486 98.1396ZM96.7601 98.0306C97.2341 97.8441 97.7201 97.7306 98.1161 97.4771C98.6091 97.1611 98.5681 96.5611 98.1051 96.1971C97.4401 95.6746 96.0976 95.6761 95.4456 96.1996C94.9851 96.5686 94.9481 97.1666 95.4396 97.4846C95.8201 97.7316 96.2886 97.8426 96.7601 98.0306Z" fill="#553928"/>
<path fill-rule="evenodd" clip-rule="evenodd" d="M96.7601 98.0307C96.2886 97.8427 95.8196 97.7317 95.4391 97.4847C94.9476 97.1662 94.9846 96.5687 95.4451 96.1997C96.0976 95.6762 97.4396 95.6747 98.1046 96.1972C98.5681 96.5612 98.6091 97.1612 98.1156 97.4772C97.7201 97.7307 97.2346 97.8442 96.7601 98.0307Z" fill="white"/>
<defs>
<linearGradient id="paint0_linear_100_16160" x1="103" y1="29.4922" x2="145.523" y2="213.595" gradientUnits="userSpaceOnUse">
<stop offset="0.163095" stop-color="#FCE0AE" stop-opacity="0.11"/>
<stop offset="0.717676" stop-color="#FF972C" stop-opacity="0.11"/>
</linearGradient>
<linearGradient id="paint1_linear_100_16160" x1="103" y1="204.508" x2="145.523" y2="20.4049" gradientUnits="userSpaceOnUse">
<stop offset="0.163095" stop-color="#FCE0AE" stop-opacity="0.11"/>
<stop offset="0.717676" stop-color="#FF972C" stop-opacity="0.11"/>
</linearGradient>
</defs>
</svg>
