<svg width="76" height="12" viewBox="0 0 76 12" fill="none" xmlns="http://www.w3.org/2000/svg">
<g clip-path="url(#clip0_189_481)">
<path d="M59.5637 6.81934L60.9487 10.33H58.1787L59.5637 6.81934Z" fill="white"/>
<path d="M24.4964 0.812012L20.4397 10.2907H23.1702L25.8226 3.89357L28.3971 10.2907H31.2836L27.1489 0.812012H24.4964Z" fill="white"/>
<path d="M58.2765 0.812012L54.2198 10.2907H56.9503L59.6027 3.89357L62.1772 10.2907H65.0637L60.929 0.812012H58.2765Z" fill="white"/>
<path d="M32.9609 0.812012V10.3297H35.6134V0.812012H32.9609Z" fill="white"/>
<path d="M49.851 0.812012V10.3297H52.5034V0.812012H49.851Z" fill="white"/>
<path d="M38.1098 0.812012V10.3297H40.7233V4.90776L44.9751 10.3297H47.3545V0.812012H44.741V5.99996L40.5673 0.812012H38.1098Z" fill="white"/>
<path fill-rule="evenodd" clip-rule="evenodd" d="M74.9835 8.37646C74.0749 9.74198 72.5219 10.6418 70.7587 10.6418C67.9582 10.6418 65.6878 8.37152 65.6878 5.57092C65.6878 2.77033 67.9582 0.5 70.7587 0.5C72.4976 0.5 74.0321 1.37526 74.9456 2.70925L72.8198 3.93662C72.3771 3.31677 71.6883 2.91844 70.9148 2.91844C69.5791 2.91844 68.4963 4.106 68.4963 5.57092C68.4963 7.03585 69.5791 8.2234 70.9148 8.2234C71.7113 8.2234 72.4178 7.80112 72.8585 7.14956L74.9835 8.37646Z" fill="white"/>
<path d="M59.5637 6.81934L60.9487 10.33H58.1787L59.5637 6.81934Z" fill="#FF7E00"/>
<path d="M59.5637 6.81934L60.6109 9.51083H58.5165L59.5637 6.81934Z" fill="#FFCF3D"/>
<path d="M25.7836 6.81934L27.1686 10.33H24.3986L25.7836 6.81934Z" fill="#FF7E00"/>
<path d="M25.7836 6.81934L26.8308 9.51083H24.7364L25.7836 6.81934Z" fill="#FFCF3D"/>
<path fill-rule="evenodd" clip-rule="evenodd" d="M10.6489 0.812012H16.1489C17.02 0.812012 18.8716 1.41272 19.3084 3.81556C19.5269 5.56308 18.0212 6.67608 17.2411 7.01414L19.5815 10.3297H16.4999L14.5886 7.48222H13.3404V10.3297H10.6489V0.812012ZM13.3404 2.9184H15.7159H15.7159C16.2135 2.9184 16.617 3.49471 16.617 4.20563C16.617 4.91655 16.2135 5.49286 15.7159 5.49286L15.7159 5.49286H13.3404V2.9184Z" fill="white"/>
<path fill-rule="evenodd" clip-rule="evenodd" d="M5.85101 0.811885H0.0389633V10.3296H5.85101C7.29428 10.3296 8.77654 9.31541 8.69853 7.52109C8.63612 6.08562 7.37229 5.54473 6.74818 5.45371C7.35929 5.08965 8.49569 4.00266 8.15243 2.5672C7.80917 1.13174 6.47513 0.798883 5.85101 0.811885ZM4.83695 4.63435C5.3109 4.63435 5.69511 4.25014 5.69511 3.77619C5.69511 3.30224 5.3109 2.91804 4.83695 2.91804L4.83017 2.91806H2.57442V4.63437H4.83683V4.63435H4.83695ZM2.57442 6.42867H5.11963H5.11963C5.65282 6.42868 6.08505 6.84781 6.08505 7.36485C6.08505 7.88188 5.65282 8.30102 5.11963 8.30102L5.11815 8.30101H2.57442V6.42867Z" fill="white"/>
</g>
<defs>
<clipPath id="clip0_189_481">
<rect width="75.0496" height="11" fill="white" transform="translate(0 0.5)"/>
</clipPath>
</defs>
</svg>
