<svg width="164" height="24" viewBox="0 0 164 24" fill="none" xmlns="http://www.w3.org/2000/svg">
<g clip-path="url(#clip0_100_15446)">
<path d="M129.957 13.7872L132.979 21.4468H126.935L129.957 13.7872Z" fill="#17374C"/>
<path d="M53.4468 0.679688L44.5957 21.3605H50.5531L56.3404 7.40309L61.9574 21.3605H68.2553L59.234 0.679688H53.4468Z" fill="#17374C"/>
<path d="M127.149 0.679688L118.298 21.3605H124.255L130.043 7.40309L135.66 21.3605H141.957L132.936 0.679688H127.149Z" fill="#17374C"/>
<path d="M71.915 0.679688V21.4456H77.7023V0.679688H71.915Z" fill="#17374C"/>
<path d="M108.766 0.679688V21.4456H114.553V0.679688H108.766Z" fill="#17374C"/>
<path d="M83.1489 0.679688V21.4456H88.8511V9.61586L98.1276 21.4456H103.319V0.679688H97.617V11.9988L88.5106 0.679688H83.1489Z" fill="#17374C"/>
<path fill-rule="evenodd" clip-rule="evenodd" d="M163.6 17.1861C161.618 20.1648 158.23 22.1277 154.383 22.1277C148.273 22.1277 143.319 17.1742 143.319 11.0638C143.319 4.95344 148.273 0 154.383 0C158.178 0 161.526 1.91005 163.519 4.8211L158.879 7.49988C157.913 6.148 156.411 5.2793 154.723 5.2793C151.809 5.2793 149.447 7.87033 149.447 11.0665C149.447 14.2627 151.809 16.8538 154.723 16.8538C156.461 16.8538 158.003 15.932 158.965 14.5099L163.6 17.1861Z" fill="#17374C"/>
<path d="M129.957 13.7854L132.979 21.445H126.935L129.957 13.7854Z" fill="#FF972C"/>
<path d="M129.957 13.7854L132.242 19.6577H127.672L129.957 13.7854Z" fill="#FCE0AE"/>
<path d="M56.256 13.7854L59.2778 21.445H53.2341L56.256 13.7854Z" fill="#FF972C"/>
<path d="M56.256 13.7854L58.5408 19.6577H53.9711L56.256 13.7854Z" fill="#FCE0AE"/>
<path fill-rule="evenodd" clip-rule="evenodd" d="M23.2344 0.679688H35.2344C37.1351 0.679688 41.1748 1.99033 42.128 7.23288C42.6046 11.0456 39.3195 13.474 37.6173 14.2116L42.7237 21.4456H36.0003L31.8301 15.2329H29.1067V21.4456H23.2344V0.679688ZM29.1069 5.27344H34.2896H34.2899C35.3756 5.27365 36.2556 6.53098 36.2556 8.08195C36.2556 9.63292 35.3756 10.8903 34.2899 10.8905H34.2896H29.1069V5.27344Z" fill="#17374C"/>
<path fill-rule="evenodd" clip-rule="evenodd" d="M12.7658 0.680477H0.0849609V21.4464H12.7658C15.9147 21.4464 19.1488 19.2336 18.9786 15.3187C18.8424 12.1868 16.085 11.0067 14.7233 10.8081C16.0566 10.0138 18.536 7.64218 17.7871 4.51026C17.0381 1.37835 14.1275 0.652108 12.7658 0.680477ZM10.5529 5.27344H5.6167V9.01812H10.5529C11.5869 9.01812 12.4252 8.17984 12.4252 7.14578C12.4252 6.11171 11.5869 5.27344 10.5529 5.27344ZM5.6167 12.9336H11.1699C12.3332 12.9336 13.2763 13.8481 13.2763 14.9761C13.2763 16.1042 12.3332 17.0187 11.1699 17.0187H5.6167V12.9336Z" fill="#17374C"/>
</g>
<defs>
<clipPath id="clip0_100_15446">
<rect width="163.745" height="24" fill="white"/>
</clipPath>
</defs>
</svg>
