<svg width="128" height="121" viewBox="0 0 128 121" fill="none" xmlns="http://www.w3.org/2000/svg">
<g clip-path="url(#clip0_190_7711)">
<path d="M123.959 45.0529C121.548 35.1106 106.635 31.9999 100.078 25.0715C93.3137 17.9571 93.3807 5.72269 82.6793 1.45107C73.8606 -2.06893 62.0653 8.55804 52.1676 10.9766C42.27 13.3953 29.7453 9.22037 22.4002 16.558C15.4644 23.5013 18.8355 36.2269 16.082 45.678C13.4402 54.8315 1.63739 64.5357 4.04112 74.478C6.44484 84.4204 21.3658 87.5683 27.922 94.4594C34.6867 101.574 37.2839 116.621 46.6681 119.397C55.7695 122.084 65.9351 110.973 75.8179 108.554C85.7007 106.136 99.7955 111.285 106.642 104.685C113.712 97.8678 109.135 83.3041 111.851 73.8604C114.56 64.6994 126.363 54.9952 123.959 45.0529Z" fill="white"/>
<path d="M127.256 120.558H0.744186C0.546816 120.558 0.357529 120.48 0.217967 120.34C0.0784051 120.201 0 120.011 0 119.814C0 119.617 0.0784051 119.427 0.217967 119.288C0.357529 119.148 0.546816 119.07 0.744186 119.07H127.256C127.453 119.07 127.642 119.148 127.782 119.288C127.922 119.427 128 119.617 128 119.814C128 120.011 127.922 120.201 127.782 120.34C127.642 120.48 127.453 120.558 127.256 120.558Z" fill="#A09CAD"/>
<path d="M106.419 33.4883H21.5815V119.814H106.419V33.4883Z" fill="white"/>
<path d="M72.2081 33.4883L45.9756 119.814H70.3254L96.5579 33.4883H72.2081Z" fill="#EDEDED"/>
<path d="M28.2793 119.814H34.9323L61.1649 33.4883H54.0058L28.2793 119.814Z" fill="#EDEDED"/>
<path d="M106.419 120.558H21.5816C21.3842 120.558 21.1949 120.48 21.0554 120.34C20.9158 120.201 20.8374 120.011 20.8374 119.814V56.5582C20.8374 56.3608 20.9158 56.1715 21.0554 56.0319C21.1949 55.8924 21.3842 55.814 21.5816 55.814C21.779 55.814 21.9682 55.8924 22.1078 56.0319C22.2474 56.1715 22.3258 56.3608 22.3258 56.5582V119.07H105.675V97.4884C105.675 97.291 105.753 97.1017 105.893 96.9622C106.032 96.8226 106.221 96.7442 106.419 96.7442C106.616 96.7442 106.805 96.8226 106.945 96.9622C107.085 97.1017 107.163 97.291 107.163 97.4884V119.814C107.163 120.011 107.085 120.201 106.945 120.34C106.805 120.48 106.616 120.558 106.419 120.558Z" fill="#34234D"/>
<path d="M106.419 93.7674C106.221 93.7674 106.032 93.689 105.893 93.5494C105.753 93.4099 105.675 93.2206 105.675 93.0232V34.2325H22.3258V52.093C22.3258 52.2903 22.2474 52.4796 22.1078 52.6192C21.9682 52.7588 21.779 52.8372 21.5816 52.8372C21.3842 52.8372 21.1949 52.7588 21.0554 52.6192C20.9158 52.4796 20.8374 52.2903 20.8374 52.093V33.4883C20.8374 33.291 20.9158 33.1017 21.0554 32.9621C21.1949 32.8225 21.3842 32.7441 21.5816 32.7441H106.419C106.616 32.7441 106.805 32.8225 106.945 32.9621C107.085 33.1017 107.163 33.291 107.163 33.4883V93.0232C107.163 93.2206 107.085 93.4099 106.945 93.5494C106.805 93.689 106.616 93.7674 106.419 93.7674Z" fill="#34234D"/>
<path d="M106.419 23.0698H21.5815V33.4884H106.419V23.0698Z" fill="#FF972C"/>
<path d="M99.7211 23.0698H75.3713L72.2085 33.4884H96.5583L99.7211 23.0698Z" fill="#FCE0AE"/>
<path d="M57.1161 23.0698L54.0054 33.4884H61.1644L64.3347 23.0698H57.1161Z" fill="#FCE0AE"/>
<path d="M106.419 34.2327H21.5816C21.3842 34.2327 21.1949 34.1543 21.0554 34.0147C20.9158 33.8751 20.8374 33.6858 20.8374 33.4885V23.0699C20.8374 22.8725 20.9158 22.6832 21.0554 22.5437C21.1949 22.4041 21.3842 22.3257 21.5816 22.3257H46.8839C47.0813 22.3257 47.2706 22.4041 47.4101 22.5437C47.5497 22.6832 47.6281 22.8725 47.6281 23.0699C47.6281 23.2672 47.5497 23.4565 47.4101 23.5961C47.2706 23.7357 47.0813 23.8141 46.8839 23.8141H22.3258V32.7443H105.675V23.8141H51.349C51.1517 23.8141 50.9624 23.7357 50.8228 23.5961C50.6832 23.4565 50.6048 23.2672 50.6048 23.0699C50.6048 22.8725 50.6832 22.6832 50.8228 22.5437C50.9624 22.4041 51.1517 22.3257 51.349 22.3257H106.419C106.616 22.3257 106.805 22.4041 106.945 22.5437C107.085 22.6832 107.163 22.8725 107.163 23.0699V33.4885C107.163 33.6858 107.085 33.8751 106.945 34.0147C106.805 34.1543 106.616 34.2327 106.419 34.2327Z" fill="#34234D"/>
<path d="M26.7906 29.7675C27.6126 29.7675 28.279 29.1011 28.279 28.2791C28.279 27.4571 27.6126 26.7908 26.7906 26.7908C25.9686 26.7908 25.3022 27.4571 25.3022 28.2791C25.3022 29.1011 25.9686 29.7675 26.7906 29.7675Z" fill="white"/>
<path d="M32.7442 29.7675C33.5662 29.7675 34.2326 29.1011 34.2326 28.2791C34.2326 27.4571 33.5662 26.7908 32.7442 26.7908C31.9222 26.7908 31.2559 27.4571 31.2559 28.2791C31.2559 29.1011 31.9222 29.7675 32.7442 29.7675Z" fill="white"/>
<path d="M38.6978 29.7675C39.5199 29.7675 40.1862 29.1011 40.1862 28.2791C40.1862 27.4571 39.5199 26.7908 38.6978 26.7908C37.8758 26.7908 37.2095 27.4571 37.2095 28.2791C37.2095 29.1011 37.8758 29.7675 38.6978 29.7675Z" fill="white"/>
<path d="M65.4885 81.1162H62.5117V97.4883H65.4885V81.1162Z" fill="#FF972C"/>
<path d="M101.209 97.4884H98.2324V90.7907H29.7673V97.4884H26.7905V89.3023C26.7905 88.9076 26.9473 88.529 27.2265 88.2499C27.5056 87.9708 27.8842 87.814 28.2789 87.814H99.7208C100.116 87.814 100.494 87.9708 100.773 88.2499C101.052 88.529 101.209 88.9076 101.209 89.3023V97.4884Z" fill="#FF972C"/>
<path d="M52.837 97.4883C52.4423 97.4883 52.0637 97.6451 51.7846 97.9242C51.5054 98.2033 51.3486 98.5819 51.3486 98.9767V110.884C51.3486 111.278 51.5054 111.657 51.7846 111.936C52.0637 112.215 52.4423 112.372 52.837 112.372H56.9524L61.477 97.4883H52.837Z" fill="#B8B5C6"/>
<path d="M75.1627 97.4883H71.8957L67.3711 112.372H75.1627C75.5575 112.372 75.936 112.215 76.2152 111.936C76.4943 111.657 76.6511 111.278 76.6511 110.884V98.9767C76.6511 98.5819 76.4943 98.2033 76.2152 97.9242C75.936 97.6451 75.5575 97.4883 75.1627 97.4883Z" fill="#B8B5C6"/>
<path d="M61.4773 97.4883L56.9526 112.372H67.3712L71.8959 97.4883H61.4773Z" fill="#A09CAD"/>
<path d="M81.1164 66.2327H80.655L76.1304 81.1164H81.1164C81.5112 81.1164 81.8897 80.9596 82.1689 80.6805C82.448 80.4013 82.6048 80.0228 82.6048 79.628V67.721C82.6048 67.3263 82.448 66.9477 82.1689 66.6686C81.8897 66.3895 81.5112 66.2327 81.1164 66.2327Z" fill="#B8B5C6"/>
<path d="M53.864 66.2327L49.3394 81.1164H54.5487L59.0733 66.2327H53.864Z" fill="#A09CAD"/>
<path d="M46.8839 66.2327C46.4891 66.2327 46.1106 66.3895 45.8314 66.6686C45.5523 66.9477 45.3955 67.3263 45.3955 67.721V79.628C45.3955 80.0228 45.5523 80.4013 45.8314 80.6805C46.1106 80.9596 46.4891 81.1164 46.8839 81.1164H49.3397L53.8643 66.2327H46.8839Z" fill="#B8B5C6"/>
<path d="M70.2361 66.2327L65.7114 81.1164H76.13L80.6547 66.2327H70.2361Z" fill="#A09CAD"/>
<path d="M59.0735 66.2327L54.5488 81.1164H65.7116L70.2363 66.2327H59.0735Z" fill="#B8B5C6"/>
<path d="M81.1165 81.8604H46.8839C46.2918 81.8604 45.724 81.6252 45.3053 81.2065C44.8866 80.7878 44.6514 80.2199 44.6514 79.6278V67.7208C44.6514 67.1287 44.8866 66.5609 45.3053 66.1422C45.724 65.7235 46.2918 65.4883 46.8839 65.4883H81.1165C81.7086 65.4883 82.2765 65.7235 82.6951 66.1422C83.1138 66.5609 83.349 67.1287 83.349 67.7208V79.6278C83.349 80.2199 83.1138 80.7878 82.6951 81.2065C82.2765 81.6252 81.7086 81.8604 81.1165 81.8604ZM46.8839 66.9767C46.6866 66.9767 46.4973 67.0551 46.3577 67.1946C46.2181 67.3342 46.1397 67.5235 46.1397 67.7208V79.6278C46.1397 79.8252 46.2181 80.0145 46.3577 80.154C46.4973 80.2936 46.6866 80.372 46.8839 80.372H81.1165C81.3139 80.372 81.5031 80.2936 81.6427 80.154C81.7823 80.0145 81.8607 79.8252 81.8607 79.6278V67.7208C81.8607 67.5235 81.7823 67.3342 81.6427 67.1946C81.5031 67.0551 81.3139 66.9767 81.1165 66.9767H46.8839Z" fill="#34234D"/>
<path d="M75.1626 113.116H52.8371C52.2449 113.116 51.6771 112.881 51.2584 112.462C50.8397 112.044 50.6045 111.476 50.6045 110.884V98.9767C50.6045 98.3846 50.8397 97.8167 51.2584 97.398C51.6771 96.9794 52.2449 96.7441 52.8371 96.7441H75.1626C75.7547 96.7441 76.3226 96.9794 76.7413 97.398C77.16 97.8167 77.3952 98.3846 77.3952 98.9767V110.884C77.3952 111.476 77.16 112.044 76.7413 112.462C76.3226 112.881 75.7547 113.116 75.1626 113.116ZM52.8371 98.2325C52.6397 98.2325 52.4504 98.3109 52.3108 98.4505C52.1713 98.59 52.0929 98.7793 52.0929 98.9767V110.884C52.0929 111.081 52.1713 111.27 52.3108 111.41C52.4504 111.549 52.6397 111.628 52.8371 111.628H75.1626C75.36 111.628 75.5493 111.549 75.6888 111.41C75.8284 111.27 75.9068 111.081 75.9068 110.884V98.9767C75.9068 98.7793 75.8284 98.59 75.6888 98.4505C75.5493 98.3109 75.36 98.2325 75.1626 98.2325H52.8371Z" fill="#34234D"/>
<path d="M39.4419 97.4883H37.6633L33.1387 112.372H39.4419C39.8367 112.372 40.2152 112.215 40.4944 111.936C40.7735 111.657 40.9303 111.278 40.9303 110.884V98.9767C40.9303 98.5819 40.7735 98.2033 40.4944 97.9242C40.2152 97.6451 39.8367 97.4883 39.4419 97.4883Z" fill="#B8B5C6"/>
<path d="M17.1163 97.4883C16.7216 97.4883 16.343 97.6451 16.0639 97.9242C15.7847 98.2033 15.6279 98.5819 15.6279 98.9767V110.884C15.6279 111.278 15.7847 111.657 16.0639 111.936C16.343 112.215 16.7216 112.372 17.1163 112.372H25.6968L30.2214 97.4883H17.1163Z" fill="#B8B5C6"/>
<path d="M30.2214 97.4883L25.6968 112.372H33.1386L37.6633 97.4883H30.2214Z" fill="#A09CAD"/>
<path d="M39.4419 113.116H17.1163C16.5242 113.116 15.9564 112.881 15.5377 112.462C15.119 112.044 14.8838 111.476 14.8838 110.884V98.9767C14.8838 98.3846 15.119 97.8167 15.5377 97.398C15.9564 96.9794 16.5242 96.7441 17.1163 96.7441H39.4419C40.034 96.7441 40.6019 96.9794 41.0206 97.398C41.4393 97.8167 41.6745 98.3846 41.6745 98.9767V110.884C41.6745 111.476 41.4393 112.044 41.0206 112.462C40.6019 112.881 40.034 113.116 39.4419 113.116ZM17.1163 98.2325C16.919 98.2325 16.7297 98.3109 16.5901 98.4505C16.4506 98.59 16.3722 98.7793 16.3722 98.9767V110.884C16.3722 111.081 16.4506 111.27 16.5901 111.41C16.7297 111.549 16.919 111.628 17.1163 111.628H39.4419C39.6393 111.628 39.8286 111.549 39.9681 111.41C40.1077 111.27 40.1861 111.081 40.1861 110.884V98.9767C40.1861 98.7793 40.1077 98.59 39.9681 98.4505C39.8286 98.3109 39.6393 98.2325 39.4419 98.2325H17.1163Z" fill="#34234D"/>
<path d="M88.5582 97.4883C88.1635 97.4883 87.7849 97.6451 87.5058 97.9242C87.2266 98.2033 87.0698 98.5819 87.0698 98.9767V110.884C87.0698 111.278 87.2266 111.657 87.5058 111.936C87.7849 112.215 88.1635 112.372 88.5582 112.372H97.1387L101.663 97.4883H88.5582Z" fill="#B8B5C6"/>
<path d="M110.884 97.4883H101.663L97.1387 112.372H110.884C111.279 112.372 111.657 112.215 111.936 111.936C112.215 111.657 112.372 111.278 112.372 110.884V98.9767C112.372 98.5819 112.215 98.2033 111.936 97.9242C111.657 97.6451 111.279 97.4883 110.884 97.4883Z" fill="#A09CAD"/>
<path d="M110.884 113.116H88.5582C87.9661 113.116 87.3983 112.881 86.9796 112.462C86.5609 112.044 86.3257 111.476 86.3257 110.884V98.9767C86.3257 98.3846 86.5609 97.8167 86.9796 97.398C87.3983 96.9794 87.9661 96.7441 88.5582 96.7441H110.884C111.476 96.7441 112.044 96.9794 112.462 97.398C112.881 97.8167 113.116 98.3846 113.116 98.9767V110.884C113.116 111.476 112.881 112.044 112.462 112.462C112.044 112.881 111.476 113.116 110.884 113.116ZM88.5582 98.2325C88.3609 98.2325 88.1716 98.3109 88.032 98.4505C87.8925 98.59 87.8141 98.7793 87.8141 98.9767V110.884C87.8141 111.081 87.8925 111.27 88.032 111.41C88.1716 111.549 88.3609 111.628 88.5582 111.628H110.884C111.081 111.628 111.27 111.549 111.41 111.41C111.55 111.27 111.628 111.081 111.628 110.884V98.9767C111.628 98.7793 111.55 98.59 111.41 98.4505C111.27 98.3109 111.081 98.2325 110.884 98.2325H88.5582Z" fill="#34234D"/>
<path d="M77.0756 34.4408C75.3589 32.7231 73.3205 31.3604 71.077 30.4307C68.8335 29.501 66.4287 29.0225 64.0002 29.0225C61.5717 29.0225 59.167 29.501 56.9234 30.4307C54.6799 31.3604 52.6416 32.7231 50.9249 34.4408C49.2069 36.1582 47.844 38.1971 46.9142 40.4413C45.9844 42.6854 45.5059 45.0908 45.5059 47.5199C45.5059 49.949 45.9844 52.3544 46.9142 54.5985C47.844 56.8427 49.2069 58.8816 50.9249 60.599L64.0002 73.6743L77.0756 60.599C78.7936 58.8816 80.1564 56.8427 81.0862 54.5985C82.016 52.3544 82.4946 49.949 82.4946 47.5199C82.4946 45.0908 82.016 42.6854 81.0862 40.4413C80.1564 38.1971 78.7936 36.1582 77.0756 34.4408Z" fill="#17374C"/>
<path d="M52.9041 36.919C56.3743 33.453 61.0785 31.5061 65.9832 31.5061C70.8878 31.5061 75.592 33.453 79.0622 36.919C79.1813 37.038 79.2929 37.1646 79.4045 37.2836C78.7261 36.2598 77.9457 35.3074 77.0752 34.4408C75.3585 32.7231 73.3202 31.3604 71.0767 30.4307C68.8332 29.501 66.4284 29.0225 63.9999 29.0225C61.5714 29.0225 59.1666 29.501 56.9231 30.4307C54.6796 31.3604 52.6412 32.7231 50.9245 34.4408C47.5219 37.8514 45.5846 42.4553 45.5249 47.2726C45.4651 52.0899 47.2876 56.7403 50.6045 60.2343C48.2409 56.6788 47.1787 52.4156 47.5977 48.1667C48.0168 43.9178 49.8914 39.9443 52.9041 36.919Z" fill="#2FC8F2"/>
<path d="M63.9998 74.4187C63.9019 74.4193 63.8048 74.4005 63.7141 74.3635C63.6234 74.3265 63.541 74.2719 63.4714 74.2029L50.3961 61.1201C46.7881 57.5122 44.7612 52.6188 44.7612 47.5164C44.7612 42.414 46.7881 37.5206 50.3961 33.9127C54.004 30.3047 58.8974 28.2778 63.9998 28.2778C69.1022 28.2778 73.9956 30.3047 77.6035 33.9127C81.21 37.5214 83.2359 42.4145 83.2359 47.5164C83.2359 52.6183 81.21 57.5114 77.6035 61.1201L64.5282 74.2029C64.4586 74.2719 64.3762 74.3265 64.2855 74.3635C64.1948 74.4005 64.0977 74.4193 63.9998 74.4187ZM63.9998 29.7676C60.4898 29.7695 57.0591 30.8117 54.1411 32.7624C51.2232 34.7132 48.9488 37.485 47.6054 40.7277C46.2619 43.9704 45.9097 47.5386 46.5932 50.9814C47.2766 54.4242 48.9651 57.5872 51.4454 60.0708L63.9998 72.6252L76.5542 60.0708C79.8812 56.7413 81.75 52.227 81.75 47.5201C81.75 42.8133 79.8812 38.299 76.5542 34.9694C74.9096 33.3152 72.9531 32.0037 70.7981 31.1108C68.6431 30.2179 66.3324 29.7613 63.9998 29.7676Z" fill="#34234D"/>
<path d="M69.5144 40.186C70.8242 41.9574 71.4541 44.1402 71.2895 46.3369C71.1249 48.5337 70.1767 50.5983 68.6176 52.1547C67.0586 53.711 64.9923 54.6556 62.7953 54.8164C60.5982 54.9772 58.4165 54.3435 56.6475 53.0307C57.4331 54.0932 58.4385 54.9738 59.5953 55.6124C60.7521 56.2511 62.033 56.6328 63.3507 56.7315C64.6684 56.8302 65.9919 56.6437 67.2309 56.1845C68.4699 55.7254 69.5954 55.0045 70.5306 54.0709C71.4657 53.1374 72.1886 52.0132 72.6499 50.7749C73.1112 49.5367 73.3 48.2135 73.2036 46.8957C73.1072 45.5778 72.7277 44.2963 72.091 43.1384C71.4544 41.9805 70.5755 40.9735 69.5144 40.186Z" fill="#EDEDED"/>
<path d="M71.36 45.6781C71.3546 43.696 70.7071 41.7691 69.5144 40.186C67.7454 38.8732 65.5636 38.2395 63.3666 38.4003C61.1695 38.561 59.1033 39.5056 57.5442 41.062C55.9852 42.6184 55.037 44.6829 54.8724 46.8797C54.7078 49.0765 55.3377 51.2593 56.6474 53.0306C58.0121 54.0598 59.6369 54.6876 61.339 54.8436C63.0412 54.9995 64.753 54.6773 66.282 53.9132C67.8109 53.1491 69.0963 51.9735 69.9934 50.5186C70.8905 49.0637 71.3638 47.3873 71.36 45.6781Z" fill="white"/>
<path d="M64.0001 57.4659C62.0322 57.4659 60.1085 56.8824 58.4723 55.7891C56.836 54.6958 55.5608 53.1419 54.8077 51.3238C54.0546 49.5057 53.8576 47.5051 54.2415 45.5751C54.6254 43.645 55.573 41.8721 56.9645 40.4806C58.356 39.0891 60.1289 38.1415 62.059 37.7576C63.989 37.3737 65.9896 37.5707 67.8077 38.3238C69.6258 39.0769 71.1797 40.3522 72.273 41.9884C73.3663 43.6246 73.9498 45.5483 73.9498 47.5162C73.9459 50.1538 72.8964 52.6823 71.0313 54.5474C69.1662 56.4125 66.6377 57.462 64.0001 57.4659ZM64.0001 39.0622C62.3262 39.0622 60.69 39.5587 59.2984 40.4887C57.9068 41.4188 56.8222 42.7408 56.182 44.2873C55.5418 45.8339 55.3747 47.5355 55.7018 49.1771C56.0289 50.8186 56.8355 52.3263 58.0196 53.5094C59.2037 54.6924 60.7121 55.4977 62.3539 55.8233C63.9957 56.149 65.6973 55.9804 67.2433 55.3388C68.7893 54.6972 70.1102 53.6116 71.0391 52.2191C71.9679 50.8267 72.4629 49.19 72.4615 47.5162C72.4575 45.274 71.5646 43.1248 69.9784 41.5401C68.3922 39.9553 66.2423 39.0642 64.0001 39.0622Z" fill="#34234D"/>
<path d="M42.4185 5.20932H34.9766C34.7792 5.20932 34.59 5.13091 34.4504 4.99135C34.3108 4.85179 34.2324 4.6625 34.2324 4.46513C34.2324 4.26776 34.3108 4.07848 34.4504 3.93891C34.59 3.79935 34.7792 3.72095 34.9766 3.72095H42.4185C42.6158 3.72095 42.8051 3.79935 42.9447 3.93891C43.0843 4.07848 43.1627 4.26776 43.1627 4.46513C43.1627 4.6625 43.0843 4.85179 42.9447 4.99135C42.8051 5.13091 42.6158 5.20932 42.4185 5.20932Z" fill="#A09CAD"/>
<path d="M38.6978 8.93023C38.5004 8.93023 38.3111 8.85183 38.1716 8.71227C38.032 8.5727 37.9536 8.38342 37.9536 8.18605V0.744186C37.9536 0.546816 38.032 0.357529 38.1716 0.217967C38.3111 0.0784051 38.5004 0 38.6978 0C38.8952 0 39.0845 0.0784051 39.224 0.217967C39.3636 0.357529 39.442 0.546816 39.442 0.744186V8.18605C39.442 8.38342 39.3636 8.5727 39.224 8.71227C39.0845 8.85183 38.8952 8.93023 38.6978 8.93023Z" fill="#A09CAD"/>
<path d="M107.163 11.9071H99.7207C99.5234 11.9071 99.3341 11.8287 99.1945 11.6891C99.055 11.5495 98.9766 11.3603 98.9766 11.1629C98.9766 10.9655 99.055 10.7762 99.1945 10.6367C99.3341 10.4971 99.5234 10.4187 99.7207 10.4187H107.163C107.36 10.4187 107.549 10.4971 107.689 10.6367C107.828 10.7762 107.907 10.9655 107.907 11.1629C107.907 11.3603 107.828 11.5495 107.689 11.6891C107.549 11.8287 107.36 11.9071 107.163 11.9071Z" fill="#A09CAD"/>
<path d="M103.442 15.628C103.245 15.628 103.055 15.5496 102.916 15.41C102.776 15.2705 102.698 15.0812 102.698 14.8838V7.44194C102.698 7.24457 102.776 7.05528 102.916 6.91572C103.055 6.77616 103.245 6.69775 103.442 6.69775C103.639 6.69775 103.829 6.77616 103.968 6.91572C104.108 7.05528 104.186 7.24457 104.186 7.44194V14.8838C104.186 15.0812 104.108 15.2705 103.968 15.41C103.829 15.5496 103.639 15.628 103.442 15.628Z" fill="#A09CAD"/>
<path d="M14.8837 90.0465H8.93022C8.73285 90.0465 8.54356 89.9681 8.404 89.8285C8.26444 89.6889 8.18604 89.4997 8.18604 89.3023C8.18604 89.1049 8.26444 88.9156 8.404 88.7761C8.54356 88.6365 8.73285 88.5581 8.93022 88.5581H14.8837C15.0811 88.5581 15.2704 88.6365 15.4099 88.7761C15.5495 88.9156 15.6279 89.1049 15.6279 89.3023C15.6279 89.4997 15.5495 89.6889 15.4099 89.8285C15.2704 89.9681 15.0811 90.0465 14.8837 90.0465Z" fill="#A09CAD"/>
<path d="M11.9068 93.0232C11.7094 93.0232 11.5201 92.9448 11.3806 92.8052C11.241 92.6656 11.1626 92.4763 11.1626 92.279V86.3255C11.1626 86.1281 11.241 85.9388 11.3806 85.7993C11.5201 85.6597 11.7094 85.5813 11.9068 85.5813C12.1042 85.5813 12.2934 85.6597 12.433 85.7993C12.5726 85.9388 12.651 86.1281 12.651 86.3255V92.279C12.651 92.4763 12.5726 92.6656 12.433 92.8052C12.2934 92.9448 12.1042 93.0232 11.9068 93.0232Z" fill="#A09CAD"/>
<path d="M72.186 15.628H66.2325C66.0351 15.628 65.8458 15.5496 65.7062 15.4101C65.5667 15.2705 65.4883 15.0812 65.4883 14.8838C65.4883 14.6865 65.5667 14.4972 65.7062 14.3576C65.8458 14.2181 66.0351 14.1396 66.2325 14.1396H72.186C72.3833 14.1396 72.5726 14.2181 72.7122 14.3576C72.8517 14.4972 72.9301 14.6865 72.9301 14.8838C72.9301 15.0812 72.8517 15.2705 72.7122 15.4101C72.5726 15.5496 72.3833 15.628 72.186 15.628Z" fill="#A09CAD"/>
<path d="M69.2095 18.6047C69.0121 18.6047 68.8229 18.5263 68.6833 18.3867C68.5437 18.2472 68.4653 18.0579 68.4653 17.8605V11.907C68.4653 11.7097 68.5437 11.5204 68.6833 11.3808C68.8229 11.2412 69.0121 11.1628 69.2095 11.1628C69.4069 11.1628 69.5962 11.2412 69.7357 11.3808C69.8753 11.5204 69.9537 11.7097 69.9537 11.907V17.8605C69.9537 18.0579 69.8753 18.2472 69.7357 18.3867C69.5962 18.5263 69.4069 18.6047 69.2095 18.6047Z" fill="#A09CAD"/>
<path d="M8.18605 49.1163H0.744186C0.546816 49.1163 0.357529 49.0379 0.217967 48.8983C0.0784051 48.7588 0 48.5695 0 48.3721C0 48.1747 0.0784051 47.9855 0.217967 47.8459C0.357529 47.7063 0.546816 47.6279 0.744186 47.6279H8.18605C8.38342 47.6279 8.5727 47.7063 8.71227 47.8459C8.85183 47.9855 8.93023 48.1747 8.93023 48.3721C8.93023 48.5695 8.85183 48.7588 8.71227 48.8983C8.5727 49.0379 8.38342 49.1163 8.18605 49.1163Z" fill="#A09CAD"/>
<path d="M4.46489 52.8372C4.26752 52.8372 4.07823 52.7588 3.93867 52.6192C3.79911 52.4797 3.7207 52.2904 3.7207 52.093V44.6512C3.7207 44.4538 3.79911 44.2645 3.93867 44.1249C4.07823 43.9854 4.26752 43.907 4.46489 43.907C4.66226 43.907 4.85155 43.9854 4.99111 44.1249C5.13067 44.2645 5.20908 44.4538 5.20908 44.6512V52.093C5.20908 52.2904 5.13067 52.4797 4.99111 52.6192C4.85155 52.7588 4.66226 52.8372 4.46489 52.8372Z" fill="#A09CAD"/>
<path d="M127.256 35.721H121.302C121.105 35.721 120.916 35.6426 120.776 35.5031C120.637 35.3635 120.558 35.1742 120.558 34.9769C120.558 34.7795 120.637 34.5902 120.776 34.4506C120.916 34.3111 121.105 34.2327 121.302 34.2327H127.256C127.453 34.2327 127.642 34.3111 127.782 34.4506C127.922 34.5902 128 34.7795 128 34.9769C128 35.1742 127.922 35.3635 127.782 35.5031C127.642 35.6426 127.453 35.721 127.256 35.721Z" fill="#A09CAD"/>
<path d="M124.279 38.6977C124.081 38.6977 123.892 38.6193 123.753 38.4798C123.613 38.3402 123.535 38.1509 123.535 37.9535V32C123.535 31.8027 123.613 31.6134 123.753 31.4738C123.892 31.3343 124.081 31.2559 124.279 31.2559C124.476 31.2559 124.666 31.3343 124.805 31.4738C124.945 31.6134 125.023 31.8027 125.023 32V37.9535C125.023 38.1509 124.945 38.3402 124.805 38.4798C124.666 38.6193 124.476 38.6977 124.279 38.6977Z" fill="#A09CAD"/>
<path d="M119.07 78.1395H113.116C112.919 78.1395 112.73 78.0611 112.59 77.9215C112.45 77.782 112.372 77.5927 112.372 77.3953C112.372 77.1979 112.45 77.0087 112.59 76.8691C112.73 76.7295 112.919 76.6511 113.116 76.6511H119.07C119.267 76.6511 119.456 76.7295 119.596 76.8691C119.736 77.0087 119.814 77.1979 119.814 77.3953C119.814 77.5927 119.736 77.782 119.596 77.9215C119.456 78.0611 119.267 78.1395 119.07 78.1395Z" fill="#A09CAD"/>
<path d="M116.093 81.1162C115.895 81.1162 115.706 81.0378 115.567 80.8982C115.427 80.7587 115.349 80.5694 115.349 80.372V74.4185C115.349 74.2211 115.427 74.0318 115.567 73.8923C115.706 73.7527 115.895 73.6743 116.093 73.6743C116.29 73.6743 116.479 73.7527 116.619 73.8923C116.759 74.0318 116.837 74.2211 116.837 74.4185V80.372C116.837 80.5694 116.759 80.7587 116.619 80.8982C116.479 81.0378 116.29 81.1162 116.093 81.1162Z" fill="#A09CAD"/>
</g>
<defs>
<clipPath id="clip0_190_7711">
<rect width="128" height="120.558" fill="white"/>
</clipPath>
</defs>
</svg>
