<svg width="79" height="78" viewBox="0 0 79 78" fill="none" xmlns="http://www.w3.org/2000/svg">
<path d="M63.875 9.75H15.125C12.9708 9.75226 10.9055 10.609 9.38225 12.1323C7.85901 13.6555 7.00226 15.7208 7 17.875V50.375C7.00226 52.5292 7.85901 54.5945 9.38225 56.1178C10.9055 57.641 12.9708 58.4977 15.125 58.5H31.1617C30.7031 60.7816 29.3336 63.1185 26.976 65.476C26.7488 65.7033 26.5941 65.9928 26.5314 66.308C26.4687 66.6232 26.5009 66.9499 26.6239 67.2468C26.7468 67.5437 26.9551 67.7975 27.2223 67.9761C27.4895 68.1546 27.8036 68.25 28.125 68.25H50.875C51.1964 68.25 51.5105 68.1546 51.7777 67.9761C52.0449 67.7975 52.2532 67.5437 52.3761 67.2468C52.4991 66.9499 52.5313 66.6232 52.4686 66.308C52.4059 65.9928 52.2512 65.7033 52.024 65.476C49.6664 63.1185 48.2969 60.7816 47.8383 58.5H63.875C66.0292 58.4977 68.0945 57.641 69.6178 56.1178C71.141 54.5945 71.9977 52.5292 72 50.375V17.875C71.9977 15.7208 71.141 13.6555 69.6178 12.1323C68.0945 10.609 66.0292 9.75226 63.875 9.75ZM15.125 13H63.875C65.1675 13.0014 66.4066 13.5155 67.3206 14.4294C68.2345 15.3434 68.7486 16.5825 68.75 17.875V48.75H10.25V17.875C10.2514 16.5825 10.7655 15.3434 11.6794 14.4294C12.5934 13.5155 13.8325 13.0014 15.125 13ZM47.3235 65H31.6765C33.1339 63.0986 34.0965 60.8651 34.4778 58.5H44.5222C44.9035 60.8651 45.8661 63.0986 47.3235 65ZM63.875 55.25H15.125C14.1201 55.2469 13.1408 54.9329 12.3215 54.351C11.5022 53.7691 10.8832 52.9478 10.5493 52H68.4507C68.1168 52.9478 67.4978 53.7691 66.6785 54.351C65.8592 54.9329 64.8799 55.2469 63.875 55.25Z" fill="#17374C"/>
<path d="M35.7358 42.1657C35.9383 42.2335 36.1521 42.2607 36.3651 42.2458C36.5781 42.2309 36.786 42.1741 36.977 42.0787C37.168 41.9834 37.3384 41.8513 37.4783 41.69C37.6182 41.5287 37.725 41.3415 37.7924 41.1389L44.2924 21.6389C44.4272 21.2303 44.3944 20.7849 44.2013 20.4003C44.0083 20.0158 43.6707 19.7234 43.2624 19.5873C42.8542 19.4513 42.4087 19.4826 42.0236 19.6744C41.6384 19.8662 41.3449 20.2028 41.2075 20.6106L34.7075 40.1106C34.5716 40.5195 34.6036 40.9656 34.7964 41.351C34.9892 41.7363 35.3271 42.0293 35.7358 42.1657Z" fill="#FF972C"/>
<path d="M28.7757 37.0501C28.9464 37.1781 29.1406 37.2711 29.3473 37.324C29.554 37.3769 29.7691 37.3885 29.9803 37.3583C30.1915 37.3281 30.3946 37.2565 30.5782 37.1478C30.7617 37.039 30.922 36.8952 31.05 36.7244C31.178 36.5537 31.271 36.3595 31.3239 36.1528C31.3768 35.9461 31.3884 35.731 31.3582 35.5198C31.328 35.3086 31.2564 35.1055 31.1477 34.9219C31.0389 34.7384 30.8951 34.5781 30.7244 34.4501L25.9573 30.8751L30.7244 27.3001C30.8951 27.1721 31.0389 27.0118 31.1477 26.8283C31.2564 26.6447 31.328 26.4416 31.3582 26.2304C31.3884 26.0192 31.3768 25.8041 31.3239 25.5974C31.271 25.3907 31.178 25.1965 31.05 25.0257C30.922 24.855 30.7617 24.7112 30.5782 24.6024C30.3946 24.4937 30.1915 24.4221 29.9803 24.3919C29.7691 24.3617 29.554 24.3733 29.3473 24.4262C29.1406 24.4791 28.9464 24.5721 28.7757 24.7001L22.2757 29.5751C22.0737 29.7263 21.9097 29.9224 21.7967 30.1481C21.6838 30.3737 21.625 30.6225 21.625 30.8748C21.625 31.1271 21.6838 31.3759 21.7967 31.6015C21.9097 31.8271 22.0737 32.0233 22.2757 32.1744L28.7757 37.0501Z" fill="#FF972C"/>
<path d="M47.9488 36.7244C48.0768 36.8953 48.2373 37.0392 48.421 37.1479C48.6046 37.2567 48.808 37.3283 49.0193 37.3584C49.2306 37.3886 49.4458 37.3769 49.6526 37.3238C49.8594 37.2708 50.0537 37.1776 50.2245 37.0494L56.7245 32.1744C56.9264 32.0233 57.0904 31.8271 57.2034 31.6015C57.3163 31.3759 57.3751 31.1271 57.3751 30.8748C57.3751 30.6225 57.3163 30.3737 57.2034 30.1481C57.0904 29.9224 56.9264 29.7263 56.7245 29.5751L50.2245 24.7001C50.0537 24.5721 49.8595 24.4791 49.6528 24.4262C49.4461 24.3733 49.231 24.3617 49.0198 24.3919C48.8086 24.4221 48.6055 24.4937 48.4219 24.6024C48.2384 24.7112 48.0781 24.855 47.9501 25.0257C47.8222 25.1965 47.7291 25.3907 47.6762 25.5974C47.6233 25.8041 47.6117 26.0192 47.6419 26.2304C47.6721 26.4416 47.7437 26.6447 47.8524 26.8283C47.9612 27.0118 48.105 27.1721 48.2758 27.3001L53.0429 30.8751L48.2758 34.4501C47.9312 34.7087 47.7033 35.0933 47.642 35.5197C47.5808 35.946 47.6911 36.3793 47.9488 36.7244Z" fill="#FF972C"/>
</svg>
