<svg width="40" height="28" viewBox="0 0 40 28" fill="none" xmlns="http://www.w3.org/2000/svg">
<g clip-path="url(#clip0_919_22658)">
<path d="M0 23.1498V19.1166H6.25333L0 23.1498ZM5.18222 0.695523H14.4444V6.66906L5.18222 0.695523ZM25.5555 6.66804V0.695523H34.8167L25.5555 6.66804ZM0 8.88266V4.84947L6.25555 8.88266H0ZM34.8189 27.3037H25.5555V21.3302L34.8189 27.3037ZM40 4.84845V8.88266H33.7433L40 4.84845ZM40 19.1166V23.1498L33.7455 19.1166H40ZM14.4444 27.3037H5.18222L14.4444 21.3302V27.3037Z" fill="#00247D"/>
<path d="M27.9332 8.88316L38.7243 1.92307C39.2513 2.42313 39.6301 3.03945 39.8243 3.71299L31.8076 8.88316H27.9332ZM14.4443 8.88316H12.0654L1.27543 1.9241C1.85432 1.3817 2.59654 0.993835 3.42876 0.813718L14.4443 7.9181V8.88316ZM25.5554 19.1171H27.9343L38.7243 26.0761C38.1355 26.6264 37.3891 27.0115 36.5721 27.1865L25.5554 20.0821V19.1171ZM12.0654 19.1171L1.27543 26.0761C0.748709 25.5757 0.369666 24.9596 0.174316 24.2862L8.19098 19.1171H12.0654Z" fill="#CF1B2B"/>
<path d="M40 10.9294H23.3333V0.695523H25.5555V6.66804L34.8167 0.695523H35.5555C36.1458 0.69544 36.7302 0.803934 37.2744 1.01464C37.8185 1.22535 38.3115 1.53403 38.7244 1.92257L27.9333 8.88266H31.8078L39.8244 3.71248C39.9278 4.05737 40 4.41453 40 4.78909V4.84845L33.7433 8.88266H40V10.9294ZM0 10.9294V8.88266H6.25555L0 4.84947V4.78909C0 3.67257 0.487778 2.66248 1.27556 1.92359L12.0656 8.88266H14.4444V7.9176L3.42889 0.814236C3.75555 0.742598 4.09333 0.695523 4.44444 0.695523H5.18222L14.4444 6.66906V0.695523H16.6667V10.9294H0ZM40 23.2101C40.0007 24.2827 39.5424 25.3122 38.7244 26.0756L27.9344 19.1166H25.5555V20.0816L36.5722 27.186C36.2394 27.2612 35.8982 27.3007 35.5555 27.3037H34.8189L25.5555 21.3302V27.3037H23.3333V17.0698H40V19.1166H33.7455L40 23.1498V23.2101ZM14.4444 27.3037V21.3302L5.18222 27.3037H4.44444C3.85402 27.3039 3.26952 27.1954 2.72531 26.9845C2.1811 26.7736 1.68818 26.4646 1.27556 26.0756L12.0656 19.1166H8.19111L0.174444 24.2857C0.0642002 23.936 0.00552601 23.5743 0 23.2101L0 23.1498L6.25333 19.1166H0V17.0698H16.6667V27.3037H14.4444Z" fill="#EEEEEE"/>
<path d="M23.3333 17.0698V27.3037H16.6667V17.0698H0V10.9294H16.6667V0.695523H23.3333V10.9294H40V17.0698H23.3333Z" fill="#CF1B2B"/>
</g>
<defs>
<clipPath id="clip0_919_22658">
<rect width="40" height="28" fill="white" transform="matrix(1 0 0 -1 0 28)"/>
</clipPath>
</defs>
</svg>
