<svg width="400" height="364" viewBox="0 0 400 364" fill="none" xmlns="http://www.w3.org/2000/svg">
<g clip-path="url(#clip0_100_15788)">
<path d="M287.575 98.1178C265.483 61.0498 250.795 46.2481 223.445 42.4757C178.399 36.2608 170.336 65.869 145.169 73.126C120.649 80.1992 90.9419 91.0446 65.9596 114.273C55.3687 124.119 35.2103 164.337 43.3255 213.768C43.8725 217.093 56.4344 286.603 117.358 312.792C127.406 317.112 163.923 332.809 197.048 315.622C220.545 303.432 237.474 277.219 242.317 252.906C245.796 235.44 241.51 226.627 249.861 215.655C259.344 203.192 270.274 207.454 290.414 195.378C296.662 191.634 326.487 177.342 326.723 151.996C327.185 101.89 294.87 110.364 287.575 98.1178Z" fill="#FF972C"/>
<path d="M351.311 157.554C351.311 157.554 349.552 152.843 329.502 153.664C329.502 153.664 320.807 154.022 294.782 158.464C292.505 158.851 288.511 159.596 285.639 162.911C284.569 164.151 283.989 165.363 282.178 171.842C279.585 181.122 279.297 183.923 276.944 188.077C275.93 189.874 273.398 194.339 271.488 193.952C269.461 193.542 268.885 187.841 269.036 183.871C269.513 171.648 277.335 165.5 275.275 162.317C273.374 159.379 265.207 162.293 259.681 164.259C253.617 166.419 245.101 169.456 239.471 178.113C237.198 181.607 236.184 184.8 235.642 186.559C235.033 188.52 233.416 194.32 234.458 204.708C235.698 217.063 239.433 223.297 237.132 225.15C235.557 226.418 232.482 224.57 232.138 224.358C226.173 220.675 225.419 209.311 227.47 200.861C228.998 194.57 231.525 192.151 230.398 190.581C228.385 187.78 217.657 191.727 209.73 197.409C193.024 209.386 187.733 229.813 185.814 237.221C183.442 246.374 179.585 261.26 184.861 277.948C190.623 296.178 207.429 316.992 221.778 313.951C239.683 310.155 230.851 274.082 261.624 235.792C282.772 209.476 324.824 179.372 332.176 174.11C340.178 168.376 351.311 157.554 351.311 157.554Z" fill="#6E7F32"/>
<path d="M250.109 234.537C267.66 209.215 287.927 195.545 302.144 185.077C326.508 167.14 350.618 155.285 352.014 157.61C352.684 158.727 347.195 161.807 342.555 171.068C340.659 174.849 339.919 177.424 335.779 191.273C331.144 206.787 330.625 208.4 328.47 210.126C327.032 211.276 321.906 212.549 311.721 215.048C306.147 216.416 302.497 217.203 301.271 220.127C300.663 221.584 300.644 223.583 301.573 224.809C303.139 226.865 306.991 226.229 311.942 225.404C316.37 224.668 317.233 223.918 318.624 224.569C322.005 226.153 322 232.962 321.996 235.009C321.981 248.221 313.465 258.534 312.376 259.817C302.823 271.082 290.152 274.043 286.404 274.859C274.615 277.434 265.005 274.717 264.128 277.636C263.642 279.254 266.179 281.46 267.58 282.399C272.795 285.898 277.93 282.338 280.325 285.058C283.042 288.147 279.34 296.017 278.859 297.045C277.68 299.554 274.077 306.193 263.642 311.691C251.538 318.066 224.287 322.098 219.322 313.912C214.8 306.462 233.27 258.831 250.109 234.537ZM311.758 208.041C320.175 206.136 326.603 202.053 326.112 198.922C325.622 195.791 318.398 194.796 309.976 196.701C301.554 198.606 295.132 202.689 295.622 205.82C296.113 208.951 303.341 209.946 311.758 208.041ZM265.92 244.185C266.495 248.886 275.935 251.008 287.002 248.919C298.07 246.83 306.571 241.327 305.996 236.626C305.416 231.925 295.981 229.803 284.914 231.892C273.846 233.976 265.344 239.484 265.92 244.185Z" fill="#ADBF45"/>
<path d="M328.418 181.106C325.712 181.814 323.109 182.545 320.478 183.044C317.856 183.544 315.215 183.903 312.565 184.03C309.92 184.171 307.284 184.058 304.705 183.568C303.408 183.346 302.139 182.993 300.862 182.611C299.588 182.233 298.31 181.719 296.948 181.578C298.202 182.064 299.315 182.828 300.536 183.422C301.743 184.054 303.021 184.558 304.327 184.983C306.963 185.789 309.75 186.114 312.523 186.062C313.216 186.048 313.909 186.025 314.602 185.959C315.295 185.902 315.989 185.869 316.682 185.756C318.063 185.553 319.445 185.28 320.798 184.865C323.5 184.044 326.113 182.828 328.418 181.106Z" fill="#6E7F32"/>
<path d="M307.769 247.983C305.75 249.37 303.699 250.685 301.591 251.869C299.484 253.048 297.324 254.113 295.141 255.08C290.736 256.952 286.262 258.711 281.768 260.277C277.264 261.823 272.714 263.191 268.126 264.087C263.514 264.921 258.846 265.534 254.187 265.817C249.524 266.095 244.865 266.076 240.225 265.794C235.594 265.534 230.954 264.85 226.286 264.483C216.978 263.606 207.636 262.71 198.239 262.582C202.893 263.092 207.528 263.639 212.149 264.303L226.046 266.147C230.685 266.713 235.292 267.378 240.013 267.741C244.714 268.123 249.458 268.132 254.201 267.878C258.95 267.614 263.679 267.029 268.395 266.128C273.124 265.185 277.741 263.728 282.268 262.026C284.531 261.187 286.771 260.262 288.992 259.296C291.213 258.32 293.415 257.353 295.598 256.235C297.777 255.127 299.894 253.873 301.926 252.482C303.949 251.11 305.92 249.62 307.769 247.983Z" fill="#6E7F32"/>
<path d="M294.699 164.162C293.119 165.878 291.964 167.981 290.903 170.061C289.842 172.154 288.908 174.295 287.975 176.431C286.14 180.812 284.933 185.376 283.886 189.917L283.141 193.331L282.778 195.034C282.66 195.623 282.561 196.222 282.476 196.807C282.146 199.155 281.958 201.475 281.863 203.799C281.684 208.439 281.76 213.094 282.448 217.63C282.552 213.009 282.896 208.416 283.372 203.842C283.636 201.56 283.9 199.273 284.301 197.042C284.4 196.481 284.518 195.944 284.641 195.397L285.027 193.699L285.81 190.318C286.866 185.82 287.97 181.345 289.549 177.058L291.898 170.509C292.709 168.335 293.529 166.18 294.699 164.162Z" fill="#ADBF45"/>
<path d="M275.789 136.685C269.343 138.906 263.236 141.886 257.738 145.72C257.059 146.21 256.37 146.686 255.715 147.205C255.045 147.705 254.39 148.224 253.739 148.752C252.447 149.813 251.198 150.926 250 152.086C247.595 154.396 245.355 156.881 243.365 159.564C239.324 164.879 236.151 170.829 233.708 177.087C231.299 183.358 229.61 189.936 228.615 196.675C228.63 189.851 229.832 183.009 231.973 176.464C232.52 174.833 233.095 173.206 233.784 171.622C234.104 170.82 234.477 170.042 234.826 169.25C235.198 168.472 235.571 167.689 235.962 166.92C237.561 163.855 239.409 160.913 241.484 158.136C243.587 155.382 245.921 152.798 248.472 150.454C251.042 148.129 253.786 146.003 256.724 144.183C262.585 140.533 269.088 137.958 275.789 136.685Z" fill="#6E7F32"/>
<path d="M71.041 159.541C77.3643 160.201 83.5369 161.583 89.3274 163.823C90.0441 164.115 90.7703 164.393 91.4729 164.714C92.1849 165.016 92.8875 165.336 93.5854 165.666C94.9765 166.331 96.3439 167.048 97.6737 167.812C100.338 169.335 102.884 171.047 105.242 172.975C110.009 176.771 114.116 181.293 117.615 186.216C121.091 191.163 123.972 196.505 126.254 202.131C124.849 196.241 122.354 190.573 119.068 185.344C118.233 184.042 117.379 182.746 116.432 181.515C115.974 180.888 115.474 180.289 114.998 179.671C114.498 179.072 114.003 178.469 113.485 177.884C111.4 175.55 109.118 173.371 106.661 171.377C104.186 169.406 101.531 167.633 98.7252 166.11C95.9101 164.605 92.9771 163.299 89.931 162.304C83.8528 160.286 77.4068 159.334 71.041 159.541Z" fill="#6E7F32"/>
<path d="M49.0122 210.125C49.0122 210.125 49.8516 206.56 64.4175 205.32C64.4175 205.32 70.7362 204.783 89.9468 205.612C91.6255 205.683 94.5821 205.853 96.9587 207.989C97.8452 208.786 98.378 209.606 100.278 214.124C102.999 220.589 103.466 222.588 105.545 225.375C106.446 226.577 108.681 229.576 110.025 229.119C111.454 228.638 111.35 224.465 110.874 221.607C109.412 212.818 103.197 209.092 104.395 206.603C105.503 204.306 111.666 205.664 115.839 206.579C120.418 207.588 126.85 209.003 131.711 214.742C133.673 217.057 134.696 219.273 135.253 220.494C135.87 221.857 137.568 225.903 137.766 233.5C138.002 242.539 135.87 247.386 137.705 248.518C138.959 249.291 141.01 247.674 141.241 247.485C145.216 244.279 144.721 235.999 142.463 230.076C140.784 225.672 138.733 224.154 139.407 222.913C140.609 220.707 148.715 222.574 154.963 225.955C168.129 233.08 173.82 247.358 175.885 252.536C178.437 258.93 182.586 269.337 180.299 281.88C177.8 295.578 167.563 312.158 156.915 311.271C143.632 310.168 146.711 283.294 120.974 258.439C103.287 241.36 70.142 223.451 64.3468 220.32C58.047 216.925 49.0122 210.125 49.0122 210.125Z" fill="#6E7F32"/>
<path d="M158.688 311.03C155.849 317.396 135.79 316.981 126.458 313.477C118.414 310.459 115.203 305.989 114.123 304.287C113.679 303.584 110.284 298.237 111.963 295.757C113.444 293.569 117.48 295.672 120.932 292.668C121.861 291.862 123.492 290.032 122.992 288.91C122.092 286.882 115.396 289.726 106.639 288.938C103.857 288.688 94.4263 287.712 86.495 280.446C85.5896 279.616 78.4929 272.943 77.2763 263.399C77.0877 261.919 76.4606 257 78.757 255.548C79.7048 254.949 80.3932 255.411 83.661 255.539C87.3108 255.68 90.1542 255.789 91.0973 254.162C91.6584 253.19 91.4651 251.748 90.8898 250.748C89.7345 248.744 87.0278 248.508 82.8736 248.032C75.2864 247.159 71.4669 246.707 70.3211 246.009C68.6047 244.957 68.0812 243.84 63.3139 233.051C59.0559 223.422 58.2873 221.63 56.5709 219.07C52.3742 212.803 48.1256 211.077 48.5075 210.209C49.2997 208.403 67.8078 214.76 87.0561 225.497C98.2883 231.759 114.184 239.784 129.179 256.477C143.575 272.495 161.277 305.225 158.688 311.03ZM93.6671 239.893C93.7379 237.587 88.7207 235.225 82.4633 234.616C76.2059 234.008 71.0755 235.39 71.0048 237.696C70.9341 240.001 75.9513 242.364 82.2087 242.972C88.4707 243.58 93.5964 242.203 93.6671 239.893ZM103.791 257.75C95.6052 257.255 88.9753 259.651 88.9894 263.102C89.0036 266.554 95.6523 269.751 103.838 270.251C112.024 270.746 118.654 268.351 118.64 264.899C118.626 261.447 111.977 258.25 103.791 257.75Z" fill="#ADBF45"/>
<path d="M67.709 225.037C69.732 225.301 71.6794 225.593 73.6222 225.711C75.565 225.829 77.503 225.853 79.4269 225.697C81.3508 225.556 83.2416 225.235 85.0618 224.646C85.9766 224.367 86.8631 223.995 87.7543 223.603C88.6408 223.217 89.5179 222.726 90.4893 222.5C89.6263 222.967 88.8954 223.618 88.0655 224.16C87.2545 224.726 86.3727 225.207 85.4673 225.636C83.6378 226.461 81.6525 226.947 79.6438 227.164C79.1392 227.215 78.6394 227.263 78.1301 227.281C77.6256 227.305 77.121 227.343 76.6118 227.324C75.5932 227.3 74.57 227.234 73.5562 227.055C71.5333 226.706 69.5339 226.07 67.709 225.037Z" fill="#6E7F32"/>
<path d="M88.7489 271.479C90.3333 272.295 91.9365 273.059 93.568 273.724C95.1996 274.384 96.8547 274.954 98.524 275.454C101.877 276.407 105.272 277.265 108.662 277.986C112.057 278.694 115.471 279.264 118.871 279.491C122.28 279.67 125.708 279.689 129.104 279.467C132.499 279.241 135.865 278.802 139.195 278.17C142.514 277.562 145.81 276.638 149.144 275.949C155.788 274.464 162.456 272.96 169.241 272.012C165.926 272.809 162.625 273.625 159.344 274.53L149.469 277.133C146.169 277.967 142.901 278.868 139.525 279.561C136.162 280.269 132.734 280.707 129.283 280.962C125.831 281.202 122.356 281.216 118.866 280.995C115.363 280.745 111.892 280.113 108.469 279.297C106.757 278.896 105.055 278.434 103.362 277.939C101.669 277.435 99.9905 276.939 98.307 276.331C96.6284 275.732 94.9874 275.016 93.3936 274.2C91.7951 273.389 90.2342 272.493 88.7489 271.479Z" fill="#6E7F32"/>
<path d="M90.5273 209.707C91.824 210.801 92.852 212.215 93.8092 213.62C94.7664 215.035 95.6388 216.497 96.5064 217.954C98.2323 220.953 99.5243 224.14 100.694 227.323L101.547 229.719L101.967 230.917C102.104 231.331 102.231 231.756 102.344 232.171C102.797 233.835 103.146 235.495 103.429 237.169C103.985 240.503 104.353 243.875 104.273 247.218C103.773 243.884 103.108 240.602 102.344 237.339C101.943 235.712 101.547 234.085 101.052 232.51C100.929 232.114 100.793 231.737 100.656 231.35L100.222 230.157L99.3451 227.785C98.171 224.631 96.9638 221.5 95.4313 218.548L93.1349 214.031C92.3474 212.541 91.5552 211.065 90.5273 209.707Z" fill="#ADBF45"/>
<path d="M138.485 154.97C136.236 154.611 134.005 154.036 131.85 153.234C130.77 152.833 129.714 152.371 128.677 151.853C127.639 151.339 126.626 150.768 125.649 150.136C123.683 148.887 121.849 147.425 120.123 145.836C118.402 144.247 116.789 142.516 115.356 140.625C114.639 139.677 113.979 138.692 113.366 137.664C112.758 136.636 112.22 135.566 111.753 134.457C110.824 132.246 110.221 129.86 110.103 127.441L110.07 126.531L110.098 125.625C110.098 125.324 110.136 125.022 110.164 124.72C110.197 124.418 110.216 124.117 110.263 123.819C110.442 122.626 110.716 121.452 111.088 120.316C111.819 118.043 112.875 115.888 114.233 113.945C114.912 112.974 115.676 112.064 116.53 111.239C117.383 110.418 118.317 109.668 119.35 109.079C120.382 108.49 121.5 108.023 122.679 107.787C123.853 107.547 125.074 107.495 126.262 107.66C126.857 107.735 127.446 107.858 128.021 108.018C128.601 108.169 129.162 108.376 129.719 108.598C130.275 108.824 130.813 109.088 131.341 109.371C131.864 109.668 132.378 109.975 132.874 110.324C133.859 111.017 134.788 111.819 135.599 112.748C136.415 113.672 137.117 114.728 137.598 115.921C138.065 117.114 138.282 118.486 138.009 119.802C137.745 121.113 137.056 122.254 136.226 123.164C135.392 124.084 134.411 124.81 133.378 125.404C132.859 125.701 132.327 125.96 131.784 126.191C131.242 126.427 130.686 126.625 130.12 126.795C129.554 126.969 128.983 127.111 128.403 127.219C127.823 127.332 127.239 127.417 126.649 127.464C125.47 127.568 124.263 127.53 123.08 127.318C120.703 126.913 118.468 125.828 116.544 124.362C114.63 122.876 112.998 121.018 111.748 118.92C110.494 116.826 109.598 114.497 109.202 112.059C108.782 109.626 108.952 107.099 109.593 104.75C110.23 102.393 111.352 100.214 112.786 98.3137C114.219 96.4134 115.95 94.7583 117.911 93.4615C119.868 92.1648 122.056 91.1934 124.386 90.7737C125.55 90.5663 126.748 90.5002 127.941 90.6276C128.54 90.6889 129.129 90.7973 129.709 90.9529C130.289 91.1038 130.855 91.2972 131.412 91.5235C133.623 92.4336 135.623 93.8199 137.32 95.5316C138.16 96.3992 138.947 97.3423 139.541 98.4552C139.834 99.0163 140.088 99.6246 140.173 100.332C140.201 100.69 140.182 101.082 140.032 101.464C139.876 101.841 139.626 102.124 139.362 102.345C139.098 102.567 138.815 102.727 138.527 102.859C138.24 102.991 137.947 103.095 137.655 103.175C137.066 103.34 136.471 103.421 135.873 103.449C135.274 103.477 134.675 103.444 134.081 103.354C133.487 103.265 132.897 103.114 132.327 102.892C131.756 102.671 131.2 102.369 130.709 101.959C130.209 101.558 129.794 101.039 129.488 100.473C128.87 99.3322 128.672 98.0591 128.658 96.8378C128.649 96.2248 128.7 95.6165 128.781 95.0176C128.861 94.4188 128.979 93.8246 129.134 93.2493C129.28 92.6693 129.46 92.0988 129.672 91.5424C129.875 90.9812 130.11 90.4342 130.365 89.9061C130.879 88.8404 131.497 87.8266 132.204 86.8882C132.562 86.4214 132.944 85.9781 133.35 85.5538C133.755 85.1294 134.217 84.7663 134.656 84.3843C136.509 82.9744 138.697 82.0549 140.96 81.7013C141.243 81.6588 141.526 81.6022 141.809 81.5692L142.667 81.4985C142.809 81.4891 142.95 81.4702 143.097 81.4655L143.526 81.4608L144.384 81.4561C145.525 81.5126 146.671 81.6164 147.793 81.8569C150.042 82.3143 152.221 83.1112 154.263 84.1769C152.188 83.1772 149.995 82.4557 147.755 82.0785C146.638 81.871 145.506 81.7956 144.379 81.7673L143.535 81.7956L143.115 81.8097C142.974 81.8191 142.837 81.838 142.696 81.8521L141.856 81.9417C141.578 81.9795 141.305 82.0408 141.026 82.0879C138.82 82.4887 136.726 83.4365 134.981 84.8276C133.246 86.2375 131.935 88.1661 130.987 90.2315C130.752 90.7502 130.535 91.2783 130.351 91.8206C130.162 92.3581 129.997 92.9098 129.865 93.4662C129.728 94.0227 129.625 94.5838 129.559 95.1497C129.493 95.7155 129.45 96.2861 129.469 96.8472C129.497 97.9695 129.709 99.1059 130.238 100.04C130.756 100.978 131.629 101.629 132.638 101.996C133.637 102.374 134.741 102.496 135.807 102.44C136.339 102.407 136.872 102.327 137.377 102.18C137.627 102.11 137.872 102.02 138.098 101.912C138.325 101.803 138.537 101.676 138.711 101.525C138.886 101.379 139.013 101.209 139.079 101.044C139.14 100.879 139.154 100.671 139.136 100.44C139.074 99.9735 138.876 99.469 138.617 98.9927C138.089 98.0308 137.353 97.1584 136.561 96.3615C134.958 94.7819 133.048 93.4993 131.001 92.6882C130.488 92.4854 129.969 92.311 129.441 92.1789C128.913 92.0375 128.38 91.9479 127.847 91.896C126.776 91.7923 125.687 91.8583 124.626 92.0563C122.495 92.4571 120.458 93.3767 118.628 94.6074C116.799 95.8381 115.181 97.4083 113.856 99.1955C112.536 100.987 111.494 103.01 110.914 105.179C110.334 107.344 110.183 109.631 110.57 111.861C110.937 114.092 111.772 116.246 112.937 118.185C114.101 120.127 115.62 121.844 117.374 123.202C119.137 124.55 121.16 125.531 123.292 125.899C125.409 126.281 127.63 126.045 129.714 125.427C130.238 125.272 130.747 125.088 131.247 124.876C131.747 124.664 132.237 124.428 132.704 124.159C133.642 123.626 134.514 122.975 135.227 122.193C135.939 121.415 136.486 120.495 136.684 119.495C136.891 118.5 136.75 117.439 136.363 116.435C135.967 115.435 135.363 114.497 134.637 113.662C133.916 112.823 133.072 112.083 132.171 111.437C130.36 110.149 128.276 109.249 126.135 108.947C125.065 108.791 123.99 108.829 122.943 109.032C121.891 109.23 120.892 109.645 119.944 110.168C118.996 110.692 118.124 111.371 117.322 112.13C116.516 112.889 115.79 113.738 115.134 114.648C113.823 116.468 112.786 118.519 112.064 120.684C111.697 121.764 111.423 122.876 111.244 124.003C111.197 124.286 111.173 124.569 111.14 124.852C111.107 125.135 111.069 125.418 111.065 125.706L111.022 126.564L111.041 127.422C111.112 129.718 111.649 132.001 112.512 134.146C112.951 135.217 113.451 136.268 114.026 137.277C114.601 138.286 115.238 139.258 115.917 140.201C117.28 142.082 118.826 143.822 120.496 145.435C122.165 147.043 123.947 148.533 125.862 149.816C129.667 152.381 134.005 154.107 138.485 154.97Z" fill="#6E7F32"/>
<path d="M88.0257 131.284C88.0257 131.284 88.8132 129.172 97.7961 129.54C97.7961 129.54 101.691 129.7 113.352 131.69C114.371 131.864 116.163 132.194 117.45 133.68C117.931 134.236 118.19 134.778 119.001 137.683C120.161 141.842 120.293 143.096 121.345 144.959C121.802 145.765 122.934 147.765 123.792 147.59C124.702 147.406 124.962 144.851 124.891 143.073C124.679 137.598 121.17 134.84 122.095 133.416C122.948 132.1 126.607 133.406 129.083 134.288C131.799 135.255 135.614 136.617 138.137 140.494C139.155 142.059 139.608 143.488 139.853 144.28C140.126 145.162 140.848 147.76 140.381 152.414C139.825 157.95 138.151 160.742 139.183 161.571C139.891 162.142 141.268 161.312 141.418 161.218C144.092 159.567 144.427 154.475 143.512 150.688C142.828 147.868 141.692 146.784 142.201 146.081C143.107 144.827 147.907 146.595 151.462 149.142C158.946 154.508 161.318 163.66 162.181 166.98C163.241 171.078 164.972 177.75 162.605 185.229C160.021 193.396 152.495 202.723 146.063 201.36C138.042 199.658 141.998 183.498 128.211 166.339C118.737 154.55 99.8897 141.059 96.5984 138.702C93.0099 136.136 88.0257 131.284 88.0257 131.284Z" fill="#6E7F32"/>
<path d="M147.162 201.344C144.937 205.013 132.729 203.207 127.306 200.349C122.628 197.888 121.015 194.912 120.487 193.785C120.27 193.323 118.615 189.796 119.827 188.414C120.902 187.193 123.203 188.792 125.538 187.221C126.165 186.802 127.301 185.811 127.084 185.085C126.693 183.779 122.388 184.996 117.102 183.84C115.423 183.473 109.746 182.147 105.464 177.102C104.978 176.527 101.159 171.906 101.154 165.988C101.154 165.073 101.149 162.017 102.663 161.31C103.285 161.018 103.672 161.352 105.657 161.683C107.873 162.05 109.599 162.338 110.302 161.414C110.722 160.862 110.712 159.966 110.439 159.315C109.887 158.005 108.255 157.651 105.756 157.038C101.192 155.92 98.8953 155.35 98.254 154.831C97.2874 154.058 97.0563 153.332 94.9768 146.381C93.1237 140.175 92.7889 139.02 91.9401 137.327C89.8606 133.178 87.4039 131.796 87.7009 131.296C88.3234 130.254 99.1264 135.564 110.047 143.604C116.418 148.295 125.5 154.421 133.36 165.766C140.914 176.659 149.19 198.001 147.162 201.344ZM112.976 152.907C113.197 151.502 110.316 149.672 106.544 148.819C102.771 147.965 99.5366 148.409 99.315 149.814C99.0934 151.219 101.974 153.049 105.747 153.902C109.519 154.756 112.754 154.312 112.976 152.907ZM117.771 164.587C112.811 163.654 108.581 164.601 108.326 166.709C108.067 168.817 111.877 171.283 116.838 172.217C121.798 173.15 126.028 172.203 126.283 170.095C126.542 167.987 122.732 165.521 117.771 164.587Z" fill="#ADBF45"/>
<path d="M98.2761 141.833C99.4879 142.149 100.653 142.479 101.836 142.701C103.01 142.922 104.194 143.087 105.382 143.144C106.566 143.205 107.749 143.158 108.905 142.936C109.485 142.837 110.055 142.677 110.626 142.507C111.196 142.338 111.772 142.107 112.38 142.045C111.819 142.262 111.319 142.606 110.772 142.87C110.23 143.153 109.659 143.38 109.074 143.568C107.891 143.931 106.646 144.073 105.401 144.049C105.09 144.045 104.779 144.035 104.467 144.002C104.156 143.979 103.845 143.96 103.538 143.913C102.921 143.823 102.298 143.7 101.695 143.512C100.483 143.153 99.3134 142.606 98.2761 141.833Z" fill="#6E7F32"/>
<path d="M107.533 171.803C108.438 172.425 109.358 173.015 110.301 173.543C111.244 174.071 112.21 174.547 113.191 174.981C115.162 175.82 117.171 176.608 119.184 177.31C121.203 178.004 123.24 178.617 125.296 179.017C127.361 179.39 129.455 179.663 131.544 179.791C133.633 179.918 135.721 179.909 137.801 179.781C139.876 179.663 141.955 179.357 144.044 179.197C148.213 178.805 152.4 178.4 156.611 178.348C154.527 178.579 152.447 178.819 150.377 179.116L144.153 179.942C142.073 180.196 140.008 180.493 137.895 180.654C135.788 180.823 133.661 180.828 131.539 180.715C129.412 180.597 127.295 180.333 125.178 179.932C123.056 179.508 120.99 178.857 118.963 178.093C117.949 177.716 116.945 177.301 115.95 176.872C114.955 176.433 113.969 175.999 112.988 175.5C112.012 175.005 111.065 174.443 110.154 173.816C109.244 173.199 108.363 172.534 107.533 171.803Z" fill="#6E7F32"/>
<path d="M113.39 134.235C114.097 135.003 114.616 135.947 115.092 136.88C115.569 137.819 115.984 138.776 116.403 139.733C117.224 141.695 117.766 143.741 118.233 145.778L118.568 147.306L118.733 148.07C118.784 148.334 118.832 148.603 118.865 148.862C119.016 149.914 119.096 150.956 119.138 151.993C119.218 154.073 119.185 156.157 118.874 158.189C118.827 156.119 118.676 154.063 118.459 152.012C118.341 150.989 118.223 149.966 118.044 148.966C118.002 148.716 117.945 148.471 117.893 148.226L117.719 147.466L117.365 145.953C116.889 143.939 116.398 141.93 115.691 140.011L114.64 137.074C114.281 136.107 113.913 135.145 113.39 134.235Z" fill="#ADBF45"/>
<mask id="mask0_100_15788" style="mask-type:luminance" maskUnits="userSpaceOnUse" x="42" y="39" width="283" height="286">
<path d="M99.3634 78.4385C62.2954 100.53 47.4937 115.219 43.7213 142.568C37.5064 187.615 67.1146 195.678 74.3716 220.844C81.4448 245.365 92.2903 275.072 115.518 300.054C125.364 310.645 165.582 330.803 215.014 322.688C218.338 322.141 287.848 309.579 314.038 248.656C318.357 238.607 334.055 202.091 316.867 168.965C304.678 145.468 278.465 128.54 254.152 123.697C236.686 120.217 227.873 124.504 216.9 116.152C204.437 106.67 208.7 95.7394 196.624 75.5998C192.88 69.3519 178.587 39.5268 153.242 39.291C103.136 38.8289 111.609 71.139 99.3634 78.4385Z" fill="white"/>
</mask>
<g mask="url(#mask0_100_15788)">
<path d="M144.727 334.122C149.678 386.779 195.191 352.724 195.639 347.853C196.389 339.776 197.153 331.698 197.902 323.621V323.569C198.072 321.763 198.242 319.952 198.412 318.146C199.656 361.787 246.811 376.877 250.71 336.847C251.663 327.053 251.564 310.516 248.277 289.33C245.142 269.143 239.846 252.88 235.659 241.935C235.258 240.893 234.867 239.912 234.494 238.969C211.11 239.639 187.722 240.304 164.338 240.973C159.599 251.508 153.153 267.993 148.975 288.981C144.929 309.38 143.906 325.37 144.727 334.122Z" fill="#75B7FF"/>
</g>
<mask id="mask1_100_15788" style="mask-type:luminance" maskUnits="userSpaceOnUse" x="42" y="39" width="283" height="286">
<path d="M99.3634 78.4385C62.2954 100.53 47.4937 115.219 43.7213 142.568C37.5064 187.615 67.1146 195.678 74.3716 220.844C81.4448 245.365 92.2903 275.072 115.518 300.054C125.364 310.645 165.582 330.803 215.014 322.688C218.338 322.141 287.848 309.579 314.038 248.656C318.357 238.607 334.055 202.091 316.867 168.965C304.678 145.468 278.465 128.54 254.152 123.697C236.686 120.217 227.873 124.504 216.9 116.152C204.437 106.67 208.7 95.7394 196.624 75.5998C192.88 69.3519 178.587 39.5268 153.242 39.291C103.136 38.8289 111.609 71.139 99.3634 78.4385Z" fill="white"/>
</mask>
<g mask="url(#mask1_100_15788)">
<path d="M189.447 282.421C192.234 286.995 195.987 287.933 198.015 288.084C198.142 287.344 198.26 286.594 198.387 285.849C198.378 285.877 198.368 285.915 198.364 285.953C198.236 286.552 198.104 287.118 197.977 287.674L197.571 250.002H191.79L188.523 252.101C188.518 252.101 185.448 275.843 189.447 282.421Z" fill="#288CF3"/>
</g>
<mask id="mask2_100_15788" style="mask-type:luminance" maskUnits="userSpaceOnUse" x="42" y="39" width="283" height="286">
<path d="M99.3634 78.4385C62.2954 100.53 47.4937 115.219 43.7213 142.568C37.5064 187.615 67.1146 195.678 74.3716 220.844C81.4448 245.365 92.2903 275.072 115.518 300.054C125.364 310.645 165.582 330.803 215.014 322.688C218.338 322.141 287.848 309.579 314.038 248.656C318.357 238.607 334.055 202.091 316.867 168.965C304.678 145.468 278.465 128.54 254.152 123.697C236.686 120.217 227.873 124.504 216.9 116.152C204.437 106.67 208.7 95.7394 196.624 75.5998C192.88 69.3519 178.587 39.5268 153.242 39.291C103.136 38.8289 111.609 71.139 99.3634 78.4385Z" fill="white"/>
</mask>
<g mask="url(#mask2_100_15788)">
<path d="M250.715 336.843C251.464 327.03 251.568 310.512 248.281 289.325C245.146 269.139 239.85 252.875 235.663 241.931C229.264 241.945 222.861 241.959 216.462 241.973C219.135 266.361 221.809 290.749 224.478 315.138C225.124 342.921 245.641 402.769 250.715 336.843Z" fill="#288CF3"/>
</g>
<path d="M73.7071 213.905C77.9039 217.956 83.9679 223.19 91.8804 228.113C104.895 236.204 123.073 247.498 137.87 241.655C149.498 237.067 154.978 223.496 162.763 198.802C163.885 195.246 165.054 191.46 166.299 187.442C169.888 175.847 172.128 165.827 173.547 158.56C169.11 148.266 167.869 145.215 163.432 134.917C151.172 136.332 145.339 141.08 142.213 146.706C136.705 156.594 135.3 164.407 129.09 181.557C126.69 188.197 124.209 193.681 122.186 197.783C121.588 198.99 121.026 200.084 120.527 201.037C115.835 198.344 110.256 195.609 103.858 193.275C93.8279 189.625 84.7507 188.065 77.437 187.447C76.7345 187.39 76.0366 187.338 75.367 187.301C76.4044 190.517 77.9935 196.864 76.7486 204.455C76.4232 206.464 75.947 208.256 75.4141 209.817C74.8719 211.411 74.273 212.773 73.7071 213.905Z" fill="#FDD23C"/>
<path d="M77.4381 187.444C83.6342 188.793 91.094 190.929 96.1819 194.093C106.405 200.445 118.561 215.086 122.923 215.039C127.285 214.992 114.082 199.624 117.213 201.808C120.344 203.991 126.639 212.233 132.439 210.875C135.4 210.187 129.086 203.84 122.188 197.781C121.589 198.988 121.028 200.082 120.528 201.034C115.836 198.342 110.257 195.607 103.859 193.273C93.8242 189.623 84.747 188.057 77.4381 187.444Z" fill="#EAB102"/>
<path d="M73.7081 213.909C77.9048 217.959 83.9689 223.193 91.8814 228.116C104.896 236.208 123.074 247.501 137.871 241.659C149.499 237.071 154.979 223.5 162.764 198.805C157.355 182.523 147.123 152.943 146.566 160.53C145.821 170.861 155.431 204.548 151.135 212.348C146.835 220.147 142.879 191.939 141.125 206.916C139.375 221.892 137.225 238.9 123.715 237.198C113.954 235.972 88.6796 219.091 75.4057 209.825C74.8728 211.414 74.2739 212.777 73.7081 213.909Z" fill="#EAB102"/>
<path d="M80.5268 187.76C80.5268 187.76 70.5442 181.63 70.2377 195.295C69.9312 208.961 72.6945 217.057 76.6224 215.166C80.5551 213.28 84.3039 197.28 80.5268 187.76Z" fill="#C79509"/>
<path d="M48.0458 197.798C48.9842 200.41 51.2334 201.683 54.2937 203.353C57.1041 204.885 62.3524 207.158 69.7415 206.96C71.3258 206.634 76.5977 205.324 79.5165 200.17C80.1767 199.01 81.5489 196.586 81.1999 193.469C80.8463 190.324 78.9224 188.098 77.4842 186.594C67.7987 176.418 54.0391 170.962 54.0391 170.962C51.5211 169.864 40.2984 164.974 38.7187 167.831C37.5775 169.901 41.5951 175.744 44.2216 179.591C47.23 184 47.9515 184.17 48.5173 186.396C49.7763 191.342 46.6359 193.87 48.0458 197.798Z" fill="#FFAC98"/>
<path d="M79.2575 188.65C77.4043 184.939 75.8482 181.968 74.8061 180.002C69.9964 170.948 68.7232 169.439 68.2187 165.686C67.733 162.069 68.3271 159.117 67.4312 158.825C66.5682 158.542 65.0074 160.937 64.1681 162.229C63.6258 163.064 63.2863 163.583 63.0175 164.257C61.7962 167.336 63.6683 169.609 63.6211 173.806C63.5928 176.564 62.777 176.112 62.48 179.356C62.3715 180.549 61.9754 185.599 65.0122 190.215C65.8515 191.489 68.0772 194.879 71.958 195.638C74.2308 196.086 78.2625 195.864 79.4602 193.007C80.1723 191.305 79.5687 189.437 79.2575 188.65Z" fill="#FFAC98"/>
<path d="M32.8018 154.749C42.143 169.833 51.4843 184.918 60.8303 200.012L66.0361 189.36C65.4137 188.379 64.7818 187.398 64.1547 186.422C56.61 174.62 49.0606 162.793 41.5159 150.991C41.167 150.439 40.818 149.901 40.4691 149.35C37.9133 151.146 35.3528 152.947 32.8018 154.749Z" fill="#2B373D"/>
<path d="M35.6729 155.743C43.8872 169.068 52.1109 182.389 60.3252 195.715L64.1494 186.412C56.6047 174.609 49.0553 162.783 41.5106 150.98C39.5585 152.564 37.6204 154.153 35.6729 155.743Z" fill="#75B7FF"/>
<path d="M33.7072 154.116C42.94 169.026 52.1728 183.937 61.4009 198.847L60.8256 200.026C51.4844 184.936 42.1384 169.847 32.7971 154.758C33.1036 154.541 33.4054 154.328 33.7072 154.116Z" fill="#288CF3"/>
<path d="M38.7003 167.861C40.379 167.856 47.339 168.007 49.9467 172.501C50.338 173.175 51.2339 174.712 50.753 175.948C50.3333 177.023 48.9847 177.561 47.3626 177.339C47.3626 177.339 55.0582 178.749 54.0208 182.201C52.9834 185.652 50.1305 185.247 50.1305 185.247C50.1305 185.247 56.2417 183.823 57.1895 187.878C58.1373 191.933 54.6432 192.749 54.6432 192.749C54.6432 192.749 58.3731 192.947 58.2081 196.196C58.043 199.44 49.8099 199.162 49.8099 199.162C47.6172 199.327 46.0376 197.497 46.0753 196.116C46.1036 195.022 47.1504 193.914 48.6405 193.701C45.0945 193.579 42.7273 190.849 42.7839 188.713C42.8358 186.746 44.9342 185.553 45.1463 185.435C44.8398 185.322 43.0527 184.615 42.119 182.512C41.3268 180.734 41.44 178.626 42.3972 176.999C39.0776 175.019 37.2291 171.973 37.6583 169.733C37.7478 169.261 37.9789 168.564 38.7003 167.861Z" fill="#FFAC98"/>
<path d="M39.1808 167.165C40.5907 167.151 42.0336 167.528 43.3917 167.872C44.5658 168.169 45.7305 168.509 46.8717 168.914C48.1826 169.376 49.4557 170.041 50.3658 171.121C51.5258 172.503 51.8087 174.111 51.0495 175.78C50.5827 176.808 49.1539 177.1 48.2155 177.52C48.0599 177.591 47.8289 177.77 47.6733 177.794C47.4517 177.831 47.7393 177.176 47.5224 177.218C47.5837 177.204 47.7204 177.27 47.7912 177.28C48.3146 177.369 48.8616 177.369 49.3897 177.397C50.479 177.454 51.6625 177.44 52.6481 177.963C53.8976 178.623 54.9539 179.661 55.1425 181.118C55.2463 181.92 55.1237 182.792 54.6898 183.485C54.4069 183.942 54.0344 184.173 53.5581 184.386C53.0064 184.631 52.4359 184.838 51.8747 185.051C51.6484 185.135 51.4173 185.22 51.1957 185.315C51.1344 185.343 51.0212 185.423 50.9552 185.432C50.9222 185.437 50.8656 185.451 50.8939 185.461C50.9081 185.466 50.7619 184.617 50.6959 184.673C50.7619 184.617 51.1769 184.654 51.2759 184.65C51.5682 184.621 51.8606 184.584 52.1482 184.551C52.7329 184.475 53.3129 184.39 53.9024 184.357C54.8077 184.306 55.6801 184.711 56.4251 185.201C57.8115 186.112 58.5659 187.554 58.3443 189.228C58.1793 190.464 57.5663 192.034 56.312 192.51C55.7508 192.723 55.1567 192.826 54.5767 192.968C54.4682 192.996 54.3503 193.043 54.2419 193.053C53.9967 193.076 54.1287 193.279 54.1146 192.68C54.1004 192.171 54.0391 192.265 54.3645 192.369C55.4255 192.713 56.51 192.982 57.5144 193.482C58.7168 194.081 59.3487 195.01 59.1506 196.405C58.9337 197.924 57.1843 198.824 55.8923 199.329C53.5723 200.23 50.5025 200.437 48.126 199.64C47.5035 199.433 46.8434 199.178 46.353 198.73C45.8484 198.268 46.5982 197.518 47.1027 197.98C47.5931 198.428 48.3853 198.636 49.0125 198.801C49.5877 198.952 50.163 199.008 50.7572 199.022C51.8936 199.051 53.0394 198.989 54.1523 198.744C54.8596 198.589 55.5575 198.372 56.2035 198.046C56.7976 197.749 57.6558 197.292 57.9859 196.684C58.2641 196.174 58.2076 195.316 57.7784 194.911C57.4154 194.562 56.8966 194.345 56.4393 194.161C55.5763 193.817 54.6568 193.642 53.7986 193.298C53.4544 193.161 53.1479 192.878 53.3224 192.473C53.4921 192.077 54.0391 192.011 54.4069 191.926C54.9445 191.798 55.5197 191.713 56.029 191.497C56.5288 191.284 56.8259 190.638 57.0146 190.162C57.6558 188.564 57.2456 186.97 55.765 186.05C55.0058 185.579 54.4164 185.381 53.577 185.456C52.997 185.508 52.417 185.593 51.837 185.664C51.4315 185.711 50.9788 185.805 50.5686 185.739C50.1489 185.673 49.7999 185.296 50.0451 184.857C50.2196 184.546 50.6487 184.419 50.9552 184.291C51.4786 184.079 52.0115 183.891 52.5349 183.688C52.8838 183.551 53.412 183.386 53.6572 183.131C54.1759 182.589 54.1994 181.566 54.0108 180.892C53.8128 180.17 53.2658 179.614 52.6528 179.213C51.7663 178.633 50.8892 178.557 49.8471 178.496C49.286 178.463 48.7201 178.449 48.159 178.397C47.7912 178.364 47.3196 178.359 46.9943 178.152C45.9474 177.492 47.3951 176.733 47.9374 176.501C48.4749 176.275 49.0266 176.072 49.5406 175.799C50.1536 175.474 50.3092 174.96 50.4035 174.266C50.6204 172.677 49.3661 171.366 48.0835 170.626C47.1499 170.088 46.0936 169.773 45.0656 169.457C43.7217 169.046 42.3543 168.693 40.9727 168.438C40.3785 168.33 39.7797 168.235 39.1761 168.24C38.4971 168.231 38.4971 167.17 39.1808 167.165Z" fill="#D0644F"/>
<path d="M152.313 189.859C153.936 195.471 157.524 199.422 160.33 201.888C160.481 202.459 160.622 203.039 160.759 203.633C162.122 209.197 163.366 215.318 164.338 221.934C164.979 226.295 165.441 230.483 165.771 234.472C166.073 238.15 166.252 241.658 166.342 244.987C175.693 246.449 186.279 247.595 197.912 247.996C210.299 248.416 221.583 247.925 231.485 246.991C232.971 234.392 234.895 221.141 237.347 207.344C237.837 204.6 238.351 201.822 238.879 199.036C239.964 193.353 241.105 187.789 242.279 182.338C244.033 174.232 245.886 166.391 247.81 158.818C249.022 154.027 250.267 149.335 251.531 144.766C249.074 141.701 245.858 138.673 241.671 136.358C241.279 136.146 240.897 135.938 240.506 135.745C226.775 134.321 211.313 133.458 194.403 133.741C186.024 133.883 178.008 134.283 170.402 134.882C165.79 135.245 161.329 135.684 157.034 136.174C158.585 147.642 157.585 156.601 156.322 162.802C155.02 169.187 153.134 174.086 152.153 178.698C151.37 182.395 151.172 185.913 152.313 189.859Z" fill="#FDD23C"/>
<path d="M210.559 92.0085C210.559 92.0085 222.819 81.097 236.786 94.8189C250.753 108.546 235.966 129.256 208.267 107.607C203.901 106.923 200.921 102.76 201.638 98.4969C202.34 94.3568 206.306 91.4238 210.559 92.0085Z" fill="#2B373D"/>
<path d="M240.365 103.538C240.422 106.382 240.309 109.211 239.814 111.927C239.347 114.62 238.456 117.284 236.829 119.104C235.197 120.91 232.811 121.532 230.279 121.188C229.02 121.018 227.752 120.773 226.478 120.302C225.205 119.849 223.918 119.439 222.701 118.816C217.713 116.647 213.176 113.422 208.956 109.815C204.736 106.184 200.827 102.133 197.149 97.7949C199.723 102.892 203.198 107.542 207.244 111.649C209.22 113.761 211.507 115.567 213.799 117.355C216.204 118.995 218.684 120.58 221.4 121.754C222.725 122.395 224.149 122.834 225.55 123.296C226.945 123.767 228.468 124.098 230.024 124.211C231.576 124.333 233.236 124.178 234.801 123.612C236.376 123.06 237.796 122.004 238.757 120.698C240.728 118.071 241.238 114.973 241.379 112.087C241.45 109.169 241.125 106.292 240.365 103.538Z" fill="#2B373D"/>
<path d="M181.97 103.331L181.998 109.527L182.069 125.484L182.154 145.963C182.154 145.963 208.23 143.119 211.809 134.594L207.032 97.6484L181.97 103.331Z" fill="#FFAC98"/>
<path d="M181.997 109.522C181.988 116.459 181.978 123.391 181.969 130.327C186.005 129.091 188.759 127.37 190.494 126.064C197.459 120.83 201.717 112.064 201.863 111.852L181.997 109.522Z" fill="#D0644F"/>
<path d="M166.339 107.597C168.131 111.676 169.692 115.128 173.445 117.547C173.728 117.731 174.03 117.915 174.341 118.07C174.596 118.212 174.836 118.339 175.096 118.467C180.452 120.994 186.408 119.787 190.501 118.962C192.019 118.65 192.929 118.523 194.137 118.094C203.119 114.939 206.868 105.221 207.552 103.33C208.42 100.916 208.363 99.9632 207.552 83.4356C206.812 68.5019 206.529 62.3765 201.87 59.2785C201.172 58.8258 200.521 58.5665 199.196 58.0431C192.731 55.459 185.125 55.426 179.132 58.227C178.236 58.6231 177.354 59.137 176.548 59.6463C176.053 59.9575 175.581 60.2876 175.143 60.6271C174.261 61.2543 173.521 61.8626 172.997 62.3341C172.927 62.4048 172.87 62.4473 172.828 62.4897C172.771 62.5321 172.729 62.5746 172.686 62.617C172.545 62.7443 172.431 62.8434 172.347 62.9282L172.219 63.0556C172.177 63.0839 172.149 63.1121 172.12 63.1404C168.768 66.4365 167.174 69.775 166.349 71.5528C162.204 80.4649 160.638 94.5782 166.339 107.597Z" fill="#FFAC98"/>
<path d="M166.337 107.599C168.129 111.678 169.69 115.13 173.443 117.549C173.726 117.733 174.028 117.917 174.339 118.072C174.594 118.214 174.835 118.341 175.094 118.468C180.451 120.996 186.406 119.789 190.499 118.963C193.116 117.558 196.243 114.701 199.025 104.751C200.859 98.2296 202.877 87.4973 201.071 73.3605C200.717 70.5453 199.251 67.9754 197.077 66.1411C189.292 59.5773 181.87 56.9743 179.13 58.2239C178.234 58.62 177.353 59.134 176.546 59.6433C176.051 59.9828 175.58 60.3129 175.141 60.6241C174.174 61.3361 173.406 61.9868 172.996 62.3311C172.925 62.4018 172.868 62.4442 172.826 62.4867C172.741 62.5716 172.684 62.614 172.684 62.614C172.543 62.7413 172.43 62.8403 172.345 62.9252L172.217 63.0525C172.175 63.0808 172.147 63.1091 172.118 63.1374C168.766 66.4335 167.172 69.772 166.347 71.5497C162.202 80.4666 160.636 94.5799 166.337 107.599Z" fill="#FFAC98"/>
<path d="M207.537 82.3863C205.74 81.4998 202.977 80.0097 199.917 77.7463C189.133 69.7631 187.487 61.7751 181.216 60.6953C178.707 60.2615 174.84 60.8603 169.394 66.2878C170.563 63.6755 173.232 58.6677 178.547 55.0085C186.492 49.5386 197.951 48.7464 206.599 55.0085C215.709 61.6101 217.02 72.6631 217.284 74.9029C219.071 90.0158 209.202 100.588 207.933 101.903C207.801 95.3961 207.669 88.8936 207.537 82.3863Z" fill="#2B373D"/>
<path d="M205.693 83.509C205.693 83.509 212.158 78.8878 215.803 81.2644C217.029 82.0613 217.458 83.2968 217.533 83.509C218.759 86.9795 215.242 90.9499 213.091 93.3783C211.7 94.9486 209.423 97.1413 205.985 99.0604C205.891 93.8782 205.792 88.6959 205.693 83.509Z" fill="#FFAC98"/>
<path d="M207.41 86.2663C207.41 86.2663 213.088 81.7536 214.512 84.0076C215.936 86.2663 208.829 94.7918 208.829 94.7918C208.829 94.7918 210.254 87.6856 207.41 86.2663Z" fill="#D0644F"/>
<path d="M218.915 86.2679C221.066 83.5141 224.531 82.4013 227.441 83.4245C230.355 84.4525 231.51 87.211 231.704 87.6873C230.553 87.1591 229.124 86.6263 227.441 86.2679C223.89 85.5087 220.849 85.8671 218.915 86.2679Z" fill="#2B373D"/>
<path d="M179.126 57.8612C177.4 55.9939 173.171 51.9858 167.757 52.1791C159.09 52.4809 151.796 63.3924 152.126 72.0735C152.366 78.411 155.931 80.8914 156.676 89.3272C156.912 92.0245 156.53 95.1744 154.969 99.074C154.969 99.074 166.338 94.8113 162.075 79.1796C161.41 76.7465 161.453 74.6198 162 72.762C164.551 64.0761 182.682 64.26 182.667 60.6339C182.663 59.9501 182.031 58.9976 179.126 57.8612Z" fill="#2B373D"/>
<path d="M206.382 92.7881C207.249 93.5238 209.796 91.7602 210.701 91.1377C212.771 89.709 213.224 88.45 213.318 88.167C213.488 87.6578 213.804 86.71 213.318 85.8565C212.846 85.0313 211.823 84.654 211.007 84.7012C209.536 84.7861 208.621 86.2573 207.843 87.5069C206.943 88.9545 205.467 92.0195 206.382 92.7881Z" fill="#2B373D"/>
<path d="M190.849 101.783C200.318 101.496 208.584 91.3999 208.928 90.9708L208.028 90.2446C207.947 90.3437 199.747 100.359 190.812 100.628L190.849 101.783Z" fill="#2B373D"/>
<path d="M190.778 103.2C189.181 103.2 187.887 102.166 187.887 100.89C187.887 99.6136 189.181 98.5791 190.778 98.5791C192.374 98.5791 193.668 99.6136 193.668 100.89C193.668 102.166 192.374 103.2 190.778 103.2Z" fill="#2B373D"/>
<path d="M213.312 87.0117C212.841 86.1865 211.817 85.8093 211.002 85.8565C209.53 85.9413 208.616 87.4126 207.838 88.6621C207.253 89.6052 206.432 91.2273 206.178 92.4628C205.782 91.3782 207.031 88.7989 207.838 87.5069C208.616 86.2573 209.526 84.7861 211.002 84.7012C211.817 84.654 212.841 85.0313 213.312 85.8565C213.628 86.4129 213.605 87.0118 213.501 87.5022C213.463 87.3371 213.407 87.1721 213.312 87.0117Z" fill="#CE3A24"/>
<path d="M192.878 146.841C192.189 143.05 191.501 139.263 190.812 135.472C197.97 132.369 205.128 129.271 212.282 126.168C214.083 128.927 215.884 131.681 217.686 134.439C215.201 136.75 211.593 139.631 206.769 142.125C201.38 144.912 196.428 146.2 192.878 146.841Z" fill="white"/>
<path d="M152.315 189.861C153.937 195.473 157.525 199.424 160.331 201.89C160.482 202.461 165.65 213.066 165.787 213.655C192.245 214.938 220.042 206.512 237.353 207.342C237.843 204.597 238.357 201.82 238.885 199.033C239.97 193.351 241.111 187.787 242.285 182.336C210.192 184.863 169.394 180.751 152.155 178.695C151.372 182.397 151.174 185.915 152.315 189.861Z" fill="#EAB102"/>
<path d="M165.777 234.477C166.079 238.155 166.258 241.663 166.348 244.992C175.698 246.454 186.284 247.6 197.917 248.001C210.305 248.421 221.589 247.93 231.491 246.997C233.274 231.893 235.679 215.856 238.89 199.041C241.587 184.918 244.6 171.488 247.821 158.823C245.279 161.826 241.295 166.919 237.508 173.837C222.645 200.998 230.35 220.661 218.467 226.956C209.31 231.808 193.584 226.036 186.398 231.968C185.704 232.544 183.568 234.482 181.385 233.973C178.815 233.374 178.631 229.955 176.373 228.96C174.595 228.173 171.506 228.885 165.777 234.477Z" fill="#EAB102"/>
<path d="M198.418 326.174C198.409 326.273 198.399 326.362 198.39 326.466C198.409 326.273 198.418 326.174 198.418 326.174Z" fill="url(#paint0_linear_100_15788)"/>
<path d="M198.418 326.174C198.409 326.273 198.399 326.362 198.39 326.466C198.409 326.273 198.418 326.174 198.418 326.174Z" fill="url(#paint1_linear_100_15788)"/>
<path d="M258.797 154.442C262.806 170.008 264.56 182.891 265.39 192.123C265.856 197.296 265.904 201.8 265.993 210.811C265.993 210.811 266.149 226.046 263.183 232.436C262.193 234.572 260.891 237.109 260.891 237.109C260.405 239.004 259.561 240.136 258.944 240.782C256.803 243.027 253.691 243.371 248.447 243.88C245.736 244.144 243.977 244.144 243.977 244.144C240.968 244.144 229.444 244.154 222.413 243.253C213.279 242.083 195.017 237.241 173.712 225.702L172.015 207.194C172.317 207.227 172.623 207.255 172.925 207.288C193.38 209.448 213.831 211.608 234.291 213.763C234.273 213.192 234.254 212.631 234.23 212.065C234.211 211.476 234.192 210.886 234.174 210.301C233.886 201.889 233.594 193.467 233.296 185.055C232.9 173.521 232.495 161.982 232.099 150.444C236.706 145.596 243.458 143.734 249.357 145.705C255.643 147.813 258.312 153.377 258.797 154.442Z" fill="#FFAC98"/>
<path d="M250.141 220.117C250.141 220.117 189.642 218.986 172.926 207.306C193.381 209.465 213.832 211.625 234.292 213.78C234.273 213.209 234.254 212.648 234.231 212.082C234.212 211.493 234.193 210.904 234.174 210.319C239.13 211.696 249.15 215.077 250.141 220.117Z" fill="url(#paint2_linear_100_15788)"/>
<path d="M151.268 215.125C154.314 217.398 156.238 220.062 156.441 222.274C156.488 222.821 156.436 223.335 156.271 223.806C156.167 224.113 155.87 224.971 155.121 225.268C154.163 225.655 152.914 224.938 151.707 223.849C151.744 223.924 151.777 224 151.801 224.071C152.338 225.353 152.296 226.117 152.112 226.683C152.098 226.744 151.716 227.833 150.962 228.145C150.896 228.178 150.82 228.192 150.745 228.211C149.764 228.395 148.387 227.277 145.473 224.292C145.473 224.292 138.225 216.87 139.013 214.46C139.178 213.97 139.413 213.352 139.413 213.352C140.05 211.674 140.206 211.575 140.21 211.141C140.215 210.9 140.163 210.721 140.149 210.683C139.362 207.953 139.946 206.671 139.946 206.671C140.446 205.562 141.512 205.916 141.851 204.855C142.064 204.176 141.691 203.874 141.54 202.243C141.46 201.389 141.403 200.781 141.587 200.385C142.346 198.697 147.972 199.734 148.698 199.871C148.726 202.846 149.028 206.383 149.905 210.259C150.292 212.018 150.764 213.64 151.268 215.125Z" fill="#FFAC98"/>
<path d="M146.929 199.568C145.976 199.521 145.024 199.516 144.071 199.549C143.468 199.573 142.543 199.53 142.081 199.912C141.558 200.346 141.539 201.006 141.577 201.643C141.624 202.473 141.85 203.251 141.987 204.062C142.086 204.661 142.157 205.226 141.539 205.514C141.27 205.641 140.997 205.75 140.742 205.91C140.327 206.179 140.247 206.566 140.101 207.023C139.799 207.985 139.969 208.791 140.266 209.72C140.478 210.39 140.492 210.984 140.304 211.658C140.002 212.729 139.469 213.7 139.837 214.803C140.29 216.176 141.176 217.435 141.982 218.618C142.902 219.967 143.883 221.268 144.816 222.607C145.646 223.791 146.372 225.026 147.334 226.116C147.895 226.752 148.527 227.464 149.301 227.856C149.664 228.04 150.022 228.082 150.324 227.766C150.593 227.483 150.904 227.016 151.05 226.653C151.305 226.021 151.027 225.206 150.753 224.63C150.319 223.711 149.635 222.923 148.787 222.358C148.221 221.98 148.754 221.061 149.324 221.443C150.8 222.428 152.069 224.093 152.187 225.918C152.238 226.733 151.908 227.328 151.47 227.988C150.956 228.766 150.258 229.261 149.291 228.987C148.541 228.775 147.895 228.2 147.348 227.672C146.679 227.021 146.085 226.3 145.528 225.55C144.566 224.253 143.718 222.867 142.775 221.556C141.681 220.033 140.554 218.514 139.639 216.873C139.045 215.808 138.38 214.53 138.715 213.285C138.908 212.568 139.181 211.87 139.351 211.149C139.544 210.319 139.026 209.517 138.913 208.706C138.776 207.73 138.969 206.476 139.507 205.637C139.714 205.311 140.054 205.075 140.384 204.892C140.431 204.868 141.185 204.491 141.2 204.51C141.134 204.58 141.068 204.651 141.002 204.727C141.002 204.665 140.997 204.604 140.992 204.543C140.959 204.444 140.964 204.316 140.945 204.208C140.907 203.991 140.851 203.783 140.799 203.567C140.676 203.034 140.596 202.482 140.544 201.935C140.45 200.968 140.511 199.988 141.233 199.271C141.728 198.776 142.345 198.63 143.029 198.554C144.316 198.408 145.642 198.446 146.938 198.507C147.608 198.54 147.613 199.601 146.929 199.568Z" fill="#D0644F"/>
<path d="M156.441 222.261C156.488 222.808 156.436 223.322 156.271 223.794C156.167 224.1 155.87 224.958 155.121 225.256C154.163 225.642 152.914 224.925 151.707 223.836C151.744 223.912 151.777 223.987 151.801 224.058C152.338 225.34 152.296 226.104 152.112 226.67C152.098 226.731 151.716 227.821 150.962 228.132C150.896 228.165 150.82 228.179 150.745 228.198C150.664 227.854 150.514 227.293 150.254 226.628C149.537 224.784 148.486 223.431 145.209 219.809C143.539 217.961 142.908 217.315 143.04 217.15C143.242 216.895 144.822 218.362 147.821 219.498C149.943 220.304 150.797 220.196 153.942 221.299C155.022 221.677 155.894 222.03 156.441 222.261Z" fill="#D0644F"/>
<path d="M172.657 207.826C172.751 208.165 172.85 208.528 172.949 208.891C173.652 211.612 174.236 215.05 174.25 219.025C174.255 221.524 174.034 223.769 173.718 225.711C171.907 225.985 169.238 226.197 166.093 225.721C165.202 225.579 163.042 224.985 158.888 223.49C151.178 220.727 149.589 218.869 148.971 218.039C146.283 214.456 146.505 209.759 147.24 206.251C147.688 204.072 148.344 202.361 148.622 201.658C148.58 201.648 148.542 201.648 148.509 201.648C145.727 201.267 143.473 201.158 141.94 201.125C141.771 201.12 141.587 201.116 141.384 201.12C139.917 201.092 137.593 201.073 134.499 200.946C131.911 200.837 129.76 200.701 128.761 199.22C128.676 199.097 128.605 198.97 128.549 198.852C128.454 198.654 128.407 198.489 128.369 198.348C128.369 198.348 128.332 197.739 129.011 197.089C129.416 196.697 136.07 196.07 142.374 195.556C146.17 195.24 149.843 194.976 151.951 194.825C152.031 194.816 152.102 194.816 152.187 194.816C152.187 194.816 152.239 194.811 152.295 194.811C155.761 194.792 159.769 197.923 159.769 197.923C162.566 200.125 167.069 203.45 172.657 207.826Z" fill="#FFAC98"/>
<path d="M172.657 207.821C172.752 208.16 172.851 208.524 172.95 208.887C165.231 208.599 158.808 207.962 154.06 207.368C151.24 207.019 149 206.675 147.237 206.246C147.684 204.068 148.34 202.356 148.618 201.653C148.576 201.644 148.538 201.644 148.505 201.644C145.723 201.262 143.469 201.153 141.936 201.12C141.767 201.116 141.583 201.111 141.38 201.116C141.229 199.366 141.842 197.579 142.422 196.296C142.398 196.051 142.38 195.801 142.37 195.556C146.166 195.24 149.839 194.976 151.947 194.825C152.027 194.816 152.098 194.816 152.183 194.816C152.183 194.816 152.235 194.811 152.291 194.811C155.757 194.792 159.765 197.923 159.765 197.923C162.566 200.121 167.07 203.445 172.657 207.821Z" fill="#FFAC98"/>
<path d="M174.608 208.032C172.609 207.49 170.614 206.693 168.898 205.519C167.483 204.548 166.215 203.364 164.904 202.261C163.339 200.945 161.754 199.658 160.08 198.479C158.849 197.616 157.59 196.786 156.294 196.027C155.138 195.353 153.818 194.716 152.451 194.744C151.314 194.768 150.357 195.301 149.272 195.522C147.848 195.815 146.335 195.881 144.887 196.027C142.746 196.239 140.596 196.395 138.441 196.456C136.47 196.513 134.48 196.409 132.519 196.574C131.448 196.663 130.114 196.762 129.171 197.338C128.586 197.691 128.312 198.611 128.723 199.101C129.1 199.554 129.793 199.71 130.345 199.827C131.297 200.03 132.283 200.087 133.249 200.139C136.314 200.308 139.384 200.36 142.449 200.62C143.124 200.676 143.133 201.737 142.449 201.681C139.535 201.435 136.616 201.365 133.697 201.223C132.066 201.143 130.114 201.167 128.638 200.36C128.11 200.073 127.657 199.606 127.506 199.012C127.275 198.097 127.756 196.97 128.548 196.47C129.472 195.885 130.68 195.72 131.74 195.588C133.023 195.428 134.306 195.433 135.598 195.433C137.512 195.428 139.427 195.381 141.336 195.258C142.581 195.178 143.826 195.07 145.071 194.942C145.802 194.867 146.537 194.787 147.268 194.707C147.971 194.626 148.707 194.603 149.381 194.391C150.612 193.999 151.814 193.565 153.13 193.716C154.502 193.872 155.789 194.499 156.963 195.192C159.114 196.465 161.188 197.894 163.145 199.45C165.027 200.945 166.795 202.586 168.695 204.062C170.515 205.481 172.67 206.41 174.891 207.009C175.552 207.188 175.269 208.211 174.608 208.032Z" fill="#D0644F"/>
<path d="M188.669 247.614C188.391 249.476 189.278 251.146 190.65 251.348C192.017 251.551 193.352 250.207 193.63 248.345C193.908 246.482 193.022 244.813 191.65 244.61C190.277 244.407 188.948 245.751 188.669 247.614Z" fill="#288CF3"/>
<path d="M239.27 251.923C237.936 247.656 235.889 243.459 234.555 239.192C211.836 239.116 187.061 239.824 164.342 239.753C164.007 243.836 161.465 246.736 159.579 251.452C168.638 253.362 183.232 255.493 195.501 255.913C211.562 256.46 228.255 253.998 239.27 251.923Z" fill="#288CF3"/>
<path d="M210.436 257.705C215.288 262.062 221.828 264.321 228.34 263.807C229.802 263.689 231.254 263.444 232.674 263.072C233.334 262.897 233.056 261.874 232.391 262.048C226.181 263.694 219.461 262.638 214.057 259.153C213.043 258.498 212.081 257.767 211.181 256.956C210.681 256.503 209.926 257.248 210.436 257.705Z" fill="#75B7FF"/>
<path d="M164.214 259.755C162.267 261.952 159.48 263.282 156.509 263.023C155.835 262.966 155.661 264.013 156.34 264.07C159.697 264.362 162.823 262.914 165.03 260.424C165.488 259.92 164.662 259.246 164.214 259.755Z" fill="#288CF3"/>
<path d="M222.927 153.324C222.399 154.173 222.296 155.215 222.644 156.153L224.578 161.35L227.266 168.555C227.266 168.564 227.266 168.564 227.275 168.564L232.278 176.873L233.49 203.284C233.844 205.255 232.339 207.066 230.335 207.085L179.876 207.481C177.862 207.495 176.419 209.339 176.778 211.319C177.867 217.312 173.019 227.172 176.165 228.743C203.731 242.526 229.619 246.482 245.118 246.935C253.644 247.185 261.783 243.294 266.856 236.438C270.841 231.049 274.415 225.348 274.717 224.027C277.075 213.653 274.354 191.33 272.534 185.29C267.356 168.093 263.376 157.37 259.816 150.481C258.732 148.378 257.69 146.628 256.662 145.166C253.978 141.342 251.413 139.437 248.556 138.112C247.971 137.843 247.396 137.603 246.811 137.395C242.44 135.773 238.22 135.703 235.239 135.948C234.216 136.033 233.297 136.594 232.754 137.466L222.927 153.324Z" fill="#FDD23C"/>
<path d="M255.856 234.412C264.782 229.866 269.177 221.728 271.417 217.436C273.18 214.06 274.463 210.698 275.382 207.435C275.665 213.504 275.529 219.445 274.6 223.534C274.298 224.854 270.724 230.555 266.739 235.945C261.665 242.801 253.526 246.691 245.001 246.441C229.506 245.988 203.614 242.032 176.047 228.249C174.67 227.56 174.826 225.283 175.345 222.44C186.402 229.263 203.491 231.743 225.206 234.884C247.604 238.123 253.295 235.718 255.856 234.412Z" fill="#EAB102"/>
<path d="M231.924 187.775L232.457 205.708C236.041 209.546 242.883 215.073 252.451 213.012C253.582 212.776 254.69 212.437 255.747 212.036C254.516 211.385 246.151 206.849 243.123 200.361C241.893 197.725 241.784 195.282 241.765 194.773C241.728 193.693 241.614 190.331 243.171 187.115C245.208 182.918 248.834 181.579 248.744 180.957C248.673 180.461 246.372 181.197 244.194 182.385C241.912 183.63 241.256 184.569 238.997 185.62C237.272 186.422 235.744 187.134 235.371 186.356C234.881 185.332 236.814 182.645 239.214 177.533C242.029 171.53 243.727 165.943 243.435 165.787C243.251 165.688 242.378 167.801 239.969 171.686C238.073 174.746 237.715 174.888 236.828 176.68C235.579 179.207 235.748 180.212 234.555 183.003C233.641 185.153 232.627 186.766 231.924 187.775Z" fill="#EAB102"/>
<path d="M185.715 137.619C186.134 140.604 186.559 143.593 186.979 146.578C186.304 146.686 183.385 147.078 180.65 145.456C176.803 143.183 176.845 139.029 176.855 138.736C177.977 137.223 179.099 135.709 180.221 134.195L185.715 137.619Z" fill="#F4D6BC"/>
<path d="M185.723 136.705C184.662 139.784 182.38 141.92 181.319 144.999C180.88 144.981 178.15 144.82 176.255 142.76C174.029 140.341 174.901 137.431 174.991 137.158C177.103 134.545 179.211 131.933 181.319 129.316C182.38 131.466 184.667 134.555 185.723 136.705Z" fill="white"/>
<path d="M171.641 103.66C171.622 103.132 172.641 101.986 173.395 102.009C174.244 102.033 174.664 102.886 175.498 102.745C175.597 102.726 175.588 102.717 176.201 102.424C177.012 102.038 177.417 101.844 177.601 101.783C178.677 101.429 180.209 101.915 180.879 101.915C181.35 101.915 183.208 101 183.236 101.444C183.283 102.198 179.912 104.593 179.525 104.716C178.992 104.881 177.201 105.367 174.796 104.763C174.164 104.603 171.669 104.523 171.641 103.66Z" fill="#FB6044"/>
<path d="M175.334 87.6653C174.98 88.3962 174.57 89.0894 174.084 89.7401C173.646 90.3295 173.099 90.8058 172.58 91.3292C171.755 92.1638 170.849 93.3333 171.062 94.5829C171.264 95.7759 172.16 96.9123 173.339 97.2046C174.542 97.5017 175.801 97.3838 176.965 96.9924C177.517 96.8085 177.319 95.9173 176.758 96.1012C175.801 96.4219 174.759 96.5728 173.759 96.3653C173.136 96.2333 172.754 95.988 172.406 95.4505C172.146 95.0497 171.887 94.5498 171.943 94.0547C172.066 92.9277 173.151 92.0554 173.9 91.3151C174.82 90.4003 175.537 89.3204 176.098 88.1604C176.357 87.637 175.588 87.1372 175.334 87.6653Z" fill="#D0644F"/>
<path d="M187.103 87.6522C186.023 87.5978 185.207 86.3857 185.28 84.9448C185.352 83.5039 186.286 82.3799 187.365 82.4343C188.445 82.4886 189.261 83.7008 189.188 85.1417C189.116 86.5826 188.182 87.7065 187.103 87.6522Z" fill="#2B373D"/>
<path d="M169.864 84.9447C169.826 86.3876 168.921 87.5335 167.841 87.5052C166.761 87.4769 165.912 86.2886 165.95 84.8457C165.988 83.4027 166.893 82.2569 167.973 82.2852C169.053 82.3135 169.897 83.5018 169.864 84.9447Z" fill="#2B373D"/>
<path d="M164.729 82.9323C166.087 82.5786 167.45 82.8286 168.643 83.6302C168.855 83.7717 169.142 83.55 169.232 83.2624C169.336 82.9276 169.213 82.6211 169.001 82.4796C167.676 81.5931 166.12 81.3385 164.616 81.7346C164.045 81.8855 164.158 83.0832 164.729 82.9323Z" fill="#2B373D"/>
<path d="M184.1 82.9882C185.468 82.6675 186.821 82.9552 187.995 83.7851C188.203 83.9313 188.5 83.7191 188.594 83.4314C188.707 83.0966 188.59 82.7901 188.382 82.6439C187.076 81.7244 185.534 81.4321 184.016 81.7857C183.44 81.9225 183.52 83.1249 184.1 82.9882Z" fill="#2B373D"/>
<path d="M180.46 112.501C179.079 113.52 177.339 113.874 175.594 113.463C175.033 113.331 175.099 112.36 175.66 112.492C177.169 112.85 178.682 112.567 179.88 111.686C180.328 111.36 180.908 112.176 180.46 112.501Z" fill="#FB6044"/>
<path d="M184.18 100.493C183.784 101.554 181.436 103.44 178.205 104.209C174.542 105.081 170.835 103.374 170.736 103.647C170.661 103.864 173.184 104.209 174.226 105.925C174.707 106.717 175.008 108.033 174.48 109.018C174.311 109.339 173.726 110.225 173.726 110.225C173.726 110.225 177.465 110.73 180.167 109.518C182.355 108.537 183.256 106.708 183.487 106.236C184.303 104.576 184.246 100.314 184.18 100.493Z" fill="#894038"/>
<path d="M184.322 101.106C182.204 103.186 179.352 104.506 176.456 105.072C174.424 105.468 172.203 105.228 170.477 104.02C169.921 103.634 170.454 102.709 171.015 103.106C172.543 104.176 174.481 104.398 176.287 104.03C178.974 103.483 181.606 102.295 183.577 100.356C184.058 99.8755 184.807 100.625 184.322 101.106Z" fill="#FB6044"/>
<path d="M183.694 105.54C183.642 105.701 183.581 105.851 183.519 105.983C183.288 106.455 182.388 108.285 180.2 109.265C180.03 109.341 179.86 109.412 179.686 109.473C179.766 108.36 180.577 106.615 181.822 105.686C182.128 105.455 182.699 105.045 183.236 105.215C183.416 105.267 183.567 105.385 183.694 105.54Z" fill="#FB6044"/>
<path d="M164.418 79.1224C165.172 77.6229 166.492 76.4393 168.1 75.9159C168.949 75.6377 169.873 75.5481 170.76 75.6471C171.076 75.6801 171.387 75.7367 171.698 75.8121C171.816 75.8404 171.934 75.8687 172.052 75.9064C172.123 75.9253 172.424 76.0243 172.156 75.9347C172.533 76.0621 172.957 75.9866 173.151 75.5905C173.311 75.2652 173.188 74.7276 172.806 74.5956C171.137 74.025 169.303 73.959 167.619 74.5107C165.644 75.1567 164.012 76.6232 163.083 78.4716C162.654 79.3251 163.988 79.9759 164.418 79.1224Z" fill="#2B373D"/>
<path d="M182.806 76.3144C184.343 75.6307 186.107 75.5506 187.691 76.1636C188.521 76.4842 189.294 77.0029 189.917 77.6395C190.138 77.8658 190.346 78.1063 190.539 78.3609C190.615 78.4553 190.685 78.5543 190.752 78.658C190.794 78.7193 190.964 78.9881 190.813 78.7476C191.025 79.0871 191.402 79.2946 191.798 79.1107C192.128 78.9598 192.374 78.4694 192.161 78.1252C191.228 76.6304 189.856 75.4138 188.2 74.7725C186.262 74.0228 184.07 74.1265 182.184 74.9658C181.307 75.3525 181.929 76.7011 182.806 76.3144Z" fill="#2B373D"/>
<path d="M239.482 273.009C240.01 276.474 240.534 279.94 241.062 283.406C242.373 292.04 243.679 300.669 244.99 309.303C245.008 309.426 245.027 309.558 245.046 309.681C245.603 313.33 248.503 316.174 252.167 316.664C254.35 316.956 256.764 317.145 259.391 317.136C261.979 317.131 264.37 316.933 266.53 316.636C266.898 316.584 267.261 316.508 267.614 316.409C270.75 315.542 273.136 312.906 273.622 309.624L279.059 272.928C278.436 272.471 277.007 272.056 274.98 271.707C274.159 271.566 273.24 271.434 272.24 271.32C268.755 270.92 264.266 270.679 259.358 270.679H259.183C249.366 270.722 241.217 271.717 239.482 273.009Z" fill="#FB6044"/>
<path d="M244.989 309.308C245.008 309.43 245.027 309.562 245.046 309.685C245.602 313.335 248.502 316.178 252.166 316.668C254.35 316.961 256.764 317.149 259.39 317.14C261.979 317.135 264.37 316.937 266.53 316.64C270.189 316.135 273.079 313.283 273.617 309.628L279.054 272.933C278.431 272.475 277.002 272.06 274.975 271.711C273.848 278.044 268.703 302.682 256.358 306.818C252.836 308.016 248.903 308.798 244.989 309.308Z" fill="#CE3A24"/>
<path d="M279.059 273.017C279.059 273.068 279.049 273.106 279.03 273.158C279.021 273.201 279.002 273.248 278.969 273.29C278.96 273.309 278.941 273.318 278.927 273.342C278.898 273.37 278.865 273.403 278.813 273.441C277.342 274.757 269.156 275.77 259.268 275.789C258.693 275.789 258.117 275.789 257.552 275.78C256.665 275.77 255.793 275.752 254.949 275.733C247.093 275.506 240.991 274.625 239.727 273.507C239.685 273.479 239.647 273.436 239.614 273.408C239.605 273.389 239.586 273.38 239.586 273.356C239.543 273.314 239.524 273.267 239.515 273.224C239.496 273.172 239.487 273.134 239.487 273.083C239.487 271.828 245.622 270.758 253.982 270.414C254.953 270.381 255.953 270.348 256.972 270.338C257.717 270.329 258.485 270.315 259.263 270.315C270.189 270.296 279.054 271.512 279.059 273.017Z" fill="white"/>
<path d="M278.822 273.441C277.356 272.13 269.156 271.145 259.268 271.159C249.375 271.178 241.179 272.196 239.717 273.507C239.562 273.37 239.482 273.229 239.482 273.087C239.477 271.574 248.333 270.334 259.263 270.315C270.189 270.296 279.049 271.508 279.054 273.017C279.058 273.163 278.978 273.304 278.822 273.441Z" fill="white"/>
<path d="M241.062 283.417C242.373 292.051 243.679 300.68 244.99 309.314C245.008 309.437 245.027 309.569 245.046 309.691C245.603 313.341 248.503 316.184 252.167 316.675C254.35 316.967 256.764 317.156 259.391 317.146C261.979 317.142 264.37 316.944 266.53 316.647C266.898 316.595 267.261 316.519 267.614 316.42C260.329 315.604 253.312 313.959 250.78 310.705C244.744 302.972 245.141 282.328 245.141 282.328L241.062 283.417Z" fill="#CE3A24"/>
<path d="M238.708 305.772L245.178 305.762C246.248 305.762 247.111 304.895 247.111 303.824C247.111 302.754 246.244 301.891 245.173 301.891L238.704 301.9C236.167 301.905 233.856 300.316 232.951 297.949L230.914 292.611C230.183 290.697 230.428 288.627 231.588 286.938C232.748 285.25 234.592 284.279 236.643 284.274L243.419 284.26C244.49 284.26 245.352 283.392 245.352 282.322C245.352 281.252 244.485 280.389 243.414 280.389L236.638 280.398C233.347 280.403 230.263 282.03 228.401 284.741C226.533 287.457 226.123 290.914 227.297 293.988L229.334 299.326C230.81 303.188 234.578 305.777 238.708 305.772Z" fill="#CE3A24"/>
<path d="M-535.589 459.76C-528.869 541.979 -465.209 611.189 -442.209 688.86C-436.906 706.136 -434.13 724.089 -433.969 742.16C-433.969 742.94 -433.969 743.72 -433.989 744.501H899.541C901.361 734.22 903.451 723.02 906.081 710.801C907.661 703.461 909.361 696.148 911.181 688.861C941.481 566.521 1000.22 451.921 997.451 322.811C996.341 271.371 983.781 216.951 946.441 181.081C881.161 118.391 773.791 137.891 688.451 169.181C603.111 200.471 508.361 239.561 424.921 203.611C383.551 185.781 351.501 151.191 328.631 112.761C259.691 -3.05887 263.941 -157.029 172.241 -256.279C86.1907 -349.399 -72.1694 -360.799 -176.949 -288.789C-281.729 -216.779 -326.899 -74.4589 -292.529 46.9612C-277.609 99.6812 -249.669 148.411 -237.989 201.921C-235.489 213.351 -233.789 225.431 -237.239 236.621C-250.239 278.701 -311.129 270.811 -355.669 270.121C-454.409 268.609 -543.519 362.539 -535.589 459.76Z" fill="#F5F3E3"/>
<path d="M686.5 -318.688V3.98816C686.5 14.4022 676.024 22.8482 663.125 22.8482H356.711C343.799 22.8482 333.337 14.4022 333.337 3.98816V-318.688C333.337 -329.102 343.799 -337.549 356.711 -337.549H663.128C676.027 -337.549 686.5 -329.1 686.5 -318.688Z" fill="#090909"/>
<path d="M406.152 41.7642H296.516C283.615 41.7497 271.247 36.6185 262.125 27.4963C253.003 18.3741 247.871 6.00592 247.857 -6.89478C247.853 -19.7108 252.818 -32.0292 261.708 -41.2607C270.399 -50.3437 282.034 -55.5527 293.63 -55.5527H333.058C333.736 -55.5527 334.386 -55.2834 334.866 -54.8038C335.346 -54.3243 335.615 -53.6739 335.615 -52.9957C335.615 -52.3176 335.346 -51.6672 334.866 -51.1877C334.386 -50.7082 333.736 -50.4388 333.058 -50.4388H293.63C271.971 -50.4388 252.971 -30.0908 252.971 -6.89478C252.984 4.6501 257.576 15.7184 265.739 23.8819C273.903 32.0454 284.971 36.6373 296.516 36.6503H406.152C406.83 36.6503 407.48 36.9196 407.96 37.3992C408.44 37.8787 408.709 38.5291 408.709 39.2072C408.709 39.8854 408.44 40.5358 407.96 41.0153C407.48 41.4949 406.83 41.7642 406.152 41.7642Z" fill="#004751"/>
<path d="M408.56 37.8409C406.814 36.0699 405.549 33.8829 404.884 31.4867C404.219 29.0905 404.176 26.5642 404.76 24.1469L415.267 -16.1131L374.727 -34.2371L351.727 0.437866C350.314 2.48517 348.402 4.13824 346.173 5.24066C343.943 6.34308 341.469 6.85838 338.985 6.73785H338.818C336.314 6.73735 333.853 6.09327 331.671 4.86743C329.488 3.64159 327.658 1.87518 326.355 -0.262146L305.317 -36.1621L263.836 -20.3131L272.094 20.4669C272.547 22.9281 272.36 25.4645 271.55 27.8326C270.741 30.2007 269.336 32.3209 267.472 33.9899L267.351 34.1049C265.58 35.8505 263.393 37.1156 260.996 37.7806C258.6 38.4455 256.074 38.4883 253.657 37.9049L213.4 27.3999L195.276 67.9399L229.951 90.9399C231.998 92.3525 233.651 94.264 234.753 96.4937C235.856 98.7234 236.371 101.197 236.251 103.682C236.251 103.737 236.251 103.794 236.251 103.849C236.25 106.352 235.606 108.813 234.38 110.995C233.154 113.177 231.388 115.008 229.251 116.311L193.351 137.35L209.2 178.83L249.979 170.571C252.44 170.118 254.977 170.305 257.345 171.114C259.713 171.924 261.834 173.328 263.504 175.193C263.541 175.234 263.579 175.274 263.618 175.315C265.363 177.086 266.628 179.273 267.293 181.669C267.958 184.065 268.001 186.592 267.418 189.009L256.912 229.269L297.452 247.393L320.452 212.718C321.864 210.67 323.775 209.017 326.005 207.915C328.235 206.812 330.709 206.297 333.194 206.418H333.361C335.864 206.419 338.324 207.063 340.507 208.289C342.689 209.514 344.52 211.281 345.823 213.418L366.861 249.318L408.343 233.469L400.084 192.689C399.63 190.228 399.817 187.691 400.626 185.323C401.436 182.955 402.84 180.835 404.705 179.166C404.747 179.128 404.787 179.09 404.828 179.051C406.599 177.305 408.786 176.04 411.182 175.375C413.578 174.71 416.104 174.667 418.522 175.251L458.782 185.757L476.906 145.217L442.231 122.217C440.183 120.804 438.53 118.893 437.428 116.663C436.325 114.433 435.81 111.959 435.931 109.475V109.307C435.931 106.804 436.576 104.343 437.801 102.161C439.027 99.9791 440.794 98.1487 442.931 96.8459L478.831 75.8069L462.981 34.3259L422.202 42.5849C419.74 43.0382 417.204 42.8512 414.835 42.0418C412.467 41.2324 410.347 39.8279 408.678 37.9629C408.637 37.9219 408.6 37.8819 408.56 37.8409ZM366.491 120.172C363.801 126.183 359.39 131.263 353.815 134.767C348.239 138.272 341.749 140.045 335.166 139.861C328.583 139.678 322.202 137.547 316.831 133.737C311.459 129.928 307.337 124.611 304.986 118.459C302.636 112.307 302.162 105.597 303.626 99.1757C305.089 92.7547 308.423 86.9117 313.207 82.3856C317.99 77.8594 324.009 74.8532 330.501 73.7472C336.993 72.6412 343.667 73.485 349.68 76.1719C353.673 77.9565 357.276 80.5104 360.282 83.6876C363.288 86.8649 365.639 90.6033 367.2 94.6893C368.761 98.7753 369.502 103.129 369.38 107.501C369.259 111.874 368.277 116.179 366.491 120.172Z" fill="#015566"/>
<path d="M529.505 -9.479C528.43 -10.5686 527.651 -11.9143 527.241 -13.3889C526.831 -14.8634 526.804 -16.4181 527.162 -17.906L533.629 -42.682L508.681 -53.835L494.53 -32.5C493.66 -31.2409 492.483 -30.2244 491.111 -29.5465C489.739 -28.8686 488.217 -28.5518 486.688 -28.626H486.589C485.048 -28.6264 483.534 -29.0226 482.191 -29.7766C480.848 -30.5306 479.721 -31.6172 478.918 -32.932L465.973 -55.022L440.446 -45.268L445.527 -20.173C445.807 -18.6584 445.692 -17.0975 445.194 -15.6401C444.696 -14.1828 443.831 -12.878 442.683 -11.851L442.609 -11.78C441.519 -10.7055 440.173 -9.92665 438.698 -9.51703C437.224 -9.10741 435.669 -9.08057 434.182 -9.43903L409.4 -15.9L398.245 9.04797L419.584 23.199C420.844 24.0687 421.861 25.2451 422.539 26.6171C423.217 27.9891 423.534 29.5114 423.459 31.04V31.14C423.46 32.6801 423.064 34.1944 422.31 35.5374C421.556 36.8803 420.469 38.007 419.155 38.809L397.064 51.756L406.818 77.283L431.917 72.201C433.432 71.9218 434.993 72.0368 436.451 72.5348C437.908 73.0328 439.213 73.8972 440.24 75.045L440.311 75.12C441.385 76.2097 442.164 77.5555 442.573 79.03C442.983 80.5046 443.01 82.0592 442.651 83.547L436.187 108.322L461.134 119.476L475.286 98.137C476.155 96.8775 477.331 95.8607 478.703 95.1827C480.075 94.5048 481.598 94.1883 483.126 94.263H483.227C484.767 94.2633 486.281 94.6593 487.624 95.4132C488.967 96.1671 490.093 97.2534 490.896 98.568L503.842 120.658L529.37 110.905L524.286 85.805C524.008 84.2904 524.123 82.7296 524.621 81.2723C525.119 79.815 525.983 78.5101 527.13 77.483L527.207 77.412C528.296 76.3375 529.642 75.5587 531.117 75.149C532.591 74.7394 534.146 74.7125 535.634 75.071L560.409 81.536L571.562 56.589L550.224 42.437C548.964 41.5673 547.948 40.3909 547.27 39.0189C546.591 37.6469 546.274 36.1246 546.349 34.596V34.496C546.349 32.9558 546.745 31.4416 547.499 30.0986C548.253 28.7557 549.34 27.6291 550.655 26.827L572.745 13.881L562.99 -11.647L537.891 -6.56403C536.376 -6.28532 534.815 -6.40049 533.358 -6.8985C531.901 -7.39651 530.596 -8.26066 529.568 -9.40802L529.505 -9.479ZM503.615 41.186C501.961 44.8881 499.246 48.0165 495.814 50.1755C492.382 52.3344 488.386 53.427 484.333 53.3149C480.279 53.2029 476.35 51.8913 473.042 49.5461C469.734 47.2008 467.196 43.9272 465.749 40.1394C464.302 36.3516 464.011 32.2196 464.912 28.2662C465.813 24.3127 467.867 20.7153 470.813 17.929C473.759 15.1427 477.465 13.2927 481.462 12.6129C485.46 11.9331 489.569 12.4541 493.271 14.11C498.232 16.3296 502.109 20.4288 504.049 25.5062C505.989 30.5836 505.833 36.2235 503.615 41.186Z" fill="#6595F7"/>
<path d="M921.476 448.155C902.282 450.642 881.448 452.055 861.971 450.776C853.321 450.272 844.726 449.069 836.271 447.176C833.486 446.521 830.761 445.791 828.124 444.976L829.986 485.182C829.986 485.182 784.271 507.549 715.979 513.759C671.473 517.958 626.575 513.996 583.492 502.069C561.517 495.92 540.176 487.698 519.756 477.514V299.019L519.713 299.064C517.837 301.044 457.586 364.421 410.173 401.099C401.225 408.061 390.611 412.56 379.385 414.149C368.159 415.737 356.713 414.359 346.185 410.152C299.903 391.658 212.685 350.96 142.667 284.143L187.251 215.211C187.251 215.211 307.989 261.166 350.712 287.97C350.712 287.97 439.657 162.303 504.077 116.229C515.843 107.81 529.279 102.016 543.477 99.2378C560.438 95.9178 591.099 90.5379 628.536 86.8379C661.4 83.5619 699.508 81.5669 738.165 83.3529C765.865 84.6189 793.829 87.8358 820.38 93.8968C841.076 98.735 859.742 109.924 873.764 125.897C905.826 162.068 962.055 239.651 984.525 358.197C992.7 401.307 963.752 442.69 921.476 448.155Z" fill="#FCB913"/>
<path d="M208.473 236.6C208.473 236.6 165.373 214.772 129.973 130.474C129.728 129.879 129.304 129.375 128.759 129.033C128.215 128.691 127.577 128.527 126.935 128.564C126.293 128.602 125.678 128.838 125.177 129.241C124.676 129.644 124.313 130.194 124.139 130.813C121.512 140.364 117.973 157.013 119.032 174.649C119.053 174.979 118.973 175.307 118.801 175.59C118.63 175.873 118.376 176.096 118.073 176.229C117.771 176.363 117.435 176.4 117.11 176.336C116.786 176.272 116.489 176.11 116.26 175.872C106.979 166.212 79.3457 136.909 63.7457 114.522C63.3333 113.932 62.7278 113.505 62.0338 113.313C61.3398 113.122 60.6008 113.179 59.9444 113.474C59.2879 113.77 58.755 114.285 58.4378 114.931C58.1206 115.577 58.0389 116.314 58.2067 117.014C60.6067 126.66 66.3118 140.868 79.6758 158.164C79.9074 158.458 80.0232 158.826 80.0015 159.2C79.9797 159.573 79.8219 159.925 79.5578 160.19C79.2936 160.455 78.9416 160.614 78.5683 160.637C78.1949 160.66 77.8261 160.545 77.5318 160.314C68.6438 153.263 56.1528 142.779 47.2438 132.96C46.7583 132.426 46.1013 132.08 45.3869 131.98C44.6725 131.88 43.9457 132.034 43.3326 132.414C42.7195 132.794 42.2589 133.377 42.0306 134.061C41.8023 134.745 41.8208 135.488 42.0828 136.16C45.9118 145.909 53.5208 159.439 68.6318 174.195C68.8989 174.453 69.0633 174.799 69.0946 175.168C69.1259 175.538 69.022 175.907 68.802 176.206C68.5821 176.504 68.2611 176.713 67.8987 176.793C67.5363 176.874 67.1572 176.819 66.8317 176.641C59.2949 172.597 52.118 167.915 45.3798 162.647C44.8108 162.194 44.1002 161.957 43.3732 161.976C42.6463 161.996 41.9495 162.271 41.4058 162.754C40.8621 163.237 40.5063 163.897 40.4011 164.616C40.2959 165.336 40.4481 166.07 40.8308 166.688C46.0228 174.947 54.6938 185.529 68.8408 195.666C69.1284 195.866 69.3391 196.158 69.4379 196.494C69.5368 196.83 69.518 197.189 69.3845 197.513C69.251 197.837 69.0108 198.105 68.7039 198.274C68.3969 198.442 68.0416 198.501 67.6968 198.44C62.8848 197.526 58.1965 196.052 53.7278 194.047C53.0893 193.748 52.3677 193.678 51.6833 193.846C50.9989 194.015 50.3931 194.414 49.9668 194.975C49.5404 195.536 49.3192 196.227 49.3402 196.931C49.3611 197.636 49.6228 198.312 50.0817 198.847C65.8937 217.28 102.666 253.063 177.482 295.693L208.473 236.6Z" fill="#F59060"/>
<path d="M119.192 230.533C112.173 211.963 121.95 187.91 122.05 187.67L122.74 186.001L120.94 185.926C120.184 185.895 102.223 185.451 85.9556 211.026L88.0856 212.38C100.558 192.774 114.159 189.224 119.003 188.586C116.766 194.773 110.549 214.795 116.835 231.425L119.192 230.533Z" fill="#090909"/>
<path d="M597.537 307.105C608.021 341.385 597.196 425.818 583.66 502.061C569.96 579.168 553.505 647.906 553.505 647.906C553.505 647.906 515.22 670.883 471.186 661.306L519.924 299.017L519.881 299.062C518.005 301.042 457.754 364.419 410.341 401.097C401.393 408.06 390.779 412.559 379.553 414.147C368.327 415.735 356.881 414.357 346.353 410.15C300.071 391.656 212.853 350.958 142.834 284.141L187.419 215.209C187.419 215.209 308.157 261.164 350.88 287.968C350.88 287.968 439.825 162.301 504.245 116.227C516.011 107.808 529.447 102.014 543.645 99.236C560.606 95.916 591.266 90.5359 628.704 86.8359C628.706 86.8339 576.482 238.188 597.537 307.105Z" fill="#6445F1"/>
<path d="M185.48 218.209L140.132 273.041L147.126 277.508L185.48 218.209Z" fill="#090909"/>
<path d="M1.70703 509.342L48.1921 528.984L49.9041 529.69L128.774 563.01V686.547H398.65L402.479 589.853L402.55 588.035L403.539 563.01L416.863 557.363L418.875 556.498L446.829 544.656H446.847L451.101 542.838L462.554 537.985L467.143 536.044L500.25 522.013L502.35 521.113L529.334 509.677L531.982 508.548L531.788 508.177L505.528 456.133L503.692 452.497L485.532 416.512L484.72 414.889L472.613 390.889L471.749 389.195L466.242 378.271C464.46 374.741 462.531 371.311 460.454 367.982C460.154 367.47 459.836 366.994 459.518 366.499C444.447 343.166 422.842 324.783 397.397 313.643C396.708 313.343 396.02 313.025 395.314 312.743C390.489 310.683 385.558 308.881 380.542 307.343C353.367 298.943 325.468 293.094 297.208 289.871C271.601 286.923 245.752 286.728 220.103 289.289C199.858 291.341 179.882 295.505 160.503 301.713C140.094 308.257 121.424 319.321 105.882 334.08C105.37 334.556 104.858 335.05 104.364 335.544C98.3397 341.454 92.864 347.899 88.0041 354.799C87.6511 355.31 87.3041 355.805 86.9631 356.316C83.4203 361.502 80.242 366.927 77.451 372.553L73.4091 379.842L72.509 381.483L49.0721 423.803L45.014 431.145L21.7701 473.095L20.8701 474.736L7.65106 498.614L6.75104 500.237L1.70703 509.342Z" fill="#FF4655"/>
<path d="M104.366 335.542C106.404 336.088 108.505 336.357 110.614 336.342C121.591 336.342 127.097 329.918 132.427 323.688C137.721 317.493 142.716 311.634 152.881 311.634C163.046 311.634 168.058 317.493 173.353 323.688C178.683 329.918 184.189 336.342 195.166 336.342C206.143 336.342 211.65 329.918 216.98 323.688C222.274 317.493 227.286 311.634 237.434 311.634C247.598 311.634 252.611 317.493 257.906 323.688C263.235 329.918 268.742 336.342 279.719 336.342C290.696 336.342 296.202 329.918 301.532 323.688C306.844 317.493 311.839 311.634 322.004 311.634C332.169 311.634 337.181 317.493 342.476 323.688C347.805 329.918 353.312 336.342 364.289 336.342C375.266 336.342 380.773 329.918 386.102 323.688C389.508 319.717 392.791 315.87 397.397 313.646C396.708 313.346 396.02 313.028 395.314 312.746C391.043 315.199 387.867 318.905 384.761 322.541C379.449 328.735 374.454 334.577 364.289 334.577C354.124 334.577 349.112 328.735 343.817 322.541C338.487 316.311 332.981 309.869 322.004 309.869C311.027 309.869 305.52 316.311 300.191 322.541C294.891 328.735 289.884 334.577 279.719 334.577C269.554 334.577 264.559 328.735 259.246 322.541C253.935 316.311 248.411 309.869 237.434 309.869C226.474 309.869 220.968 316.311 215.634 322.541C210.334 328.735 205.328 334.577 195.162 334.577C184.996 334.577 180.002 328.735 174.691 322.541C169.361 316.311 163.854 309.869 152.877 309.869C141.9 309.869 136.394 316.311 131.082 322.541C125.769 328.735 120.775 334.577 110.61 334.577C109.02 334.593 107.433 334.427 105.88 334.083C105.372 334.554 104.86 335.048 104.366 335.542Z" fill="#FFAEB8"/>
<path d="M86.9648 356.314C87.5818 357.003 88.1828 357.709 88.8008 358.414C94.1128 364.643 99.6358 371.067 110.614 371.067C121.592 371.067 127.097 364.643 132.427 358.414C137.721 352.219 142.716 346.36 152.881 346.36C163.046 346.36 168.058 352.219 173.353 358.414C178.683 364.643 184.189 371.067 195.166 371.067C206.143 371.067 211.65 364.643 216.98 358.414C222.274 352.219 227.286 346.36 237.434 346.36C247.598 346.36 252.611 352.219 257.906 358.414C263.235 364.643 268.742 371.067 279.719 371.067C290.696 371.067 296.202 364.643 301.532 358.414C306.844 352.219 311.839 346.36 322.004 346.36C332.169 346.36 337.181 352.219 342.476 358.414C347.805 364.643 353.312 371.067 364.289 371.067C375.266 371.067 380.773 364.643 386.102 358.414C391.397 352.219 396.409 346.36 406.574 346.36C416.721 346.36 421.734 352.219 427.028 358.414C432.358 364.643 437.865 371.067 448.841 371.067C452.925 371.148 456.95 370.078 460.454 367.979C460.154 367.467 459.836 366.991 459.518 366.496C456.289 368.406 452.592 369.378 448.841 369.302C438.676 369.302 433.682 363.461 428.369 357.266C423.058 351.037 417.551 344.595 406.574 344.595C395.597 344.595 390.09 351.037 384.761 357.266C379.449 363.461 374.454 369.302 364.289 369.302C354.124 369.302 349.112 363.461 343.817 357.266C338.487 351.037 332.981 344.595 322.004 344.595C311.027 344.595 305.52 351.037 300.191 357.266C294.891 363.461 289.884 369.302 279.719 369.302C269.554 369.302 264.559 363.461 259.246 357.266C253.935 351.037 248.411 344.595 237.434 344.595C226.474 344.595 220.968 351.037 215.634 357.266C210.334 363.461 205.328 369.302 195.162 369.302C184.996 369.302 180.002 363.461 174.691 357.266C169.361 351.037 163.854 344.595 152.877 344.595C141.9 344.595 136.394 351.037 131.082 357.266C125.769 363.461 120.775 369.302 110.61 369.302C100.445 369.302 95.4318 363.461 90.1378 357.266C89.4318 356.437 88.7258 355.607 88.0018 354.796C87.6528 355.308 87.2998 355.8 86.9648 356.314Z" fill="#FFAEB8"/>
<path d="M264.655 341.5C265.468 341.348 266.281 341.178 267.061 340.975C271.643 339.849 275.949 337.803 279.715 334.96C283.482 332.117 286.63 328.537 288.968 324.439C292.573 318.204 294.193 311.018 293.61 303.839L290.222 261.177H228.448L227.889 266.04L223.636 302.45C220.891 325.881 241.477 345.907 264.655 341.5Z" fill="#F59060"/>
<path d="M227.889 266.039V266.056C227.889 266.056 252.863 304.177 285.173 279.136C288.497 293.994 289.774 309.237 288.968 324.441C292.573 318.206 294.193 311.02 293.61 303.841L290.222 261.179H228.448L227.889 266.039Z" fill="#090909"/>
<path d="M201.992 191.839C205.328 224.612 216.649 274.587 254.516 280.649C257.707 281.152 260.966 281.016 264.104 280.249C277.382 277.028 309.416 261.658 312.784 188.312C313.329 177.366 311 166.467 306.028 156.7C301.057 146.932 293.616 138.635 284.445 132.634C270.345 123.434 251.79 118.977 230.621 132.623C220.839 138.88 212.985 147.728 207.931 158.182C202.877 168.636 200.821 180.287 201.992 191.839Z" fill="#F59060"/>
<path d="M260.034 237.989C259.32 237.979 258.612 237.861 257.934 237.638C257.604 237.529 257.331 237.294 257.173 236.985C257.014 236.677 256.983 236.318 257.087 235.986C257.191 235.655 257.42 235.377 257.726 235.214C258.033 235.05 258.391 235.013 258.724 235.111C260.465 235.657 260.978 235.101 261.147 234.919C263.815 232.043 259.758 217.519 256.025 208.127C255.905 207.803 255.916 207.444 256.057 207.129C256.197 206.813 256.456 206.564 256.777 206.436C257.099 206.309 257.457 206.312 257.776 206.445C258.095 206.578 258.35 206.831 258.485 207.149C260.09 211.186 267.854 231.581 263.085 236.719C262.696 237.136 262.223 237.464 261.696 237.683C261.17 237.902 260.604 238.007 260.034 237.989Z" fill="#090909"/>
<path d="M240.118 228.138C240.355 224.574 235.356 221.338 228.953 220.912C222.55 220.485 217.166 223.029 216.929 226.593C216.691 230.157 221.69 233.393 228.093 233.819C234.497 234.246 239.88 231.702 240.118 228.138Z" fill="#FC6D6D"/>
<path d="M219.061 196.012C221.033 195.033 223.099 194.256 225.227 193.692C227.405 193.099 229.643 192.755 231.898 192.667C234.245 192.604 236.587 192.929 238.829 193.629C241.05 194.37 243.108 195.529 244.894 197.043C245.1 197.196 245.27 197.392 245.392 197.617C245.514 197.842 245.585 198.091 245.601 198.347C245.617 198.603 245.577 198.859 245.484 199.098C245.39 199.336 245.246 199.552 245.061 199.729C244.658 200.109 244.133 200.333 243.58 200.36C243.026 200.388 242.482 200.217 242.043 199.879L241.965 199.813L241.816 199.68C240.54 198.45 239.041 197.474 237.4 196.805C235.639 196.139 233.781 195.768 231.9 195.705C229.919 195.668 227.94 195.854 226 196.258C224.051 196.651 222.145 197.234 220.309 197.998L220.244 198.026C219.944 198.158 219.606 198.177 219.293 198.079C218.981 197.981 218.714 197.772 218.544 197.492C218.477 197.361 218.437 197.219 218.426 197.072C218.416 196.926 218.436 196.779 218.484 196.641C218.533 196.502 218.609 196.375 218.708 196.267C218.807 196.159 218.927 196.072 219.061 196.012Z" fill="#671E24"/>
<path d="M234.195 215.919C235.969 215.775 237.229 213.472 237.011 210.774C236.792 208.076 235.177 206.005 233.403 206.149C231.63 206.293 230.369 208.596 230.588 211.294C230.806 213.992 232.421 216.063 234.195 215.919Z" fill="#090909"/>
<path d="M285.348 233.827C291.751 233.4 296.75 230.165 296.513 226.601C296.275 223.037 290.892 220.493 284.488 220.92C278.085 221.346 273.087 224.581 273.324 228.146C273.561 231.71 278.945 234.253 285.348 233.827Z" fill="#FC6D6D"/>
<path d="M294.387 196.012C292.415 195.033 290.35 194.256 288.222 193.692C286.044 193.099 283.806 192.755 281.55 192.667C279.202 192.604 276.861 192.929 274.619 193.629C272.399 194.37 270.34 195.529 268.555 197.043C268.349 197.196 268.179 197.391 268.057 197.617C267.935 197.842 267.863 198.091 267.847 198.347C267.831 198.603 267.871 198.859 267.965 199.098C268.058 199.336 268.203 199.552 268.388 199.729C268.791 200.109 269.316 200.333 269.869 200.36C270.422 200.388 270.967 200.217 271.405 199.879L271.483 199.813L271.633 199.68C272.909 198.45 274.407 197.474 276.048 196.805C277.809 196.139 279.667 195.768 281.548 195.705C283.529 195.668 285.508 195.854 287.448 196.258C289.397 196.651 291.303 197.234 293.139 197.998L293.205 198.026C293.505 198.158 293.843 198.177 294.156 198.079C294.468 197.981 294.735 197.772 294.905 197.492C294.972 197.361 295.012 197.219 295.022 197.072C295.033 196.926 295.013 196.779 294.964 196.64C294.916 196.502 294.84 196.375 294.74 196.267C294.641 196.159 294.521 196.072 294.387 196.012Z" fill="#671E24"/>
<path d="M282.849 211.28C283.067 208.583 281.806 206.279 280.033 206.135C278.259 205.992 276.644 208.062 276.426 210.76C276.207 213.458 277.468 215.762 279.241 215.905C281.015 216.049 282.63 213.978 282.849 211.28Z" fill="#090909"/>
<path d="M309.632 192.734C311.846 192.734 314.033 193.231 316.029 194.19C318.026 195.148 319.781 196.543 321.166 198.271C322.551 199.999 323.53 202.016 324.031 204.173C324.532 206.33 324.541 208.572 324.059 210.734L321.432 222.515C320.7 225.795 318.872 228.728 316.249 230.83C313.627 232.932 310.366 234.078 307.005 234.078H303.225C303.225 234.078 296.705 205.151 309.632 192.734Z" fill="#F59060"/>
<path d="M204.088 192.734C201.873 192.734 199.687 193.231 197.69 194.19C195.694 195.148 193.939 196.543 192.554 198.271C191.169 199.999 190.19 202.016 189.689 204.173C189.189 206.33 189.179 208.573 189.662 210.734L192.289 222.515C193.02 225.795 194.848 228.729 197.471 230.831C200.094 232.933 203.355 234.078 206.716 234.078H210.496C210.496 234.078 217.015 205.151 204.088 192.734Z" fill="#F59060"/>
<path d="M258.409 258.106C248.218 258.106 240.179 250.875 239.769 250.5L241.556 248.547C241.668 248.647 252.815 258.647 264.6 254.377L265.5 256.866C263.227 257.69 260.827 258.109 258.409 258.106Z" fill="#090909"/>
<path d="M312.519 193.018L308.213 216.959C308.213 216.959 300.313 198.17 300.313 176.931C267.619 184.568 241.194 183.26 224.031 180.925C205.898 178.458 194.531 176.749 185.759 167.588C165.386 146.309 173.275 99.7119 190.753 92.8629C202.424 88.2909 211.702 104.053 244.906 117.139C261.151 123.498 278.251 127.407 295.645 128.739C298.941 128.852 302.157 129.786 305.002 131.455C318.018 139.3 320.871 164.05 312.519 193.018Z" fill="#671E24"/>
<path d="M199.633 174.911L205.905 216.959C205.905 216.959 213.998 196.809 213.454 176.659C212.91 156.509 199.633 174.911 199.633 174.911Z" fill="#671E24"/>
<path d="M314.086 224.885L311.914 223.373C318.25 214.273 318.342 209.5 317.303 207.101C316.872 206.23 316.241 205.475 315.46 204.897C314.68 204.319 313.773 203.935 312.815 203.777L313.179 201.155C314.579 201.38 315.904 201.938 317.042 202.784C318.18 203.629 319.097 204.736 319.716 206.012C321.643 210.4 319.749 216.751 314.086 224.885Z" fill="#090909"/>
<path d="M199.634 224.885C193.972 216.751 192.077 210.401 194.004 206.012C194.623 204.736 195.541 203.629 196.679 202.784C197.817 201.938 199.142 201.379 200.542 201.155L200.906 203.777C199.948 203.935 199.041 204.319 198.26 204.897C197.48 205.475 196.848 206.23 196.417 207.101C195.379 209.501 195.471 214.27 201.807 223.373L199.634 224.885Z" fill="#090909"/>
<path d="M260.93 211.027C260.93 198.517 270.13 188.339 281.439 188.339C292.748 188.339 301.949 198.517 301.949 211.027C301.949 223.537 292.749 233.714 281.439 233.714C270.129 233.714 260.93 223.537 260.93 211.027ZM264.989 211.027C264.989 221.299 272.369 229.655 281.439 229.655C290.509 229.655 297.89 221.299 297.89 211.027C297.89 200.755 290.51 192.4 281.439 192.4C272.368 192.4 264.989 200.755 264.989 211.027Z" fill="#015566"/>
<path d="M211.5 211.027C211.5 198.517 220.7 188.339 232.01 188.339C243.32 188.339 252.52 198.517 252.52 211.027C252.52 223.537 243.32 233.714 232.01 233.714C220.7 233.714 211.5 223.537 211.5 211.027ZM215.559 211.027C215.559 221.299 222.939 229.655 232.01 229.655C241.081 229.655 248.461 221.299 248.461 211.027C248.461 200.755 241.08 192.4 232.009 192.4C222.938 192.4 215.558 200.755 215.558 211.027H215.559Z" fill="#015566"/>
<path d="M251.088 211.246C257.625 208.977 261.928 211.046 262.108 211.139L263.959 207.526C263.721 207.402 258.028 204.538 249.759 207.412L251.088 211.246Z" fill="#015566"/>
<path d="M203.265 190.261L200.719 193.423L213.918 204.049L216.464 200.887L203.265 190.261Z" fill="#015566"/>
<path d="M311.397 191.33L297.135 200.778L299.377 204.163L313.639 194.715L311.397 191.33Z" fill="#015566"/>
<path d="M291.236 273.954L309.856 291.392L276.223 357.832L260.807 342.114L291.236 273.954Z" fill="#ED2941"/>
<path d="M226.964 273.954L260.807 342.114L243.885 357.832L208.124 290.771L226.964 273.954Z" fill="#ED2941"/>
<path d="M262.153 342.095L259.447 342.119L261.871 613.855L264.577 613.831L262.153 342.095Z" fill="#090909"/>
<path d="M-244.42 167.3L-244.392 167.273L-277.429 396.766L-163.297 416.466L-119.214 424.08L23.9379 448.8L44.2219 264.621L169.401 243.321C169.401 243.321 155.567 167.545 126.25 117.89C115.379 99.6724 99.4974 84.9656 80.4999 75.523C46.4898 58.4557 11.1299 44.2225 -25.22 32.968C-38.8107 28.7494 -53.044 24.8367 -67.92 21.23C-92.8544 15.2267 -118.105 10.6219 -143.553 7.43703C-165.446 4.89503 -191.68 2.88003 -210.638 2.32503C-211.247 2.29803 -211.856 2.28501 -212.45 2.27101C-228.816 1.8501 -245.072 5.06038 -260.05 11.671C-269.692 15.945 -279.541 20.543 -289.598 25.465C-319.591 40.137 -357.398 60.786 -388.706 84.694L-348.72 218.485C-348.72 218.485 -264.461 187.3 -244.42 167.3Z" fill="white"/>
<path d="M-119.214 424.084C-72.4922 444.671 -21.5247 453.786 29.4366 450.671C31.6113 413.655 33.7857 376.638 35.9597 339.621L36.1887 337.606L43.6126 270.155L43.8427 268.113L44.2216 264.624L93.8626 256.173L96.0126 255.808L167.724 243.608L169.401 243.324C169.401 243.324 169.144 241.931 168.643 239.403C168.008 236.303 166.994 231.503 165.588 225.461C165.425 224.761 165.249 224.027 165.074 223.284C160.692 204.798 152.931 176.211 141.625 149.112C141.314 148.355 140.99 147.597 140.665 146.84C136.492 136.888 131.677 127.218 126.25 117.89C126.169 117.769 126.101 117.633 126.021 117.511C125.521 116.673 125.021 115.848 124.492 115.023C113.673 98.1187 98.4697 84.4669 80.5026 75.5232C75.7026 73.1172 70.7216 70.6922 65.5596 68.2482C64.9376 67.9482 64.3157 67.6542 63.6807 67.3562C54.864 63.2322 45.537 59.1135 35.6996 55.0002C32.075 53.4995 28.392 52.0075 24.6506 50.5242C16.808 47.4282 8.67164 44.3855 0.241638 41.3962C-0.406364 41.1662 -1.04134 40.9502 -1.69135 40.7202C-9.30468 38.0535 -17.1477 35.4708 -25.2203 32.9722L-30.6294 38.5302L-32.3064 40.2472L-81.6374 90.9472L-84.3144 93.6932L-84.4504 93.8282C-84.4504 93.8282 -84.5174 94.3012 -84.6504 95.1932L-84.6634 95.2932C-85.1914 98.8772 -86.6633 108.884 -88.7203 123.542C-90.3713 135.32 -92.3994 150.114 -94.6304 166.95C-94.7114 167.612 -94.7924 168.288 -94.8874 168.965C-97.5244 189.073 -100.431 212.007 -103.287 236.213L-103.53 238.241C-106.099 260.121 -108.63 282.988 -110.873 305.719C-110.955 306.397 -111.021 307.073 -111.073 307.748C-113.359 330.939 -115.36 353.955 -116.82 375.564C-116.875 376.254 -116.92 376.943 -116.97 377.619C-118.063 394.131 -118.848 409.8 -119.214 424.084Z" fill="#FCB913"/>
<path d="M167.724 243.61L169.401 243.326C169.401 243.326 169.144 241.933 168.643 239.405L167.724 243.61ZM-76.676 386.342L-86.1 429.8L-84.1 430.151L-74.689 386.771L-8.72601 401.078L-17.526 441.646L-15.511 441.984L-6.73401 401.51L28.302 409.11L28.532 407.082L-6.302 399.522L8.005 333.559L35.957 339.617L36.186 337.602L8.43799 331.585L22.745 265.621L43.61 270.151L43.84 268.109L23.177 263.633L37.484 197.67L103.448 211.977L93.86 256.169L96.01 255.804L105.422 212.409L165.585 225.459C165.422 224.759 165.246 224.025 165.071 223.282L105.855 210.422L120.175 144.458L141.622 149.11C141.311 148.353 140.987 147.595 140.662 146.838L120.6 142.488L126.023 117.511C125.523 116.673 125.023 115.848 124.494 115.023L118.625 142.055L52.66 127.748L65.56 68.2483C64.938 67.9483 64.316 67.6543 63.681 67.3563L50.672 127.315L-15.291 113.009L-0.984009 47.0453L35.7 55.0003C32.0753 53.4996 28.3923 52.0076 24.651 50.5243L-0.554993 45.0613L0.244995 41.3963C-0.403015 41.1663 -1.03799 40.9503 -1.68799 40.7203L-2.53998 44.6283L-30.626 38.5283L-32.303 40.2453L-2.95801 46.6143L-17.28 112.576L-83.229 98.2693L-81.629 90.9393L-84.306 93.6853L-84.644 95.1853L-84.657 95.2853C-85.185 98.8693 -86.657 108.876 -88.714 123.534L-83.658 100.248L-17.7 114.564L-32.02 180.527L-94.63 166.937C-94.711 167.599 -94.792 168.275 -94.887 168.952L-32.439 182.5L-46.759 248.464L-103.284 236.2L-103.527 238.228L-47.178 250.453L-61.498 316.416L-110.87 305.706C-110.951 306.384 -111.018 307.06 -111.07 307.735L-61.929 318.391L-76.236 384.354L-116.817 375.554C-116.872 376.244 -116.917 376.933 -116.967 377.609L-76.676 386.342ZM37.92 195.686L52.227 129.722L118.191 144.043L103.884 210.007L37.92 195.686ZM35.932 195.267L-30.031 180.946L-15.724 114.983L50.24 129.3L35.932 195.267ZM21.192 263.2L-44.77 248.9L-30.47 182.937L35.5 197.241L21.192 263.2ZM6.453 331.152L-59.511 316.845L-45.2 250.886L20.763 265.192L6.453 331.152ZM-74.247 384.783L-59.94 318.819L6.02399 333.126L-8.28302 399.09L-74.247 384.783ZM-382.147 106.635L-372.168 108.799L-376.09 126.9L-374.9 130.916L-370.194 109.24L-304.23 123.546L-318.537 189.51L-360.079 180.5L-359.416 182.718L-318.97 191.494L-322.594 208.221C-321.85 207.911 -321.093 207.6 -320.322 207.288L-316.983 191.913L-295.494 196.578C-294.467 196.119 -293.453 195.645 -292.425 195.172L-316.549 189.939L-302.242 123.975L-236.278 138.282L-247.989 192.305L-252.074 220.595L-249.044 206.653L-183.08 220.973L-197.388 286.937L-259.674 273.414L-259.958 275.429L-197.821 288.911L-212.128 354.875L-269.6 342.407L-269.9 344.422L-212.564 356.862L-226.4 420.487L-224.4 420.825L-210.57 357.295L-155.424 369.249C-155.316 368.587 -155.209 367.911 -155.086 367.249L-210.137 355.308L-195.831 289.345L-143.782 300.636C-143.661 299.974 -143.552 299.297 -143.444 298.636L-195.4 287.356L-181.093 221.393L-131.952 232.062C-131.844 231.386 -131.722 230.723 -131.614 230.062L-180.66 219.418L-166.353 153.455L-120.011 163.5C-119.89 162.837 -119.768 162.175 -119.66 161.512L-165.921 151.465L-151.614 85.5003L-107.921 94.9803C-107.8 94.2633 -107.678 93.6003 -107.57 92.9803L-151.181 83.5283L-137.481 20.4043L-138.914 17.3623L-153.168 83.1003L-219.132 68.7933L-204.825 2.83032L-139.038 17.0963L-140.12 14.7843L-194.115 3.0733C-198.551 2.8163 -202.81 2.60033 -206.815 2.46533L-221.109 68.3653L-287.07 54.0503L-279.849 20.7703C-280.619 21.1353 -281.404 21.5003 -282.175 21.8793L-289.058 53.6173L-327.543 45.2733C-328.436 45.7603 -329.315 46.2613 -330.194 46.7613L-289.494 55.5913L-303.8 121.555L-369.763 107.248L-360.608 65.0573C-361.419 65.5713 -362.231 66.0983 -363.029 66.6263L-371.751 106.815L-382.812 104.422L-382.147 106.635ZM-167.908 151.03L-233.872 136.723L-219.565 70.7593L-153.6 85.0713L-167.908 151.03ZM-234.308 138.711L-168.346 153.018L-182.653 218.981L-248.615 204.674L-234.308 138.711ZM-301.813 121.983L-287.5 56.0243L-221.537 70.3313L-235.847 136.3L-301.813 121.983Z" fill="white"/>
<path d="M161.989 244.586L168.609 290.533C171.356 309.6 167.934 329.046 158.842 346.03C149.75 363.014 135.465 376.645 118.075 384.933L-125.669 501.091L-160.169 434.046L49.2891 291.431L44.2161 264.619L161.989 244.586Z" fill="#F59060"/>
<path d="M70.7297 276.25L48.564 290.293L50.0111 292.577L72.1769 278.534L70.7297 276.25Z" fill="#090909"/>
<path d="M161.989 244.586L163.854 257.531L44.2217 264.624L161.989 244.586Z" fill="#090909"/>
<path d="M25.2706 160.644L22.6167 161.163L42.8795 264.884L45.5334 264.365L25.2706 160.644Z" fill="#090909"/>
</g>
<defs>
<linearGradient id="paint0_linear_100_15788" x1="198.44" y1="326.334" x2="198.406" y2="326.318" gradientUnits="userSpaceOnUse">
<stop stop-color="#3B3380"/>
<stop offset="1" stop-color="#53529D" stop-opacity="0.4"/>
</linearGradient>
<linearGradient id="paint1_linear_100_15788" x1="198.419" y1="326.317" x2="198.389" y2="326.317" gradientUnits="userSpaceOnUse">
<stop stop-color="#3B3380"/>
<stop offset="1" stop-color="#53529D"/>
</linearGradient>
<linearGradient id="paint2_linear_100_15788" x1="165.551" y1="144.033" x2="173.618" y2="156.2" gradientUnits="userSpaceOnUse">
<stop stop-color="#FA6C6D"/>
<stop offset="1" stop-color="#FFB37B"/>
</linearGradient>
<clipPath id="clip0_100_15788">
<rect width="400" height="363.899" fill="white" transform="matrix(-1 0 0 1 400 0.046875)"/>
</clipPath>
</defs>
</svg>
