<svg width="651" height="479" viewBox="0 0 651 479" fill="none" xmlns="http://www.w3.org/2000/svg">
<g filter="url(#filter0_d_1011_40045)">
<path d="M523.125 271.711C523.125 274.015 521.949 276.396 519.423 278.837C516.895 281.28 513.107 283.69 508.125 286.018C498.169 290.673 483.69 294.894 465.709 298.45C429.766 305.557 380.061 309.961 325.125 309.961C270.189 309.961 220.484 305.557 184.541 298.45C166.56 294.894 152.081 290.673 142.125 286.018C137.143 283.69 133.355 281.28 130.827 278.837C128.301 276.396 127.125 274.015 127.125 271.711C127.125 269.407 128.301 267.026 130.827 264.584C133.355 262.142 137.143 259.732 142.125 257.404C152.081 252.749 166.56 248.528 184.541 244.972C220.484 237.865 270.189 233.461 325.125 233.461C380.061 233.461 429.766 237.865 465.709 244.972C483.69 248.528 498.169 252.749 508.125 257.404C513.107 259.732 516.895 262.142 519.423 264.585C521.949 267.026 523.125 269.407 523.125 271.711Z" stroke="url(#paint0_linear_1011_40045)" stroke-width="2.25"/>
</g>
<g filter="url(#filter1_d_1011_40045)">
<path d="M545.625 267.211C545.625 269.826 544.291 272.511 541.465 275.245C538.638 277.98 534.407 280.672 528.857 283.27C517.762 288.463 501.636 293.169 481.619 297.132C441.604 305.053 386.275 309.961 325.125 309.961C263.975 309.961 208.646 305.053 168.631 297.132C148.614 293.169 132.488 288.463 121.393 283.27C115.843 280.672 111.612 277.98 108.785 275.245C105.959 272.511 104.625 269.826 104.625 267.211C104.625 264.595 105.959 261.911 108.785 259.177C111.612 256.442 115.843 253.75 121.393 251.152C132.488 245.959 148.614 241.253 168.631 237.29C208.646 229.368 263.975 224.461 325.125 224.461C386.275 224.461 441.604 229.368 481.619 237.29C501.636 241.253 517.762 245.959 528.857 251.152C534.407 253.75 538.638 256.442 541.465 259.177C544.291 261.911 545.625 264.595 545.625 267.211Z" stroke="url(#paint1_linear_1011_40045)" stroke-width="2.25" shape-rendering="crispEdges"/>
</g>
<g filter="url(#filter2_d_1011_40045)">
<path d="M622.125 321.84C622.125 325.501 620.256 329.206 616.411 332.926C612.565 336.647 606.831 340.29 599.345 343.794C584.379 350.799 562.651 357.137 535.713 362.47C481.854 373.132 407.4 379.735 325.125 379.735C242.85 379.735 168.396 373.132 114.537 362.47C87.5987 357.137 65.871 350.799 50.905 343.794C43.419 340.29 37.6854 336.647 33.8391 332.926C29.9941 329.206 28.125 325.501 28.125 321.84C28.125 318.179 29.9941 314.474 33.8391 310.754C37.6854 307.033 43.419 303.39 50.905 299.886C65.871 292.881 87.5987 286.543 114.537 281.21C168.396 270.548 242.85 263.945 325.125 263.945C407.4 263.945 481.854 270.548 535.713 281.21C562.651 286.543 584.379 292.881 599.345 299.886C606.831 303.39 612.565 307.033 616.411 310.754C620.256 314.474 622.125 318.179 622.125 321.84Z" stroke="url(#paint2_linear_1011_40045)" stroke-width="2.25"/>
</g>
<path d="M621.737 320.582C621.737 324.1 619.942 327.711 616.141 331.389C612.338 335.068 606.647 338.69 599.18 342.185C584.256 349.17 562.563 355.5 535.637 360.831C481.81 371.487 407.382 378.089 325.125 378.089C242.868 378.089 168.44 371.487 114.613 360.831C87.6867 355.5 65.9942 349.17 51.0697 342.185C43.6033 338.69 37.9123 335.068 34.1091 331.389C30.3077 327.711 28.5133 324.1 28.5133 320.582C28.5133 317.064 30.3077 313.453 34.1091 309.775C37.9123 306.096 43.6033 302.474 51.0697 298.98C65.9942 291.994 87.6867 285.664 114.613 280.333C168.44 269.677 242.868 263.076 325.125 263.076C407.382 263.076 481.81 269.677 535.637 280.333C562.563 285.664 584.256 291.994 599.18 298.98C606.647 302.474 612.338 306.096 616.141 309.775C619.942 313.453 621.737 317.064 621.737 320.582Z" stroke="url(#paint3_linear_1011_40045)" stroke-width="3.02665"/>
<g filter="url(#filter3_f_1011_40045)">
<ellipse cx="325.125" cy="404.465" rx="142.875" ry="28.2849" fill="#898989" fill-opacity="0.12"/>
</g>
<path d="M149.731 263.648H501.589L556 74.6484H53L149.731 263.648Z" fill="url(#paint4_linear_1011_40045)"/>
<g filter="url(#filter4_dd_1011_40045)">
<ellipse cx="325" cy="260.148" rx="183" ry="27.5" fill="#111C24"/>
</g>
<g filter="url(#filter5_df_1011_40045)">
<ellipse cx="326.5" cy="260.148" rx="174.5" ry="25.5" fill="#182631"/>
</g>
<g clip-path="url(#clip0_1011_40045)">
<g clip-path="url(#clip1_1011_40045)">
<g filter="url(#filter6_i_1011_40045)">
<path d="M324.547 248.308L320.262 245.834L325.327 242.91L329.612 245.384L324.547 248.308Z" fill="#182530"/>
<path d="M317.925 247.183L322.21 249.658L306.237 258.88L327.275 271.026L347.144 259.554L335.456 252.807L327.664 257.305L324.158 255.281L335.456 248.758L354.156 259.554L327.275 275.074L298.445 258.43L317.925 247.183Z" fill="#182530"/>
<path d="M330.391 245.834L334.677 248.308L317.145 258.43L322.21 261.354L335.456 253.706L345.585 259.554L327.664 269.901L323.379 267.427L336.625 259.779L335.066 258.88L321.821 266.527L308.185 258.655L330.391 245.834Z" fill="#182530"/>
</g>
</g>
</g>
<defs>
<filter id="filter0_d_1011_40045" x="112.5" y="223.336" width="425.25" height="105.75" filterUnits="userSpaceOnUse" color-interpolation-filters="sRGB">
<feFlood flood-opacity="0" result="BackgroundImageFix"/>
<feColorMatrix in="SourceAlpha" type="matrix" values="0 0 0 0 0 0 0 0 0 0 0 0 0 0 0 0 0 0 127 0" result="hardAlpha"/>
<feOffset dy="4.5"/>
<feGaussianBlur stdDeviation="6.75"/>
<feColorMatrix type="matrix" values="0 0 0 0 1 0 0 0 0 1 0 0 0 0 1 0 0 0 0.2 0"/>
<feBlend mode="normal" in2="BackgroundImageFix" result="effect1_dropShadow_1011_40045"/>
<feBlend mode="normal" in="SourceGraphic" in2="effect1_dropShadow_1011_40045" result="shape"/>
</filter>
<filter id="filter1_d_1011_40045" x="96.5" y="219.336" width="457.25" height="101.75" filterUnits="userSpaceOnUse" color-interpolation-filters="sRGB">
<feFlood flood-opacity="0" result="BackgroundImageFix"/>
<feColorMatrix in="SourceAlpha" type="matrix" values="0 0 0 0 0 0 0 0 0 0 0 0 0 0 0 0 0 0 127 0" result="hardAlpha"/>
<feOffset dy="3"/>
<feGaussianBlur stdDeviation="3.5"/>
<feComposite in2="hardAlpha" operator="out"/>
<feColorMatrix type="matrix" values="0 0 0 0 0.839216 0 0 0 0 0.839216 0 0 0 0 0.839216 0 0 0 0.3 0"/>
<feBlend mode="normal" in2="BackgroundImageFix" result="effect1_dropShadow_1011_40045"/>
<feBlend mode="normal" in="SourceGraphic" in2="effect1_dropShadow_1011_40045" result="shape"/>
</filter>
<filter id="filter2_d_1011_40045" x="3.5" y="244.82" width="643.25" height="165.039" filterUnits="userSpaceOnUse" color-interpolation-filters="sRGB">
<feFlood flood-opacity="0" result="BackgroundImageFix"/>
<feColorMatrix in="SourceAlpha" type="matrix" values="0 0 0 0 0 0 0 0 0 0 0 0 0 0 0 0 0 0 127 0" result="hardAlpha"/>
<feOffset dy="5.5"/>
<feGaussianBlur stdDeviation="11.75"/>
<feColorMatrix type="matrix" values="0 0 0 0 1 0 0 0 0 1 0 0 0 0 1 0 0 0 0.2 0"/>
<feBlend mode="normal" in2="BackgroundImageFix" result="effect1_dropShadow_1011_40045"/>
<feBlend mode="normal" in="SourceGraphic" in2="effect1_dropShadow_1011_40045" result="shape"/>
</filter>
<filter id="filter3_f_1011_40045" x="136.45" y="330.38" width="377.35" height="148.17" filterUnits="userSpaceOnUse" color-interpolation-filters="sRGB">
<feFlood flood-opacity="0" result="BackgroundImageFix"/>
<feBlend mode="normal" in="SourceGraphic" in2="BackgroundImageFix" result="shape"/>
<feGaussianBlur stdDeviation="22.9" result="effect1_foregroundBlur_1011_40045"/>
</filter>
<filter id="filter4_dd_1011_40045" x="72" y="224.648" width="506" height="198.5" filterUnits="userSpaceOnUse" color-interpolation-filters="sRGB">
<feFlood flood-opacity="0" result="BackgroundImageFix"/>
<feColorMatrix in="SourceAlpha" type="matrix" values="0 0 0 0 0 0 0 0 0 0 0 0 0 0 0 0 0 0 127 0" result="hardAlpha"/>
<feOffset dy="65.5"/>
<feGaussianBlur stdDeviation="35"/>
<feColorMatrix type="matrix" values="0 0 0 0 1 0 0 0 0 1 0 0 0 0 1 0 0 0 0.1 0"/>
<feBlend mode="normal" in2="BackgroundImageFix" result="effect1_dropShadow_1011_40045"/>
<feColorMatrix in="SourceAlpha" type="matrix" values="0 0 0 0 0 0 0 0 0 0 0 0 0 0 0 0 0 0 127 0" result="hardAlpha"/>
<feOffset dy="4"/>
<feGaussianBlur stdDeviation="6"/>
<feComposite in2="hardAlpha" operator="out"/>
<feColorMatrix type="matrix" values="0 0 0 0 0 0 0 0 0 0 0 0 0 0 0 0 0 0 0.25 0"/>
<feBlend mode="normal" in2="effect1_dropShadow_1011_40045" result="effect2_dropShadow_1011_40045"/>
<feBlend mode="normal" in="SourceGraphic" in2="effect2_dropShadow_1011_40045" result="shape"/>
</filter>
<filter id="filter5_df_1011_40045" x="134" y="216.648" width="385" height="87" filterUnits="userSpaceOnUse" color-interpolation-filters="sRGB">
<feFlood flood-opacity="0" result="BackgroundImageFix"/>
<feColorMatrix in="SourceAlpha" type="matrix" values="0 0 0 0 0 0 0 0 0 0 0 0 0 0 0 0 0 0 127 0" result="hardAlpha"/>
<feOffset dy="4.5"/>
<feGaussianBlur stdDeviation="6.75"/>
<feColorMatrix type="matrix" values="0 0 0 0 1 0 0 0 0 1 0 0 0 0 1 0 0 0 0.2 0"/>
<feBlend mode="normal" in2="BackgroundImageFix" result="effect1_dropShadow_1011_40045"/>
<feBlend mode="normal" in="SourceGraphic" in2="effect1_dropShadow_1011_40045" result="shape"/>
<feGaussianBlur stdDeviation="9" result="effect2_foregroundBlur_1011_40045"/>
</filter>
<filter id="filter6_i_1011_40045" x="298.445" y="242.906" width="55.7109" height="34.5925" filterUnits="userSpaceOnUse" color-interpolation-filters="sRGB">
<feFlood flood-opacity="0" result="BackgroundImageFix"/>
<feBlend mode="normal" in="SourceGraphic" in2="BackgroundImageFix" result="shape"/>
<feColorMatrix in="SourceAlpha" type="matrix" values="0 0 0 0 0 0 0 0 0 0 0 0 0 0 0 0 0 0 127 0" result="hardAlpha"/>
<feOffset dy="2.42067"/>
<feGaussianBlur stdDeviation="1.8155"/>
<feComposite in2="hardAlpha" operator="arithmetic" k2="-1" k3="1"/>
<feColorMatrix type="matrix" values="0 0 0 0 0 0 0 0 0 0 0 0 0 0 0 0 0 0 0.45 0"/>
<feBlend mode="normal" in2="shape" result="effect1_innerShadow_1011_40045"/>
</filter>
<linearGradient id="paint0_linear_1011_40045" x1="326.136" y1="295.942" x2="326.136" y2="246.471" gradientUnits="userSpaceOnUse">
<stop stop-color="#16242E"/>
<stop offset="1" stop-color="#E8E8E8" stop-opacity="0"/>
</linearGradient>
<linearGradient id="paint1_linear_1011_40045" x1="325.125" y1="207.527" x2="326.023" y2="338.027" gradientUnits="userSpaceOnUse">
<stop stop-color="#118FE9"/>
<stop offset="1" stop-color="#E8E8E8" stop-opacity="0"/>
</linearGradient>
<linearGradient id="paint2_linear_1011_40045" x1="326.638" y1="435.962" x2="326.638" y2="315.587" gradientUnits="userSpaceOnUse">
<stop stop-color="#16242E"/>
<stop offset="1" stop-color="#16242E" stop-opacity="0"/>
</linearGradient>
<linearGradient id="paint3_linear_1011_40045" x1="325.125" y1="469.71" x2="325.125" y2="227.835" gradientUnits="userSpaceOnUse">
<stop offset="0.599781" stop-color="#16242E"/>
<stop offset="0.863418" stop-color="#16242E" stop-opacity="0"/>
</linearGradient>
<linearGradient id="paint4_linear_1011_40045" x1="304.5" y1="416.602" x2="304.5" y2="146.741" gradientUnits="userSpaceOnUse">
<stop stop-color="#111C24"/>
<stop offset="0.556341" stop-color="#182833"/>
<stop offset="1" stop-color="#182833" stop-opacity="0"/>
</linearGradient>
<clipPath id="clip0_1011_40045">
<rect width="31.4898" height="34.189" fill="white" transform="matrix(0.866025 -0.500001 0.866025 0.500001 298.055 258.203)"/>
</clipPath>
<clipPath id="clip1_1011_40045">
<rect width="31.4898" height="34.189" fill="white" transform="matrix(0.866025 -0.500001 0.866025 0.500001 298.055 258.203)"/>
</clipPath>
</defs>
</svg>
