<svg width="79" height="78" viewBox="0 0 79 78" fill="none" xmlns="http://www.w3.org/2000/svg">
<path d="M65.5 9.75H20C18.2767 9.75196 16.6245 10.4374 15.406 11.656C14.1874 12.8745 13.502 14.5267 13.5 16.25V55.25H8.625C8.41157 55.2499 8.2002 55.2918 8.00299 55.3734C7.80578 55.4551 7.62659 55.5747 7.47567 55.7257C7.32475 55.8766 7.20505 56.0558 7.12343 56.253C7.04182 56.4502 6.99987 56.6616 7 56.875V61.75C7.00215 63.4732 7.68766 65.1253 8.90618 66.3438C10.1247 67.5623 11.7768 68.2478 13.5 68.25H55.75C57.4732 68.2478 59.1253 67.5623 60.3438 66.3438C61.5623 65.1253 62.2478 63.4732 62.25 61.75V22.75H70.375C70.5884 22.7501 70.7998 22.7082 70.997 22.6266C71.1942 22.5449 71.3734 22.4253 71.5243 22.2743C71.6753 22.1234 71.7949 21.9442 71.8766 21.747C71.9582 21.5498 72.0001 21.3384 72 21.125V16.25C71.998 14.5267 71.3126 12.8745 70.094 11.656C68.8755 10.4374 67.2233 9.75196 65.5 9.75ZM13.5 65C12.6382 64.9994 11.8119 64.6568 11.2025 64.0475C10.5932 63.4381 10.2506 62.6118 10.25 61.75V58.5H49.25V61.75C49.2481 62.8915 49.5493 64.013 50.1228 65H13.5ZM59 61.75C59 62.612 58.6576 63.4386 58.0481 64.0481C57.4386 64.6576 56.612 65 55.75 65C54.888 65 54.0614 64.6576 53.4519 64.0481C52.8424 63.4386 52.5 62.612 52.5 61.75V56.875C52.5001 56.6616 52.4582 56.4502 52.3766 56.253C52.2949 56.0558 52.1753 55.8766 52.0243 55.7257C51.8734 55.5747 51.6942 55.4551 51.497 55.3734C51.2998 55.2918 51.0884 55.2499 50.875 55.25H16.75V16.25C16.7509 15.3883 17.0935 14.5622 17.7029 13.9529C18.3122 13.3435 19.1383 13.0009 20 13H59.9042C59.3187 13.9835 59.0065 15.1055 59 16.25V61.75ZM68.75 19.5H62.25V16.25C62.25 15.388 62.5924 14.5614 63.2019 13.9519C63.8114 13.3424 64.638 13 65.5 13C66.362 13 67.1886 13.3424 67.7981 13.9519C68.4076 14.5614 68.75 15.388 68.75 16.25V19.5Z" fill="#17374C"/>
<path d="M41.5725 21.1868C41.3673 21.1275 41.1523 21.1093 40.94 21.1334C40.7276 21.1574 40.5222 21.2233 40.3354 21.3272C40.1487 21.431 39.9843 21.5708 39.8518 21.7384C39.7193 21.9061 39.6213 22.0983 39.5635 22.304L33.0635 45.0524C33.0044 45.2575 32.9863 45.4722 33.0103 45.6843C33.0343 45.8963 33.1 46.1015 33.2035 46.2882C33.3069 46.4748 33.4463 46.6392 33.6134 46.7719C33.7806 46.9046 33.9722 47.003 34.1775 47.0615C34.3228 47.1041 34.4736 47.1255 34.625 47.1249C34.9779 47.1252 35.3213 47.0104 35.6031 46.7979C35.8849 46.5854 36.0898 46.2869 36.1866 45.9475L42.6866 23.1958C42.7454 22.9908 42.7632 22.7761 42.7391 22.5642C42.7149 22.3522 42.6493 22.1471 42.5458 21.9605C42.4424 21.774 42.3031 21.6096 42.1362 21.4768C41.9692 21.3441 41.7776 21.2456 41.5725 21.1868Z" fill="#FF972C"/>
<path d="M30.8988 28.1009C30.594 27.7962 30.1807 27.625 29.7498 27.625C29.3189 27.625 28.9056 27.7962 28.6009 28.1009L23.7259 32.9759C23.4212 33.2806 23.25 33.6939 23.25 34.1248C23.25 34.5557 23.4212 34.969 23.7259 35.2738L28.6009 40.1488C28.9069 40.4471 29.3181 40.6129 29.7456 40.6102C30.173 40.6075 30.5821 40.4365 30.8843 40.1343C31.1865 39.8321 31.3575 39.4229 31.3602 38.9955C31.3629 38.5681 31.1971 38.1569 30.8988 37.8509L27.1726 34.1248L30.8988 30.3988C31.2035 30.094 31.3746 29.6807 31.3746 29.2498C31.3746 28.8189 31.2035 28.4056 30.8988 28.1009Z" fill="#FF972C"/>
<path d="M47.1489 28.1011C46.8428 27.8028 46.4316 27.637 46.0042 27.6397C45.5768 27.6424 45.1677 27.8134 44.8654 28.1156C44.5632 28.4178 44.3922 28.8269 44.3895 29.2544C44.3868 29.6818 44.5526 30.093 44.851 30.399L48.5771 34.1251L44.851 37.8511C44.6969 38.0013 44.5742 38.1806 44.49 38.3785C44.4058 38.5765 44.3617 38.7892 44.3604 39.0044C44.359 39.2195 44.4004 39.4327 44.4821 39.6317C44.5638 39.8308 44.6842 40.0116 44.8363 40.1637C44.9884 40.3158 45.1692 40.4362 45.3683 40.5179C45.5673 40.5996 45.7805 40.641 45.9956 40.6396C46.2108 40.6383 46.4235 40.5942 46.6215 40.51C46.8194 40.4258 46.9987 40.3031 47.1489 40.149L52.0239 35.274C52.3286 34.9693 52.4997 34.556 52.4997 34.1251C52.4997 33.6942 52.3286 33.2809 52.0239 32.9761L47.1489 28.1011Z" fill="#FF972C"/>
</svg>
