<svg width="79" height="78" viewBox="0 0 79 78" fill="none" xmlns="http://www.w3.org/2000/svg">
<path d="M67.125 22.75C67.3384 22.7501 67.5498 22.7082 67.747 22.6266C67.9442 22.5449 68.1234 22.4253 68.2743 22.2743C68.4253 22.1234 68.5449 21.9442 68.6266 21.747C68.7082 21.5498 68.7501 21.3384 68.75 21.125V8.125C68.7501 7.91157 68.7082 7.7002 68.6266 7.50299C68.5449 7.30578 68.4253 7.12659 68.2743 6.97567C68.1234 6.82475 67.9442 6.70505 67.747 6.62343C67.5498 6.54182 67.3384 6.49987 67.125 6.5H11.875C11.6616 6.49987 11.4502 6.54182 11.253 6.62343C11.0558 6.70505 10.8766 6.82475 10.7257 6.97567C10.5747 7.12659 10.4551 7.30578 10.3734 7.50299C10.2918 7.7002 10.2499 7.91157 10.25 8.125V21.125C10.2499 21.3384 10.2918 21.5498 10.3734 21.747C10.4551 21.9442 10.5747 22.1234 10.7257 22.2743C10.8766 22.4253 11.0558 22.5449 11.253 22.6266C11.4502 22.7082 11.6616 22.7501 11.875 22.75H37.875V26H11.875C11.6616 25.9999 11.4502 26.0418 11.253 26.1234C11.0558 26.2051 10.8766 26.3247 10.7257 26.4757C10.5747 26.6266 10.4551 26.8058 10.3734 27.003C10.2918 27.2002 10.2499 27.4116 10.25 27.625V40.625C10.2499 40.8384 10.2918 41.0498 10.3734 41.247C10.4551 41.4442 10.5747 41.6234 10.7257 41.7743C10.8766 41.9253 11.0558 42.0449 11.253 42.1266C11.4502 42.2082 11.6616 42.2501 11.875 42.25H37.875V45.5H11.875C11.6616 45.4999 11.4502 45.5418 11.253 45.6234C11.0558 45.7051 10.8766 45.8247 10.7257 45.9757C10.5747 46.1266 10.4551 46.3058 10.3734 46.503C10.2918 46.7002 10.2499 46.9116 10.25 47.125V60.125C10.2499 60.3384 10.2918 60.5498 10.3734 60.747C10.4551 60.9442 10.5747 61.1234 10.7257 61.2743C10.8766 61.4253 11.0558 61.5449 11.253 61.6266C11.4502 61.7082 11.6616 61.7501 11.875 61.75H37.875V68.25H21.625C21.194 68.25 20.7807 68.4212 20.476 68.726C20.1712 69.0307 20 69.444 20 69.875C20 70.306 20.1712 70.7193 20.476 71.024C20.7807 71.3288 21.194 71.5 21.625 71.5H57.375C57.806 71.5 58.2193 71.3288 58.524 71.024C58.8288 70.7193 59 70.306 59 69.875C59 69.444 58.8288 69.0307 58.524 68.726C58.2193 68.4212 57.806 68.25 57.375 68.25H41.125V61.75H67.125C67.3384 61.7501 67.5498 61.7082 67.747 61.6266C67.9442 61.5449 68.1234 61.4253 68.2743 61.2743C68.4253 61.1234 68.5449 60.9442 68.6266 60.747C68.7082 60.5498 68.7501 60.3384 68.75 60.125V47.125C68.7501 46.9116 68.7082 46.7002 68.6266 46.503C68.5449 46.3058 68.4253 46.1266 68.2743 45.9757C68.1234 45.8247 67.9442 45.7051 67.747 45.6234C67.5498 45.5418 67.3384 45.4999 67.125 45.5H41.125V42.25H67.125C67.3384 42.2501 67.5498 42.2082 67.747 42.1266C67.9442 42.0449 68.1234 41.9253 68.2743 41.7743C68.4253 41.6234 68.5449 41.4442 68.6266 41.247C68.7082 41.0498 68.7501 40.8384 68.75 40.625V27.625C68.7501 27.4116 68.7082 27.2002 68.6266 27.003C68.5449 26.8058 68.4253 26.6266 68.2743 26.4757C68.1234 26.3247 67.9442 26.2051 67.747 26.1234C67.5498 26.0418 67.3384 25.9999 67.125 26H41.125V22.75H67.125ZM65.5 58.5H13.5V48.75H65.5V58.5ZM65.5 39H13.5V29.25H65.5V39ZM13.5 9.75H65.5V19.5H13.5V9.75Z" fill="#17374C"/>
<path d="M21.625 13H18.375C17.944 13 17.5307 13.1712 17.226 13.476C16.9212 13.7807 16.75 14.194 16.75 14.625C16.75 15.056 16.9212 15.4693 17.226 15.774C17.5307 16.0788 17.944 16.25 18.375 16.25H21.625C22.056 16.25 22.4693 16.0788 22.774 15.774C23.0788 15.4693 23.25 15.056 23.25 14.625C23.25 14.194 23.0788 13.7807 22.774 13.476C22.4693 13.1712 22.056 13 21.625 13Z" fill="#646464"/>
<path d="M57.375 16.25H60.625C61.056 16.25 61.4693 16.0788 61.774 15.774C62.0788 15.4693 62.25 15.056 62.25 14.625C62.25 14.194 62.0788 13.7807 61.774 13.476C61.4693 13.1712 61.056 13 60.625 13H57.375C56.944 13 56.5307 13.1712 56.226 13.476C55.9212 13.7807 55.75 14.194 55.75 14.625C55.75 15.056 55.9212 15.4693 56.226 15.774C56.5307 16.0788 56.944 16.25 57.375 16.25Z" fill="#646464"/>
<path d="M47.625 16.25H50.875C51.306 16.25 51.7193 16.0788 52.024 15.774C52.3288 15.4693 52.5 15.056 52.5 14.625C52.5 14.194 52.3288 13.7807 52.024 13.476C51.7193 13.1712 51.306 13 50.875 13H47.625C47.194 13 46.7807 13.1712 46.476 13.476C46.1712 13.7807 46 14.194 46 14.625C46 15.056 46.1712 15.4693 46.476 15.774C46.7807 16.0788 47.194 16.25 47.625 16.25Z" fill="#646464"/>
<path d="M21.625 32.5H18.375C17.944 32.5 17.5307 32.6712 17.226 32.976C16.9212 33.2807 16.75 33.694 16.75 34.125C16.75 34.556 16.9212 34.9693 17.226 35.274C17.5307 35.5788 17.944 35.75 18.375 35.75H21.625C22.056 35.75 22.4693 35.5788 22.774 35.274C23.0788 34.9693 23.25 34.556 23.25 34.125C23.25 33.694 23.0788 33.2807 22.774 32.976C22.4693 32.6712 22.056 32.5 21.625 32.5Z" fill="#646464"/>
<path d="M57.375 35.75H60.625C61.056 35.75 61.4693 35.5788 61.774 35.274C62.0788 34.9693 62.25 34.556 62.25 34.125C62.25 33.694 62.0788 33.2807 61.774 32.976C61.4693 32.6712 61.056 32.5 60.625 32.5H57.375C56.944 32.5 56.5307 32.6712 56.226 32.976C55.9212 33.2807 55.75 33.694 55.75 34.125C55.75 34.556 55.9212 34.9693 56.226 35.274C56.5307 35.5788 56.944 35.75 57.375 35.75Z" fill="#646464"/>
<path d="M47.625 35.75H50.875C51.306 35.75 51.7193 35.5788 52.024 35.274C52.3288 34.9693 52.5 34.556 52.5 34.125C52.5 33.694 52.3288 33.2807 52.024 32.976C51.7193 32.6712 51.306 32.5 50.875 32.5H47.625C47.194 32.5 46.7807 32.6712 46.476 32.976C46.1712 33.2807 46 33.694 46 34.125C46 34.556 46.1712 34.9693 46.476 35.274C46.7807 35.5788 47.194 35.75 47.625 35.75Z" fill="#646464"/>
<path d="M21.625 52H18.375C17.944 52 17.5307 52.1712 17.226 52.476C16.9212 52.7807 16.75 53.194 16.75 53.625C16.75 54.056 16.9212 54.4693 17.226 54.774C17.5307 55.0788 17.944 55.25 18.375 55.25H21.625C22.056 55.25 22.4693 55.0788 22.774 54.774C23.0788 54.4693 23.25 54.056 23.25 53.625C23.25 53.194 23.0788 52.7807 22.774 52.476C22.4693 52.1712 22.056 52 21.625 52Z" fill="#646464"/>
<path d="M57.375 55.25H60.625C61.056 55.25 61.4693 55.0788 61.774 54.774C62.0788 54.4693 62.25 54.056 62.25 53.625C62.25 53.194 62.0788 52.7807 61.774 52.476C61.4693 52.1712 61.056 52 60.625 52H57.375C56.944 52 56.5307 52.1712 56.226 52.476C55.9212 52.7807 55.75 53.194 55.75 53.625C55.75 54.056 55.9212 54.4693 56.226 54.774C56.5307 55.0788 56.944 55.25 57.375 55.25Z" fill="#646464"/>
<path d="M47.625 55.25H50.875C51.306 55.25 51.7193 55.0788 52.024 54.774C52.3288 54.4693 52.5 54.056 52.5 53.625C52.5 53.194 52.3288 52.7807 52.024 52.476C51.7193 52.1712 51.306 52 50.875 52H47.625C47.194 52 46.7807 52.1712 46.476 52.476C46.1712 52.7807 46 53.194 46 53.625C46 54.056 46.1712 54.4693 46.476 54.774C46.7807 55.0788 47.194 55.25 47.625 55.25Z" fill="#646464"/>
</svg>
