<svg width="202" height="165" viewBox="0 0 202 165" fill="none" xmlns="http://www.w3.org/2000/svg">
<g filter="url(#filter0_b_237_18118)">
<rect x="1" y="1" width="200" height="163" rx="9" stroke="white" stroke-width="2"/>
<path fill-rule="evenodd" clip-rule="evenodd" d="M93.4805 100.56H46.3467V63.8438H93.4805V100.56Z" fill="white"/>
<mask id="mask0_237_18118" style="mask-type:luminance" maskUnits="userSpaceOnUse" x="46" y="63" width="48" height="38">
<path d="M93.4805 100.552H46.3467V63.8359H93.4805V100.552Z" fill="white"/>
</mask>
<g mask="url(#mask0_237_18118)">
<path fill-rule="evenodd" clip-rule="evenodd" d="M84.398 100.552V85.7901H93.8334V100.552H105.984V63.8359H93.8334V78.6874H84.398V63.8359H46.2988V100.552H84.398Z" fill="#B5B5B5"/>
<path fill-rule="evenodd" clip-rule="evenodd" d="M73.835 70.8747V66.0078H79.5864V70.8747H73.835Z" fill="white"/>
<path fill-rule="evenodd" clip-rule="evenodd" d="M79.5859 71.7578V76.6245H59.6764V82.3762H74.7192V93.8794H54.3672V89.0127H69.4097V87.2431H54.3672V71.7578H79.5859Z" fill="white"/>
<path fill-rule="evenodd" clip-rule="evenodd" d="M71.1802 66.0078V70.8747H53.0402V94.7661H75.6046V81.4931H66.756V77.5112H79.5865V98.748H49.0586V66.0078H71.1802Z" fill="white"/>
</g>
<path d="M99.5741 75.3061C99.5741 79.464 101.911 82.0412 106.447 82.969L110.33 83.7593C112.013 84.1029 112.666 84.8247 112.666 86.2335C112.666 87.8486 111.086 88.8451 108.577 88.8451C106.103 88.8451 104.729 87.8142 104.729 85.9587H99.1963C99.1963 90.735 102.873 93.7933 108.543 93.7933C114.384 93.7933 118.233 90.5976 118.233 85.6838C118.233 81.6634 116.068 79.4986 111.532 78.5709L107.718 77.7806C105.931 77.4025 105.141 76.6466 105.141 75.1003C105.141 73.4167 106.584 72.3857 108.852 72.3857C110.948 72.3857 112.288 73.4853 112.288 75.2722H117.82C117.82 70.4614 114.384 67.4375 108.921 67.4375C103.457 67.4375 99.5741 70.7018 99.5741 75.3064V75.3061Z" fill="white"/>
<path d="M133.351 72.7309C135.997 72.7309 138.334 73.8993 138.987 76.5795H144.829C144.244 71.0816 139.571 67.5078 133.489 67.5078C125.62 67.5078 120.5 73.0401 120.5 80.7029C120.5 88.5032 125.483 93.7262 132.596 93.7262C135.619 93.7262 138.369 92.6611 139.743 91.046L140.052 93.3484H144.829V78.7445H132.87V83.6238H139.605C139.365 86.2696 137.509 88.5376 133.317 88.5376C129.262 88.5376 126.376 85.9948 126.376 80.875C126.376 75.9612 128.747 72.7311 133.351 72.7311V72.7309Z" fill="white"/>
<path d="M154.999 67.9141H149.433V93.3422H154.999V67.9141Z" fill="white"/>
<path d="M99.7372 100.51V99.2005H101.106V100.51H101.647V97.4219H101.106V98.6977H99.7372V97.4219H99.1963V100.51H99.7372Z" fill="white"/>
<path d="M105.148 98.9564C105.148 98.0142 104.531 97.3594 103.648 97.3594C102.765 97.3594 102.152 98.0184 102.152 98.9564C102.152 99.8985 102.761 100.553 103.644 100.553C104.531 100.553 105.148 99.8944 105.148 98.9564ZM104.577 98.9564C104.577 99.6068 104.214 100.034 103.648 100.034C103.082 100.034 102.718 99.6154 102.718 98.9564C102.718 98.2974 103.082 97.879 103.648 97.879C104.214 97.879 104.577 98.2971 104.577 98.9564Z" fill="white"/>
<path d="M106.192 97.4219H105.651V100.51H107.485V100.012H106.192V97.4219Z" fill="white"/>
<path d="M109.034 100.51C109.93 100.51 110.546 99.8805 110.546 98.9723C110.546 98.0511 109.917 97.4219 109.004 97.4219H107.923V100.51H109.034L109.034 100.51ZM108.954 97.92C109.592 97.92 109.976 98.3172 109.976 98.972C109.976 99.6142 109.6 100.011 108.983 100.011H108.464V97.92H108.954Z" fill="white"/>
<path d="M111.592 97.4219H111.051V100.51H111.592V97.4219Z" fill="white"/>
<path d="M112.808 100.51V98.3218L114.261 100.51H114.794V97.4219H114.261V99.6103L112.812 97.4219H112.275V100.51H112.808Z" fill="white"/>
<path d="M116.83 97.8663C117.202 97.8663 117.515 98.0352 117.612 98.3987H118.182C118.093 97.7692 117.549 97.3594 116.843 97.3594C115.913 97.3594 115.301 98.0269 115.301 98.9649C115.301 99.9154 115.905 100.545 116.771 100.545C117.189 100.545 117.54 100.38 117.709 100.144L117.743 100.499H118.199V98.7623H116.763V99.2398H117.696V99.2525C117.696 99.7467 117.371 100.043 116.834 100.043C116.264 100.043 115.867 99.6664 115.867 98.9779C115.867 98.3103 116.218 97.8668 116.83 97.8668L116.83 97.8663Z" fill="white"/>
<path d="M118.604 98.2766C118.604 98.7499 118.879 99.0499 119.402 99.1638L119.892 99.2737C120.146 99.3286 120.252 99.4511 120.252 99.6581C120.252 99.9159 120.023 100.072 119.664 100.072C119.318 100.072 119.107 99.9156 119.102 99.6537H118.562C118.574 100.207 119.005 100.558 119.664 100.558C120.345 100.558 120.792 100.186 120.792 99.6112C120.792 99.1507 120.535 98.8805 120.006 98.7662L119.521 98.6606C119.263 98.6015 119.144 98.479 119.144 98.2593C119.144 98.0015 119.36 97.8409 119.694 97.8409C119.998 97.8409 120.188 97.9974 120.201 98.2634H120.741C120.725 97.7057 120.327 97.3594 119.702 97.3594C119.051 97.3594 118.604 97.7355 118.604 98.2761L118.604 98.2766Z" fill="white"/>
<path d="M123.644 99.4455C124.261 99.4455 124.666 99.0272 124.666 98.4316C124.666 97.8275 124.265 97.4219 123.644 97.4219H122.423V100.51H122.964V99.4455H123.644H123.644ZM123.538 97.9034C123.897 97.9034 124.1 98.0892 124.1 98.4272C124.1 98.7653 123.901 98.9637 123.53 98.9637H122.963V97.9034H123.538Z" fill="white"/>
<path d="M124.853 97.9203H125.757V100.51H126.297V97.9203H127.202V97.4219H124.853V97.9203Z" fill="white"/>
<path d="M128.798 100.549C129.529 100.549 130.095 100.118 130.213 99.4675H129.652C129.55 99.8097 129.229 100.029 128.811 100.029C128.245 100.029 127.881 99.6069 127.881 98.952C127.881 98.293 128.24 97.879 128.811 97.879C129.221 97.879 129.529 98.0901 129.635 98.4494H130.205C130.099 97.786 129.554 97.3594 128.824 97.3594C127.92 97.3594 127.315 97.9974 127.315 98.9564C127.315 99.9239 127.899 100.549 128.798 100.549L128.798 100.549Z" fill="white"/>
<path d="M132.381 97.4219H131.841V100.51H133.674V100.012H132.381V97.4219Z" fill="white"/>
<path d="M133.518 97.9203H134.422V100.51H134.963V97.9203H135.867V97.4219H133.518V97.9203Z" fill="white"/>
<path d="M137.392 100.51C138.287 100.51 138.904 99.8805 138.904 98.9723C138.904 98.0511 138.274 97.4219 137.362 97.4219H136.28V100.51H137.391L137.392 100.51ZM137.311 97.92C137.949 97.92 138.334 98.3172 138.334 98.972C138.334 99.6142 137.958 100.011 137.341 100.011H136.821V97.92H137.311Z" fill="white"/>
<path d="M139.488 100.555C139.673 100.555 139.83 100.403 139.83 100.221C139.83 100.035 139.673 99.8828 139.488 99.8828C139.302 99.8828 139.146 100.035 139.146 100.221C139.146 100.402 139.302 100.555 139.488 100.555Z" fill="white"/>
</g>
<defs>
<filter id="filter0_b_237_18118" x="-4" y="-4" width="210" height="173" filterUnits="userSpaceOnUse" color-interpolation-filters="sRGB">
<feFlood flood-opacity="0" result="BackgroundImageFix"/>
<feGaussianBlur in="BackgroundImageFix" stdDeviation="2"/>
<feComposite in2="SourceAlpha" operator="in" result="effect1_backgroundBlur_237_18118"/>
<feBlend mode="normal" in="SourceGraphic" in2="effect1_backgroundBlur_237_18118" result="shape"/>
</filter>
</defs>
</svg>
