<svg width="202" height="165" viewBox="0 0 202 165" fill="none" xmlns="http://www.w3.org/2000/svg">
<g filter="url(#filter0_b_237_18031)">
<rect x="1" y="1" width="200" height="163" rx="9" stroke="white" stroke-width="2"/>
<g clip-path="url(#clip0_237_18031)">
<g clip-path="url(#clip1_237_18031)">
<path d="M55.4287 71.8622V67.4565H60.6353V71.8622H55.4287Z" fill="white"/>
<path d="M53.0255 67.4565V71.8622H36.6046V93.4897H57.0306V81.4744H49.0204V77.8698H60.6352V97.0943H33V67.4565H53.0255Z" fill="white"/>
<path d="M60.6347 72.6633V77.0689H42.6118V82.2756H56.2291V92.6888H37.8057V88.2832H51.423V86.6812H37.8057V72.6633H60.6347Z" fill="white"/>
</g>
</g>
<path d="M66.0662 76.4144C66.0662 74.3638 67.7644 72.938 70.2315 72.938C72.6025 72.938 74.1084 74.2517 74.1725 76.3664H72.1219C72.0739 75.3571 71.3529 74.7643 70.1995 74.7643C68.9339 74.7643 68.1168 75.3731 68.1168 76.3503C68.1168 77.1834 68.5654 77.648 69.5426 77.8723L71.385 78.2728C73.3875 78.7053 74.3648 79.7306 74.3648 81.4769C74.3648 83.6556 72.6666 85.0654 70.0873 85.0654C67.5881 85.0654 65.9541 83.7357 65.906 81.6371H67.9566C67.9726 82.6303 68.7737 83.2231 70.0873 83.2231C71.4491 83.2231 72.3142 82.6303 72.3142 81.6531C72.3142 80.8681 71.9137 80.4035 70.9524 80.1952L69.0941 79.7787C67.1075 79.3462 66.0662 78.2087 66.0662 76.4144ZM75.0381 75.0367V73.1463H83.9455V75.0367H80.5171V84.8572H78.4665V75.0367H75.0381ZM92.7862 84.8572H85.513V73.1463H92.7862V75.0367H87.5636V78.0485H92.2415V79.8588H87.5636V82.9668H92.7862V84.8572ZM98.2936 84.8572L93.872 73.1463H96.0508L98.614 79.8909C98.8704 80.5957 99.0947 81.2846 99.351 82.2298C99.6393 81.2045 99.8797 80.4836 100.104 79.8909L102.635 73.1463H104.766L100.408 84.8572H98.2936ZM113.5 84.8572H106.227V73.1463H113.5V75.0367H108.277V78.0485H112.955V79.8588H108.277V82.9668H113.5V84.8572ZM117.774 84.8572H115.723V73.1463H120.193C122.852 73.1463 124.406 74.492 124.406 76.7989C124.406 78.3689 123.669 79.4903 122.292 80.0511L124.519 84.8572H122.276L120.289 80.4836H117.774V84.8572ZM117.774 74.9726V78.6733H120.193C121.491 78.6733 122.26 77.9844 122.26 76.7989C122.26 75.6294 121.491 74.9726 120.193 74.9726H117.774ZM127.465 84.8572H125.334L129.564 73.1463H131.662L135.892 84.8572H133.729L132.784 82.1497H128.41L127.465 84.8572ZM130.349 76.6387L129.019 80.4195H132.191L130.845 76.6387C130.749 76.3343 130.637 75.9819 130.605 75.7416C130.557 75.9659 130.461 76.3183 130.349 76.6387ZM135.287 75.0367V73.1463H144.194V75.0367H140.766V84.8572H138.715V75.0367H135.287ZM155.978 78.9937C155.978 82.5502 153.639 85.0494 150.275 85.0494C146.926 85.0494 144.619 82.5663 144.619 78.9937C144.619 75.4372 146.942 72.938 150.291 72.938C153.639 72.938 155.978 75.4212 155.978 78.9937ZM153.815 78.9937C153.815 76.4945 152.437 74.9085 150.291 74.9085C148.144 74.9085 146.766 76.4945 146.766 78.9937C146.766 81.4929 148.144 83.0789 150.291 83.0789C152.437 83.0789 153.815 81.4609 153.815 78.9937ZM159.905 84.8572H157.886V73.1463H159.921L165.416 81.4448V73.1463H167.435V84.8572H165.416L159.905 76.5586V84.8572Z" fill="white"/>
<path d="M76.1815 90.4393C75.1942 90.4393 74.6291 91.1543 74.6291 92.23C74.6291 93.3398 75.2691 93.9458 76.1883 93.9458C77.053 93.9458 77.5772 93.4692 77.5772 92.6726V92.6522H76.0725V91.8828H78.3875V94.6812H77.6521L77.5977 94.1092C77.3253 94.4905 76.7602 94.756 76.0861 94.756C74.6904 94.756 73.7167 93.7416 73.7167 92.2096C73.7167 90.6981 74.704 89.6223 76.2019 89.6223C77.3389 89.6223 78.2172 90.2827 78.3602 91.2972H77.4411C77.2845 90.7117 76.7806 90.4393 76.1815 90.4393ZM80.6086 94.6812H79.7371V89.704H81.6367C82.767 89.704 83.4274 90.2759 83.4274 91.2564C83.4274 91.9236 83.1142 92.4002 82.5287 92.6386L83.4751 94.6812H82.5219L81.6776 92.8224H80.6086V94.6812ZM80.6086 90.4802V92.053H81.6367C82.1882 92.053 82.5151 91.7602 82.5151 91.2564C82.5151 90.7594 82.1882 90.4802 81.6367 90.4802H80.6086ZM89.235 92.1892C89.235 93.7007 88.2409 94.7629 86.8111 94.7629C85.3881 94.7629 84.4077 93.7075 84.4077 92.1892C84.4077 90.6777 85.3949 89.6155 86.8179 89.6155C88.2409 89.6155 89.235 90.6708 89.235 92.1892ZM88.3158 92.1892C88.3158 91.127 87.7303 90.453 86.8179 90.453C85.9056 90.453 85.32 91.127 85.32 92.1892C85.32 93.2513 85.9056 93.9254 86.8179 93.9254C87.7303 93.9254 88.3158 93.2377 88.3158 92.1892ZM90.4206 92.8632V89.704H91.2921V92.8088C91.2921 93.5237 91.6802 93.9186 92.3883 93.9186C93.0964 93.9186 93.4913 93.5169 93.4913 92.8088V89.704H94.3628V92.8632C94.3628 94.0275 93.6003 94.7629 92.3883 94.7629C91.1832 94.7629 90.4206 94.0343 90.4206 92.8632ZM97.8111 92.9654H96.7149V94.6812H95.8434V89.704H97.8111C98.8119 89.704 99.4588 90.3576 99.4588 91.3313C99.4588 92.2913 98.8051 92.9654 97.8111 92.9654ZM97.6408 90.4802H96.7149V92.1892H97.6272C98.2264 92.1892 98.5464 91.8692 98.5464 91.3245C98.5464 90.7798 98.2196 90.4802 97.6408 90.4802ZM103.716 89.704V94.6812H102.844V89.704H103.716ZM106.085 94.6812H105.227V89.704H106.092L108.427 93.2309V89.704H109.285V94.6812H108.427L106.085 91.1543V94.6812ZM112.899 94.7629C111.449 94.7629 110.51 93.7552 110.51 92.196C110.51 90.6504 111.483 89.6223 112.94 89.6223C114.118 89.6223 114.997 90.31 115.167 91.3789H114.248C114.077 90.8002 113.58 90.4598 112.92 90.4598C112.001 90.4598 111.422 91.127 111.422 92.1892C111.422 93.2445 112.008 93.9254 112.92 93.9254C113.594 93.9254 114.111 93.5713 114.275 93.0198H115.18C114.99 94.0684 114.077 94.7629 112.899 94.7629ZM120.912 92.1892C120.912 93.7007 119.918 94.7629 118.488 94.7629C117.065 94.7629 116.084 93.7075 116.084 92.1892C116.084 90.6777 117.072 89.6155 118.495 89.6155C119.918 89.6155 120.912 90.6708 120.912 92.1892ZM119.993 92.1892C119.993 91.127 119.407 90.453 118.495 90.453C117.582 90.453 116.997 91.127 116.997 92.1892C116.997 93.2513 117.582 93.9254 118.495 93.9254C119.407 93.9254 119.993 93.2377 119.993 92.1892ZM123.003 94.6812H122.131V89.704H124.031C125.161 89.704 125.822 90.2759 125.822 91.2564C125.822 91.9236 125.509 92.4002 124.923 92.6386L125.869 94.6812H124.916L124.072 92.8224H123.003V94.6812ZM123.003 90.4802V92.053H124.031C124.583 92.053 124.909 91.7602 124.909 91.2564C124.909 90.7594 124.583 90.4802 124.031 90.4802H123.003ZM129.069 92.9654H127.973V94.6812H127.101V89.704H129.069C130.07 89.704 130.717 90.3576 130.717 91.3313C130.717 92.2913 130.063 92.9654 129.069 92.9654ZM128.899 90.4802H127.973V92.1892H128.885C129.484 92.1892 129.804 91.8692 129.804 91.3245C129.804 90.7798 129.478 90.4802 128.899 90.4802ZM136.4 92.1892C136.4 93.7007 135.406 94.7629 133.976 94.7629C132.553 94.7629 131.572 93.7075 131.572 92.1892C131.572 90.6777 132.56 89.6155 133.983 89.6155C135.406 89.6155 136.4 90.6708 136.4 92.1892ZM135.481 92.1892C135.481 91.127 134.895 90.453 133.983 90.453C133.07 90.453 132.485 91.127 132.485 92.1892C132.485 93.2513 133.07 93.9254 133.983 93.9254C134.895 93.9254 135.481 93.2377 135.481 92.1892ZM138.491 94.6812H137.619V89.704H139.519C140.649 89.704 141.31 90.2759 141.31 91.2564C141.31 91.9236 140.996 92.4002 140.411 92.6386L141.357 94.6812H140.404L139.56 92.8224H138.491V94.6812ZM138.491 90.4802V92.053H139.519C140.07 92.053 140.397 91.7602 140.397 91.2564C140.397 90.7594 140.07 90.4802 139.519 90.4802H138.491ZM143.018 94.6812H142.113L143.91 89.704H144.802L146.599 94.6812H145.68L145.279 93.5305H143.42L143.018 94.6812ZM144.244 91.1883L143.679 92.7951H145.027L144.455 91.1883C144.414 91.0589 144.366 90.9091 144.353 90.807C144.332 90.9023 144.291 91.0521 144.244 91.1883ZM146.751 90.5074V89.704H150.536V90.5074H149.079V94.6812H148.208V90.5074H146.751ZM154.702 94.6812H151.611V89.704H154.702V90.5074H152.483V91.7875H154.471V92.5568H152.483V93.8777H154.702V94.6812ZM157.846 94.6812H156.056V89.704H157.799C159.269 89.704 160.284 90.7185 160.284 92.2028C160.284 93.6667 159.29 94.6812 157.846 94.6812ZM157.717 90.5074H156.927V93.8777H157.765C158.759 93.8777 159.365 93.2377 159.365 92.2028C159.365 91.1475 158.745 90.5074 157.717 90.5074Z" fill="white"/>
</g>
<defs>
<filter id="filter0_b_237_18031" x="-4" y="-4" width="210" height="173" filterUnits="userSpaceOnUse" color-interpolation-filters="sRGB">
<feFlood flood-opacity="0" result="BackgroundImageFix"/>
<feGaussianBlur in="BackgroundImageFix" stdDeviation="2"/>
<feComposite in2="SourceAlpha" operator="in" result="effect1_backgroundBlur_237_18031"/>
<feBlend mode="normal" in="SourceGraphic" in2="effect1_backgroundBlur_237_18031" result="shape"/>
</filter>
<clipPath id="clip0_237_18031">
<rect width="28.0357" height="30.4388" fill="white" transform="translate(33 67.0562)"/>
</clipPath>
<clipPath id="clip1_237_18031">
<rect width="28.0357" height="30.4388" fill="white" transform="translate(33 67.0562)"/>
</clipPath>
</defs>
</svg>
