<svg width="202" height="165" viewBox="0 0 202 165" fill="none" xmlns="http://www.w3.org/2000/svg">
<g filter="url(#filter0_b_237_18044)">
<rect x="1" y="1" width="200" height="163" rx="9" stroke="white" stroke-width="2"/>
<path fill-rule="evenodd" clip-rule="evenodd" d="M101.902 76.5907L97.1803 72.4304C93.2993 69.0148 90.8699 66.0208 89.8662 63.5162C88.8569 61.0026 88.6093 58.3431 89.363 55.2855C89.398 55.1484 89.4329 55.0092 89.4675 54.875C80.396 64.2057 77.4314 67.4614 87.5416 78.0315C89.6683 80.4432 94.5447 84.0217 97.7915 84.6066C99.3366 84.8856 100.643 84.8655 101.699 84.3297C105.245 82.532 104.099 78.5225 101.902 76.5907ZM96.019 78.2104L92.6531 72.8928C89.8851 68.5258 88.3928 64.9707 88.1319 62.2847C87.9071 59.9889 88.245 57.7466 89.3257 55.4493C89.3387 55.3942 89.3494 55.3406 89.363 55.2855C89.398 55.1484 89.4329 55.0092 89.4675 54.875C80.396 64.2057 77.4314 67.4614 87.5416 78.0315C89.3399 80.0706 93.1009 82.9372 96.184 84.1298C97.4299 82.4971 97.1148 79.9385 96.019 78.2104Z" fill="#B5B5B5"/>
<path fill-rule="evenodd" clip-rule="evenodd" d="M103.773 81.5546C102.47 86.8382 95.7841 84.202 93.0667 82.4505C91.2776 81.2925 88.5046 78.9883 86.9717 77.4347C87.8036 79.0816 89.1506 83.5297 93.9336 86.0578C98.2046 88.3187 102.918 88.0596 105.525 85.7966C113.339 79.0115 100.154 71.1187 96.2698 67.7347C88.1788 60.6795 89.5376 54.5435 89.4678 54.872C87.0736 62.7739 92.0281 67.9995 97.0792 72.5118C99.2986 74.4905 104.67 77.926 103.774 81.5546H103.773Z" fill="white"/>
<path fill-rule="evenodd" clip-rule="evenodd" d="M98.9156 59.4793L103.64 63.6398C107.522 67.0582 109.951 70.0491 110.954 72.5541C111.961 75.0703 112.211 77.7299 111.458 80.7848C111.423 80.9249 111.388 81.0614 111.353 81.198C120.425 71.8676 123.389 68.6119 113.279 58.0418C111.153 55.6298 106.274 52.0486 103.03 51.4666C101.485 51.1873 100.178 51.2078 99.1191 51.7432C95.5755 53.5383 96.7219 57.5475 98.9156 59.4793ZM113.227 73.8058C113.39 76.1662 112.971 78.4526 111.763 80.776C120.508 71.7702 123.234 68.4493 113.279 58.0421C111.63 56.1727 108.331 53.6068 105.418 52.2734C104.539 53.8686 104.835 56.096 105.773 57.6716L108.996 63.0793C111.643 67.5229 113.039 71.1142 113.226 73.8061L113.227 73.8058Z" fill="#B5B5B5"/>
<path fill-rule="evenodd" clip-rule="evenodd" d="M97.048 54.5117C98.3517 49.2308 105.037 51.8637 107.752 53.6182C109.544 54.7732 112.314 57.0774 113.847 58.634C113.015 56.9871 111.671 52.536 106.887 50.0076C102.617 47.7473 97.9033 48.0088 95.2965 50.2692C87.4819 57.0543 100.667 64.95 104.548 68.334C112.643 75.3863 111.281 81.5252 111.353 81.1964C113.748 73.2945 108.79 68.0692 103.742 63.5569C101.522 61.5782 96.1518 58.1397 97.0477 54.5117H97.048Z" fill="white"/>
<path d="M64.0344 97.7373C64.0344 100.092 65.3574 101.551 67.926 102.076L70.1248 102.524C71.0781 102.719 71.4477 103.127 71.4477 103.925C71.4477 104.839 70.5527 105.404 69.1323 105.404C67.7315 105.404 66.9531 104.82 66.9531 103.769H63.8203C63.8203 106.474 65.9023 108.205 69.1128 108.205C72.4206 108.205 74.5998 106.396 74.5998 103.613C74.5998 101.337 73.374 100.111 70.8056 99.5854L68.6457 99.1379C67.634 98.9241 67.1862 98.4958 67.1862 97.6204C67.1862 96.667 68.0033 96.0833 69.2878 96.0833C70.4745 96.0833 71.2336 96.7058 71.2336 97.7178H74.3664C74.3664 94.9937 72.4206 93.2812 69.3269 93.2812C66.2332 93.2812 64.0344 95.1299 64.0344 97.737V97.7373Z" fill="white"/>
<path d="M79.834 93.5547H76.6816V107.954H79.834V93.5547Z" fill="white"/>
<path d="M85.9824 93.5547H82.8301V107.954H91.6641V105.035H85.9824V93.5547Z" fill="white"/>
<path d="M96.178 107.953H99.4275L104.72 93.5547H101.432L98.7463 100.832C98.435 101.688 98.1626 102.486 97.793 103.867C97.4817 102.622 97.2092 101.727 96.8784 100.832L94.1543 93.5547H90.7881L96.1777 107.953H96.178Z" fill="white"/>
<path d="M109.565 93.5547H106.413V107.954H109.565V93.5547Z" fill="white"/>
<path d="M115.675 107.954V98.8083L121.746 107.954H124.859V93.5547H121.746V102.719L115.675 93.5547H112.562V107.954H115.675Z" fill="white"/>
<path d="M137 107.954V105.035H131.008V102.058H136.32V99.2946H131.008V96.4734H137V93.5547H127.855V107.954H137Z" fill="white"/>
<path d="M70.3589 113.506V113.092H69.0372V111.989H70.6104V111.57H68.5811V114.935H69.0372V113.506H70.3589Z" fill="white"/>
<path d="M74.0889 111.57H73.6328V114.935H74.0889V111.57Z" fill="white"/>
<path d="M77.7998 114.935V112.334L79.522 114.935H79.9778V111.57H79.522V114.172L77.7998 111.57H77.3438V114.935H77.7998Z" fill="white"/>
<path d="M83.1309 113.899H84.5504V113.508H83.1309V113.899Z" fill="white"/>
<path d="M87.4286 112.476C87.4286 112.96 87.7127 113.277 88.2617 113.402L88.8156 113.528C89.1366 113.602 89.2808 113.77 89.2808 114.035C89.2808 114.37 88.9968 114.58 88.5502 114.58C88.1267 114.58 87.8566 114.375 87.8474 114.054H87.3818C87.4097 114.631 87.8658 114.989 88.5499 114.989C89.2666 114.989 89.7366 114.603 89.7366 113.998C89.7366 113.523 89.4574 113.226 88.9083 113.1L88.3544 112.969C88.0378 112.895 87.8844 112.732 87.8844 112.462C87.8844 112.132 88.159 111.917 88.5825 111.917C88.9595 111.917 89.1967 112.113 89.2201 112.448H89.681C89.6436 111.866 89.2296 111.508 88.5872 111.508C87.8939 111.508 87.4283 111.899 87.4283 112.476H87.4286Z" fill="white"/>
<path d="M95.8119 113.248C95.8119 112.225 95.1464 111.508 94.1921 111.508C93.2426 111.508 92.5771 112.229 92.5771 113.248C92.5771 114.272 93.2379 114.989 94.1874 114.989C95.1413 114.989 95.8116 114.272 95.8116 113.248H95.8119ZM95.3324 113.248C95.3324 114.026 94.8763 114.551 94.1921 114.551C93.508 114.551 93.0566 114.03 93.0566 113.248C93.0566 112.466 93.508 111.95 94.1921 111.95C94.8763 111.95 95.3324 112.466 95.3324 113.248Z" fill="white"/>
<path d="M99.3181 111.57H98.8623V114.935H100.798V114.512H99.3181V111.57Z" fill="white"/>
<path d="M103.598 113.739C103.598 114.516 104.091 114.991 104.887 114.991C105.678 114.991 106.171 114.512 106.171 113.739V111.57H105.711V113.711C105.711 114.246 105.417 114.549 104.887 114.549C104.352 114.549 104.054 114.251 104.054 113.711V111.57H103.598V113.739Z" fill="white"/>
<path d="M109.073 111.989H110.088V114.935H110.544V111.989H111.554V111.57H109.073V111.989Z" fill="white"/>
<path d="M114.939 111.57H114.483V114.935H114.939V111.57Z" fill="white"/>
<path d="M121.229 113.248C121.229 112.225 120.563 111.508 119.609 111.508C118.66 111.508 117.994 112.229 117.994 113.248C117.994 114.272 118.655 114.989 119.604 114.989C120.558 114.989 121.229 114.272 121.229 113.248H121.229ZM120.749 113.248C120.749 114.026 120.293 114.551 119.609 114.551C118.925 114.551 118.474 114.03 118.474 113.248C118.474 112.466 118.925 111.95 119.609 111.95C120.293 111.95 120.749 112.466 120.749 113.248Z" fill="white"/>
<path d="M124.735 114.935V112.334L126.457 114.935H126.913V111.57H126.457V114.172L124.735 111.57H124.279V114.935H124.735Z" fill="white"/>
<path d="M129.931 112.476C129.931 112.96 130.215 113.277 130.764 113.402L131.318 113.528C131.639 113.602 131.783 113.77 131.783 114.035C131.783 114.37 131.499 114.58 131.052 114.58C130.629 114.58 130.359 114.375 130.349 114.054H129.884C129.912 114.631 130.368 114.989 131.052 114.989C131.769 114.989 132.239 114.603 132.239 113.998C132.239 113.523 131.959 113.226 131.41 113.1L130.856 112.969C130.54 112.895 130.386 112.732 130.386 112.462C130.386 112.132 130.661 111.917 131.084 111.917C131.461 111.917 131.699 112.113 131.722 112.448H132.183C132.146 111.866 131.732 111.508 131.089 111.508C130.396 111.508 129.93 111.899 129.93 112.476H129.931Z" fill="white"/>
</g>
<defs>
<filter id="filter0_b_237_18044" x="-4" y="-4" width="210" height="173" filterUnits="userSpaceOnUse" color-interpolation-filters="sRGB">
<feFlood flood-opacity="0" result="BackgroundImageFix"/>
<feGaussianBlur in="BackgroundImageFix" stdDeviation="2"/>
<feComposite in2="SourceAlpha" operator="in" result="effect1_backgroundBlur_237_18044"/>
<feBlend mode="normal" in="SourceGraphic" in2="effect1_backgroundBlur_237_18044" result="shape"/>
</filter>
</defs>
</svg>
