<svg width="202" height="165" viewBox="0 0 202 165" fill="none" xmlns="http://www.w3.org/2000/svg">
<g filter="url(#filter0_b_237_18075)">
<rect x="1" y="1" width="200" height="163" rx="9" stroke="white" stroke-width="2"/>
<g clip-path="url(#clip0_237_18075)">
<rect x="30.8643" y="95.2578" width="31.2794" height="8.73029" rx="0.859016" transform="rotate(-45 30.8643 95.2578)" fill="white"/>
<rect x="40.0576" y="101.977" width="29.5343" height="8.73029" rx="0.859016" transform="rotate(-45 40.0576 101.977)" fill="#F2EDE4"/>
<rect x="24.1396" y="86.0625" width="29.5343" height="8.73029" rx="0.859016" transform="rotate(-45 24.1396 86.0625)" fill="white"/>
</g>
<path d="M76.8697 87.3146C76.041 87.3146 75.2772 87.221 74.5783 87.0336C73.8793 86.8535 73.2524 86.6265 72.6976 86.3527C72.1499 86.0716 71.6779 85.7834 71.2816 85.488C70.8853 85.1925 70.5719 84.9331 70.3413 84.7097L72.1355 81.813C72.3733 82.022 72.6579 82.2562 72.9894 82.5156C73.3209 82.775 73.6919 83.0236 74.1027 83.2614C74.5134 83.492 74.9566 83.6865 75.4321 83.8451C75.9149 83.9964 76.4265 84.072 76.967 84.072C77.4714 84.072 77.9145 83.9928 78.2964 83.8343C78.6855 83.6757 78.9918 83.4415 79.2151 83.1317C79.4385 82.8146 79.5502 82.4219 79.5502 81.9536C79.5502 81.5284 79.4601 81.1681 79.28 80.8727C79.0999 80.5701 78.8332 80.2998 78.4802 80.062C78.1343 79.8171 77.7055 79.5793 77.1939 79.3487C76.6895 79.1109 76.1131 78.8515 75.4646 78.5705C74.9818 78.3543 74.5206 78.1093 74.0811 77.8355C73.6487 77.5544 73.2632 77.2302 72.9245 76.8627C72.5859 76.4952 72.3157 76.0809 72.1139 75.6197C71.9193 75.1513 71.8221 74.6289 71.8221 74.0525C71.8221 73.3679 71.959 72.7122 72.2328 72.0853C72.5066 71.4584 72.8957 70.8999 73.4001 70.41C73.9117 69.92 74.517 69.5309 75.216 69.2426C75.9221 68.9544 76.7076 68.8103 77.5722 68.8103C78.2208 68.8103 78.8693 68.8967 79.5178 69.0697C80.1663 69.2426 80.7716 69.4696 81.3336 69.7506C81.8957 70.0317 82.3713 70.3379 82.7604 70.6694L81.3012 73.4147C80.9914 73.1481 80.6383 72.9103 80.242 72.7014C79.8529 72.4852 79.4349 72.3123 78.9882 72.1826C78.5486 72.0529 78.1019 71.988 77.6479 71.988C77.1363 71.988 76.7003 72.0781 76.3401 72.2582C75.987 72.4384 75.7132 72.6798 75.5186 72.9824C75.3313 73.2778 75.2376 73.6093 75.2376 73.9768C75.2376 74.2794 75.2988 74.5388 75.4213 74.755C75.551 74.964 75.7312 75.1477 75.9618 75.3063C76.1923 75.4576 76.4698 75.6053 76.794 75.7494C77.1183 75.8863 77.475 76.034 77.8641 76.1926C78.6999 76.5456 79.4565 76.8951 80.1339 77.241C80.8112 77.5869 81.3913 77.9724 81.8741 78.3975C82.3569 78.8155 82.7243 79.3054 82.9765 79.8675C83.236 80.4295 83.3657 81.0997 83.3657 81.8779C83.3657 83.0164 83.0918 83.9928 82.5442 84.807C82.0038 85.6213 81.2472 86.2446 80.2744 86.6769C79.3016 87.1021 78.1667 87.3146 76.8697 87.3146ZM86.9572 86.9688V69.1345H90.4591V86.9688H86.9572ZM95.3381 86.9688V69.1345H98.84V83.8991H105.282V86.9688H95.3381ZM113.362 86.9688L105.883 69.1345H109.839L114.735 81.705L119.642 69.1345H123.587L116.108 86.9688H113.362ZM126.202 86.9688V69.1345H129.704V86.9688H126.202ZM134.583 86.9688V69.1345H138.085L145.77 81.1321V69.1345H149.272V86.9688H145.77L138.085 74.9712V86.9688H134.583ZM154.131 86.9688V69.1345H164.053V72.2042H157.633V76.4952H163.794V79.5648H157.633V83.8991H164.053V86.9688H154.131Z" fill="white"/>
<path d="M76.6929 93.1471V96.4375H76.2469V93.1471H76.6929ZM84.3686 96.4375H83.9226V93.1471H84.3686L86.0525 95.6911V93.1471H86.4985V96.4375H86.0525L84.3686 93.8935V96.4375ZM94.6419 96.4375L93.3904 93.1471H93.8683L94.6692 95.2497C94.7421 95.4363 94.8058 95.6229 94.874 95.8686C94.9514 95.6092 95.0288 95.3908 95.0834 95.2451L95.8798 93.1471H96.344L95.1061 96.4375H94.6419ZM105.241 96.4375H103.234V93.1471H105.241V93.5567H103.68V94.5852H105.086V94.9812H103.68V96.0234H105.241V96.4375ZM112.158 94.0346C112.158 93.4703 112.614 93.088 113.292 93.088C113.92 93.088 114.325 93.4384 114.361 94.0073H113.911C113.888 93.6796 113.656 93.4885 113.287 93.4885C112.873 93.4885 112.604 93.6978 112.604 94.0209C112.604 94.2849 112.755 94.4442 113.064 94.517L113.606 94.6444C114.143 94.7673 114.416 95.0585 114.416 95.5228C114.416 96.1144 113.956 96.4921 113.255 96.4921C112.586 96.4921 112.14 96.1417 112.113 95.5774H112.568C112.577 95.8914 112.841 96.0916 113.255 96.0916C113.692 96.0916 113.97 95.8868 113.97 95.5592C113.97 95.2998 113.829 95.1359 113.515 95.0631L112.973 94.9402C112.436 94.8173 112.158 94.5079 112.158 94.0346ZM121.076 93.5567V93.1471H123.501V93.5567H122.514V96.4375H122.068V93.5567H121.076ZM130.849 96.4375H130.412V93.1471H130.849L131.982 95.9141L133.115 93.1471H133.561V96.4375H133.125V95.1359C133.125 94.5215 133.129 94.2985 133.152 94.0664L132.192 96.4375H131.773L130.817 94.0755C130.84 94.2348 130.849 94.5716 130.849 95.0312V96.4375ZM142.797 96.4375H140.79V93.1471H142.797V93.5567H141.236V94.5852H142.642V94.9812H141.236V96.0234H142.797V96.4375ZM150.352 96.4375H149.906V93.1471H150.352L152.036 95.6911V93.1471H152.482V96.4375H152.036L150.352 93.8935V96.4375ZM159.392 93.5567V93.1471H161.817V93.5567H160.83V96.4375H160.384V93.5567H159.392Z" fill="white"/>
</g>
<defs>
<filter id="filter0_b_237_18075" x="-4" y="-4" width="210" height="173" filterUnits="userSpaceOnUse" color-interpolation-filters="sRGB">
<feFlood flood-opacity="0" result="BackgroundImageFix"/>
<feGaussianBlur in="BackgroundImageFix" stdDeviation="2"/>
<feComposite in2="SourceAlpha" operator="in" result="effect1_backgroundBlur_237_18075"/>
<feBlend mode="normal" in="SourceGraphic" in2="effect1_backgroundBlur_237_18075" result="shape"/>
</filter>
<clipPath id="clip0_237_18075">
<rect x="35" y="66.8203" width="30.4951" height="30.4951" rx="2.57705" fill="white"/>
</clipPath>
</defs>
</svg>
