<svg width="206" height="234" viewBox="0 0 206 234" fill="none" xmlns="http://www.w3.org/2000/svg">
<path d="M81.7134 66.3619C91.1742 49.9754 114.826 49.9754 124.287 66.3619L170.266 146.001C179.727 162.387 167.901 182.87 148.98 182.87H57.0207C38.0992 182.87 26.2732 162.387 35.734 146.001L81.7134 66.3619Z" fill="url(#paint0_linear_100_16158)"/>
<path d="M81.7134 167.638C91.1742 184.025 114.826 184.025 124.287 167.638L170.266 87.9994C179.727 71.6128 167.901 51.1297 148.98 51.1297H57.0207C38.0992 51.1297 26.2732 71.6129 35.734 87.9994L81.7134 167.638Z" fill="url(#paint1_linear_100_16158)"/>
<path d="M83.3528 214.18C82.5828 214.18 81.9078 214.045 81.3278 213.775C80.7478 213.505 80.2928 213.12 79.9628 212.62C79.6428 212.12 79.4778 211.525 79.4678 210.835H81.1478C81.1578 211.395 81.3528 211.87 81.7328 212.26C82.1128 212.65 82.6478 212.845 83.3378 212.845C83.9478 212.845 84.4228 212.7 84.7628 212.41C85.1128 212.11 85.2878 211.73 85.2878 211.27C85.2878 210.9 85.2028 210.6 85.0328 210.37C84.8728 210.14 84.6478 209.95 84.3578 209.8C84.0778 209.65 83.7528 209.515 83.3828 209.395C83.0128 209.275 82.6228 209.145 82.2128 209.005C81.4028 208.735 80.7928 208.385 80.3828 207.955C79.9828 207.525 79.7828 206.96 79.7828 206.26C79.7728 205.67 79.9078 205.155 80.1878 204.715C80.4778 204.275 80.8778 203.935 81.3878 203.695C81.9078 203.445 82.5128 203.32 83.2028 203.32C83.8828 203.32 84.4778 203.445 84.9878 203.695C85.5078 203.945 85.9128 204.295 86.2028 204.745C86.4928 205.185 86.6428 205.7 86.6528 206.29H84.9728C84.9728 206.02 84.9028 205.765 84.7628 205.525C84.6228 205.275 84.4178 205.07 84.1478 204.91C83.8778 204.75 83.5478 204.67 83.1578 204.67C82.6578 204.66 82.2428 204.785 81.9128 205.045C81.5928 205.305 81.4328 205.665 81.4328 206.125C81.4328 206.535 81.5528 206.85 81.7928 207.07C82.0328 207.29 82.3628 207.475 82.7828 207.625C83.2028 207.765 83.6828 207.93 84.2228 208.12C84.7428 208.29 85.2078 208.495 85.6178 208.735C86.0278 208.975 86.3528 209.29 86.5928 209.68C86.8428 210.07 86.9678 210.565 86.9678 211.165C86.9678 211.695 86.8328 212.19 86.5628 212.65C86.2928 213.1 85.8878 213.47 85.3478 213.76C84.8078 214.04 84.1428 214.18 83.3528 214.18ZM88.6461 214V203.2H90.2361V209.635L93.0861 206.56H94.9911L91.8261 209.935L95.4561 214H93.4461L90.2361 210.19V214H88.6461ZM99.5968 214.18C98.8668 214.18 98.2168 214.02 97.6468 213.7C97.0868 213.37 96.6468 212.915 96.3268 212.335C96.0068 211.755 95.8468 211.08 95.8468 210.31C95.8468 209.53 96.0018 208.845 96.3118 208.255C96.6318 207.665 97.0718 207.205 97.6318 206.875C98.2018 206.545 98.8618 206.38 99.6118 206.38C100.342 206.38 100.977 206.545 101.517 206.875C102.057 207.195 102.477 207.625 102.777 208.165C103.077 208.705 103.227 209.3 103.227 209.95C103.227 210.05 103.222 210.16 103.212 210.28C103.212 210.39 103.207 210.515 103.197 210.655H97.4068C97.4568 211.375 97.6918 211.925 98.1118 212.305C98.5418 212.675 99.0368 212.86 99.5968 212.86C100.047 212.86 100.422 212.76 100.722 212.56C101.032 212.35 101.262 212.07 101.412 211.72H103.002C102.802 212.42 102.402 213.005 101.802 213.475C101.212 213.945 100.477 214.18 99.5968 214.18ZM99.5968 207.685C99.0668 207.685 98.5968 207.845 98.1868 208.165C97.7768 208.475 97.5268 208.945 97.4368 209.575H101.637C101.607 208.995 101.402 208.535 101.022 208.195C100.642 207.855 100.167 207.685 99.5968 207.685ZM107.806 214C107.076 214 106.496 213.825 106.066 213.475C105.636 213.115 105.421 212.48 105.421 211.57V207.895H104.146V206.56H105.421L105.616 204.67H107.011V206.56H109.111V207.895H107.011V211.57C107.011 211.98 107.096 212.265 107.266 212.425C107.446 212.575 107.751 212.65 108.181 212.65H109.036V214H107.806ZM114.085 214.18C113.355 214.18 112.7 214.015 112.12 213.685C111.55 213.355 111.1 212.9 110.77 212.32C110.45 211.73 110.29 211.05 110.29 210.28C110.29 209.51 110.45 208.835 110.77 208.255C111.1 207.665 111.55 207.205 112.12 206.875C112.7 206.545 113.355 206.38 114.085 206.38C115.005 206.38 115.775 206.62 116.395 207.1C117.025 207.58 117.43 208.23 117.61 209.05H115.945C115.845 208.64 115.625 208.32 115.285 208.09C114.945 207.86 114.545 207.745 114.085 207.745C113.695 207.745 113.335 207.845 113.005 208.045C112.675 208.235 112.41 208.52 112.21 208.9C112.01 209.27 111.91 209.73 111.91 210.28C111.91 210.83 112.01 211.295 112.21 211.675C112.41 212.045 112.675 212.33 113.005 212.53C113.335 212.73 113.695 212.83 114.085 212.83C114.545 212.83 114.945 212.715 115.285 212.485C115.625 212.255 115.845 211.93 115.945 211.51H117.61C117.44 212.31 117.04 212.955 116.41 213.445C115.78 213.935 115.005 214.18 114.085 214.18ZM119.335 214V203.2H120.925V207.76C121.175 207.33 121.52 206.995 121.96 206.755C122.41 206.505 122.905 206.38 123.445 206.38C124.335 206.38 125.035 206.66 125.545 207.22C126.055 207.78 126.31 208.615 126.31 209.725V214H124.735V209.89C124.735 208.45 124.16 207.73 123.01 207.73C122.41 207.73 121.91 207.94 121.51 208.36C121.12 208.78 120.925 209.38 120.925 210.16V214H119.335Z" fill="#17374C"/>
<path d="M85.808 91.4251L102.998 89.6201L120.188 91.4251L133.498 109.145L102.998 144.38L72.498 109.145L85.808 91.4251Z" fill="#FDB300"/>
<path d="M84.853 109.145L102.998 144.38L72.498 109.145H84.853ZM121.143 109.145L102.998 144.38L133.498 109.145H121.143Z" fill="#EA6C00"/>
<path d="M84.853 109.145H121.143L102.998 144.38L84.853 109.145Z" fill="#FDAD00"/>
<path d="M102.998 89.6201L85.808 91.4251L84.853 109.145L102.998 89.6201ZM102.998 89.6201L120.188 91.4251L121.143 109.145L102.998 89.6201Z" fill="#FDD231"/>
<path d="M133.498 109.145L120.188 91.4248L121.143 109.145H133.498Z" fill="#FDAD00"/>
<path d="M102.998 89.6201L84.853 109.145H121.143L102.998 89.6201Z" fill="#FEEEB7"/>
<path d="M72.498 109.145L85.808 91.4248L84.853 109.145H72.498Z" fill="#FDAD00"/>
<defs>
<linearGradient id="paint0_linear_100_16158" x1="103" y1="29.4922" x2="145.523" y2="213.595" gradientUnits="userSpaceOnUse">
<stop offset="0.163095" stop-color="#FCE0AE" stop-opacity="0.11"/>
<stop offset="0.717676" stop-color="#FF972C" stop-opacity="0.11"/>
</linearGradient>
<linearGradient id="paint1_linear_100_16158" x1="103" y1="204.508" x2="145.523" y2="20.4049" gradientUnits="userSpaceOnUse">
<stop offset="0.163095" stop-color="#FCE0AE" stop-opacity="0.11"/>
<stop offset="0.717676" stop-color="#FF972C" stop-opacity="0.11"/>
</linearGradient>
</defs>
</svg>
