<svg width="206" height="234" viewBox="0 0 206 234" fill="none" xmlns="http://www.w3.org/2000/svg">
<path d="M81.7134 66.3619C91.1742 49.9754 114.826 49.9754 124.287 66.3619L170.266 146.001C179.727 162.387 167.901 182.87 148.98 182.87H57.0207C38.0992 182.87 26.2732 162.387 35.734 146.001L81.7134 66.3619Z" fill="url(#paint0_linear_100_16157)"/>
<path d="M81.7134 167.638C91.1742 184.025 114.826 184.025 124.287 167.638L170.266 87.9994C179.727 71.6128 167.901 51.1297 148.98 51.1297H57.0207C38.0992 51.1297 26.2732 71.6129 35.734 87.9994L81.7134 167.638Z" fill="url(#paint1_linear_100_16157)"/>
<path d="M89.7614 214.18C88.9914 214.18 88.3164 214.045 87.7364 213.775C87.1564 213.505 86.7014 213.12 86.3714 212.62C86.0514 212.12 85.8864 211.525 85.8764 210.835H87.5564C87.5664 211.395 87.7614 211.87 88.1414 212.26C88.5214 212.65 89.0564 212.845 89.7464 212.845C90.3564 212.845 90.8314 212.7 91.1714 212.41C91.5214 212.11 91.6964 211.73 91.6964 211.27C91.6964 210.9 91.6114 210.6 91.4414 210.37C91.2814 210.14 91.0564 209.95 90.7664 209.8C90.4864 209.65 90.1614 209.515 89.7914 209.395C89.4214 209.275 89.0314 209.145 88.6214 209.005C87.8114 208.735 87.2014 208.385 86.7914 207.955C86.3914 207.525 86.1914 206.96 86.1914 206.26C86.1814 205.67 86.3164 205.155 86.5964 204.715C86.8864 204.275 87.2864 203.935 87.7964 203.695C88.3164 203.445 88.9214 203.32 89.6114 203.32C90.2914 203.32 90.8864 203.445 91.3964 203.695C91.9164 203.945 92.3214 204.295 92.6114 204.745C92.9014 205.185 93.0514 205.7 93.0614 206.29H91.3814C91.3814 206.02 91.3114 205.765 91.1714 205.525C91.0314 205.275 90.8264 205.07 90.5564 204.91C90.2864 204.75 89.9564 204.67 89.5664 204.67C89.0664 204.66 88.6514 204.785 88.3214 205.045C88.0014 205.305 87.8414 205.665 87.8414 206.125C87.8414 206.535 87.9614 206.85 88.2014 207.07C88.4414 207.29 88.7714 207.475 89.1914 207.625C89.6114 207.765 90.0914 207.93 90.6314 208.12C91.1514 208.29 91.6164 208.495 92.0264 208.735C92.4364 208.975 92.7614 209.29 93.0014 209.68C93.2514 210.07 93.3764 210.565 93.3764 211.165C93.3764 211.695 93.2414 212.19 92.9714 212.65C92.7014 213.1 92.2964 213.47 91.7564 213.76C91.2164 214.04 90.5514 214.18 89.7614 214.18ZM96.5398 214L94.3498 206.56H95.9398L97.3798 212.17L98.9998 206.56H100.77L102.39 212.17L103.83 206.56H105.42L103.23 214H101.595L99.8848 208.15L98.1748 214H96.5398ZM107.63 205.15C107.33 205.15 107.08 205.06 106.88 204.88C106.69 204.69 106.595 204.455 106.595 204.175C106.595 203.895 106.69 203.665 106.88 203.485C107.08 203.295 107.33 203.2 107.63 203.2C107.93 203.2 108.175 203.295 108.365 203.485C108.565 203.665 108.665 203.895 108.665 204.175C108.665 204.455 108.565 204.69 108.365 204.88C108.175 205.06 107.93 205.15 107.63 205.15ZM106.835 214V206.56H108.425V214H106.835ZM110.899 214V207.895H109.834V206.56H110.899V205.48C110.899 204.67 111.099 204.09 111.499 203.74C111.909 203.38 112.484 203.2 113.224 203.2H114.004V204.55H113.464C113.114 204.55 112.864 204.625 112.714 204.775C112.564 204.915 112.489 205.155 112.489 205.495V206.56H114.199V207.895H112.489V214H110.899ZM118.829 214C118.099 214 117.519 213.825 117.089 213.475C116.659 213.115 116.444 212.48 116.444 211.57V207.895H115.169V206.56H116.444L116.639 204.67H118.034V206.56H120.134V207.895H118.034V211.57C118.034 211.98 118.119 212.265 118.289 212.425C118.469 212.575 118.774 212.65 119.204 212.65H120.059V214H118.829Z" fill="#17374C"/>
<path d="M134.163 102.03C134.163 100.715 134.03 99.4036 133.768 98.1151C133.506 96.7961 133.06 95.5203 132.443 94.3251C131.799 93.1674 130.998 92.1041 130.063 91.1651C129.099 90.2218 127.979 89.4522 126.753 88.8901C125.543 88.28 124.249 87.8536 122.913 87.6251C121.588 87.3701 120.133 87.3701 118.808 87.2451H86.1231C85.1036 87.2617 84.0863 87.3469 83.0781 87.5001C82.0777 87.6179 81.0984 87.8737 80.1681 88.2601C79.9031 88.3851 79.5081 88.5151 79.2431 88.6401C78.363 89.1119 77.5264 89.6607 76.7431 90.2801C76.4781 90.5351 76.2131 90.6601 75.9481 90.9101C74.9737 91.814 74.1678 92.884 73.5681 94.0701C72.9133 95.2485 72.4652 96.5304 72.2431 97.8601C72.0461 99.1577 71.9143 100.464 71.8481 101.775V131.97C71.8486 133.285 71.9809 134.597 72.2431 135.885C72.5055 137.204 72.9515 138.48 73.5681 139.675C74.2125 140.833 75.0134 141.896 75.9481 142.835C76.9122 143.778 78.032 144.548 79.2581 145.11C80.4682 145.72 81.7624 146.147 83.0981 146.375C84.4231 146.63 85.8781 146.63 87.2031 146.755H118.813C120.19 146.754 121.564 146.627 122.918 146.375C124.254 146.147 125.548 145.72 126.758 145.11C127.958 144.503 129.071 143.738 130.068 142.835C131.043 141.931 131.849 140.861 132.448 139.675C133.103 138.497 133.551 137.215 133.773 135.885C133.97 134.588 134.102 133.281 134.168 131.97V102.03H134.163Z" fill="#F05138"/>
<path d="M113.498 133.25C107.943 136.315 100.308 136.63 92.623 133.485C86.6311 131.054 81.5079 126.878 77.918 121.5C79.5863 122.777 81.409 123.839 83.343 124.66C91.278 128.21 99.208 127.965 104.793 124.66C96.843 118.83 90.093 111.25 85.063 105.06C84.0704 104.014 83.1843 102.871 82.418 101.65C88.498 106.955 98.168 113.65 101.608 115.545C96.6963 110.512 92.1828 105.106 88.108 99.3747C94.8815 105.957 102.335 111.802 110.343 116.81C110.698 117 110.973 117.16 111.193 117.31C111.428 116.737 111.63 116.151 111.798 115.555C113.653 109.11 111.533 101.785 106.903 95.7197C117.623 101.905 123.998 113.525 121.328 123.255C121.258 123.52 121.183 123.755 121.103 124.03L121.198 124.14C126.493 130.455 125.038 137.14 124.373 135.89C121.498 130.5 116.183 132.165 113.498 133.25Z" fill="#FEFEFE"/>
<defs>
<linearGradient id="paint0_linear_100_16157" x1="103" y1="29.4922" x2="145.523" y2="213.595" gradientUnits="userSpaceOnUse">
<stop offset="0.163095" stop-color="#FCE0AE" stop-opacity="0.11"/>
<stop offset="0.717676" stop-color="#FF972C" stop-opacity="0.11"/>
</linearGradient>
<linearGradient id="paint1_linear_100_16157" x1="103" y1="204.508" x2="145.523" y2="20.4049" gradientUnits="userSpaceOnUse">
<stop offset="0.163095" stop-color="#FCE0AE" stop-opacity="0.11"/>
<stop offset="0.717676" stop-color="#FF972C" stop-opacity="0.11"/>
</linearGradient>
</defs>
</svg>
