<svg width="202" height="165" viewBox="0 0 202 165" fill="none" xmlns="http://www.w3.org/2000/svg">
<g filter="url(#filter0_b_237_18084)">
<rect x="1" y="1" width="200" height="163" rx="9" stroke="white" stroke-width="2"/>
<path fill-rule="evenodd" clip-rule="evenodd" d="M45.8143 92.9858C44.2036 87.6384 41.2989 83.4251 37.0072 79.5668L30.7985 90.3069C32.7266 93.4644 42.1463 96.8601 45.8143 92.9858ZM47.9056 88.8539C49.4038 84.6233 48.9496 80.3093 45.8046 76.5448C44.271 74.7091 43.7632 74.259 42.0206 72.8678C41.7622 72.6608 41.4983 72.4594 41.2309 72.2614L38.3693 77.2109L38.9638 76.1836C42.6707 79.4856 45.8914 83.3015 47.9056 88.8546V88.8539ZM38.2151 70.2951C36.3842 69.2352 34.4415 68.3163 32.4793 67.4877C31.3271 67.0015 28.064 65.6387 26.9437 65.5234C26.0282 70.4389 26.0775 77.9464 27.234 82.75C27.6 84.2704 28.0494 85.6429 28.6301 86.8966L38.2151 70.2951Z" fill="white"/>
<mask id="mask0_237_18084" style="mask-type:luminance" maskUnits="userSpaceOnUse" x="26" y="65" width="23" height="30">
<path d="M45.8143 92.978C44.2036 87.6306 41.2989 83.4173 37.0072 79.559L30.7985 90.2991C32.7266 93.4566 42.1463 96.8523 45.8143 92.978ZM47.9056 88.8461C49.4038 84.6155 48.9496 80.3015 45.8046 76.537C44.271 74.7012 43.7632 74.2512 42.0206 72.86C41.7622 72.653 41.4983 72.4516 41.2309 72.2536L38.3693 77.2031L38.9638 76.1758C42.6707 79.4778 45.8914 83.2937 47.9056 88.8467V88.8461ZM38.2151 70.2873C36.3842 69.2274 34.4415 68.3085 32.4793 67.4798C31.3271 66.9937 28.064 65.6309 26.9437 65.5156C26.0282 70.4311 26.0775 77.9386 27.234 82.7422C27.6 84.2626 28.0494 85.6351 28.6301 86.8888L38.2151 70.2873Z" fill="white"/>
</mask>
<g mask="url(#mask0_237_18084)">
<path d="M26.9433 96.8456C44.2459 96.8456 58.2724 82.8191 58.2724 65.5166C58.2724 48.214 44.2459 34.1875 26.9433 34.1875C9.64075 34.1875 -4.38574 48.214 -4.38574 65.5166C-4.38574 82.8191 9.64075 96.8456 26.9433 96.8456Z" fill="white"/>
<path d="M26.9435 94.0667C42.7128 94.0667 55.4964 81.2831 55.4964 65.5138C55.4964 49.7445 42.7128 36.9609 26.9435 36.9609C11.1742 36.9609 -1.60938 49.7445 -1.60938 65.5138C-1.60938 81.2831 11.1742 94.0667 26.9435 94.0667Z" fill="white"/>
<path d="M26.9432 91.5387C41.3154 91.5387 52.9665 79.8877 52.9665 65.5155C52.9665 51.1432 41.3154 39.4922 26.9432 39.4922C12.5709 39.4922 0.919922 51.1432 0.919922 65.5155C0.919922 79.8877 12.5709 91.5387 26.9432 91.5387Z" fill="white"/>
<path d="M26.9432 88.1462C39.4424 88.1462 49.5749 78.0137 49.5749 65.5145C49.5749 53.0154 39.4424 42.8828 26.9432 42.8828C14.4441 42.8828 4.31152 53.0154 4.31152 65.5145C4.31152 78.0137 14.4441 88.1462 26.9432 88.1462Z" fill="white"/>
<path d="M26.9432 84.6091C37.4883 84.6091 46.0368 76.0606 46.0368 65.5155C46.0368 54.9704 37.4883 46.4219 26.9432 46.4219C16.3981 46.4219 7.84961 54.9704 7.84961 65.5155C7.84961 76.0606 16.3981 84.6091 26.9432 84.6091Z" fill="white"/>
<path d="M26.9437 81.1217C35.5593 81.1217 42.5436 74.1374 42.5436 65.5218C42.5436 56.9062 35.5593 49.9219 26.9437 49.9219C18.3281 49.9219 11.3438 56.9062 11.3438 65.5218C11.3438 74.1374 18.3281 81.1217 26.9437 81.1217Z" fill="white"/>
<path d="M26.9433 77.7068C33.6731 77.7068 39.1287 72.2512 39.1287 65.5214C39.1287 58.7916 33.6731 53.3359 26.9433 53.3359C20.2134 53.3359 14.7578 58.7916 14.7578 65.5214C14.7578 72.2512 20.2134 77.7068 26.9433 77.7068Z" fill="white"/>
<path d="M26.9433 74.4217C31.8598 74.4217 35.8455 70.436 35.8455 65.5194C35.8455 60.6029 31.8598 56.6172 26.9433 56.6172C22.0267 56.6172 18.041 60.6029 18.041 65.5194C18.041 70.436 22.0267 74.4217 26.9433 74.4217Z" fill="white"/>
<path d="M26.9433 71.1893C30.0784 71.1893 32.62 68.6478 32.62 65.5126C32.62 62.3775 30.0784 59.8359 26.9433 59.8359C23.8081 59.8359 21.2666 62.3775 21.2666 65.5126C21.2666 68.6478 23.8081 71.1893 26.9433 71.1893Z" fill="white"/>
<path fill-rule="evenodd" clip-rule="evenodd" d="M26.9429 61.7422C29.028 61.7422 30.7179 63.4321 30.7179 65.5171C30.7179 67.6022 29.028 69.2921 26.9429 69.2921C24.8578 69.2921 23.168 67.6022 23.168 65.5171C23.168 63.4321 24.8578 61.7422 26.9429 61.7422Z" fill="white"/>
</g>
<path d="M156.018 99.0028V96.6406H156.47L157.863 98.3409H157.644V96.6406H158.184V99.0028H157.735L156.338 97.3018H156.557V99.0028H156.018Z" fill="white"/>
<path d="M158.706 98.9998V97.1842H159.233V98.9998H158.706ZM158.97 96.9314C158.873 96.9314 158.794 96.9029 158.734 96.8466C158.673 96.7904 158.643 96.7209 158.643 96.6376C158.643 96.5542 158.673 96.4848 158.734 96.4285C158.794 96.3722 158.873 96.3438 158.97 96.3438C159.066 96.3438 159.145 96.3701 159.206 96.4229C159.266 96.4757 159.297 96.5438 159.297 96.6271C159.297 96.7147 159.267 96.7876 159.207 96.8445C159.148 96.9022 159.068 96.9307 158.969 96.9307L158.97 96.9314Z" fill="white"/>
<path d="M160.576 99.681C160.405 99.681 160.241 99.6602 160.082 99.6185C159.924 99.5768 159.791 99.5143 159.686 99.4316L159.895 99.0538C159.971 99.117 160.069 99.167 160.187 99.2045C160.305 99.2413 160.421 99.2601 160.536 99.2601C160.723 99.2601 160.858 99.2184 160.942 99.1351C161.027 99.0517 161.069 98.9281 161.069 98.7635V98.4905L161.103 98.0349L161.096 97.5758V97.184H161.595V98.6954C161.595 99.033 161.508 99.2816 161.332 99.4414C161.156 99.6011 160.905 99.681 160.576 99.681H160.576ZM160.495 98.9114C160.326 98.9114 160.174 98.8746 160.038 98.8017C159.902 98.7287 159.793 98.626 159.711 98.4947C159.629 98.3634 159.588 98.2092 159.588 98.0342C159.588 97.8564 159.629 97.7015 159.711 97.5702C159.793 97.4389 159.903 97.3368 160.038 97.2646C160.174 97.1924 160.326 97.1562 160.495 97.1562C160.648 97.1562 160.783 97.1868 160.9 97.2493C161.017 97.3111 161.108 97.407 161.174 97.5362C161.239 97.6654 161.272 97.8314 161.272 98.0342C161.272 98.2342 161.239 98.3995 161.174 98.5287C161.108 98.6579 161.017 98.7538 160.9 98.817C160.783 98.8802 160.648 98.9114 160.495 98.9114ZM160.6 98.4794C160.692 98.4794 160.774 98.4606 160.846 98.4238C160.919 98.3863 160.975 98.3342 161.015 98.2669C161.056 98.1995 161.076 98.1217 161.076 98.0342C161.076 97.9439 161.056 97.8661 161.015 97.7994C160.975 97.7327 160.919 97.6813 160.846 97.6438C160.774 97.607 160.692 97.5883 160.6 97.5883C160.507 97.5883 160.426 97.607 160.353 97.6438C160.281 97.6813 160.225 97.7327 160.183 97.7994C160.141 97.8661 160.121 97.9439 160.121 98.0342C160.121 98.1217 160.141 98.1995 160.183 98.2669C160.225 98.3342 160.282 98.3863 160.353 98.4238C160.426 98.4613 160.507 98.4794 160.6 98.4794Z" fill="white"/>
<path d="M162.985 99.0246C162.778 99.0246 162.596 98.9843 162.439 98.9031C162.283 98.8218 162.162 98.7114 162.077 98.5711C161.991 98.4308 161.948 98.2703 161.948 98.0904C161.948 97.9078 161.991 97.7466 162.075 97.6063C162.159 97.466 162.274 97.3556 162.421 97.2757C162.567 97.1958 162.732 97.1562 162.916 97.1562C163.094 97.1562 163.255 97.1938 163.398 97.2695C163.541 97.3445 163.654 97.4528 163.737 97.5931C163.82 97.7341 163.862 97.9022 163.862 98.0974C163.862 98.1175 163.86 98.1411 163.858 98.1668C163.856 98.1925 163.854 98.2168 163.852 98.2398H162.377V97.9328H163.576L163.373 98.0238C163.373 97.9293 163.353 97.8473 163.316 97.7772C163.278 97.7077 163.225 97.6529 163.157 97.6133C163.09 97.5737 163.011 97.5542 162.921 97.5542C162.831 97.5542 162.752 97.5737 162.683 97.6133C162.614 97.6529 162.561 97.7077 162.523 97.7786C162.484 97.8494 162.465 97.9335 162.465 98.03V98.1113C162.465 98.2106 162.487 98.2974 162.531 98.3724C162.575 98.4481 162.637 98.5051 162.716 98.5447C162.796 98.5843 162.89 98.6037 162.998 98.6037C163.095 98.6037 163.18 98.5891 163.253 98.56C163.327 98.5308 163.394 98.4863 163.454 98.4287L163.734 98.7322C163.651 98.8267 163.546 98.8996 163.42 98.9496C163.294 99.0003 163.149 99.0253 162.985 99.0253V99.0246Z" fill="white"/>
<path d="M164.214 98.9982V97.1826H164.717V97.6959L164.646 97.5473C164.7 97.4188 164.786 97.3216 164.906 97.2556C165.025 97.1896 165.17 97.1562 165.341 97.1562V97.6424C165.319 97.6404 165.299 97.6383 165.281 97.6376C165.263 97.6362 165.243 97.6362 165.223 97.6362C165.079 97.6362 164.963 97.6772 164.874 97.7591C164.785 97.8411 164.74 97.9689 164.74 98.1425V98.9996H164.214V98.9982Z" fill="white"/>
<path d="M165.654 98.9998V97.1842H166.18V98.9998H165.654ZM165.917 96.9314C165.82 96.9314 165.741 96.9029 165.681 96.8466C165.62 96.7904 165.59 96.7209 165.59 96.6376C165.59 96.5542 165.62 96.4848 165.681 96.4285C165.741 96.3722 165.82 96.3438 165.917 96.3438C166.014 96.3438 166.093 96.3701 166.153 96.4229C166.214 96.4757 166.244 96.5438 166.244 96.6271C166.244 96.7147 166.214 96.7876 166.155 96.8445C166.095 96.9022 166.016 96.9307 165.916 96.9307L165.917 96.9314Z" fill="white"/>
<path d="M167.784 98.9989V98.6447L167.75 98.5669V97.9328C167.75 97.8202 167.716 97.732 167.647 97.6695C167.578 97.6063 167.473 97.5751 167.332 97.5751C167.235 97.5751 167.14 97.5903 167.046 97.6202C166.953 97.6508 166.874 97.6918 166.808 97.7438L166.619 97.3757C166.718 97.3063 166.837 97.2521 166.977 97.2139C167.116 97.1757 167.258 97.1562 167.402 97.1562C167.678 97.1562 167.894 97.2215 168.046 97.3521C168.199 97.4827 168.276 97.6862 168.276 97.9633V98.9989H167.783H167.784ZM167.23 99.026C167.089 99.026 166.967 99.0017 166.866 98.9531C166.764 98.9052 166.687 98.8392 166.633 98.7558C166.579 98.6725 166.552 98.5794 166.552 98.4752C166.552 98.3669 166.578 98.2731 166.631 98.1918C166.684 98.1106 166.767 98.0474 166.882 98.0015C166.997 97.955 167.147 97.9321 167.331 97.9321H167.814V98.2391H167.389C167.265 98.2391 167.18 98.2592 167.134 98.2995C167.088 98.3398 167.064 98.3905 167.064 98.4516C167.064 98.519 167.091 98.5725 167.144 98.6121C167.196 98.6516 167.269 98.6711 167.361 98.6711C167.448 98.6711 167.528 98.6503 167.597 98.6086C167.667 98.5669 167.717 98.5058 167.749 98.4245L167.83 98.6676C167.792 98.7843 167.723 98.8732 167.621 98.9343C167.52 98.9948 167.39 99.0253 167.23 99.0253V99.026Z" fill="white"/>
<path d="M169.744 99.0028V96.6406H170.291V98.5569H171.476V99.0028H169.744Z" fill="white"/>
<path d="M172.471 99.0254C172.258 99.0254 172.091 98.9705 171.972 98.8615C171.852 98.7524 171.793 98.5899 171.793 98.3739V96.7812H172.32V98.3669C172.32 98.4433 172.34 98.5024 172.38 98.5441C172.42 98.5857 172.476 98.6066 172.546 98.6066C172.629 98.6066 172.7 98.5836 172.758 98.5392L172.9 98.9101C172.846 98.9483 172.782 98.9768 172.706 98.9962C172.63 99.0157 172.552 99.0247 172.471 99.0247V99.0254ZM171.513 97.6286V97.2237H172.771V97.6286H171.513Z" fill="white"/>
<path d="M173.919 99.0303C173.748 99.0303 173.593 98.9914 173.456 98.9136C173.319 98.8358 173.21 98.7275 173.13 98.5879C173.05 98.4483 173.011 98.2843 173.011 98.0954C173.011 97.9037 173.05 97.7391 173.13 97.5995C173.21 97.4599 173.318 97.3522 173.456 97.2751C173.593 97.1987 173.748 97.1605 173.919 97.1605C174.071 97.1605 174.205 97.1946 174.32 97.2619C174.435 97.3293 174.524 97.4314 174.587 97.5689C174.65 97.7058 174.681 97.8815 174.681 98.0954C174.681 98.3066 174.651 98.4816 174.59 98.6198C174.53 98.758 174.442 98.8615 174.328 98.9289C174.215 98.9963 174.078 99.0303 173.919 99.0303ZM174.01 98.5983C174.095 98.5983 174.173 98.5781 174.242 98.5379C174.312 98.4976 174.367 98.4392 174.409 98.3642C174.451 98.2885 174.471 98.1996 174.471 98.0961C174.471 97.9905 174.451 97.9002 174.409 97.8259C174.367 97.7516 174.312 97.6947 174.242 97.6537C174.173 97.6134 174.095 97.5932 174.01 97.5932C173.922 97.5932 173.843 97.6134 173.773 97.6537C173.704 97.694 173.648 97.7516 173.607 97.8259C173.565 97.9002 173.544 97.9905 173.544 98.0961C173.544 98.1996 173.565 98.2892 173.607 98.3642C173.648 98.4392 173.704 98.4976 173.773 98.5379C173.843 98.5781 173.922 98.5983 174.01 98.5983ZM174.485 99.0032V98.6323L174.496 98.0919L174.462 97.5557V96.5H174.989V99.0039H174.486L174.485 99.0032Z" fill="white"/>
<path d="M175.673 99.0222C175.583 99.0222 175.505 98.9916 175.442 98.9291C175.378 98.8673 175.346 98.7881 175.346 98.6909C175.346 98.5943 175.378 98.5158 175.442 98.4568C175.506 98.3971 175.583 98.3672 175.673 98.3672C175.765 98.3672 175.842 98.3971 175.906 98.4568C175.969 98.5165 176 98.5943 176 98.6909C176 98.7874 175.968 98.8673 175.906 98.9291C175.842 98.9909 175.765 99.0222 175.673 99.0222Z" fill="white"/>
<path d="M66.7381 79.1882V83.1437H66.3623C66.1303 82.2304 65.8761 81.5747 65.5962 81.1767C65.3163 80.7753 64.9294 80.4586 64.4398 80.2224C64.1668 80.0939 63.6883 80.0272 63.0027 80.0272H61.8977V91.3417C61.8977 92.0967 61.9379 92.5683 62.0192 92.7558C62.1005 92.9434 62.2623 93.1094 62.4978 93.249C62.7374 93.3927 63.0611 93.4629 63.4736 93.4629H63.9522V93.8387H56.3279V93.4629H56.8107C57.2309 93.4629 57.5698 93.3858 57.8268 93.2344C58.0109 93.1316 58.1581 92.9579 58.2651 92.7114C58.3422 92.5384 58.3832 92.0814 58.3832 91.3417V80.0272H57.3219C56.3425 80.0272 55.632 80.237 55.1861 80.653C54.5638 81.2351 54.1727 82.0637 54.0074 83.1431H53.5879V79.1875H66.7367L66.7381 79.1882ZM70.8228 83.7404L70.8305 86.0387C71.4931 84.9968 72.0793 84.3037 72.5801 83.9654C73.0809 83.623 73.5636 83.4535 74.0276 83.4535C74.429 83.4535 74.7534 83.5785 74.9923 83.8251C75.2319 84.0717 75.3535 84.4217 75.3535 84.8746C75.3535 85.3532 75.2354 85.7289 75.0034 85.9942C74.7714 86.2596 74.4915 86.3922 74.1602 86.3922C73.781 86.3922 73.4531 86.2707 73.1767 86.0276C72.8968 85.7803 72.7315 85.6442 72.6836 85.6185C72.6099 85.574 72.5287 85.5518 72.437 85.5518C72.2307 85.5518 72.0321 85.6289 71.8473 85.788C71.5528 86.0345 71.3319 86.3846 71.1805 86.8374C70.9527 87.5334 70.8381 88.3037 70.8381 89.1469L70.845 91.4632V92.071C70.845 92.4836 70.8707 92.7489 70.9228 92.867C71.0076 93.0621 71.1361 93.2059 71.3055 93.2941C71.4792 93.3865 71.766 93.4414 72.171 93.4636V93.8394H66.6902V93.4636C67.1326 93.4268 67.4306 93.3052 67.5855 93.1024C67.7397 92.8961 67.8174 92.3551 67.8174 91.4744V85.8831C67.8174 85.2976 67.7876 84.9253 67.7292 84.7635C67.6591 84.5572 67.5521 84.4099 67.416 84.3141C67.2798 84.2182 67.0368 84.1523 66.6902 84.1154V83.7397H70.8228V83.7404ZM82.0234 92.3363C80.7926 93.4268 79.6841 93.9713 78.7089 93.9713C78.1303 93.9713 77.6518 93.7838 77.2684 93.4046C76.8892 93.0288 76.6975 92.5537 76.6975 91.9862C76.6975 91.2167 77.0295 90.5242 77.6921 89.9088C78.3547 89.2941 79.7987 88.4759 82.0234 87.4563V86.4436C82.0234 85.6845 81.9824 85.2066 81.8977 85.0073C81.8164 84.8121 81.6587 84.6391 81.4267 84.4912C81.1948 84.3439 80.9329 84.2703 80.6461 84.2703C80.1744 84.2703 79.7883 84.3731 79.4861 84.5836C79.2986 84.7121 79.2062 84.8635 79.2062 85.0364C79.2062 85.1872 79.3055 85.3712 79.5084 85.5963C79.7813 85.906 79.9175 86.204 79.9175 86.4915C79.9175 86.8416 79.789 87.1437 79.5236 87.3903C79.2625 87.6376 78.9194 87.7626 78.4957 87.7626C78.0428 87.7626 77.6636 87.6265 77.3573 87.3535C77.0517 87.0805 76.8968 86.7603 76.8968 86.3957C76.8968 85.8762 77.1031 85.383 77.5122 84.9114C77.9247 84.444 78.4957 84.0828 79.2284 83.8286C79.9654 83.5778 80.728 83.4528 81.5198 83.4528C82.4769 83.4528 83.2361 83.6556 83.7924 84.0606C84.3523 84.4655 84.7134 84.9045 84.8787 85.3795C84.9781 85.681 85.0301 86.3735 85.0301 87.457V91.3646C85.0301 91.8209 85.0482 92.112 85.085 92.23C85.1225 92.3481 85.1739 92.4363 85.2469 92.4954C85.3205 92.5502 85.4017 92.5801 85.4934 92.5801C85.6851 92.5801 85.8768 92.4516 86.0755 92.1932L86.3998 92.444C86.0387 92.9781 85.6664 93.3684 85.2802 93.6081C84.8968 93.8512 84.4592 93.9727 83.9695 93.9727C83.3944 93.9727 82.9416 93.8366 82.6179 93.5678C82.2936 93.2948 82.0984 92.8864 82.0248 92.337L82.0234 92.3363ZM82.0234 91.541V88.1821C81.1538 88.694 80.5058 89.2392 80.0786 89.8213C79.7987 90.2082 79.6584 90.602 79.6584 90.9965C79.6584 91.3278 79.7765 91.6188 80.0161 91.8696C80.1967 92.0647 80.4467 92.1606 80.7711 92.1606C81.1323 92.1606 81.5483 91.9543 82.0234 91.5417V91.541ZM91.6362 83.7404V85.0441C92.1515 84.4877 92.6488 84.0863 93.1239 83.8321C93.599 83.5778 94.1074 83.4528 94.652 83.4528C95.3076 83.4528 95.8494 83.6334 96.28 83.9981C96.7106 84.3627 96.9982 84.8156 97.142 85.3538C97.2566 85.7664 97.3149 86.5548 97.3149 87.7182V91.6515C97.3149 92.4287 97.3851 92.9107 97.5247 93.1024C97.665 93.2941 97.9553 93.4115 98.3978 93.4636V93.8394H93.2927V93.4636C93.6761 93.4122 93.9484 93.2538 94.1137 92.9885C94.2283 92.8079 94.2866 92.362 94.2866 91.6515V87.1583C94.2866 86.3297 94.2533 85.8067 94.1908 85.5928C94.1248 85.3754 94.0178 85.2094 93.8629 85.0885C93.708 84.9705 93.5386 84.9114 93.351 84.9114C92.7363 84.9114 92.1654 85.3462 91.6348 86.2158V91.6522C91.6348 92.4072 91.7049 92.8857 91.8445 93.085C91.9841 93.2879 92.246 93.4129 92.6287 93.4643V93.84H87.5236V93.4643C87.9473 93.4198 88.2453 93.2837 88.4259 93.0552C88.5474 92.8968 88.6065 92.4287 88.6065 91.6522V85.929C88.6065 85.1587 88.5363 84.676 88.3967 84.4884C88.2564 84.2967 87.9661 84.1752 87.5236 84.1161V83.7404H91.6341H91.6362ZM108.011 91.2208L108.347 91.4792C107.872 92.3738 107.278 93.0371 106.568 93.4719C105.857 93.9102 105.102 94.1276 104.303 94.1276C102.955 94.1276 101.88 93.6226 101.073 92.61C100.267 91.5973 99.8612 90.3776 99.8612 88.9559C99.8612 87.5862 100.229 86.3776 100.963 85.3393C101.85 84.0835 103.069 83.4535 104.623 83.4535C105.669 83.4535 106.498 83.7147 107.113 84.2418C107.729 84.7649 108.038 85.3504 108.038 85.9949C108.038 86.404 107.913 86.7319 107.665 86.9784C107.415 87.2215 107.091 87.3431 106.689 87.3431C106.262 87.3431 105.912 87.2035 105.636 86.9236C105.356 86.6437 105.186 86.1429 105.12 85.4247C105.079 84.9718 104.972 84.6551 104.806 84.4745C104.64 84.2939 104.445 84.2057 104.224 84.2057C103.879 84.2057 103.583 84.3898 103.337 84.7544C102.965 85.3066 102.777 86.154 102.777 87.2917C102.777 88.2384 102.928 89.1441 103.23 90.0102C103.535 90.8756 103.948 91.5167 104.475 91.9404C104.873 92.2502 105.341 92.4044 105.882 92.4044C106.236 92.4044 106.571 92.3231 106.888 92.1578C107.205 91.9918 107.581 91.6827 108.011 91.2222V91.2208ZM118.155 88.4259H112.608C112.675 89.7623 113.032 90.8194 113.68 91.5973C114.177 92.1939 114.774 92.4919 115.474 92.4919C115.908 92.4919 116.299 92.3703 116.652 92.1307C117.006 91.8918 117.386 91.457 117.787 90.834L118.155 91.0771C117.61 92.1856 117.002 92.9739 116.343 93.4344C115.681 93.8949 114.915 94.1269 114.041 94.1269C112.546 94.1269 111.412 93.5518 110.642 92.403C110.023 91.4785 109.714 90.3297 109.714 88.9559C109.714 87.2764 110.171 85.9394 111.081 84.9447C111.99 83.9501 113.059 83.4528 114.281 83.4528C115.301 83.4528 116.189 83.8689 116.941 84.7051C117.691 85.5414 118.097 86.7826 118.156 88.4252L118.155 88.4259ZM115.502 87.7182C115.502 86.5617 115.44 85.7664 115.315 85.3351C115.185 84.9045 114.99 84.5759 114.726 84.3551C114.575 84.2266 114.372 84.1599 114.118 84.1599C113.746 84.1599 113.44 84.3439 113.201 84.7086C112.777 85.3497 112.563 86.2262 112.563 87.3417V87.7175H115.502V87.7182ZM126.709 89.8838H120.411V87.6515H126.709V89.8838Z" fill="white"/>
<path d="M135.189 89.66H130.065L129.428 91.0887C129.226 91.5673 129.126 91.9653 129.126 92.2785C129.126 92.6946 129.292 93.0002 129.619 93.1995C129.815 93.3141 130.293 93.4023 131.056 93.4614V93.8371H126.19V93.4614C126.713 93.3801 127.148 93.1592 127.483 92.8022C127.822 92.4411 128.242 91.6972 128.735 90.5706L133.965 78.8984H134.172L139.45 90.8943C139.954 92.0431 140.367 92.7689 140.691 93.0676C140.937 93.2961 141.28 93.4253 141.729 93.4614V93.8371H134.65V93.4614H134.941C135.509 93.4614 135.909 93.3801 136.138 93.2183C136.296 93.1037 136.373 92.9349 136.373 92.7175C136.373 92.5848 136.355 92.4487 136.311 92.3084C136.296 92.2459 136.189 91.9695 135.987 91.4867L135.187 89.66H135.189ZM134.843 88.8647L132.659 83.8743L130.423 88.8647H134.843ZM158.154 83.7382L158.161 86.0365C158.824 84.9946 159.409 84.3015 159.91 83.9632C160.411 83.6208 160.894 83.4513 161.358 83.4513C161.759 83.4513 162.083 83.5763 162.322 83.8229C162.562 84.0695 162.684 84.4195 162.684 84.8724C162.684 85.3509 162.565 85.7267 162.334 85.992C162.102 86.2574 161.822 86.39 161.49 86.39C161.111 86.39 160.783 86.2685 160.507 86.0254C160.227 85.7781 160.061 85.642 160.013 85.6163C159.939 85.5718 159.859 85.5496 159.766 85.5496C159.56 85.5496 159.361 85.6267 159.177 85.7857C158.882 86.0323 158.661 86.3824 158.511 86.8352C158.282 87.5312 158.168 88.3015 158.168 89.1447L158.176 91.461V92.0688C158.176 92.4813 158.202 92.7467 158.253 92.8647C158.338 93.0599 158.466 93.2037 158.636 93.2919C158.809 93.3843 159.097 93.4392 159.502 93.4614V93.8371H154.021V93.4614C154.463 93.4246 154.761 93.303 154.916 93.1002C155.07 92.8939 155.148 92.3529 155.148 91.4721V85.8809C155.148 85.2954 155.118 84.9231 155.059 84.7613C154.989 84.555 154.883 84.4077 154.746 84.3119C154.61 84.216 154.367 84.15 154.021 84.1132V83.7375H158.154V83.7382ZM148.717 81.2627C149.027 79.959 150.883 79.4506 151.833 80.3793C152.386 80.8877 152.452 81.8816 151.855 82.4122C151.236 83.0311 149.933 82.722 149.822 81.7934C149.69 81.1301 150.374 80.7543 150.684 80.2903C150.021 80.4008 149.181 80.6883 149.137 81.5058C148.871 82.6991 149.845 83.5388 150.662 84.2459C152.894 86.2789 152.364 90.4998 149.601 91.7812C148.364 92.4883 146.949 92.157 145.624 92.0028C144.674 92.2674 143.303 93.1738 143.9 94.3233C144.762 95.1853 146.088 94.7213 147.082 94.3671C148.43 93.9253 149.911 93.0856 151.325 93.7267C152.651 94.4115 152.651 96.3119 151.944 97.4392C150.729 99.2513 148.121 99.693 146.177 98.9193C145.204 98.5435 144.674 97.6156 144.078 96.8203C143.481 96.3341 142.663 95.9139 142.641 95.0304C142.331 93.3509 143.923 92.2681 145.249 91.6937C142.707 90.1907 142.309 86.2796 144.409 84.2244C145.602 83.0304 147.459 82.8095 149.049 83.2297C148.806 82.6109 148.497 81.926 148.718 81.2634L148.717 81.2627ZM146.309 83.7597C145.269 84.5772 145.248 86.0136 145.203 87.2291C145.226 88.4668 145.137 89.8364 145.8 90.9415C146.529 92.1792 148.607 92.157 149.314 90.9415C149.888 89.9913 149.867 88.8641 149.911 87.8035C149.888 86.6539 149.933 85.3947 149.336 84.3556C148.739 83.3173 147.236 83.1401 146.309 83.759V83.7597ZM148.585 95.6263C147.259 96.0465 145.955 96.5327 144.585 96.7981C145.623 99.0519 148.849 99.5159 150.684 98.0136C151.346 97.4614 151.567 96.3341 150.882 95.7375C150.241 95.1853 149.313 95.4277 148.584 95.627L148.585 95.6263ZM167.409 83.4721C169.508 81.5933 173.265 81.9253 174.791 84.4001C176.116 86.588 175.984 89.5051 174.768 91.7146C173.553 91.7805 172.227 91.9132 171.299 92.7974C171.277 93.1287 171.255 93.46 171.21 93.7913C170.017 93.5927 168.691 93.5044 167.718 92.6862C166.238 91.5812 165.707 89.6586 165.685 87.891C166.393 88.3334 167.122 88.7307 167.917 88.996C168.05 90.6755 168.359 92.996 170.436 93.2613C170.569 92.1341 170.679 91.0068 170.436 89.8802C170.238 89.0182 169.817 88.2452 169.508 87.4055C170.9 88.4661 171.342 90.3449 171.364 92.0243C172.337 91.5604 173.397 91.627 174.414 91.4937C174.48 90.9193 173.508 91.3832 173.199 91.2068C173.552 88.8203 173.817 86.2122 172.823 83.9583C172.005 82.2122 169.376 82.3671 168.492 83.9806C168.116 83.8257 167.762 83.6486 167.409 83.4721H167.409ZM163.366 83.9583C165.354 83.4937 167.697 83.6486 169.266 85.1072C169.951 85.7038 170.261 86.5873 170.371 87.4715C169.333 86.5873 168.228 85.7038 166.835 85.4829C167.829 86.3664 168.868 87.2068 169.575 88.3334C168.205 88.93 166.459 88.5321 165.73 87.1624C165.111 85.9684 164.471 84.7758 163.366 83.9583ZM172.824 92.1348C173.31 92.1348 173.818 92.1348 174.304 92.157C173.663 92.8418 172.802 93.2843 171.918 93.5711L171.343 93.0634C172.006 93.0856 172.404 92.555 172.824 92.1348Z" fill="white"/>
</g>
<defs>
<filter id="filter0_b_237_18084" x="-4" y="-4" width="210" height="173" filterUnits="userSpaceOnUse" color-interpolation-filters="sRGB">
<feFlood flood-opacity="0" result="BackgroundImageFix"/>
<feGaussianBlur in="BackgroundImageFix" stdDeviation="2"/>
<feComposite in2="SourceAlpha" operator="in" result="effect1_backgroundBlur_237_18084"/>
<feBlend mode="normal" in="SourceGraphic" in2="effect1_backgroundBlur_237_18084" result="shape"/>
</filter>
</defs>
</svg>
