<svg width="40" height="25" viewBox="0 0 40 25" fill="none" xmlns="http://www.w3.org/2000/svg">
<path d="M2.19565 0H37.7971C39.0072 0 39.9928 0.885417 39.9928 1.97266V23.0208C39.9928 24.1081 39.0072 24.9935 37.7971 24.9935H2.19565C0.985507 25 0 24.1146 0 23.0273V1.97266C0 0.885417 0.985507 0 2.19565 0Z" fill="#B22234"/>
<path d="M0.0144928 1.77734H39.9927C40 1.84245 40.0072 1.90755 40.0072 1.97917V3.89323H0V1.97266C0 1.90755 0.00724638 1.84245 0.0144928 1.77734ZM40 5.64453V7.75391H0V5.64453H40ZM40 9.51172V11.6211H0V9.51172H40ZM40 13.3789V15.4883H0V13.3789H40ZM40 17.2461V19.3555H0V17.2461H40ZM40 21.1133V23.0208C40 23.0859 39.9928 23.1576 39.9855 23.2227H0.0144928C0.00724638 23.1641 0 23.0924 0 23.0273V21.1198H40V21.1133Z" fill="white"/>
<path d="M15.0725 0V13.4635H0V1.97266C0 0.885417 0.985507 0 2.19565 0H15.0725Z" fill="#3C3B6E"/>
<path d="M0.891106 1.8623L1.39111 3.26204L0.0722656 2.39616H1.70995L0.38386 3.26204L0.891106 1.8623Z" fill="white"/>
<path d="M0.891106 4.57031L1.39111 5.97005L0.0722656 5.10417H1.70995L0.38386 5.97005L0.891106 4.57031Z" fill="white"/>
<path d="M0.891106 7.27832L1.39111 8.67806L0.0722656 7.81217H1.70995L0.38386 8.67806L0.891106 7.27832Z" fill="white"/>
<path d="M0.891106 9.9873L1.39111 11.387L0.0722656 10.5212H1.70995L0.38386 11.387L0.891106 9.9873Z" fill="white"/>
<path d="M2.65966 0.507812L3.16691 1.90755L1.84082 1.04167H3.48575L2.15241 1.90755L2.65966 0.507812Z" fill="white"/>
<path d="M2.65966 3.21582L3.16691 4.61556L1.84082 3.74967H3.48575L2.15241 4.61556L2.65966 3.21582Z" fill="white"/>
<path d="M2.65966 5.9248L3.16691 7.32454L1.84082 6.45866H3.48575L2.15241 7.32454L2.65966 5.9248Z" fill="white"/>
<path d="M2.65966 8.63281L3.16691 10.0326L1.84082 9.16667H3.48575L2.15241 10.0326L2.65966 8.63281Z" fill="white"/>
<path d="M2.65966 11.3408L3.16691 12.7406L1.84082 11.8747H3.48575L2.15241 12.7406L2.65966 11.3408Z" fill="white"/>
<path d="M4.43456 1.8623L4.94181 3.26204L3.61572 2.39616H5.2534L3.92732 3.26204L4.43456 1.8623Z" fill="white"/>
<path d="M4.43456 4.57031L4.94181 5.97005L3.61572 5.10417H5.2534L3.92732 5.97005L4.43456 4.57031Z" fill="white"/>
<path d="M4.43456 7.27832L4.94181 8.67806L3.61572 7.81217H5.2534L3.92732 8.67806L4.43456 7.27832Z" fill="white"/>
<path d="M4.43456 9.9873L4.94181 11.387L3.61572 10.5212H5.2534L3.92732 11.387L4.43456 9.9873Z" fill="white"/>
<path d="M6.20995 0.507812L6.70995 1.90755L5.39111 1.04167H7.02879L5.70271 1.90755L6.20995 0.507812Z" fill="white"/>
<path d="M6.20995 3.21582L6.70995 4.61556L5.39111 3.74967H7.02879L5.70271 4.61556L6.20995 3.21582Z" fill="white"/>
<path d="M6.20995 5.9248L6.70995 7.32454L5.39111 6.45866H7.02879L5.70271 7.32454L6.20995 5.9248Z" fill="white"/>
<path d="M6.20995 8.63281L6.70995 10.0326L5.39111 9.16667H7.02879L5.70271 10.0326L6.20995 8.63281Z" fill="white"/>
<path d="M6.20995 11.3408L6.70995 12.7406L5.39111 11.8747H7.02879L5.70271 12.7406L6.20995 11.3408Z" fill="white"/>
<path d="M7.97802 1.8623L8.48527 3.26204L7.15918 2.39616H8.79686L7.47077 3.26204L7.97802 1.8623Z" fill="white"/>
<path d="M7.97802 4.57031L8.48527 5.97005L7.15918 5.10417H8.79686L7.47077 5.97005L7.97802 4.57031Z" fill="white"/>
<path d="M7.97802 7.27832L8.48527 8.67806L7.15918 7.81217H8.79686L7.47077 8.67806L7.97802 7.27832Z" fill="white"/>
<path d="M7.97802 9.9873L8.48527 11.387L7.15918 10.5212H8.79686L7.47077 11.387L7.97802 9.9873Z" fill="white"/>
<path d="M9.75341 0.507812L10.2607 1.90755L8.93457 1.04167H10.5723L9.24616 1.90755L9.75341 0.507812Z" fill="white"/>
<path d="M9.75341 3.21582L10.2607 4.61556L8.93457 3.74967H10.5723L9.24616 4.61556L9.75341 3.21582Z" fill="white"/>
<path d="M9.75341 5.9248L10.2607 7.32454L8.93457 6.45866H10.5723L9.24616 7.32454L9.75341 5.9248Z" fill="white"/>
<path d="M9.75341 8.63281L10.2607 10.0326L8.93457 9.16667H10.5723L9.24616 10.0326L9.75341 8.63281Z" fill="white"/>
<path d="M9.75341 11.3408L10.2607 12.7406L8.93457 11.8747H10.5723L9.24616 12.7406L9.75341 11.3408Z" fill="white"/>
<path d="M11.522 1.8623L12.0292 3.26204L10.7031 2.39616H12.3408L11.022 3.26204L11.522 1.8623Z" fill="white"/>
<path d="M11.522 4.57031L12.0292 5.97005L10.7031 5.10417H12.3408L11.022 5.97005L11.522 4.57031Z" fill="white"/>
<path d="M11.522 7.27832L12.0292 8.67806L10.7031 7.81217H12.3408L11.022 8.67806L11.522 7.27832Z" fill="white"/>
<path d="M11.522 9.9873L12.0292 11.387L10.7031 10.5212H12.3408L11.022 11.387L11.522 9.9873Z" fill="white"/>
<path d="M13.2969 0.507812L13.8041 1.90755L12.478 1.04167H14.1157L12.7896 1.90755L13.2969 0.507812Z" fill="white"/>
<path d="M13.2969 3.21582L13.8041 4.61556L12.478 3.74967H14.1157L12.7896 4.61556L13.2969 3.21582Z" fill="white"/>
<path d="M13.2969 5.9248L13.8041 7.32454L12.478 6.45866H14.1157L12.7896 7.32454L13.2969 5.9248Z" fill="white"/>
<path d="M13.2969 8.63281L13.8041 10.0326L12.478 9.16667H14.1157L12.7896 10.0326L13.2969 8.63281Z" fill="white"/>
<path d="M13.2969 11.3408L13.8041 12.7406L12.478 11.8747H14.1157L12.7896 12.7406L13.2969 11.3408Z" fill="white"/>
</svg>
