<svg width="206" height="234" viewBox="0 0 206 234" fill="none" xmlns="http://www.w3.org/2000/svg">
<path d="M81.7134 66.3619C91.1742 49.9754 114.826 49.9754 124.287 66.3619L170.266 146.001C179.727 162.387 167.901 182.87 148.98 182.87H57.0207C38.0992 182.87 26.2732 162.387 35.734 146.001L81.7134 66.3619Z" fill="url(#paint0_linear_100_16159)"/>
<path d="M81.7134 167.638C91.1742 184.025 114.826 184.025 124.287 167.638L170.266 87.9994C179.727 71.6128 167.901 51.1297 148.98 51.1297H57.0207C38.0992 51.1297 26.2732 71.6129 35.734 87.9994L81.7134 167.638Z" fill="url(#paint1_linear_100_16159)"/>
<path d="M93.3053 214L89.4203 203.5H91.1153L94.2653 212.35L97.4303 203.5H99.1103L95.2253 214H93.3053ZM103.007 214.18C102.107 214.18 101.397 213.9 100.877 213.34C100.367 212.78 100.112 211.945 100.112 210.835V206.56H101.702V210.67C101.702 212.11 102.292 212.83 103.472 212.83C104.062 212.83 104.547 212.62 104.927 212.2C105.307 211.78 105.497 211.18 105.497 210.4V206.56H107.087V214H105.677L105.557 212.695C105.327 213.155 104.987 213.52 104.537 213.79C104.097 214.05 103.587 214.18 103.007 214.18ZM112.59 214.18C111.86 214.18 111.21 214.02 110.64 213.7C110.08 213.37 109.64 212.915 109.32 212.335C109 211.755 108.84 211.08 108.84 210.31C108.84 209.53 108.995 208.845 109.305 208.255C109.625 207.665 110.065 207.205 110.625 206.875C111.195 206.545 111.855 206.38 112.605 206.38C113.335 206.38 113.97 206.545 114.51 206.875C115.05 207.195 115.47 207.625 115.77 208.165C116.07 208.705 116.22 209.3 116.22 209.95C116.22 210.05 116.215 210.16 116.205 210.28C116.205 210.39 116.2 210.515 116.19 210.655H110.4C110.45 211.375 110.685 211.925 111.105 212.305C111.535 212.675 112.03 212.86 112.59 212.86C113.04 212.86 113.415 212.76 113.715 212.56C114.025 212.35 114.255 212.07 114.405 211.72H115.995C115.795 212.42 115.395 213.005 114.795 213.475C114.205 213.945 113.47 214.18 112.59 214.18ZM112.59 207.685C112.06 207.685 111.59 207.845 111.18 208.165C110.77 208.475 110.52 208.945 110.43 209.575H114.63C114.6 208.995 114.395 208.535 114.015 208.195C113.635 207.855 113.16 207.685 112.59 207.685Z" fill="#17374C"/>
<path d="M83.9966 89.6963L95.4976 89.7008L103.016 102.18L110.507 89.7018L121.998 89.6988L103.073 122.526L83.9966 89.6963Z" fill="#35495E"/>
<path d="M71.4531 89.7847L83.9866 89.6987L103.062 122.528L121.988 89.7007L134.543 89.7137L103.06 143.744L71.4531 89.7847Z" fill="#41B883"/>
<defs>
<linearGradient id="paint0_linear_100_16159" x1="103" y1="29.4922" x2="145.523" y2="213.595" gradientUnits="userSpaceOnUse">
<stop offset="0.163095" stop-color="#FCE0AE" stop-opacity="0.11"/>
<stop offset="0.717676" stop-color="#FF972C" stop-opacity="0.11"/>
</linearGradient>
<linearGradient id="paint1_linear_100_16159" x1="103" y1="204.508" x2="145.523" y2="20.4049" gradientUnits="userSpaceOnUse">
<stop offset="0.163095" stop-color="#FCE0AE" stop-opacity="0.11"/>
<stop offset="0.717676" stop-color="#FF972C" stop-opacity="0.11"/>
</linearGradient>
</defs>
</svg>
